<svg width="32" height="32" viewBox="0 0 32 32" fill="none" xmlns="http://www.w3.org/2000/svg">
<path d="M13 7C11.4087 7 9.88258 7.63214 8.75736 8.75736C7.63214 9.88258 7 11.4087 7 13V20C7 21.5913 7.63214 23.1174 8.75736 24.2426C9.88258 25.3679 11.4087 26 13 26H20C21.5913 26 23.1174 25.3679 24.2426 24.2426C25.3679 23.1174 26 21.5913 26 20V15C26 14.7348 25.8946 14.4804 25.7071 14.2929C25.5196 14.1054 25.2652 14 25 14H24C23.7348 14 23.4804 13.8946 23.2929 13.7071C23.1054 13.5196 23 13.2652 23 13C23 11.4087 22.3679 9.88258 21.2426 8.75736C20.1174 7.63214 18.5913 7 17 7H13ZM13 11H17C17.55 11 18 12.45 18 13C18 13.55 17.55 15 17 15H13C12.45 15 12 13.55 12 13C12 12.45 12.45 11 13 11ZM13 18H20C20.55 18 21 19.45 21 20C21 20.55 20.55 22 20 22H13C12.45 22 12 20.55 12 20C12 19.45 12.45 18 13 18Z" fill="white"/>
</svg>
