<svg width="73" height="73" viewBox="0 0 73 73" fill="none" xmlns="http://www.w3.org/2000/svg">
<path d="M36.5 63.875C51.6188 63.875 63.875 51.6188 63.875 36.5C63.875 21.3812 51.6188 9.125 36.5 9.125C21.3812 9.125 9.125 21.3812 9.125 36.5C9.125 51.6188 21.3812 63.875 36.5 63.875Z" stroke="#0CCAFF" stroke-width="6.08333" stroke-linecap="round" stroke-linejoin="round"/>
<path d="M34.3921 29.6228L45.625 27.375L43.3772 38.6079C43.1419 39.7852 42.5635 40.8666 41.7148 41.7158C40.8661 42.5651 39.7851 43.1442 38.6079 43.3803L27.375 45.625L29.6228 34.3921C29.8586 33.2153 30.4373 32.1346 31.286 31.286C32.1346 30.4373 33.2153 29.8586 34.3921 29.6228Z" stroke="#0CCAFF" stroke-width="6.08333" stroke-linecap="round" stroke-linejoin="round"/>
</svg>
