<svg width="60" height="60" viewBox="0 0 60 60" fill="none" xmlns="http://www.w3.org/2000/svg">
<g clip-path="url(#clip0_401_473)">
<g clip-path="url(#clip1_401_473)">
<path d="M27.1216 51.1184L29.1216 49.1184C29.2816 48.9584 29.3616 48.7984 29.3616 48.5584V46.8784C29.3616 46.7184 29.2816 46.4784 29.1216 46.3184L27.9216 45.1184C28.4016 44.2384 28.8016 43.3584 29.0416 42.3984H30.7216C30.8816 42.3984 31.1216 42.3184 31.2816 42.1584L32.4816 40.9584C32.6416 40.7984 32.7216 40.6384 32.7216 40.3984V37.5984C32.7216 37.4384 32.6416 37.1984 32.4816 37.0384L31.2016 35.9984C31.0416 35.8384 30.8816 35.7584 30.6416 35.7584H28.9616C28.7216 34.7984 28.3216 33.9184 27.8416 33.0384L29.0416 31.8384C29.2016 31.6784 29.2816 31.5184 29.2816 31.2784V29.5984C29.2816 29.4384 29.2016 29.1984 29.0416 29.0384L27.1216 27.1984C26.9616 27.0384 26.8016 26.9584 26.5616 26.9584H24.8816C24.7216 26.9584 24.4816 27.0384 24.3216 27.1984L23.2016 28.3984C22.3216 27.9184 21.4416 27.5184 20.4816 27.2784V25.5984C20.4816 25.4384 20.4016 25.1984 20.2416 25.0384L19.0416 23.8384C18.8816 23.6784 18.7216 23.5984 18.4816 23.5984H15.6816C15.5216 23.5984 15.2816 23.6784 15.1216 23.8384L13.9216 25.0384C13.7616 25.1984 13.6816 25.3584 13.6816 25.5984V27.2784C12.7216 27.5184 11.8416 27.9184 10.9616 28.3984L9.84156 27.1984C9.68156 27.0384 9.52156 26.9584 9.28156 26.9584H7.68156C7.52156 26.9584 7.28156 27.0384 7.12156 27.1984L5.12156 29.1984C4.96156 29.3584 4.88156 29.5184 4.88156 29.7584V31.4384C4.88156 31.5984 4.96156 31.8384 5.12156 31.9984L6.32156 33.1984C5.84156 34.0784 5.44156 34.9584 5.20156 35.9184H3.52156C3.36156 35.9184 3.12156 35.9984 2.96156 36.1584L1.76156 37.3584C1.68156 37.3584 1.60156 37.5184 1.60156 37.7584V40.5584C1.60156 40.7184 1.68156 40.9584 1.84156 41.1184L3.04156 42.3184C3.20156 42.4784 3.36156 42.5584 3.60156 42.5584H5.28156C5.52156 43.5184 5.92156 44.3984 6.40156 45.2784L5.12156 46.3984C4.96156 46.5584 4.88156 46.7184 4.88156 46.9584V48.6384C4.88156 48.7984 4.96156 49.0384 5.12156 49.1984L7.12156 51.1984C7.28156 51.3584 7.44156 51.4384 7.68156 51.4384H9.36156C9.52156 51.4384 9.76156 51.3584 9.92156 51.1984L11.1216 49.9984C12.0016 50.4784 12.8816 50.8784 13.8416 51.1184V52.7984C13.8416 52.9584 13.9216 53.1984 14.0816 53.3584L15.2816 54.5584C15.4416 54.7184 15.6016 54.7984 15.8416 54.7984H18.6416C18.8016 54.7984 19.0416 54.7184 19.2016 54.5584L20.4016 53.3584C20.5616 53.1984 20.6416 53.0384 20.6416 52.7984V51.1184C21.6016 50.8784 22.4816 50.4784 23.3616 49.9984L24.5616 51.1984C24.7216 51.3584 24.8816 51.4384 25.1216 51.4384H26.8016C26.8016 51.3584 26.9616 51.2784 27.1216 51.1184ZM25.2016 49.8384L23.8416 48.4784C23.6016 48.2384 23.2016 48.1584 22.8816 48.3984C21.8416 49.0384 20.7216 49.5184 19.5216 49.7584C19.2016 49.8384 18.9616 50.1584 18.9616 50.4784V52.3984L18.2416 53.1184H16.0016L15.2816 52.3984V50.4784C15.2816 50.1584 15.0416 49.8384 14.7216 49.7584C13.5216 49.5184 12.4016 49.0384 11.3616 48.3984C11.0416 48.2384 10.6416 48.2384 10.4016 48.4784L9.04156 49.8384H8.00156L6.40156 48.3184V47.1984L7.76156 45.8384C8.00156 45.5984 8.08156 45.1984 7.84156 44.8784C7.20156 43.8384 6.72156 42.7184 6.48156 41.5184C6.40156 41.1984 6.08156 40.9584 5.76156 40.9584H3.84156L3.12156 40.2384V38.0784L3.84156 37.3584H5.76156C6.08156 37.3584 6.40156 37.1184 6.48156 36.7984C6.72156 35.5984 7.20156 34.4784 7.84156 33.4384C8.00156 33.1184 8.00156 32.7184 7.76156 32.4784L6.40156 31.0384V29.9984L7.92156 28.4784H8.96156L10.3216 29.8384C10.5616 30.0784 10.9616 30.1584 11.2816 29.9184C12.3216 29.2784 13.4416 28.7984 14.6416 28.5584C14.9616 28.4784 15.2016 28.1584 15.2016 27.8384V25.9184L15.9216 25.1984H18.0816L18.8016 25.9184V27.8384C18.8016 28.1584 19.0416 28.4784 19.3616 28.5584C20.5616 28.7984 21.6816 29.2784 22.7216 29.9184C23.0416 30.0784 23.4416 30.0784 23.6816 29.8384L25.0416 28.4784H26.0816L27.6016 29.9984V31.0384L26.4016 32.3984C26.1616 32.6384 26.0816 33.0384 26.3216 33.3584C26.9616 34.3984 27.4416 35.5184 27.6816 36.7184C27.7616 37.0384 28.0816 37.2784 28.4016 37.2784H30.4016L31.1216 37.9984V40.1584L30.4016 40.9584H28.4816C28.1616 40.9584 27.8416 41.1984 27.7616 41.5184C27.5216 42.7184 27.0416 43.8384 26.4016 44.8784C26.2416 45.1984 26.2416 45.5984 26.4816 45.8384L27.8416 47.1984V48.2384L26.3216 49.7584L25.2016 49.8384ZM22.0816 38.3984L16.8016 45.0384C16.4816 45.4384 15.8416 45.5184 15.4416 45.1984L11.4416 42.1584C11.2016 41.9984 11.0416 41.7584 11.0416 41.5184C10.9616 41.2784 11.0416 40.9584 11.2016 40.7984C11.3616 40.6384 11.6016 40.4784 11.8416 40.3984C12.0816 40.3184 12.4016 40.4784 12.5616 40.6384L15.7616 43.1184L20.4816 37.1984C20.6416 36.9584 20.8816 36.7984 21.1216 36.7984C21.3616 36.7984 21.6816 36.7984 21.8416 37.0384C22.0816 37.1984 22.1616 37.4384 22.1616 37.6784C22.3216 37.9184 22.2416 38.2384 22.0816 38.3984ZM22.1616 15.8384C22.2416 15.9984 22.4816 16.0784 22.6416 16.1584L23.9216 16.3984C24.0016 17.1184 24.1616 17.8384 24.4016 18.5584L23.3616 19.2784C23.2016 19.3584 23.1216 19.5984 23.0416 19.7584L22.8016 21.1184C22.8016 21.2784 22.8016 21.5184 22.9616 21.6784L24.3216 23.5984C24.4016 23.7584 24.6416 23.8384 24.8016 23.9184L26.1616 24.1584C26.3216 24.1584 26.5616 24.1584 26.7216 23.9984L27.7616 23.2784C28.3216 23.7584 28.9616 24.1584 29.6816 24.4784L29.4416 25.7584C29.4416 25.9184 29.4416 26.1584 29.6016 26.3184L30.4016 27.4384C30.4816 27.5984 30.7216 27.6784 30.8816 27.7584L33.1216 28.1584C33.2016 28.1584 33.2016 28.1584 33.2816 28.1584C33.4416 28.1584 33.6016 28.0784 33.6816 27.9984L34.8016 27.1984C34.9616 27.1184 35.0416 26.8784 35.1216 26.7184L35.3616 25.4384C36.0816 25.3584 36.8016 25.1984 37.5216 24.9584L38.2416 25.9984C38.3216 26.1584 38.5616 26.2384 38.7216 26.3184L40.0816 26.5584C40.2416 26.5584 40.4816 26.5584 40.6416 26.3984L42.5616 25.0384C42.7216 24.9584 42.8016 24.7184 42.8816 24.5584L43.1216 23.1984C43.1216 23.0384 43.1216 22.7984 42.9616 22.6384L42.2416 21.5984C42.7216 21.0384 43.1216 20.3984 43.4416 19.6784L44.7216 19.9184C44.8816 19.9184 45.1216 19.9184 45.2816 19.7584L46.4016 18.9584C46.5616 18.8784 46.6416 18.6384 46.7216 18.4784L47.1216 16.2384C47.1216 16.0784 47.1216 15.8384 46.9616 15.6784L46.1616 14.5584C46.0016 14.5584 45.7616 14.3984 45.6016 14.3984L44.3216 14.1584C44.2416 13.4384 44.0816 12.7184 43.8416 11.9984L44.8816 11.2784C45.0416 11.1984 45.1216 10.9584 45.2016 10.7984L45.4416 9.43844C45.4416 9.27844 45.4416 9.03844 45.2816 8.87844L44.0016 6.95844C43.9216 6.79844 43.6816 6.71844 43.5216 6.63844L42.1616 6.39844C42.0016 6.39844 41.7616 6.39844 41.6016 6.55844L40.5616 7.27844C40.0016 6.79844 39.3616 6.39844 38.6416 6.07844L38.8816 4.79844C38.8816 4.63844 38.8816 4.39844 38.7216 4.23844L37.9216 3.11844C37.8416 2.95844 37.6016 2.87844 37.4416 2.79844L35.2016 2.39844C35.0416 2.39844 34.8016 2.39844 34.6416 2.55844L33.5216 3.35844C33.3616 3.43844 33.2816 3.67844 33.2016 3.83844L32.9616 5.11844C32.2416 5.19844 31.5216 5.35844 30.8016 5.59844L30.0816 4.55844C30.0016 4.39844 29.7616 4.31844 29.6016 4.23844L28.2416 3.99844C28.0816 3.99844 27.8416 3.99844 27.6816 4.15844L25.7616 5.51844C25.6016 5.59844 25.5216 5.83844 25.4416 5.99844L25.2016 7.35844C25.2016 7.51844 25.2016 7.75844 25.3616 7.91844L26.0816 8.95844C25.6016 9.51844 25.2016 10.1584 24.8816 10.8784L23.6016 10.6384C23.4416 10.6384 23.2016 10.6384 23.0416 10.7984L21.9216 11.5984C21.7616 11.6784 21.6816 11.9184 21.6016 12.0784L21.2016 14.3184C21.2016 14.4784 21.2016 14.7184 21.3616 14.8784L22.1616 15.8384ZM23.0416 12.4784L23.6816 12.0784L25.2016 12.3184C25.5216 12.3984 25.9216 12.1584 26.0016 11.8384C26.4016 10.9584 26.8816 10.0784 27.6016 9.35844C27.8416 9.11844 27.8416 8.71844 27.6816 8.39844L26.8016 7.19844L26.9616 6.47844L28.3216 5.51844L29.0416 5.59844L29.9216 6.87844C30.1616 7.19844 30.4816 7.27844 30.8016 7.11844C31.6816 6.71844 32.6416 6.55844 33.6816 6.47844C34.0016 6.47844 34.3216 6.23844 34.4016 5.83844L34.6416 4.31844L35.2816 3.91844L36.9616 4.23844L37.3616 4.87844L37.1216 6.39844C37.0416 6.71844 37.2816 7.11844 37.6016 7.19844C38.4816 7.59844 39.3616 8.07844 40.0816 8.79844C40.3216 9.03844 40.7216 9.03844 41.0416 8.87844L42.3216 7.99844L43.0416 8.15844L44.0016 9.51844L43.8416 10.2384L42.5616 11.1184C42.2416 11.3584 42.1616 11.6784 42.3216 11.9984C42.7216 12.8784 42.8816 13.8384 42.9616 14.8784C42.9616 15.1984 43.2016 15.5184 43.6016 15.5984L45.1216 15.8384L45.5216 16.4784L45.2016 18.1584L44.5616 18.5584L43.0416 18.3184C42.7216 18.2384 42.3216 18.4784 42.2416 18.7984C41.8416 19.6784 41.3616 20.5584 40.6416 21.2784C40.4016 21.5184 40.4016 21.9184 40.5616 22.2384L41.4416 23.5184L41.2816 24.2384L39.9216 25.1984L39.2016 24.9584L38.3216 23.6784C38.0816 23.3584 37.7616 23.2784 37.4416 23.4384C36.5616 23.8384 35.6016 23.9984 34.5616 24.0784C34.2416 24.0784 33.9216 24.3184 33.8416 24.7184L33.6016 26.1584L32.9616 26.5584L31.2816 26.2384L30.8816 25.5984L31.1216 24.0784C31.2016 23.7584 30.9616 23.3584 30.6416 23.2784C29.7616 22.8784 28.8816 22.3984 28.1616 21.6784C27.9216 21.4384 27.5216 21.4384 27.2016 21.5984L25.9216 22.4784L25.2016 22.3184L24.2416 20.9584L24.4016 20.2384L25.6816 19.3584C26.0016 19.1184 26.0816 18.7984 25.9216 18.4784C25.5216 17.5984 25.3616 16.6384 25.2816 15.5984C25.2816 15.2784 25.0416 14.9584 24.6416 14.8784L23.2016 14.7984L22.8016 14.1584L23.0416 12.4784ZM56.8816 40.3984L56.6416 38.3984C56.6416 38.2384 56.4816 37.9984 56.3216 37.9184L55.3616 37.1984C55.2016 37.0384 55.0416 37.0384 54.8016 37.0384L53.7616 37.1984C53.5216 36.6384 53.2016 36.0784 52.8016 35.5984L53.4416 34.7984C53.6016 34.6384 53.6016 34.4784 53.6016 34.2384L53.4416 33.0384C53.4416 32.8784 53.2816 32.6384 53.1216 32.5584L51.5216 31.2784C51.3616 31.1184 51.2016 31.1184 50.9616 31.1184L49.7616 31.2784C49.6016 31.2784 49.3616 31.4384 49.2816 31.5984L48.6416 32.4784C48.0816 32.2384 47.4416 32.0784 46.8016 31.9984L46.6416 30.9584C46.6416 30.7984 46.4816 30.5584 46.3216 30.4784L45.3616 29.7584C45.2016 29.5984 45.0416 29.5984 44.8016 29.5984L42.8016 29.8384C42.6416 29.8384 42.4016 29.9984 42.3216 30.1584L41.6016 30.7984C41.4416 30.9584 41.4416 31.1184 41.4416 31.3584L41.6016 32.3984C41.0416 32.6384 40.4816 32.9584 40.0016 33.3584L39.2016 32.7184C39.0416 32.5584 38.8816 32.5584 38.6416 32.5584L37.4416 32.7184C37.2816 32.7184 37.0416 32.8784 36.9616 33.0384L35.6816 34.6384C35.5216 34.7984 35.5216 34.9584 35.5216 35.1984L35.6816 36.3984C35.6816 36.5584 35.8416 36.7984 36.0016 36.8784L36.8816 37.5184C36.6416 38.0784 36.4816 38.7184 36.4016 39.3584L35.2016 39.4384C35.0416 39.4384 34.8016 39.5984 34.7216 39.7584L34.0016 40.7184C33.8416 40.8784 33.8416 41.0384 33.8416 41.2784L34.0816 43.2784C34.0816 43.4384 34.2416 43.6784 34.4016 43.7584L35.3616 44.4784C35.5216 44.6384 35.6816 44.6384 35.9216 44.6384L36.9616 44.4784C37.2016 45.0384 37.5216 45.5984 37.9216 46.0784L37.2816 46.8784C37.1216 47.0384 37.1216 47.1984 37.1216 47.4384L37.2816 48.6384C37.2816 48.7984 37.4416 49.0384 37.6016 49.1184L39.2016 50.3984C39.3616 50.5584 39.5216 50.5584 39.7616 50.5584L40.9616 50.3984C41.1216 50.3984 41.3616 50.2384 41.4416 50.0784L42.0816 49.1984C42.6416 49.4384 43.2816 49.5984 43.9216 49.6784L44.0816 50.7184C44.0816 50.8784 44.2416 51.1184 44.4016 51.1984L45.3616 51.9184C45.5216 51.9984 45.6816 52.0784 45.8416 52.0784H45.9216L47.9216 51.8384C48.0816 51.8384 48.3216 51.6784 48.4016 51.5184L49.1216 50.5584C49.2816 50.3984 49.2816 50.2384 49.2816 49.9984L49.1216 48.9584C49.6816 48.7184 50.2416 48.3984 50.7216 47.9984L51.5216 48.6384C51.6816 48.7984 51.8416 48.7984 52.0816 48.7984L53.2816 48.6384C53.4416 48.6384 53.6816 48.4784 53.7616 48.3184L55.0416 46.7184C55.2016 46.5584 55.2016 46.3984 55.2016 46.1584L55.0416 44.9584C55.0416 44.7984 54.8816 44.5584 54.7216 44.4784L53.8416 43.8384C54.0816 43.2784 54.2416 42.6384 54.3216 41.9984L55.3616 41.8384C55.5216 41.8384 55.7616 41.6784 55.8416 41.5184L56.5616 40.5584C56.8816 40.7984 56.8816 40.6384 56.8816 40.3984ZM54.9616 40.7984L53.6016 40.9584C53.2816 41.0384 52.9616 41.2784 52.9616 41.5984C52.8816 42.4784 52.6416 43.2784 52.2416 44.0784C52.0816 44.3984 52.1616 44.7984 52.4816 44.9584L53.5216 45.7584L53.6016 46.3184L52.8016 47.5184L52.2416 47.5984L51.2016 46.7984C50.9616 46.5584 50.5616 46.5584 50.2416 46.7984C49.6016 47.3584 48.8016 47.7584 48.0016 48.0784C47.6816 48.2384 47.4416 48.5584 47.5216 48.8784L47.6816 50.2384L47.2816 50.7184L45.8416 50.8784L45.3616 50.4784L45.2016 49.1184C45.1216 48.7984 44.8816 48.4784 44.5616 48.4784C43.6816 48.3984 42.8816 48.1584 42.0816 47.7584C41.7616 47.5984 41.3616 47.6784 41.2016 47.9984L40.4016 49.0384L39.8416 49.1184L38.7216 48.2384L38.6416 47.6784L39.4416 46.6384C39.6816 46.3984 39.6816 45.9984 39.4416 45.6784C38.8816 45.0384 38.4816 44.2384 38.1616 43.4384C38.0016 43.1184 37.6816 42.8784 37.3616 42.9584L36.0016 43.1184L35.5216 42.7184L35.3616 41.2784L35.7616 40.7984L37.1216 40.6384C37.4416 40.5584 37.7616 40.3184 37.7616 39.9984C37.8416 39.1184 38.0816 38.3184 38.4816 37.5184C38.6416 37.1984 38.5616 36.7984 38.2416 36.6384L37.2016 35.8384L36.9616 35.1984L37.8416 34.0784L38.4016 33.9984L39.4416 34.7984C39.6816 35.0384 40.0816 35.0384 40.4016 34.7984C41.0416 34.2384 41.8416 33.8384 42.6416 33.5184C42.9616 33.3584 43.2016 33.0384 43.1216 32.7184L42.9616 31.3584L43.3616 30.8784L44.8016 30.7184L45.2816 31.1184L45.4416 32.4784C45.5216 32.7984 45.7616 33.1184 46.0816 33.1184C46.9616 33.1984 47.7616 33.4384 48.5616 33.8384C48.8816 33.9984 49.2816 33.9184 49.4416 33.5984L50.2416 32.5584L50.8016 32.4784L51.9216 33.3584L52.0016 33.9184L51.2016 34.9584C50.9616 35.1984 50.9616 35.5984 51.2016 35.9184C51.7616 36.5584 52.1616 37.3584 52.4816 38.1584C52.6416 38.4784 52.9616 38.7184 53.2816 38.6384L54.6416 38.4784L55.1216 38.8784L55.2816 40.3184L54.9616 40.7984ZM48.5616 18.3984C48.4016 18.2384 48.3216 17.9984 48.4016 17.8384C48.4016 17.5984 48.5616 17.4384 48.7216 17.2784C48.8816 17.1184 49.1216 17.1184 49.2816 17.1184C49.5216 17.1184 49.6816 17.2784 49.7616 17.4384C51.9216 20.3184 53.4416 23.5984 54.2416 27.1184L55.2016 25.7584C55.2816 25.5984 55.4416 25.4384 55.6816 25.4384C55.9216 25.3584 56.0816 25.4384 56.2416 25.5184C56.4016 25.6784 56.5616 25.8384 56.5616 25.9984C56.5616 26.1584 56.5616 26.3984 56.4016 26.5584L54.3216 29.5984C54.0816 29.9184 53.6016 29.9984 53.2816 29.7584L50.4016 27.7584C50.0816 27.5184 50.0016 27.0384 50.2416 26.7184C50.4816 26.3984 50.8816 26.3184 51.2816 26.4784L52.7216 27.4384C52.0016 24.2384 50.5616 21.1184 48.5616 18.3984ZM8.32156 23.5184C9.84156 19.5984 12.3216 16.0784 15.6016 13.4384L14.0816 13.2784C13.6816 13.1984 13.4416 12.8784 13.4416 12.4784C13.4416 12.0784 13.8416 11.7584 14.2416 11.7584L17.7616 12.0784C18.1616 12.0784 18.4816 12.4784 18.4816 12.8784L18.1616 16.3984C18.1616 16.7984 17.8416 17.1184 17.4416 17.1184H17.3616C16.9616 17.1184 16.6416 16.7184 16.6416 16.3184L16.8016 14.4784C13.6016 16.9584 11.2016 20.3184 9.76156 24.0784C9.68156 24.3984 9.36156 24.5584 9.04156 24.5584C8.96156 24.5584 8.88156 24.5584 8.80156 24.4784C8.64156 24.3984 8.48156 24.2384 8.40156 24.0784C8.32156 23.9184 8.32156 23.7584 8.32156 23.5184ZM41.4416 52.6384C41.6016 53.0384 41.4416 53.4384 41.1216 53.6784C37.9216 55.1984 34.4016 55.9984 30.8016 55.9984C30.0016 55.9984 29.2816 55.9984 28.4816 55.9184L29.5216 57.1984C29.6816 57.3584 29.7616 57.5184 29.7616 57.7584C29.7616 57.9984 29.6816 58.1584 29.5216 58.3184C29.2016 58.3984 28.9616 58.3984 28.8016 58.3984C28.5616 58.3984 28.4016 58.2384 28.3216 58.0784L26.1616 55.3584C25.9216 55.0384 25.9216 54.5584 26.2416 54.3184L28.9616 52.1584C29.1216 51.9984 29.2816 51.9184 29.5216 51.9184C29.7616 51.9184 29.9216 51.9984 30.0816 52.1584C30.2416 52.3184 30.2416 52.5584 30.2416 52.7184C30.2416 52.9584 30.0816 53.1184 29.9216 53.1984L28.4816 54.3984C29.2016 54.4784 30.0016 54.4784 30.7216 54.4784C34.0816 54.4784 37.3616 53.7584 40.4016 52.3184C40.8016 52.0784 41.2016 52.2384 41.4416 52.6384Z" fill="white"/>
</g>
</g>
<defs>
<clipPath id="clip0_401_473">
<rect width="60" height="60" fill="white"/>
</clipPath>
<clipPath id="clip1_401_473">
<rect width="60" height="60" fill="white"/>
</clipPath>
</defs>
</svg>
