<svg width="78" height="78" viewBox="0 0 78 78" fill="none" xmlns="http://www.w3.org/2000/svg">
<path d="M22.7533 52.5005C23.4639 52.5005 24.0576 52.26 24.5342 51.779C25.0109 51.298 25.2493 50.7032 25.2493 49.9947C25.2493 49.2862 25.0098 48.6926 24.531 48.2137C24.0522 47.7349 23.4563 47.4966 22.7435 47.4987C22.0307 47.5009 21.4381 47.7414 20.9658 48.2202C20.4934 48.6991 20.2551 49.2938 20.2507 50.0045C20.2464 50.7152 20.4858 51.3088 20.969 51.7855C21.4522 52.2622 22.0448 52.5005 22.7533 52.5005ZM21.125 42.9975H24.375V25.4995H21.125V42.9975ZM34.125 47.1217H56.875V43.8717H34.125V47.1217ZM34.125 34.1217H56.875V30.8717H34.125V34.1217ZM15.002 61.75C13.5048 61.75 12.2558 61.2495 11.2548 60.2485C10.2538 59.2475 9.75217 57.9973 9.75 56.498V21.502C9.75 20.0048 10.2516 18.7557 11.2548 17.7547C12.2579 16.7537 13.5059 16.2522 14.9987 16.25H63.0013C64.4963 16.25 65.7443 16.7516 66.7453 17.7547C67.7463 18.7579 68.2478 20.007 68.25 21.502V56.5012C68.25 57.9962 67.7484 59.2453 66.7453 60.2485C65.7421 61.2517 64.4941 61.7522 63.0013 61.75H15.002Z" fill="#0CCAFF"/>
</svg>
