<svg width="130" height="83" viewBox="0 0 130 83" fill="none" xmlns="http://www.w3.org/2000/svg">
<path fill-rule="evenodd" clip-rule="evenodd" d="M128.942 1.62692H127.074C122.916 1.62692 121.803 2.5353 121.636 5.90017V77.1254C121.803 80.4775 122.967 81.3859 127.074 81.3859H128.942V82H107.563V81.3859H109.418C113.985 81.3859 114.779 80.2088 114.868 76.652V43.0545H75.0911V75.9867V76.0763C75.0911 80.1065 75.8332 81.3859 80.4647 81.3859H83.2026V82H66.2376C54.636 82 49.9912 72.1148 45.5014 62.5597L45.4982 62.5528C42.709 56.5652 40.0862 50.9997 35.9025 47.6092C32.1922 44.5898 26.9722 43.0673 20.396 43.0673H14.8177V75.9995V76.0891C14.8177 80.0041 15.5342 81.3091 19.7947 81.3987H22.9676H23.0444V82H1V81.3859H2.90633C6.68062 81.3219 7.8321 80.3751 7.96004 76.9719V6.89812C7.96004 2.89354 7.20518 1.61412 2.50971 1.61412H1V1H29.5822C36.0561 1 57.1793 2.56089 57.1665 21.7138C57.1665 29.3903 53.9423 35.1605 47.7372 38.8196C41.532 42.4788 33.8427 43.0673 29.8253 43.0673H27.1257C46.0739 45.7797 50.7694 55.8231 58.3947 72.2508C58.5866 72.7114 58.7785 73.1336 58.9705 73.5302L58.9766 73.5437C61.1226 78.2445 62.545 81.3603 67.7857 81.3603H68.2846V6.87253C68.2846 2.43295 67.0052 1.61412 63.167 1.61412H61.3502V1.435V1H82.8828V1.62692H80.0937C75.7948 1.70368 75.0655 3.02148 75.0655 6.9365V7.02606V42.466H114.855V6.34797C114.753 2.29221 113.41 1.61412 109.405 1.61412H107.563V1H128.942V1.62692ZM44.7224 36.4143C48.4631 32.4971 50.5207 27.2706 50.4542 21.8546V21.8418C50.4542 8.98361 41.7541 1.62695 26.593 1.62695H19.6586C15.526 1.71651 14.8096 2.99593 14.8096 6.83419V42.466H29.766C35.3672 42.5679 40.768 40.3826 44.7224 36.4143Z" fill="white"/>
<path d="M128.942 1.62692V2.08751H129.402V1.62692H128.942ZM121.636 5.90017L121.176 5.87744L121.176 5.8888V5.90017H121.636ZM121.636 77.1254H121.176V77.1368L121.176 77.1482L121.636 77.1254ZM128.942 81.3859H129.402V80.9253H128.942V81.3859ZM128.942 82V82.4606H129.402V82H128.942ZM107.563 82H107.102V82.4606H107.563V82ZM107.563 81.3859V80.9253H107.102V81.3859H107.563ZM114.868 76.652L115.329 76.6636V76.652H114.868ZM114.868 43.0545H115.329V42.5939H114.868V43.0545ZM75.0911 43.0545V42.5939H74.6305V43.0545H75.0911ZM83.2026 81.3859H83.6632V80.9253H83.2026V81.3859ZM83.2026 82V82.4606H83.6632V82H83.2026ZM45.5014 62.5597L45.0844 62.7553L45.0845 62.7556L45.5014 62.5597ZM45.4982 62.5528L45.0807 62.7473L45.0812 62.7484L45.4982 62.5528ZM35.9025 47.6092L35.6118 47.9665L35.6125 47.9671L35.9025 47.6092ZM14.8177 43.0673V42.6067H14.3571V43.0673H14.8177ZM19.7947 81.3987L19.785 81.8593H19.7947V81.3987ZM23.0444 81.3987H23.505V80.9381H23.0444V81.3987ZM23.0444 82V82.4606H23.505V82H23.0444ZM1 82H0.539409V82.4606H1V82ZM1 81.3859V80.9253H0.539409V81.3859H1ZM2.90633 81.3859V81.8465L2.91414 81.8464L2.90633 81.3859ZM7.96004 76.9719L8.4203 76.9892L8.42063 76.9805V76.9719H7.96004ZM1 1.61412H0.539409V2.07471H1V1.61412ZM1 1V0.539409H0.539409V1H1ZM57.1665 21.7138L56.7059 21.7135V21.7138H57.1665ZM47.7372 38.8196L47.5032 38.4229L47.7372 38.8196ZM27.1257 43.0673V42.6067L27.0605 43.5232L27.1257 43.0673ZM58.3947 72.2508L58.8199 72.0737L58.8164 72.0652L58.8125 72.0569L58.3947 72.2508ZM58.9705 73.5302L59.3895 73.3389L59.3851 73.3296L58.9705 73.5302ZM58.9766 73.5437L59.3956 73.3524L59.3956 73.3524L58.9766 73.5437ZM68.2846 81.3603V81.8209H68.7452V81.3603H68.2846ZM61.3502 1.61412H60.8896V2.07471H61.3502V1.61412ZM61.3502 1V0.539409H60.8896V1H61.3502ZM82.8828 1H83.3434V0.539409H82.8828V1ZM82.8828 1.62692V2.08751H83.3434V1.62692H82.8828ZM80.0937 1.62692V1.16625L80.0854 1.1664L80.0937 1.62692ZM75.0655 42.466H74.6049V42.9266H75.0655V42.466ZM114.855 42.466V42.9266H115.316V42.466H114.855ZM114.855 6.34797H115.316L115.316 6.33635L114.855 6.34797ZM107.563 1.61412H107.102V2.07471H107.563V1.61412ZM107.563 1V0.539409H107.102V1H107.563ZM128.942 1H129.402V0.539409H128.942V1ZM50.4542 21.8546H49.9935L49.9936 21.8602L50.4542 21.8546ZM44.7224 36.4143L45.0487 36.7395L45.0555 36.7324L44.7224 36.4143ZM19.6586 1.62695V1.16625L19.6486 1.16647L19.6586 1.62695ZM14.8096 42.466H14.349V42.9266H14.8096V42.466ZM29.766 42.466L29.7744 42.0054H29.766V42.466ZM127.074 2.08751H128.942V1.16632H127.074V2.08751ZM122.096 5.92291C122.179 4.26191 122.493 3.37799 123.144 2.86296C123.825 2.32407 124.991 2.08751 127.074 2.08751V1.16632C124.998 1.16632 123.529 1.38396 122.572 2.14048C121.586 2.92086 121.261 4.17357 121.176 5.87744L122.096 5.92291ZM122.097 77.1254V5.90017H121.176V77.1254H122.097ZM127.074 80.9253C125.019 80.9253 123.85 80.6893 123.161 80.15C122.504 79.635 122.178 78.7522 122.096 77.1026L121.176 77.1482C121.261 78.8507 121.601 80.0982 122.593 80.8753C123.555 81.6283 125.022 81.8465 127.074 81.8465V80.9253ZM128.942 80.9253H127.074V81.8465H128.942V80.9253ZM129.402 82V81.3859H128.481V82H129.402ZM107.563 82.4606H128.942V81.5394H107.563V82.4606ZM107.102 81.3859V82H108.023V81.3859H107.102ZM109.418 80.9253H107.563V81.8465H109.418V80.9253ZM114.408 76.6404C114.363 78.4275 114.134 79.4238 113.506 80.0183C112.87 80.6205 111.703 80.9253 109.418 80.9253V81.8465C111.7 81.8465 113.214 81.5627 114.139 80.6872C115.072 79.8039 115.284 78.4333 115.329 76.6636L114.408 76.6404ZM114.408 43.0545V76.652H115.329V43.0545H114.408ZM75.0911 43.5151H114.868V42.5939H75.0911V43.5151ZM75.5517 75.9867V43.0545H74.6305V75.9867H75.5517ZM75.5517 76.0763V75.9867H74.6305V76.0763H75.5517ZM80.4647 80.9253C78.1481 80.9253 76.9959 80.5941 76.3787 79.9291C75.7528 79.2547 75.5517 78.1112 75.5517 76.0763H74.6305C74.6305 78.0715 74.8005 79.5828 75.7035 80.5557C76.6152 81.538 78.1498 81.8465 80.4647 81.8465V80.9253ZM83.2026 80.9253H80.4647V81.8465H83.2026V80.9253ZM83.6632 82V81.3859H82.7421V82H83.6632ZM66.2376 82.4606H83.2026V81.5394H66.2376V82.4606ZM45.0845 62.7556C47.3227 67.5189 49.6322 72.4416 52.8543 76.1644C56.097 79.9111 60.2787 82.4606 66.2376 82.4606V81.5394C60.5949 81.5394 56.6533 79.1463 53.5508 75.5616C50.4277 71.9531 48.1698 67.1556 45.9183 62.3638L45.0845 62.7556ZM45.0812 62.7484L45.0844 62.7553L45.9184 62.3641L45.9152 62.3572L45.0812 62.7484ZM35.6125 47.9671C39.6973 51.2773 42.2787 56.7321 45.0807 62.7473L45.9157 62.3583C43.1394 56.3983 40.4752 50.7221 36.1925 47.2514L35.6125 47.9671ZM20.396 43.5279C26.9063 43.5279 32.0101 45.0354 35.6118 47.9665L36.1933 47.252C32.3744 44.1442 27.0381 42.6067 20.396 42.6067V43.5279ZM14.8177 43.5279H20.396V42.6067H14.8177V43.5279ZM15.2783 75.9995V43.0673H14.3571V75.9995H15.2783ZM15.2783 76.0891V75.9995H14.3571V76.0891H15.2783ZM19.8043 80.9382C17.6836 80.8936 16.6282 80.5409 16.0576 79.878C15.4711 79.1966 15.2783 78.0628 15.2783 76.0891H14.3571C14.3571 78.0304 14.5225 79.5066 15.3594 80.4789C16.2121 81.4696 17.6453 81.8142 19.785 81.8592L19.8043 80.9382ZM22.9676 80.9381H19.7947V81.8593H22.9676V80.9381ZM23.0444 80.9381H22.9676V81.8593H23.0444V80.9381ZM23.505 82V81.3987H22.5838V82H23.505ZM1 82.4606H23.0444V81.5394H1V82.4606ZM0.539409 81.3859V82H1.46059V81.3859H0.539409ZM2.90633 80.9253H1V81.8465H2.90633V80.9253ZM7.49977 76.9546C7.43674 78.6311 7.12135 79.5453 6.49946 80.0826C5.85907 80.6358 4.78067 80.8935 2.89853 80.9254L2.91414 81.8464C4.80629 81.8143 6.19076 81.5666 7.10167 80.7796C8.03107 79.9767 8.35539 78.7159 8.4203 76.9892L7.49977 76.9546ZM7.49945 6.89812V76.9719H8.42063V6.89812H7.49945ZM2.50971 2.07471C4.85905 2.07471 6.03249 2.40605 6.66098 3.07083C7.29523 3.74169 7.49945 4.87708 7.49945 6.89812H8.42063C8.42063 4.91458 8.24742 3.40797 7.33037 2.43798C6.40757 1.46191 4.85585 1.15353 2.50971 1.15353V2.07471ZM1 2.07471H2.50971V1.15353H1V2.07471ZM0.539409 1V1.61412H1.46059V1H0.539409ZM29.5822 0.539409H1V1.46059H29.5822V0.539409ZM57.6271 21.7141C57.6303 16.8354 56.2856 13.0496 54.1438 10.125C52.0058 7.20556 49.0933 5.17105 45.9984 3.75569C39.8197 0.930064 32.8412 0.539409 29.5822 0.539409V1.46059C32.7971 1.46059 39.6171 1.85038 45.6153 4.59343C48.6088 5.9624 51.3794 7.90929 53.4006 10.6693C55.4181 13.4241 56.709 17.0157 56.7059 21.7135L57.6271 21.7141ZM47.9711 39.2164C54.325 35.4695 57.6271 29.5435 57.6271 21.7138H56.7059C56.7059 29.2371 53.5597 34.8514 47.5032 38.4229L47.9711 39.2164ZM29.8253 43.5279C33.8669 43.5279 41.6578 42.9393 47.9711 39.2164L47.5032 38.4229C41.4062 42.0182 33.8185 42.6067 29.8253 42.6067V43.5279ZM27.1257 43.5279H29.8253V42.6067H27.1257V43.5279ZM58.8125 72.0569C55.0087 63.8622 51.8994 57.1712 47.3458 52.2045C42.7657 47.2089 36.7504 43.9797 27.191 42.6113L27.0605 43.5232C36.4493 44.8672 42.2558 48.0159 46.6668 52.8271C51.1043 57.6671 54.1554 64.2117 57.9769 72.4447L58.8125 72.0569ZM59.3851 73.3296C59.1966 72.9401 59.0082 72.5258 58.8199 72.0737L57.9696 72.428C58.165 72.8971 58.3605 73.3271 58.5559 73.7309L59.3851 73.3296ZM59.3956 73.3524L59.3894 73.3389L58.5515 73.7216L58.5576 73.735L59.3956 73.3524ZM67.7857 80.8997C65.2756 80.8997 63.7377 80.1617 62.5569 78.9C61.3404 77.6001 60.4788 75.7252 59.3956 73.3524L58.5576 73.735C59.6204 76.0629 60.5431 78.0963 61.8844 79.5295C63.2614 81.0009 65.0551 81.8209 67.7857 81.8209V80.8997ZM68.2846 80.8997H67.7857V81.8209H68.2846V80.8997ZM67.824 6.87253V81.3603H68.7452V6.87253H67.824ZM63.167 2.07471C65.0962 2.07471 66.1954 2.29257 66.8479 2.91241C67.4949 3.5271 67.824 4.65778 67.824 6.87253H68.7452C68.7452 4.6477 68.4346 3.14917 67.4824 2.24455C66.5356 1.34509 65.0759 1.15353 63.167 1.15353V2.07471ZM61.3502 2.07471H63.167V1.15353H61.3502V2.07471ZM60.8896 1.435V1.61412H61.8108V1.435H60.8896ZM60.8896 1V1.435H61.8108V1H60.8896ZM82.8828 0.539409H61.3502V1.46059H82.8828V0.539409ZM83.3434 1.62692V1H82.4222V1.62692H83.3434ZM80.0937 2.08751H82.8828V1.16632H80.0937V2.08751ZM75.5261 6.9365C75.5261 4.96355 75.7221 3.82724 76.3152 3.14443C76.8934 2.47886 77.9621 2.12564 80.1019 2.08743L80.0854 1.1664C77.9264 1.20495 76.481 1.54901 75.6198 2.5403C74.7737 3.51433 74.6049 4.99444 74.6049 6.9365H75.5261ZM75.5261 7.02606V6.9365H74.6049V7.02606H75.5261ZM75.5261 42.466V7.02606H74.6049V42.466H75.5261ZM114.855 42.0054H75.0655V42.9266H114.855V42.0054ZM114.395 6.34797V42.466H115.316V6.34797H114.395ZM109.405 2.07471C110.398 2.07471 111.2 2.11719 111.849 2.23645C112.495 2.35528 112.961 2.54544 113.307 2.82039C113.982 3.35857 114.344 4.34863 114.395 6.35959L115.316 6.33635C115.264 4.29156 114.903 2.91469 113.881 2.09988C113.377 1.69834 112.75 1.46549 112.015 1.33044C111.283 1.19581 110.414 1.15353 109.405 1.15353V2.07471ZM107.563 2.07471H109.405V1.15353H107.563V2.07471ZM107.102 1V1.61412H108.023V1H107.102ZM128.942 0.539409H107.563V1.46059H128.942V0.539409ZM129.402 1.62692V1H128.481V1.62692H129.402ZM49.9936 21.8602C50.0586 27.1558 48.0468 32.2662 44.3893 36.0962L45.0555 36.7324C48.8794 32.7281 50.9827 27.3853 50.9147 21.8489L49.9936 21.8602ZM49.9936 21.8418V21.8546H50.9148V21.8418H49.9936ZM26.593 2.08754C34.1054 2.08754 39.951 3.91058 43.9114 7.26405C47.8606 10.6081 49.9936 15.5233 49.9936 21.8418H50.9148C50.9148 15.3021 48.6977 10.1098 44.5066 6.56105C40.3267 3.02166 34.2417 1.16636 26.593 1.16636V2.08754ZM19.6586 2.08754H26.593V1.16636H19.6586V2.08754ZM15.2702 6.83419C15.2702 4.90014 15.4626 3.79062 16.0339 3.12473C16.5891 2.47769 17.6131 2.13198 19.6685 2.08744L19.6486 1.16647C17.5715 1.21148 16.171 1.55027 15.3348 2.52489C14.5148 3.48066 14.349 4.92997 14.349 6.83419H15.2702ZM15.2702 42.466V6.83419H14.349V42.466H15.2702ZM29.766 42.0054H14.8096V42.9266H29.766V42.0054ZM44.3961 36.0892C40.5302 39.9687 35.2503 42.1051 29.7744 42.0055L29.7576 42.9265C35.4841 43.0307 41.0058 40.7965 45.0486 36.7395L44.3961 36.0892Z" fill="white"/>
</svg>
