<svg width="69" height="69" viewBox="0 0 69 69" fill="none" xmlns="http://www.w3.org/2000/svg">
<path d="M54.1768 22.6406C53.782 28.1215 49.7161 32.3438 45.2823 32.3438C40.8485 32.3438 36.7759 28.1229 36.3878 22.6406C35.9835 16.9387 39.9415 12.9375 45.2823 12.9375C50.6231 12.9375 54.5811 17.0425 54.1768 22.6406Z" stroke="#0CCAFF" stroke-width="4.3125" stroke-linecap="round" stroke-linejoin="round"/>
<path d="M45.2827 40.9688C36.5 40.9688 28.0542 45.3311 25.9384 53.8267C25.6581 54.9507 26.3629 56.0625 27.5179 56.0625H63.0488C64.2038 56.0625 64.9045 54.9507 64.6283 53.8267C62.5125 45.195 54.0667 40.9688 45.2827 40.9688Z" stroke="#0CCAFF" stroke-width="4.3125" stroke-miterlimit="10"/>
<path d="M26.952 25.0583C26.6367 29.4355 23.3511 32.8828 19.8095 32.8828C16.2678 32.8828 12.9768 29.4369 12.6669 25.0583C12.3448 20.5046 15.5428 17.25 19.8095 17.25C24.0761 17.25 27.2741 20.5881 26.952 25.0583Z" stroke="#0CCAFF" stroke-width="4.3125" stroke-linecap="round" stroke-linejoin="round"/>
<path d="M27.7611 41.2384C25.3286 40.1239 22.6494 39.6953 19.8099 39.6953C12.8021 39.6953 6.05034 43.179 4.35903 49.9645C4.13667 50.862 4.69999 51.7501 5.62179 51.7501H20.7533" stroke="#0CCAFF" stroke-width="4.3125" stroke-miterlimit="10" stroke-linecap="round"/>
</svg>
