<svg width="215" height="44" viewBox="0 0 215 44" fill="none" xmlns="http://www.w3.org/2000/svg">
<path d="M127.31 11.2009V30.8714" stroke="white" stroke-width="3.27842"/>
<path d="M141.881 11.2007V30.8712" stroke="white" stroke-width="3.27842"/>
<path d="M131.313 21.4001H141.513" stroke="white" stroke-width="3.27842"/>
<path d="M103.264 30.8707V12.6573C103.264 12.6573 113.297 12.6569 117.757 12.6573C120.254 12.6575 121.392 15.365 121.473 17.8611C121.557 20.4766 120.373 23.4365 117.757 23.4366C114.412 23.4368 108.466 23.4366 108.466 23.4366" stroke="white" stroke-width="3.27842"/>
<path d="M2 30.8724C5.58617 24.442 10.9201 14.8777 12.2533 12.4871C12.3911 12.2401 12.7433 12.2416 12.8847 12.4866L23.4919 30.8724" stroke="white" stroke-width="3.27842"/>
<path d="M10.3051 22.8591H19.4847V25.7733H9.28516L10.3051 22.8591Z" fill="white"/>
<path d="M44.9849 12.6574C44.9849 12.6574 38.0638 12.657 32.2355 12.6574C28.2804 12.6577 26.043 16.9006 26.043 21.0355C26.043 25.1704 28.2804 29.4136 32.2355 29.4136C37.3353 29.4136 44.9849 29.4136 44.9849 29.4136V21.0355H34.0569" stroke="white" stroke-width="3.27842"/>
<rect x="49.3564" y="11.1992" width="3.64269" height="19.6705" fill="white"/>
<rect x="147.711" y="11.1992" width="3.64269" height="19.6705" fill="white"/>
<path d="M58.1016 29.4141L72.6723 29.4141" stroke="white" stroke-width="2.91415"/>
<rect x="56.6445" y="11.2012" width="3.64269" height="19.6705" fill="white"/>
<path d="M157.179 29.4138L171.749 29.4138" stroke="white" stroke-width="2.91415"/>
<rect x="155.722" y="11.2009" width="3.64269" height="19.6705" fill="white"/>
<path d="M175.389 29.4141L189.959 29.4141" stroke="white" stroke-width="2.91415"/>
<path d="M175.389 12.6582L189.959 12.6582" stroke="white" stroke-width="2.91415"/>
<path d="M178.302 21.4004H189.23" stroke="white" stroke-width="3.27842"/>
<rect x="173.932" y="11.2012" width="3.64269" height="19.6705" fill="white"/>
<path d="M91.9501 13.3848C88.3207 13.3845 86.5059 13.3855 81.4252 13.3848C77.4542 13.3843 75.2532 17.7942 75.6184 21.763C75.9421 25.2815 77.9047 28.684 81.4252 28.684H91.9501C95.3811 28.684 97.0844 25.1925 97.3941 21.763C97.7453 17.8727 95.842 13.3852 91.9501 13.3848Z" stroke="white" stroke-width="3.27842"/>
<path d="M212.546 12.6572C212.546 12.6572 203.075 12.6575 197.246 12.6572C195.131 12.6571 193.604 14.6354 193.604 16.8463C193.604 19.0572 195.131 21.0354 197.246 21.0354C202.71 21.0354 205.624 21.0354 209.631 21.0354C211.566 21.0354 212.546 23.2017 212.546 25.2245C212.546 27.2473 211.566 29.4136 209.631 29.4136C203.803 29.4136 192.875 29.4136 192.875 29.4136" stroke="white" stroke-width="3.27842"/>
<rect x="157.175" y="31.5996" width="56.8259" height="8.74245" fill="white"/>
<path d="M163.142 37.6865C163.127 37.6865 163.114 37.6822 163.103 37.6734C163.094 37.6618 163.09 37.6486 163.09 37.6341V34.6791C163.09 34.6646 163.094 34.6529 163.103 34.6442C163.114 34.6325 163.127 34.6267 163.142 34.6267H163.544C163.559 34.6267 163.57 34.6325 163.579 34.6442C163.591 34.6529 163.597 34.6646 163.597 34.6791V37.2275C163.597 37.2421 163.604 37.2494 163.618 37.2494H165.083C165.097 37.2494 165.109 37.2552 165.118 37.2669C165.129 37.2756 165.135 37.2873 165.135 37.3019V37.6341C165.135 37.6486 165.129 37.6618 165.118 37.6734C165.109 37.6822 165.097 37.6865 165.083 37.6865H163.142ZM165.639 37.6865C165.625 37.6865 165.612 37.6822 165.6 37.6734C165.591 37.6618 165.587 37.6486 165.587 37.6341V34.6791C165.587 34.6646 165.591 34.6529 165.6 34.6442C165.612 34.6325 165.625 34.6267 165.639 34.6267H166.041C166.056 34.6267 166.068 34.6325 166.076 34.6442C166.088 34.6529 166.094 34.6646 166.094 34.6791V37.6341C166.094 37.6486 166.088 37.6618 166.076 37.6734C166.068 37.6822 166.056 37.6865 166.041 37.6865H165.639ZM167.522 37.6865C167.493 37.6865 167.474 37.672 167.465 37.6428L166.547 34.6879L166.543 34.6704C166.543 34.6412 166.559 34.6267 166.591 34.6267H167.024C167.056 34.6267 167.076 34.6412 167.085 34.6704L167.741 36.9522C167.743 36.9609 167.748 36.9653 167.754 36.9653C167.759 36.9653 167.764 36.9609 167.767 36.9522L168.418 34.6704C168.427 34.6412 168.447 34.6267 168.479 34.6267H168.903C168.921 34.6267 168.934 34.6325 168.943 34.6442C168.951 34.6558 168.953 34.6704 168.947 34.6879L168.016 37.6428C168.007 37.672 167.988 37.6865 167.959 37.6865H167.522ZM171.432 35.0113C171.432 35.0259 171.426 35.039 171.415 35.0507C171.406 35.0594 171.394 35.0638 171.38 35.0638H169.889C169.875 35.0638 169.867 35.0711 169.867 35.0856V35.9031C169.867 35.9176 169.875 35.9249 169.889 35.9249H170.89C170.905 35.9249 170.916 35.9307 170.925 35.9424C170.937 35.9511 170.943 35.9628 170.943 35.9774V36.3096C170.943 36.3242 170.937 36.3373 170.925 36.3489C170.916 36.3577 170.905 36.362 170.89 36.362H169.889C169.875 36.362 169.867 36.3693 169.867 36.3839V37.2275C169.867 37.2421 169.875 37.2494 169.889 37.2494H171.38C171.394 37.2494 171.406 37.2552 171.415 37.2669C171.426 37.2756 171.432 37.2873 171.432 37.3019V37.6341C171.432 37.6486 171.426 37.6618 171.415 37.6734C171.406 37.6822 171.394 37.6865 171.38 37.6865H169.413C169.398 37.6865 169.385 37.6822 169.373 37.6734C169.365 37.6618 169.36 37.6486 169.36 37.6341V34.6791C169.36 34.6646 169.365 34.6529 169.373 34.6442C169.385 34.6325 169.398 34.6267 169.413 34.6267H171.38C171.394 34.6267 171.406 34.6325 171.415 34.6442C171.426 34.6529 171.432 34.6646 171.432 34.6791V35.0113ZM174.719 37.6865C174.69 37.6865 174.671 37.672 174.663 37.6428L174.518 37.1751C174.513 37.1634 174.505 37.1576 174.496 37.1576H173.342C173.334 37.1576 173.326 37.1634 173.321 37.1751L173.176 37.6428C173.168 37.672 173.149 37.6865 173.12 37.6865H172.682C172.665 37.6865 172.652 37.6822 172.643 37.6734C172.634 37.6618 172.633 37.6457 172.639 37.6253L173.587 34.6704C173.596 34.6412 173.615 34.6267 173.644 34.6267H174.191C174.22 34.6267 174.239 34.6412 174.247 34.6704L175.2 37.6253C175.203 37.6312 175.205 37.6384 175.205 37.6472C175.205 37.6734 175.189 37.6865 175.157 37.6865H174.719ZM173.456 36.7336C173.453 36.7511 173.459 36.7598 173.474 36.7598H174.361C174.378 36.7598 174.384 36.7511 174.378 36.7336L173.928 35.2692C173.925 35.2576 173.921 35.2518 173.915 35.2518C173.909 35.2518 173.905 35.2576 173.902 35.2692L173.456 36.7336ZM176.603 37.7215C176.384 37.7215 176.192 37.6792 176.026 37.5947C175.86 37.5073 175.731 37.3849 175.641 37.2275C175.551 37.0702 175.506 36.8895 175.506 36.6855V35.6277C175.506 35.4208 175.551 35.2401 175.641 35.0856C175.731 34.9283 175.86 34.8073 176.026 34.7228C176.192 34.6354 176.384 34.5917 176.603 34.5917C176.818 34.5917 177.008 34.634 177.171 34.7185C177.337 34.803 177.465 34.9181 177.556 35.0638C177.646 35.2095 177.691 35.3741 177.691 35.5577V35.5927C177.691 35.6073 177.685 35.6204 177.674 35.632C177.665 35.6408 177.653 35.6452 177.639 35.6452H177.241C177.226 35.6452 177.213 35.6408 177.202 35.632C177.193 35.6204 177.189 35.6073 177.189 35.5927V35.5709C177.189 35.4135 177.135 35.2838 177.027 35.1818C176.922 35.0798 176.781 35.0288 176.603 35.0288C176.425 35.0288 176.282 35.0827 176.174 35.1906C176.067 35.2955 176.013 35.4353 176.013 35.6102V36.703C176.013 36.8778 176.07 37.0192 176.183 37.127C176.297 37.2319 176.444 37.2844 176.625 37.2844C176.8 37.2844 176.936 37.2392 177.036 37.1489C177.138 37.0556 177.189 36.9288 177.189 36.7686V36.4976C177.189 36.483 177.181 36.4757 177.167 36.4757H176.629C176.614 36.4757 176.601 36.4713 176.59 36.4626C176.581 36.4509 176.577 36.4378 176.577 36.4232V36.0998C176.577 36.0852 176.581 36.0735 176.59 36.0648C176.601 36.0531 176.614 36.0473 176.629 36.0473H177.639C177.653 36.0473 177.665 36.0531 177.674 36.0648C177.685 36.0735 177.691 36.0852 177.691 36.0998V36.6593C177.691 36.9944 177.592 37.2552 177.394 37.4417C177.199 37.6282 176.935 37.7215 176.603 37.7215ZM178.313 37.6865C178.299 37.6865 178.286 37.6822 178.274 37.6734C178.265 37.6618 178.261 37.6486 178.261 37.6341V34.6791C178.261 34.6646 178.265 34.6529 178.274 34.6442C178.286 34.6325 178.299 34.6267 178.313 34.6267H178.715C178.73 34.6267 178.742 34.6325 178.75 34.6442C178.762 34.6529 178.768 34.6646 178.768 34.6791V37.6341C178.768 37.6486 178.762 37.6618 178.75 37.6734C178.742 37.6822 178.73 37.6865 178.715 37.6865H178.313ZM179.457 37.6865C179.443 37.6865 179.43 37.6822 179.418 37.6734C179.409 37.6618 179.405 37.6486 179.405 37.6341V34.6791C179.405 34.6646 179.409 34.6529 179.418 34.6442C179.43 34.6325 179.443 34.6267 179.457 34.6267H179.859C179.874 34.6267 179.886 34.6325 179.894 34.6442C179.906 34.6529 179.912 34.6646 179.912 34.6791V37.2275C179.912 37.2421 179.919 37.2494 179.934 37.2494H181.398C181.413 37.2494 181.424 37.2552 181.433 37.2669C181.445 37.2756 181.451 37.2873 181.451 37.3019V37.6341C181.451 37.6486 181.445 37.6618 181.433 37.6734C181.424 37.6822 181.413 37.6865 181.398 37.6865H179.457ZM183.974 35.0113C183.974 35.0259 183.968 35.039 183.956 35.0507C183.948 35.0594 183.936 35.0638 183.922 35.0638H182.431C182.416 35.0638 182.409 35.0711 182.409 35.0856V35.9031C182.409 35.9176 182.416 35.9249 182.431 35.9249H183.432C183.446 35.9249 183.458 35.9307 183.467 35.9424C183.479 35.9511 183.484 35.9628 183.484 35.9774V36.3096C183.484 36.3242 183.479 36.3373 183.467 36.3489C183.458 36.3577 183.446 36.362 183.432 36.362H182.431C182.416 36.362 182.409 36.3693 182.409 36.3839V37.2275C182.409 37.2421 182.416 37.2494 182.431 37.2494H183.922C183.936 37.2494 183.948 37.2552 183.956 37.2669C183.968 37.2756 183.974 37.2873 183.974 37.3019V37.6341C183.974 37.6486 183.968 37.6618 183.956 37.6734C183.948 37.6822 183.936 37.6865 183.922 37.6865H181.954C181.94 37.6865 181.927 37.6822 181.915 37.6734C181.906 37.6618 181.902 37.6486 181.902 37.6341V34.6791C181.902 34.6646 181.906 34.6529 181.915 34.6442C181.927 34.6325 181.94 34.6267 181.954 34.6267H183.922C183.936 34.6267 183.948 34.6325 183.956 34.6442C183.968 34.6529 183.974 34.6646 183.974 34.6791V35.0113ZM184.751 37.6953C184.661 37.6953 184.587 37.6661 184.528 37.6078C184.47 37.5496 184.441 37.4752 184.441 37.3849C184.441 37.2946 184.47 37.2203 184.528 37.162C184.587 37.1037 184.661 37.0746 184.751 37.0746C184.841 37.0746 184.914 37.1037 184.97 37.162C185.028 37.2203 185.057 37.2946 185.057 37.3849C185.057 37.4752 185.028 37.5496 184.97 37.6078C184.911 37.6661 184.839 37.6953 184.751 37.6953ZM186.612 37.6865C186.597 37.6865 186.584 37.6822 186.572 37.6734C186.564 37.6618 186.559 37.6486 186.559 37.6341V34.6791C186.559 34.6646 186.564 34.6529 186.572 34.6442C186.584 34.6325 186.597 34.6267 186.612 34.6267H187.014C187.028 34.6267 187.04 34.6325 187.049 34.6442C187.06 34.6529 187.066 34.6646 187.066 34.6791V37.2275C187.066 37.2421 187.074 37.2494 187.088 37.2494H188.553C188.567 37.2494 188.579 37.2552 188.587 37.2669C188.599 37.2756 188.605 37.2873 188.605 37.3019V37.6341C188.605 37.6486 188.599 37.6618 188.587 37.6734C188.579 37.6822 188.567 37.6865 188.553 37.6865H186.612ZM190.067 37.7302C189.848 37.7302 189.654 37.6865 189.485 37.5991C189.316 37.5088 189.185 37.382 189.092 37.2188C189.002 37.0556 188.957 36.8676 188.957 36.6549V35.6583C188.957 35.4485 189.003 35.2634 189.096 35.1031C189.19 34.9399 189.319 34.8146 189.485 34.7272C189.654 34.6369 189.848 34.5917 190.067 34.5917C190.288 34.5917 190.482 34.6369 190.648 34.7272C190.817 34.8146 190.948 34.9399 191.042 35.1031C191.135 35.2634 191.181 35.4485 191.181 35.6583V36.6549C191.181 36.8676 191.135 37.0556 191.042 37.2188C190.948 37.382 190.817 37.5088 190.648 37.5991C190.482 37.6865 190.288 37.7302 190.067 37.7302ZM190.067 37.2931C190.25 37.2931 190.398 37.2363 190.508 37.1226C190.619 37.009 190.674 36.8589 190.674 36.6724V35.6539C190.674 35.4645 190.619 35.3129 190.508 35.1993C190.398 35.0856 190.25 35.0288 190.067 35.0288C189.886 35.0288 189.74 35.0856 189.63 35.1993C189.519 35.3129 189.464 35.4645 189.464 35.6539V36.6724C189.464 36.8589 189.519 37.009 189.63 37.1226C189.74 37.2363 189.886 37.2931 190.067 37.2931ZM192.486 37.6865C192.457 37.6865 192.438 37.672 192.429 37.6428L191.511 34.6879L191.507 34.6704C191.507 34.6412 191.523 34.6267 191.555 34.6267H191.987C192.019 34.6267 192.04 34.6412 192.049 34.6704L192.704 36.9522C192.707 36.9609 192.712 36.9653 192.717 36.9653C192.723 36.9653 192.728 36.9609 192.731 36.9522L193.382 34.6704C193.391 34.6412 193.411 34.6267 193.443 34.6267H193.867C193.885 34.6267 193.898 34.6325 193.906 34.6442C193.915 34.6558 193.917 34.6704 193.911 34.6879L192.98 37.6428C192.971 37.672 192.952 37.6865 192.923 37.6865H192.486ZM196.396 35.0113C196.396 35.0259 196.39 35.039 196.379 35.0507C196.37 35.0594 196.358 35.0638 196.344 35.0638H194.853C194.838 35.0638 194.831 35.0711 194.831 35.0856V35.9031C194.831 35.9176 194.838 35.9249 194.853 35.9249H195.854C195.869 35.9249 195.88 35.9307 195.889 35.9424C195.901 35.9511 195.907 35.9628 195.907 35.9774V36.3096C195.907 36.3242 195.901 36.3373 195.889 36.3489C195.88 36.3577 195.869 36.362 195.854 36.362H194.853C194.838 36.362 194.831 36.3693 194.831 36.3839V37.2275C194.831 37.2421 194.838 37.2494 194.853 37.2494H196.344C196.358 37.2494 196.37 37.2552 196.379 37.2669C196.39 37.2756 196.396 37.2873 196.396 37.3019V37.6341C196.396 37.6486 196.39 37.6618 196.379 37.6734C196.37 37.6822 196.358 37.6865 196.344 37.6865H194.377C194.362 37.6865 194.349 37.6822 194.337 37.6734C194.329 37.6618 194.324 37.6486 194.324 37.6341V34.6791C194.324 34.6646 194.329 34.6529 194.337 34.6442C194.349 34.6325 194.362 34.6267 194.377 34.6267H196.344C196.358 34.6267 196.37 34.6325 196.379 34.6442C196.39 34.6529 196.396 34.6646 196.396 34.6791V35.0113ZM199.683 37.6865C199.654 37.6865 199.635 37.672 199.626 37.6428L199.482 37.1751C199.476 37.1634 199.469 37.1576 199.46 37.1576H198.306C198.298 37.1576 198.29 37.1634 198.284 37.1751L198.14 37.6428C198.131 37.672 198.112 37.6865 198.083 37.6865H197.646C197.629 37.6865 197.616 37.6822 197.607 37.6734C197.598 37.6618 197.597 37.6457 197.603 37.6253L198.551 34.6704C198.56 34.6412 198.579 34.6267 198.608 34.6267H199.154C199.183 34.6267 199.202 34.6412 199.211 34.6704L200.164 37.6253C200.167 37.6312 200.168 37.6384 200.168 37.6472C200.168 37.6734 200.152 37.6865 200.12 37.6865H199.683ZM198.42 36.7336C198.417 36.7511 198.423 36.7598 198.437 36.7598H199.325C199.342 36.7598 199.348 36.7511 199.342 36.7336L198.892 35.2692C198.889 35.2576 198.885 35.2518 198.879 35.2518C198.873 35.2518 198.869 35.2576 198.866 35.2692L198.42 36.7336ZM201.567 37.7215C201.348 37.7215 201.156 37.6792 200.99 37.5947C200.823 37.5073 200.695 37.3849 200.605 37.2275C200.515 37.0702 200.469 36.8895 200.469 36.6855V35.6277C200.469 35.4208 200.515 35.2401 200.605 35.0856C200.695 34.9283 200.823 34.8073 200.99 34.7228C201.156 34.6354 201.348 34.5917 201.567 34.5917C201.782 34.5917 201.972 34.634 202.135 34.7185C202.301 34.803 202.429 34.9181 202.52 35.0638C202.61 35.2095 202.655 35.3741 202.655 35.5577V35.5927C202.655 35.6073 202.649 35.6204 202.638 35.632C202.629 35.6408 202.617 35.6452 202.603 35.6452H202.205C202.19 35.6452 202.177 35.6408 202.165 35.632C202.157 35.6204 202.152 35.6073 202.152 35.5927V35.5709C202.152 35.4135 202.098 35.2838 201.991 35.1818C201.886 35.0798 201.744 35.0288 201.567 35.0288C201.389 35.0288 201.246 35.0827 201.138 35.1906C201.03 35.2955 200.976 35.4353 200.976 35.6102V36.703C200.976 36.8778 201.033 37.0192 201.147 37.127C201.261 37.2319 201.408 37.2844 201.588 37.2844C201.763 37.2844 201.9 37.2392 201.999 37.1489C202.101 37.0556 202.152 36.9288 202.152 36.7686V36.4976C202.152 36.483 202.145 36.4757 202.13 36.4757H201.593C201.578 36.4757 201.565 36.4713 201.553 36.4626C201.545 36.4509 201.54 36.4378 201.54 36.4232V36.0998C201.54 36.0852 201.545 36.0735 201.553 36.0648C201.565 36.0531 201.578 36.0473 201.593 36.0473H202.603C202.617 36.0473 202.629 36.0531 202.638 36.0648C202.649 36.0735 202.655 36.0852 202.655 36.0998V36.6593C202.655 36.9944 202.556 37.2552 202.358 37.4417C202.163 37.6282 201.899 37.7215 201.567 37.7215ZM203.277 37.6865C203.262 37.6865 203.249 37.6822 203.238 37.6734C203.229 37.6618 203.225 37.6486 203.225 37.6341V34.6791C203.225 34.6646 203.229 34.6529 203.238 34.6442C203.249 34.6325 203.262 34.6267 203.277 34.6267H203.679C203.694 34.6267 203.705 34.6325 203.714 34.6442C203.726 34.6529 203.732 34.6646 203.732 34.6791V37.6341C203.732 37.6486 203.726 37.6618 203.714 37.6734C203.705 37.6822 203.694 37.6865 203.679 37.6865H203.277ZM204.421 37.6865C204.406 37.6865 204.393 37.6822 204.382 37.6734C204.373 37.6618 204.369 37.6486 204.369 37.6341V34.6791C204.369 34.6646 204.373 34.6529 204.382 34.6442C204.393 34.6325 204.406 34.6267 204.421 34.6267H204.823C204.838 34.6267 204.849 34.6325 204.858 34.6442C204.87 34.6529 204.876 34.6646 204.876 34.6791V37.2275C204.876 37.2421 204.883 37.2494 204.897 37.2494H206.362C206.376 37.2494 206.388 37.2552 206.397 37.2669C206.408 37.2756 206.414 37.2873 206.414 37.3019V37.6341C206.414 37.6486 206.408 37.6618 206.397 37.6734C206.388 37.6822 206.376 37.6865 206.362 37.6865H204.421ZM208.938 35.0113C208.938 35.0259 208.932 35.039 208.92 35.0507C208.912 35.0594 208.9 35.0638 208.885 35.0638H207.395C207.38 35.0638 207.373 35.0711 207.373 35.0856V35.9031C207.373 35.9176 207.38 35.9249 207.395 35.9249H208.396C208.41 35.9249 208.422 35.9307 208.431 35.9424C208.442 35.9511 208.448 35.9628 208.448 35.9774V36.3096C208.448 36.3242 208.442 36.3373 208.431 36.3489C208.422 36.3577 208.41 36.362 208.396 36.362H207.395C207.38 36.362 207.373 36.3693 207.373 36.3839V37.2275C207.373 37.2421 207.38 37.2494 207.395 37.2494H208.885C208.9 37.2494 208.912 37.2552 208.92 37.2669C208.932 37.2756 208.938 37.2873 208.938 37.3019V37.6341C208.938 37.6486 208.932 37.6618 208.92 37.6734C208.912 37.6822 208.9 37.6865 208.885 37.6865H206.918C206.904 37.6865 206.891 37.6822 206.879 37.6734C206.87 37.6618 206.866 37.6486 206.866 37.6341V34.6791C206.866 34.6646 206.87 34.6529 206.879 34.6442C206.891 34.6325 206.904 34.6267 206.918 34.6267H208.885C208.9 34.6267 208.912 34.6325 208.92 34.6442C208.932 34.6529 208.938 34.6646 208.938 34.6791V35.0113Z" fill="white"/>
<path d="M153.533 3.13136C153.533 1.95424 152.579 1 151.402 1C150.592 1 149.887 1.45246 149.526 2.1185C149.166 1.45246 148.461 1 147.651 1C146.474 1 145.52 1.95424 145.52 3.13136C145.52 3.63775 145.697 4.10227 145.992 4.46793L145.991 4.46851L149.526 8.28537L153.062 4.46852L153.061 4.46794C153.356 4.10227 153.533 3.63775 153.533 3.13136Z" stroke="white" stroke-width="1.09281" stroke-miterlimit="10" stroke-linejoin="round"/>
</svg>
