<svg width="99" height="115" viewBox="0 0 99 115" fill="none" xmlns="http://www.w3.org/2000/svg">
<g clip-path="url(#clip0_1065_1744)">
<path fill-rule="evenodd" clip-rule="evenodd" d="M50.5339 35.2578C42.3446 35.2578 35.2336 39.7342 31.3867 46.3465L46.4538 55.0653C48.9893 56.5282 52.0785 56.5282 54.614 55.0653L69.6519 46.3465C65.8633 39.705 58.7232 35.2578 50.5339 35.2578Z" fill="#E1BEE7"/>
<path fill-rule="evenodd" clip-rule="evenodd" d="M46.4538 55.0704L31.3867 46.3516C29.4924 49.6284 28.4141 53.4027 28.4141 57.4402C28.4141 69.6992 38.2937 79.6176 50.5047 79.6176C62.7158 79.6176 72.5954 69.6992 72.5954 57.4402C72.5954 53.4027 71.5171 49.5992 69.6228 46.3516L54.5848 55.0704C52.1076 56.5332 48.9893 56.5332 46.4538 55.0704Z" fill="#FAFAFA"/>
<path fill-rule="evenodd" clip-rule="evenodd" d="M97.252 84.5274L69.6823 68.5234C65.8646 75.1649 58.7244 79.6121 50.5352 79.6121V114.809C51.8466 114.809 53.1289 114.458 54.2946 113.785L97.2811 88.8576C97.2811 88.8576 97.3102 88.8576 97.3102 88.8283C98.9714 87.892 98.9131 85.4637 97.252 84.5274Z" fill="#7B1FA2"/>
<path fill-rule="evenodd" clip-rule="evenodd" d="M50.5341 79.6121C42.3448 79.6121 35.2047 75.1649 31.3869 68.5234L1.01953 86.1366C1.66069 87.2776 2.62242 88.2139 3.75901 88.8868L46.7455 113.814C47.9112 114.487 49.1935 114.838 50.505 114.838V79.6121H50.5341Z" fill="#4A148C"/>
<path fill-rule="evenodd" clip-rule="evenodd" d="M50.5343 35.2595V0.0625C49.2228 0.0625 47.9405 0.413593 46.7748 1.08652L3.7883 26.0141C2.62257 26.687 1.68998 27.6525 1.04883 28.7643L31.4162 46.3775C35.234 39.7067 42.3741 35.2595 50.5343 35.2595Z" fill="#7B1FA2"/>
<path fill-rule="evenodd" clip-rule="evenodd" d="M97.3102 26.0121C97.3102 26.0121 97.2811 26.0121 97.2811 25.9828L54.2946 1.05527C53.1289 0.382343 51.8466 0.03125 50.5352 0.03125V35.2283C58.7244 35.2283 65.8646 39.6755 69.6823 46.317L97.252 30.3423C98.9131 29.406 98.9714 26.9776 97.3102 26.0121Z" fill="#4A148C"/>
<path fill-rule="evenodd" clip-rule="evenodd" d="M28.4439 57.4362C28.4439 53.3986 29.5222 49.5951 31.3874 46.3475L1.02002 28.7344C0.378864 29.8754 0 31.1628 0 32.5086V82.3345C0 83.6804 0.34972 84.9677 1.02002 86.1088L31.3874 68.4956C29.5222 65.2773 28.4439 61.4738 28.4439 57.4362Z" fill="#BA68C8"/>
<path fill-rule="evenodd" clip-rule="evenodd" d="M69.681 68.5234C65.8632 75.1649 58.7231 79.6121 50.563 79.6121C47.2989 79.6121 44.1806 78.8807 41.3828 77.6226L79.0652 99.4781L97.3089 88.9161C98.9992 87.9506 98.9992 85.4929 97.3089 84.5274L69.681 68.5234Z" fill="url(#paint0_linear_1065_1744)"/>
</g>
<defs>
<linearGradient id="paint0_linear_1065_1744" x1="15634.5" y1="12046.8" x2="11802.4" y2="-3124.17" gradientUnits="userSpaceOnUse">
<stop stop-color="#1A237E" stop-opacity="0.01"/>
<stop offset="1" stop-color="#1A237E" stop-opacity="0.3"/>
</linearGradient>
<clipPath id="clip0_1065_1744">
<rect width="99" height="114.873" fill="white"/>
</clipPath>
</defs>
</svg>
