<svg width="133" height="41" viewBox="0 0 133 41" fill="none" xmlns="http://www.w3.org/2000/svg">
<g filter="url(#filter0_d_1170_1665)">
<path d="M9.28889 29.6556C11.6222 31.4444 14.5778 32.5333 17.7667 32.5333C21.2667 32.5333 24.4556 31.2111 26.8667 29.1111C25.7778 29.8111 22.6667 31.4444 17.7667 31.4444C13.4889 31.4444 10.7667 30.5111 9.28889 29.6556ZM18.7 30.3556C22.1222 30.3556 25.8556 29.4222 28.0333 27.5556C28.6556 27.0889 29.2 26.3889 29.7444 25.5333C30.0556 24.9889 30.3667 24.3667 30.6 23.8222C28.5 26.8556 22.5111 28.8 16.2889 28.8C11.9333 28.8 7.18889 27.4 5.32222 24.6778C7.03333 28.4111 12.2444 30.3556 18.7 30.3556ZM14.9667 24.2889C7.88889 24.2889 4.54444 21.0222 4 18.7667C4 19.5444 4.07778 20.4778 4.23333 21.1778C4.31111 21.4889 4.54444 21.9556 4.93333 22.4222C6.64444 24.2111 10.9222 26.7 18.3111 26.7C28.3444 26.7 30.6778 23.3556 31.1444 22.2667C31.4556 21.4889 31.6889 20.0889 31.6889 18.8444V18.0667C30.9889 20.7111 22.4333 24.2889 14.9667 24.2889ZM5.24444 12.8556C4.85556 13.6333 4.38889 15.0333 4.23333 15.7333C4.15556 16.0444 4.23333 16.2 4.31111 16.4333C5.16667 18.2222 9.44445 21.1 19.4 21.1C25.4667 21.1 30.2111 19.6222 30.9889 16.9C31.1444 16.4333 31.1444 15.8889 30.9889 15.1889C30.7556 14.4111 30.4444 13.4778 30.0556 12.7778C30.1333 16.3556 20.1778 18.6889 15.1222 18.6889C9.67778 18.6889 5.08889 16.5111 5.08889 13.7889C5.16667 13.4 5.24444 13.0889 5.24444 12.8556ZM26.8667 8.42222C26.9444 8.5 26.9444 8.57778 26.9444 8.73333C26.9444 10.2889 22.2778 12.9333 14.8111 12.9333C9.28889 12.9333 8.27778 10.9111 8.27778 9.58889C8.27778 9.12222 8.43333 8.65556 8.82222 8.18889C8.12222 8.88889 7.5 9.51111 6.87778 10.2889C6.64444 10.6 6.48889 10.9111 6.48889 11.0667C6.48889 13.7889 13.2556 15.6556 19.4778 15.6556C26.1667 15.6556 29.2 13.4778 29.2 11.5333C29.2 10.8333 28.9667 10.4444 28.2667 9.66667C27.8 9.2 27.3333 8.81111 26.8667 8.42222ZM24.8444 6.94444C22.7444 5.7 20.4111 5 17.7667 5C15.1222 5 12.7111 5.7 10.6111 7.02222C9.98889 7.33333 9.6 7.64444 9.6 8.03333C9.6 9.2 12.3222 10.4444 17.1444 10.4444C21.8889 10.4444 25.6222 9.04444 25.6222 7.72222C25.7 7.48889 25.3889 7.25556 24.8444 6.94444Z" fill="#009FDB"/>
<path d="M54.2841 31H49.7841L57.9773 7.72727H63.1818L71.3864 31H66.8864L60.6705 12.5H60.4886L54.2841 31ZM54.4318 21.875H66.7045V25.2614H54.4318V21.875ZM70.6165 11.2614V7.72727H89.1847V11.2614H81.9915V31H77.8097V11.2614H70.6165ZM98.4432 31.3409C96.8523 31.3409 95.4848 31.053 94.3409 30.4773C93.197 29.9015 92.3144 29.125 91.6932 28.1477C91.0795 27.1629 90.7727 26.053 90.7727 24.8182C90.7727 23.8864 90.9621 23.0606 91.3409 22.3409C91.7273 21.6212 92.2576 20.9545 92.9318 20.3409C93.6136 19.7273 94.4015 19.1174 95.2955 18.5114L99.4205 15.7045C100.027 15.3106 100.485 14.8939 100.795 14.4545C101.114 14.0152 101.273 13.5 101.273 12.9091C101.273 12.4091 101.061 11.9356 100.636 11.4886C100.22 11.0417 99.6439 10.8182 98.9091 10.8182C98.4167 10.8182 97.9811 10.9356 97.6023 11.1705C97.2311 11.3977 96.9394 11.697 96.7273 12.0682C96.5227 12.4394 96.4205 12.8333 96.4205 13.25C96.4205 13.7576 96.5606 14.2727 96.8409 14.7955C97.1288 15.3182 97.5 15.8598 97.9545 16.4205C98.4167 16.9811 98.9091 17.5758 99.4318 18.2045L110.352 31H105.898L96.8295 20.6136C96.1553 19.8258 95.5038 19.0492 94.875 18.2841C94.2538 17.5189 93.7424 16.7235 93.3409 15.8977C92.947 15.0644 92.75 14.1629 92.75 13.1932C92.75 12.0947 93.0038 11.1136 93.5114 10.25C94.0189 9.37879 94.7273 8.69318 95.6364 8.19318C96.553 7.69318 97.625 7.44318 98.8523 7.44318C100.08 7.44318 101.133 7.68561 102.011 8.17045C102.89 8.6553 103.568 9.29924 104.045 10.1023C104.523 10.9053 104.761 11.7803 104.761 12.7273C104.761 13.8258 104.489 14.8106 103.943 15.6818C103.398 16.5455 102.64 17.3295 101.67 18.0341L96.9659 21.4773C96.1932 22.0379 95.6402 22.6061 95.3068 23.1818C94.9735 23.75 94.8068 24.2348 94.8068 24.6364C94.8068 25.25 94.9621 25.8068 95.2727 26.3068C95.5833 26.8068 96.0189 27.2083 96.5795 27.5114C97.1477 27.8068 97.8106 27.9545 98.5682 27.9545C99.4015 27.9545 100.223 27.7689 101.034 27.3977C101.845 27.0189 102.583 26.4811 103.25 25.7841C103.917 25.0871 104.447 24.2538 104.841 23.2841C105.235 22.3068 105.432 21.2235 105.432 20.0341H108.966C108.966 21.5038 108.803 22.7841 108.477 23.875C108.152 24.9583 107.731 25.875 107.216 26.625C106.701 27.3674 106.155 27.9621 105.58 28.4091C105.398 28.5379 105.223 28.6667 105.057 28.7955C104.89 28.9242 104.716 29.053 104.534 29.1818C103.716 29.9242 102.758 30.4697 101.659 30.8182C100.568 31.1667 99.4962 31.3409 98.4432 31.3409ZM110.054 11.2614V7.72727H128.622V11.2614H121.429V31H117.247V11.2614H110.054Z" fill="white"/>
</g>
<defs>
<filter id="filter0_d_1170_1665" x="0" y="5" width="132.623" height="35.5332" filterUnits="userSpaceOnUse" color-interpolation-filters="sRGB">
<feFlood flood-opacity="0" result="BackgroundImageFix"/>
<feColorMatrix in="SourceAlpha" type="matrix" values="0 0 0 0 0 0 0 0 0 0 0 0 0 0 0 0 0 0 127 0" result="hardAlpha"/>
<feOffset dy="4"/>
<feGaussianBlur stdDeviation="2"/>
<feComposite in2="hardAlpha" operator="out"/>
<feColorMatrix type="matrix" values="0 0 0 0 0 0 0 0 0 0 0 0 0 0 0 0 0 0 0.25 0"/>
<feBlend mode="normal" in2="BackgroundImageFix" result="effect1_dropShadow_1170_1665"/>
<feBlend mode="normal" in="SourceGraphic" in2="effect1_dropShadow_1170_1665" result="shape"/>
</filter>
</defs>
</svg>
