<svg width="283" height="197" viewBox="0 0 283 197" fill="none" xmlns="http://www.w3.org/2000/svg">
<path d="M140.346 101.226C130.264 99.5938 120.029 99.5938 109.948 101.226C87.2332 104.912 69.512 112.819 54.2011 126.115C52.7153 127.41 52.1861 129.489 52.8684 131.338C53.5635 133.187 55.3235 134.411 57.3003 134.411L69.7288 134.418C73.7717 134.418 77.7827 134.424 81.7683 134.424C94.0564 134.424 106.109 134.392 118.123 134.22H132.082C148.056 134.443 164.01 134.411 180.552 134.418L192.974 134.411C194.951 134.411 196.711 133.187 197.406 131.338C198.088 129.489 197.565 127.41 196.073 126.115C180.769 112.819 163.06 104.912 140.346 101.226ZM118.065 124.763C102.684 124.98 87.2906 124.974 71.5079 124.961C82.8714 117.742 95.8675 113.087 111.459 110.556C114.43 110.071 117.421 109.81 120.418 109.637V124.757H118.065V124.763ZM132.152 124.763H129.869V109.637C132.86 109.803 135.85 110.071 138.828 110.556C154.426 113.087 167.409 117.742 178.779 124.961C162.92 124.986 147.571 124.986 132.152 124.763Z" fill="white" fill-opacity="0.7"/>
<path d="M279.228 144.219C275.236 134.59 268.062 127.512 259.549 124.795C259.097 124.648 258.625 124.565 258.166 124.425C257.215 117.564 255.736 110.753 253.568 104.134L263.956 98.4713C269.453 95.3339 271.5 88.2174 268.49 82.5356L258.848 65.0311C257.298 62.2444 254.767 60.2421 251.719 59.394C248.709 58.5523 245.578 58.9476 242.995 60.4334L232.786 65.994C228.622 60.8926 224.247 56.2693 219.713 52.1945L225.714 42.2275C227.378 39.5939 227.895 36.4629 227.193 33.402C226.485 30.3602 224.572 27.6756 221.881 26.0176L204.842 15.7572C202.183 14.0929 199.033 13.5891 195.966 14.3097C192.911 15.043 190.239 17.0071 188.632 19.6726L182.676 29.4866C176.561 27.1527 170.522 25.3671 164.4 24.0918L164.687 12.3966C164.764 9.25921 163.597 6.27485 161.41 3.99831C159.229 1.73453 156.302 0.446409 153.152 0.376264L133.224 2.74864e-05C130.055 -0.00634936 127.019 1.09685 124.749 3.30961C122.517 5.4905 121.287 8.40472 121.287 11.4146L121.012 22.9949C114.75 23.9642 108.546 25.4436 102.488 27.4268L96.876 17.1793C93.7577 11.5931 86.6348 9.46327 80.902 12.4923L63.3975 22.1468C60.6555 23.6773 58.6595 26.1706 57.7923 29.1805C56.925 32.1967 57.2949 35.3788 58.8062 38.1081L64.3541 48.2154C59.259 52.3667 54.6421 56.7412 50.5609 61.2816L40.5174 55.2235C34.9504 51.9012 27.7127 53.674 24.384 59.2091L14.1045 76.2799C12.4784 78.9135 11.9874 82.0509 12.7271 85.0991C13.4732 88.1663 15.3671 90.749 18.039 92.3496L27.8657 98.3119C25.8634 103.579 24.3266 108.987 23.1022 114.433C21.9544 114.707 20.8257 115.026 19.6523 115.255C9.75548 117.175 3.03428 124.572 1.65688 135.03C0.687597 142.414 0.158319 150.596 0.00527435 160.792C-0.103132 168.54 1.34441 178.909 15.1758 179.566L27.853 180.133C31.8194 189.641 41.0594 196.554 52.0595 196.975C52.4357 196.987 52.7992 197 53.1691 197C64.8132 197 74.5698 189.871 78.4469 179.559H200.111C201.507 183.181 203.605 186.51 206.469 189.278C211.621 194.264 218.438 196.987 225.714 196.987C225.963 196.987 226.205 196.981 226.454 196.981C237.6 196.707 246.777 189.922 250.679 180.248L269.842 180.223C272.915 179.859 277.137 177.621 278.91 174.196C283.316 165.613 283.45 154.409 279.228 144.219ZM36.2003 92.3113L22.9428 84.2573C22.2605 83.8492 22.0118 83.2115 21.9289 82.8672C21.8524 82.5356 21.7695 81.8788 22.1967 81.2028L32.5017 64.081C33.1266 63.0288 34.5678 62.6653 35.6582 63.3349L48.6798 71.1912C50.5546 72.5877 53.6027 72.339 55.1586 70.4387C60.19 64.3743 66.3054 58.5778 73.3135 53.2085C75.1628 51.7864 75.6985 49.2293 74.5761 47.176L67.0961 33.5423C66.79 33.0002 66.7199 32.3817 66.8857 31.8014C67.0642 31.2083 67.4468 30.7237 67.9825 30.424L85.3977 20.8204C86.5264 20.2083 87.993 20.6419 88.5988 21.7515L96.0661 35.3724L96.0725 35.366C97.1438 37.3301 99.6818 38.4269 101.926 37.6298C109.795 34.7602 117.958 32.8089 126.19 31.8333C128.524 31.559 130.31 29.6014 130.361 27.2547L130.737 11.5358C130.737 10.8279 131.069 10.356 131.349 10.0818C131.776 9.66095 132.421 9.47603 133.014 9.45689L152.948 9.83313C153.789 9.85226 154.331 10.2923 154.593 10.5601C154.842 10.8215 155.25 11.37 155.231 12.1734L154.854 27.988C154.854 30.2901 156.519 32.2605 158.776 32.6495C166.856 34.0396 174.725 36.3544 182.823 39.7278C184.972 40.6461 187.465 39.8171 188.683 37.8147L196.725 24.5573C197.158 23.8367 197.815 23.588 198.166 23.5051C198.555 23.4031 199.173 23.3648 199.881 23.8112L216.933 34.0907C217.443 34.4031 217.819 34.9324 217.96 35.5446C218.049 35.9527 218.087 36.5713 217.647 37.2727L209.855 50.2113C209.16 51.085 208.802 52.1754 208.841 53.2977C208.885 54.6432 209.504 55.9122 210.55 56.7731C216.595 61.7981 222.398 67.9071 227.786 74.928C229.208 76.7709 231.759 77.3257 233.8 76.197L247.593 68.6787C248.25 68.3152 248.836 68.3981 249.174 68.4938C249.519 68.5894 250.15 68.8636 250.571 69.597L260.168 87.0249C260.78 88.1791 260.372 89.633 259.345 90.2197L245.635 97.687V97.6934C244.13 98.5223 243.078 100.129 243.078 101.934C243.078 102.489 243.18 103.037 243.365 103.554C245.52 109.465 246.987 115.568 248.084 121.728C244.283 120.86 240.476 120.102 236.727 119.356C225.057 75.164 185.591 44.5423 139.543 44.5423C99.3438 44.5423 63.2445 68.2642 47.2003 105.052C42.7876 107.367 38.3046 109.459 33.6814 111.206C34.9121 106.799 36.3214 102.431 38.1006 98.1844C39.0061 96.029 38.1898 93.5293 36.2003 92.3113ZM226.313 117.162C225.248 116.926 224.171 116.741 223.112 116.486C220.294 115.816 216.436 114.898 214.35 113.202C193.696 96.4435 168.743 86.0939 140.188 82.4399C116.262 79.4045 91.0284 78.4927 68.4352 92.5664C66.5349 93.7461 64.6474 94.9194 62.7662 96.08C79.3588 70.1581 108.016 53.9992 139.543 53.9992C179.654 53.9928 214.299 79.6086 226.313 117.162ZM52.423 187.53C42.6281 187.154 34.9058 178.985 35.2119 169.324C35.3585 164.491 37.4119 160.027 40.9638 156.756C44.3244 153.669 48.6351 151.999 53.1882 151.999C53.5134 151.999 53.8323 152.005 54.1575 152.024C63.7993 152.521 71.2793 160.875 70.8457 170.645C70.3993 180.497 62.3135 187.9 52.423 187.53ZM226.198 187.524C221.237 187.76 216.531 185.866 213.03 182.48C209.606 179.17 207.706 174.687 207.667 169.854C207.584 160.193 215.485 152.196 225.274 152.03C225.376 152.024 225.484 152.024 225.599 152.024C235.292 152.024 243.021 159.574 243.244 169.344C243.473 179.298 235.987 187.282 226.198 187.524ZM270.549 169.764C270.263 170.16 269.217 170.759 269.274 170.791H252.573C252.592 170.23 252.707 169.694 252.694 169.127C252.344 154.23 239.59 142.408 225.102 142.574C210.154 142.835 198.083 155.104 198.204 169.93C198.204 169.988 198.223 170.045 198.223 170.109H80.226C80.3791 155.595 69.1303 143.332 54.6357 142.58C47.2322 142.223 40.0391 144.761 34.5614 149.799C29.122 154.804 25.9909 161.634 25.755 169.025C25.7359 169.554 25.8506 170.058 25.8634 170.587L15.6094 170.128C11.8343 169.949 9.32823 169.835 9.46214 160.945C9.60881 151.125 10.119 143.288 11.0436 136.273C11.6366 131.733 13.9259 126.013 21.4697 124.546C41.1104 120.727 57.5436 110.492 73.4921 100.563C93.509 88.0898 116.778 88.9826 138.995 91.8203C166.16 95.2893 188.868 104.689 208.394 120.542C212.15 123.596 217.22 124.801 220.931 125.688C224.336 126.498 227.793 127.174 231.236 127.862C231.759 128.073 232.314 128.2 232.894 128.213C233.404 128.315 233.908 128.436 234.425 128.538C241.847 130.005 249.519 131.523 256.68 133.818C262.54 135.687 267.584 140.801 270.505 147.854C273.661 155.487 273.661 163.719 270.549 169.764Z" fill="white" fill-opacity="0.7"/>
</svg>
