<svg width="192" height="192" viewBox="0 0 192 192" fill="none" xmlns="http://www.w3.org/2000/svg">
<path d="M174.006 88.4758V77.8224H181.108C186.967 77.8224 191.761 73.0283 191.761 67.169V36.9144C191.761 32.1915 188.743 28.1076 184.233 26.7226L99.0057 0.479403C96.946 -0.159801 94.7798 -0.159801 92.7557 0.479403L7.52841 26.7226C3.01841 28.1075 0 32.1912 0 36.9144V67.169C0 73.0283 4.79409 77.8224 10.6534 77.8224H14.2045V88.4758C14.2045 90.4289 15.8025 92.0269 17.7557 92.0269V153.07C15.8025 153.07 14.2045 154.668 14.2045 156.621V166.955H3.55114C1.598 166.955 0 168.553 0 170.506V188.262C0 190.215 1.598 191.813 3.55114 191.813H188.21C190.163 191.813 191.761 190.215 191.761 188.262V170.506C191.761 168.553 190.163 166.955 188.21 166.955H174.006V156.621C174.006 154.668 172.408 153.07 170.455 153.07V92.0269C172.408 92.0269 174.006 90.4289 174.006 88.4758ZM166.903 84.8892H145.597V77.7869H166.903V84.8892ZM142.044 153.035C140.091 153.035 138.493 154.633 138.493 156.586V166.92H113.634V156.586C113.634 154.633 112.036 153.035 110.083 153.035V91.9914C112.036 91.9914 113.634 90.3934 113.634 88.4403V77.7869H138.493V88.4403C138.493 90.3934 140.091 91.9914 142.044 91.9914V153.035ZM49.7148 166.92V156.586C49.7148 154.633 48.1168 153.035 46.1636 153.035V91.9914C48.1168 91.9914 49.7148 90.3934 49.7148 88.4403V77.7869H78.1239V88.4403C78.1239 90.3934 79.7219 91.9914 81.675 91.9914V153.035C79.7219 153.035 78.1239 154.633 78.1239 156.586V166.92H49.7148ZM88.7784 153.035V91.9914H102.983V153.035H88.7784ZM106.534 84.8892H85.2273V77.7869H106.534V84.8892ZM85.2273 166.921V160.174H106.534V166.921H85.2273ZM7.10227 67.1687V36.9142C7.10227 35.3517 8.09659 33.9667 9.62364 33.5051L94.8509 7.29827C95.206 7.19173 95.5611 7.15622 95.8807 7.15622C96.2003 7.15622 96.591 7.19173 96.9105 7.29827L182.138 33.5051C183.629 33.9667 184.659 35.3162 184.659 36.9142V67.1687C184.659 69.1218 183.061 70.7199 181.108 70.7199H10.6535C8.70036 70.7199 7.10227 69.1218 7.10227 67.1687ZM42.6136 77.8221V84.9244H21.3068V77.8221H42.6136ZM24.858 92.0267H39.0625V153.07H24.858V92.0267ZM21.3068 160.172H42.6136V166.919H21.3068V160.172ZM184.659 184.674H7.10227V174.021H16.2998C16.7614 174.234 17.2231 174.341 17.7557 174.341H46.1648C46.6975 174.341 47.1591 174.199 47.6208 174.021H80.2208C80.6824 174.234 81.1441 174.341 81.6767 174.341H110.086C110.618 174.341 111.08 174.199 111.542 174.021H140.59C141.051 174.234 141.513 174.341 142.045 174.341H170.455C170.987 174.341 171.449 174.199 171.91 174.021H184.659L184.659 184.674ZM145.595 166.919V160.171H166.902V166.919H145.595ZM163.351 153.034H149.147V91.9905H163.351V153.034Z" fill="white" fill-opacity="0.8"/>
<path d="M99.4315 51.5086H92.3292C90.3761 51.5086 88.7781 49.9106 88.7781 47.9575C88.7781 46.0043 87.1801 44.4063 85.2269 44.4063C83.2738 44.4063 81.6758 46.0043 81.6758 47.9575C81.6758 53.8168 86.4699 58.6109 92.3292 58.6109V60.3865C92.3292 62.3396 93.9272 63.9376 95.8803 63.9376C97.8335 63.9376 99.4315 62.3396 99.4315 60.3865V58.6109C105.291 58.6109 110.085 53.8168 110.085 47.9575V46.1819C110.085 40.3226 105.291 35.5285 99.4315 35.5285H92.3292C90.3761 35.5285 88.7781 33.9305 88.7781 31.9774V30.2018C88.7781 28.2487 90.3761 26.6507 92.3292 26.6507H99.4315C101.385 26.6507 102.983 28.2487 102.983 30.2018C102.983 32.1549 104.581 33.7529 106.534 33.7529C108.487 33.7529 110.085 32.1549 110.085 30.2018C110.085 24.3425 105.291 19.5484 99.4315 19.5484V17.7728C99.4315 15.8197 97.8335 14.2217 95.8803 14.2217C93.9272 14.2217 92.3292 15.8197 92.3292 17.7728V19.5484C86.4699 19.5484 81.6758 24.3425 81.6758 30.2018V31.9774C81.6758 37.8367 86.4699 42.6308 92.3292 42.6308H99.4315C101.385 42.6308 102.983 44.2288 102.983 46.1819V47.9575C102.983 49.9106 101.385 51.5086 99.4315 51.5086Z" fill="white" fill-opacity="0.8"/>
</svg>
