<svg width="1749" height="156" viewBox="0 0 1749 156" fill="none" xmlns="http://www.w3.org/2000/svg">
<path d="M77.696 51.4013C79.4397 51.4013 81.1834 51.4147 82.9271 51.3959C83.7795 51.3852 84.0094 51.5788 83.5214 52.4163C80.6833 57.2899 77.8923 62.1916 75.0757 67.0786C73.1056 70.4932 71.1266 73.9027 69.1387 77.307C68.7744 77.9321 68.8685 78.5062 69.206 79.0856C72.5926 84.9191 75.9845 90.7485 79.3644 96.586C80.7478 98.9737 82.0775 101.394 83.4864 103.767C83.9771 104.593 83.7002 104.864 82.8949 104.86C79.3684 104.843 75.8434 104.799 72.317 104.778C71.7698 104.774 71.4444 104.498 71.189 104.054C67.6088 97.8336 64.0246 91.6143 60.4376 85.3977C59.1792 83.2098 57.9114 81.0274 56.6343 78.8504C56.3761 78.4107 56.243 78.037 56.5334 77.5382C61.407 69.149 66.2711 60.7544 71.1177 52.3491C71.4431 51.7845 71.8625 51.5962 72.4689 51.6003C74.2112 51.6137 75.9536 51.6057 77.696 51.6057V51.4013Z" fill="white"/>
<path d="M120.339 51.5932C122.082 51.5932 123.826 51.6053 125.568 51.5865C126.234 51.5798 126.64 51.8285 126.984 52.4281C131.45 60.1935 135.884 67.9791 140.475 75.6705C141.531 77.4411 141.599 78.7237 140.508 80.5225C136.922 86.4259 133.55 92.4583 130.095 98.441C129.03 100.284 127.951 102.119 126.906 103.975C126.599 104.519 126.21 104.772 125.579 104.775C122.17 104.789 118.76 104.846 115.351 104.85C114.19 104.851 114.079 104.636 114.666 103.609C117.664 98.3663 120.672 93.1297 123.69 87.8994C125.407 84.9268 127.148 81.9678 128.884 79.0074C129.292 78.3109 129.139 77.7261 128.744 77.0431C124.034 68.916 119.339 60.78 114.66 52.6352C114.001 51.4911 114.06 51.4037 115.343 51.3983C117.007 51.3929 118.673 51.397 120.339 51.397V51.5932Z" fill="white"/>
<path d="M169.677 74.4003C169.7 73.4027 169.355 73.037 168.342 72.9685C165.169 72.7547 162.225 71.8647 159.71 69.7983C159.652 69.7499 159.61 69.6988 159.555 69.6504C158.982 68.6609 158.404 67.6755 157.832 66.686C157.802 66.4763 157.754 66.28 157.748 66.0487H157.462C155.354 62.3959 153.25 58.7405 151.14 55.089C147.232 48.3212 143.286 41.5762 139.443 34.7721C138.761 33.5662 137.935 33.2865 136.677 33.2919C127.676 33.3295 118.677 33.3053 109.676 33.3188C108.038 33.3201 106.422 32.8536 104.744 33.421C104.055 33.6549 103.698 33.9117 103.615 34.514C103.298 36.782 102.647 38.9734 102.155 41.1998C101.937 42.1893 101.702 43.1761 101.481 44.1642H129.823V44.1736C130.342 44.171 130.86 44.175 131.379 44.1736C132.035 44.171 132.441 44.3188 132.792 44.948C134.486 47.9797 136.25 50.9737 137.985 53.9825C142.462 61.7412 146.924 69.5066 151.431 77.2478C151.834 77.9401 151.79 78.4255 151.404 79.0708C150.109 81.2367 148.87 83.4361 147.606 85.6222C142.73 94.0611 137.833 102.489 133.001 110.955C132.485 111.859 131.916 112.087 130.95 112.082C123.962 112.044 116.973 112.08 109.985 112.04H109.65C108.549 112.035 108.229 112.391 108.255 113.466C108.321 116.2 108.318 118.938 108.256 121.673C108.233 122.642 108.579 122.864 109.482 122.857C114.161 122.818 118.839 122.84 123.518 122.84C128.198 122.84 132.876 122.836 137.555 122.844C138.173 122.845 138.653 122.789 139.027 122.137C142.81 115.526 146.634 108.938 150.443 102.343C152.877 98.1266 155.308 93.9092 157.743 89.6944H157.745V89.6904C158.549 88.2962 159.359 86.9074 160.165 85.516C162.576 83.6499 165.469 82.9629 168.474 82.5972C169.498 82.4735 169.684 82.0729 169.672 81.2017C169.64 78.935 169.625 76.667 169.677 74.4003Z" fill="white"/>
<path d="M84.6137 112.084C78.7063 112.069 72.7976 112.066 66.8902 112.086C66.1736 112.089 65.7649 111.854 65.3939 111.207C59.1862 100.392 52.9535 89.5922 46.6957 78.8065C46.3878 78.2755 46.3972 77.9703 46.693 77.4607C52.8706 66.8116 59.0469 56.1611 65.1479 45.4675C65.7461 44.4202 66.374 44.1742 67.475 44.1823C68.2992 44.1863 69.1233 44.1836 69.9474 44.1876V44.1796H89.049C89.8529 44.0855 90.2146 43.6929 90.1958 42.7061C90.146 40.0502 90.146 37.3936 90.1958 34.7377C90.2133 33.7119 89.8274 33.318 88.8097 33.3193C79.4525 33.3368 70.0953 33.3328 60.7368 33.3234C59.9839 33.322 59.5067 33.6097 59.1248 34.2819C56.4615 38.9862 53.7766 43.6783 51.0704 48.358C46.7172 55.8868 42.3505 63.4088 37.9838 70.9309C35.787 72.2874 33.2635 72.8427 30.6594 73.1599C29.6349 73.285 29.4494 73.6843 29.4615 74.5554C29.5027 76.8224 29.5009 79.09 29.4561 81.3569C29.4333 82.3558 29.7788 82.7201 30.7911 82.7887C33.2299 82.9527 35.5302 83.5227 37.6074 84.7125L43.7931 95.4209C48.8871 104.236 53.9905 113.045 59.0643 121.871C59.4677 122.571 59.9154 122.873 60.7462 122.871C71.5298 122.846 82.3148 122.846 93.0997 122.869C93.9709 122.871 94.35 122.593 94.5517 121.723C95.2966 118.497 96.0549 115.274 96.8265 112.054H85.0507C84.9061 112.076 84.7599 112.086 84.6137 112.084Z" fill="white"/>
<path d="M110.816 51.7915H99.7348C99.4673 52.9531 99.2132 54.1187 98.9416 55.2803C97.651 60.8112 96.3025 66.3301 95.0119 71.8624C93.9189 76.5504 92.8944 81.2572 91.8001 85.9452C90.5175 91.4372 89.1905 96.9184 87.8864 102.405L87.4092 104.405H98.6889C99.7442 100.015 100.661 95.5874 101.66 91.1804C102.959 85.4451 104.249 79.7084 105.58 73.9812C106.884 68.3723 108.24 62.7754 109.563 57.1705C109.986 55.3784 110.396 53.5836 110.816 51.7915Z" fill="white"/>
<path d="M264.561 35.0234V116.905H299.638C328.013 116.905 332.818 82.6321 314.064 70.9356C324.377 57.8342 317.462 35.0261 293.069 35.0261H264.561V35.0234ZM299.638 80.2915C314.529 80.2915 314.529 103.803 299.638 103.803H278.642V80.2915H299.638ZM293.069 48.0079C307.721 48.0079 307.84 66.8405 293.295 67.0745H278.642V48.0079H293.069Z" fill="white"/>
<path d="M436.048 116.907V84.2696H444.954L467.118 116.904H483.894L460.084 82.1643C484.359 72.6888 480.257 35.0234 447.887 35.0234H421.967V116.907H436.048ZM447.887 48.2431C465.605 48.2431 465.712 71.0526 447.887 71.0526H436.048V48.2431H447.887Z" fill="white"/>
<path d="M580.523 35.0234V116.905H633.65V103.804H594.591V82.5151H625.209V69.4151H594.591V48.1248H633.65V35.0234H580.523Z" fill="white"/>
<path d="M764.729 118.075H767.183L786.428 73.9754L805.658 118.074H808.113L842.713 35.0234H827.943L806.482 86.1411L787.716 43.9128H785.247L766.362 86.1411L745.021 35.0234H730.13L764.729 118.075Z" fill="white"/>
<path d="M966.937 122.87V112.692C949.697 112.692 967.64 89.4163 958.018 78.4202C967.76 67.6595 948.516 44.0299 966.937 44.0299V33.854C926.71 33.854 966.579 73.0399 939.836 73.0399V83.8006C968.225 83.8006 925.303 122.87 966.937 122.87Z" fill="white"/>
<path d="M1106.17 120.908C1116.96 120.908 1124 118.101 1130.69 112.604L1122.47 101.374C1119.9 103.713 1115.09 106.988 1106.29 106.988C1069.36 106.988 1069.36 49.4387 1106.29 49.4387C1113.21 49.4387 1119.07 52.2459 1122.47 55.2869L1130.69 43.823C1123.65 38.5596 1114.85 35.5186 1106.17 35.5186C1049.77 35.5186 1049.77 120.908 1106.17 120.908Z" fill="white"/>
<path d="M1269.88 118.763C1290.98 118.763 1312.09 104.492 1312.09 75.9514C1312.09 47.4093 1290.98 33.1396 1269.88 33.1396C1248.64 33.1396 1227.54 47.4107 1227.54 75.9514C1227.54 104.493 1248.64 118.763 1269.88 118.763ZM1269.88 47.2937C1284.06 47.2937 1298.37 56.7679 1298.37 75.9514C1298.37 95.135 1284.06 104.609 1269.88 104.609C1255.57 104.609 1241.37 95.135 1241.37 75.9514C1241.37 56.7679 1255.57 47.2937 1269.88 47.2937Z" fill="white"/>
<path d="M1409.12 116.905H1433.39C1461.42 116.67 1475.37 96.317 1475.37 75.9638C1475.37 55.6106 1461.42 35.2574 1433.39 35.0234H1409.12V116.905H1409.12ZM1432.8 48.1248C1469.98 48.1248 1469.86 103.686 1432.8 103.686H1423.18V48.1248H1432.81H1432.8Z" fill="white"/>
<path d="M1571.51 35.5186V117.401H1624.64V104.299H1585.59V83.0103H1616.19V69.9102H1585.59V48.6199H1624.64V35.5186H1571.51Z" fill="white"/>
<path d="M1730.15 77.8123C1720.53 88.8084 1738.48 112.086 1721.23 112.086L1721.12 122.263C1762.75 122.263 1719.83 83.194 1748.22 83.194V72.432C1721.47 72.432 1761.46 33.2461 1721.12 33.2461L1721.23 43.4234C1739.54 43.4234 1720.29 67.0502 1730.15 77.8123Z" fill="white"/>
</svg>
