<svg width="409" height="37" viewBox="0 0 409 37" fill="none" xmlns="http://www.w3.org/2000/svg">
<path d="M18.177 12.0258C18.5849 12.0258 18.9929 12.0289 19.4008 12.0245C19.6002 12.022 19.654 12.0673 19.5398 12.2632C18.8759 13.4034 18.2229 14.5502 17.5639 15.6935C17.103 16.4924 16.64 17.29 16.175 18.0865C16.0897 18.2327 16.1118 18.367 16.1907 18.5026C16.983 19.8673 17.7766 21.2311 18.5673 22.5968C18.891 23.1554 19.202 23.7216 19.5317 24.2767C19.6465 24.4702 19.5817 24.5334 19.3933 24.5325C18.5682 24.5287 17.7435 24.5183 16.9185 24.5133C16.7905 24.5123 16.7144 24.4479 16.6546 24.3441C15.817 22.8887 14.9785 21.4337 14.1393 19.9793C13.8449 19.4675 13.5483 18.9569 13.2495 18.4475C13.1891 18.3447 13.158 18.2573 13.2259 18.1406C14.3661 16.1779 15.5041 14.214 16.638 12.2475C16.7141 12.1154 16.8122 12.0714 16.9541 12.0723C17.3617 12.0755 17.7693 12.0736 18.177 12.0736V12.0258Z" fill="white"/>
<path d="M28.1539 12.0707C28.5618 12.0707 28.9697 12.0735 29.3774 12.0691C29.5331 12.0675 29.6281 12.1257 29.7086 12.266C30.7534 14.0827 31.7908 15.9042 32.8649 17.7036C33.1118 18.1178 33.1278 18.4179 32.8724 18.8388C32.0336 20.2199 31.2447 21.6312 30.4364 23.0308C30.1873 23.462 29.9347 23.8914 29.6903 24.3254C29.6186 24.4528 29.5274 24.5119 29.3799 24.5126C28.5822 24.516 27.7846 24.5292 26.9869 24.5302C26.7155 24.5305 26.6894 24.4802 26.8268 24.2399C27.5281 23.0133 28.2318 21.7882 28.938 20.5646C29.3396 19.8692 29.747 19.1769 30.153 18.4843C30.2486 18.3213 30.2128 18.1845 30.1203 18.0247C29.0184 16.1234 27.92 14.2199 26.8253 12.3144C26.6712 12.0468 26.685 12.0263 26.9851 12.0251C27.3744 12.0238 27.7641 12.0248 28.1539 12.0248V12.0707Z" fill="white"/>
<path d="M39.6968 17.406C39.7021 17.1726 39.6213 17.087 39.3844 17.071C38.6421 17.021 37.9533 16.8128 37.3648 16.3293C37.3513 16.318 37.3416 16.306 37.3287 16.2947C37.1947 16.0632 37.0594 15.8327 36.9254 15.6012C36.9185 15.5521 36.9072 15.5062 36.9059 15.4521H36.8389C36.3458 14.5975 35.8535 13.7423 35.36 12.888C34.4457 11.3047 33.5225 9.72669 32.6233 8.13485C32.4638 7.85271 32.2707 7.78729 31.9763 7.78855C29.8705 7.79736 27.765 7.79169 25.6593 7.79484C25.2762 7.79515 24.8981 7.68601 24.5056 7.81874C24.3442 7.87347 24.2608 7.93355 24.2413 8.07446C24.1671 8.60507 24.0149 9.11776 23.8998 9.63862C23.8488 9.87011 23.7938 10.101 23.7422 10.3322H30.3728V10.3344C30.4942 10.3337 30.6153 10.3347 30.7367 10.3344C30.8902 10.3337 30.9852 10.3683 31.0673 10.5155C31.4636 11.2248 31.8763 11.9253 32.2823 12.6292C33.3297 14.4443 34.3736 16.2611 35.428 18.0721C35.5223 18.2341 35.5119 18.3477 35.4217 18.4986C35.1188 19.0054 34.8288 19.5199 34.5331 20.0313C33.3923 22.0057 32.2468 23.9775 31.1164 25.9581C30.9956 26.1694 30.8625 26.2229 30.6364 26.2216C29.0015 26.2128 27.3665 26.2213 25.7316 26.2119H25.6533C25.3957 26.2106 25.3208 26.294 25.3268 26.5456C25.3422 27.185 25.3416 27.8257 25.3271 28.4655C25.3218 28.6923 25.4026 28.7442 25.614 28.7426C26.7085 28.7335 27.8031 28.7385 28.8977 28.7385C29.9925 28.7385 31.0871 28.7376 32.1817 28.7395C32.3264 28.7398 32.4387 28.7266 32.5261 28.574C33.4112 27.0275 34.3057 25.4863 35.1968 23.9432C35.7664 22.9568 36.3351 21.9701 36.9047 20.9841H36.9053V20.9831C37.0934 20.6569 37.2827 20.332 37.4715 20.0065C38.0354 19.5699 38.7123 19.4092 39.4153 19.3237C39.6549 19.2947 39.6983 19.201 39.6955 18.9972C39.688 18.4669 39.6845 17.9363 39.6968 17.406Z" fill="#0552B1"/>
<path d="M19.7971 26.2211C18.415 26.2176 17.0327 26.217 15.6506 26.2217C15.483 26.2223 15.3874 26.1673 15.3006 26.016C13.8483 23.4859 12.3901 20.9591 10.9261 18.4358C10.854 18.3115 10.8562 18.2401 10.9254 18.1209C12.3707 15.6295 13.8157 13.1378 15.243 10.636C15.383 10.391 15.5298 10.3335 15.7874 10.3354C15.9803 10.3363 16.1731 10.3357 16.3659 10.3366V10.3347H20.8347C21.0228 10.3127 21.1074 10.2209 21.103 9.99C21.0914 9.36865 21.0914 8.74713 21.103 8.12578C21.1071 7.88579 21.0168 7.79363 20.7787 7.79395C18.5896 7.79804 16.4005 7.79709 14.211 7.79489C14.0349 7.79458 13.9232 7.86189 13.8339 8.01915C13.2108 9.11973 12.5827 10.2175 11.9495 11.3123C10.9311 13.0737 9.90949 14.8335 8.88789 16.5933C8.37395 16.9106 7.78358 17.0405 7.17433 17.1148C6.93466 17.144 6.89125 17.2374 6.89408 17.4412C6.90373 17.9716 6.90331 18.5021 6.89282 19.0324C6.88748 19.2661 6.96831 19.3514 7.20515 19.3674C7.77571 19.4058 8.31388 19.5392 8.79983 19.8175L10.247 22.3228C11.4387 24.3851 12.6327 26.4459 13.8197 28.5108C13.9141 28.6747 14.0188 28.7452 14.2132 28.7449C16.7361 28.7389 19.2592 28.7389 21.7824 28.7442C21.9862 28.7449 22.0749 28.6797 22.1221 28.4762C22.2964 27.7215 22.4738 26.9674 22.6543 26.2141H19.8993C19.8655 26.2192 19.8313 26.2215 19.7971 26.2211Z" fill="#0552B1"/>
<path d="M25.9252 12.1162H23.3328C23.2702 12.388 23.2108 12.6607 23.1473 12.9324C22.8453 14.2264 22.5298 15.5175 22.2279 16.8118C21.9722 17.9086 21.7325 19.0098 21.4765 20.1066C21.1764 21.3914 20.866 22.6738 20.5609 23.9574L20.4492 24.4254H23.0881C23.335 23.3981 23.5495 22.3624 23.7832 21.3313C24.0871 19.9895 24.389 18.6474 24.7004 17.3075C25.0055 15.9953 25.3226 14.6859 25.6321 13.3746C25.7311 12.9554 25.8271 12.5355 25.9252 12.1162Z" fill="#0552B1"/>
<path d="M61.8945 8.19336V27.3499H70.101C76.7394 27.3499 77.8636 19.3315 73.4759 16.5951C75.8886 13.53 74.271 8.19399 68.5642 8.19399H61.8945V8.19336ZM70.101 18.7839C73.5847 18.7839 73.5847 24.2844 70.101 24.2844H65.1889V18.7839H70.101ZM68.5642 11.2311C71.9919 11.2311 72.0199 15.637 68.617 15.6918H65.1889V11.2311H68.5642Z" fill="white"/>
<path d="M102.015 27.3502V19.7146H104.099L109.284 27.3496H113.209L107.638 19.2221C113.317 17.0053 112.358 8.19336 104.785 8.19336H98.7207V27.3502H102.015ZM104.785 11.2861C108.93 11.2861 108.955 16.6225 104.785 16.6225H102.015V11.2861H104.785Z" fill="white"/>
<path d="M135.814 8.19336V27.3499H148.243V24.2848H139.106V19.3042H146.269V16.2394H139.106V11.2585H148.243V8.19336H135.814Z" fill="white"/>
<path d="M178.911 27.6235H179.485L183.987 17.3063L188.486 27.6232H189.061L197.156 8.19336H193.7L188.679 20.1525L184.289 10.273H183.711L179.293 20.1525L174.3 8.19336H170.816L178.911 27.6235Z" fill="white"/>
<path d="M226.217 28.7453V26.3643C222.184 26.3643 226.382 20.9189 224.131 18.3463C226.41 15.8288 221.908 10.3006 226.217 10.3006V7.91992C216.806 7.91992 226.134 17.0876 219.877 17.0876V19.6051C226.519 19.6051 216.477 28.7453 226.217 28.7453Z" fill="white"/>
<path d="M258.792 28.2867C261.316 28.2867 262.962 27.6299 264.526 26.3438L262.605 23.7166C262.002 24.2638 260.878 25.03 258.82 25.03C250.179 25.03 250.179 11.5662 258.82 11.5662C260.437 11.5662 261.81 12.223 262.605 12.9344L264.526 10.2524C262.881 9.02104 260.822 8.30957 258.792 8.30957C245.595 8.30957 245.595 28.2867 258.792 28.2867Z" fill="white"/>
<path d="M297.092 27.7848C302.029 27.7848 306.969 24.446 306.969 17.7689C306.969 11.0914 302.029 7.75293 297.092 7.75293C292.124 7.75293 287.188 11.0917 287.188 17.7689C287.188 24.4463 292.124 27.7848 297.092 27.7848ZM297.092 11.0643C300.412 11.0643 303.759 13.2808 303.759 17.7689C303.759 22.2569 300.412 24.4734 297.092 24.4734C293.745 24.4734 290.423 22.2569 290.423 17.7689C290.423 13.2808 293.745 11.0643 297.092 11.0643Z" fill="white"/>
<path d="M329.666 27.3499H335.345C341.903 27.2948 345.166 22.5331 345.166 17.7715C345.166 13.0098 341.903 8.24809 335.345 8.19336H329.666V27.3499H329.666ZM335.208 11.2585C343.905 11.2585 343.877 24.2571 335.208 24.2571H332.957V11.2585H335.208H335.208Z" fill="white"/>
<path d="M367.66 8.30957V27.4661H380.089V24.401H370.955V19.4204H378.115V16.3556H370.955V11.3747H380.089V8.30957H367.66Z" fill="white"/>
<path d="M404.775 18.2047C402.524 20.7773 406.722 26.223 402.688 26.223L402.66 28.604C412.401 28.604 402.359 19.4638 409 19.4638V16.946C402.744 16.946 412.099 7.77832 402.66 7.77832L402.688 10.1593C406.97 10.1593 402.468 15.6869 404.775 18.2047Z" fill="white"/>
</svg>
