<svg width="57" height="56" viewBox="0 0 57 56" fill="none" xmlns="http://www.w3.org/2000/svg">
<path fill-rule="evenodd" clip-rule="evenodd" d="M35.5616 1.55906C35.4816 1.15906 35.1616 0.839063 34.8416 0.759063C30.7616 -0.200938 26.5216 -0.200938 22.3616 0.759063C21.9616 0.839063 21.7216 1.15906 21.6416 1.55906L21.0016 5.39906C19.0816 6.03906 17.2416 6.91906 15.5616 8.03906L12.2016 6.19906C11.8816 6.03906 11.4016 6.03906 11.0816 6.27906C7.80156 8.91906 5.16156 12.1991 3.32156 16.0391C3.16156 16.3591 3.24156 16.8391 3.48156 17.0791L6.04156 19.9591C5.32156 21.8791 4.92156 23.7991 4.68156 25.7991L1.08156 27.2391C0.841562 27.3191 0.601562 27.6391 0.601562 28.0391C0.601562 32.2791 1.56156 36.4391 3.40156 40.1991C3.56156 40.5191 3.96156 40.7591 4.36156 40.7591L8.20156 40.5191C9.24156 42.1991 10.5216 43.7991 11.9616 45.2391L10.8416 48.9191C10.7616 49.3191 10.8416 49.7191 11.1616 49.9591C14.4416 52.5991 18.2816 54.4391 22.3616 55.3991C22.7616 55.4791 23.1616 55.3191 23.4016 54.9991L25.5616 51.8791C27.5616 52.1191 29.5616 52.1191 31.5616 51.8791L33.7216 54.9991C33.9616 55.3191 34.3616 55.4791 34.7616 55.3991C38.8416 54.4391 42.6816 52.5991 45.9616 49.9591C46.2816 49.7191 46.4416 49.3191 46.2816 48.9191L45.1616 45.2391C46.6016 43.7991 47.8816 42.2791 48.9216 40.5191L52.7616 40.7591C53.1616 40.7591 53.5616 40.5991 53.7216 40.1991C55.5616 36.4391 56.5216 32.2791 56.5216 28.0391C56.5216 27.6391 56.2816 27.3191 55.9616 27.1591L52.3616 25.7191C52.2016 23.7191 51.7216 21.7191 51.0016 19.8791L53.5616 16.9991C53.8016 16.6791 53.8816 16.2791 53.7216 15.9591C51.8816 12.1991 49.2416 8.83906 45.9616 6.19906C45.6416 5.95906 45.2416 5.95906 44.9216 6.11906L41.5616 7.95906C39.8816 6.83906 38.0416 5.95906 36.1216 5.31906L35.5616 1.55906ZM33.8016 2.51906L34.3616 6.27906C34.4416 6.67906 34.6816 6.91906 35.0016 7.07906C37.1616 7.71906 39.1616 8.67906 41.0016 9.95906C41.3216 10.1991 41.7216 10.1991 42.0416 10.0391L45.3216 8.19906C48.0416 10.3591 50.2016 13.0791 51.8016 16.1991L49.2416 18.9991C49.0016 19.2391 48.9216 19.6391 49.0816 20.0391C49.8816 22.1191 50.3616 24.2791 50.5216 26.5191C50.5216 26.9191 50.7616 27.2391 51.0816 27.3191L54.6016 28.7591C54.5216 32.1991 53.7216 35.6391 52.2816 38.8391L48.6016 38.5191C48.2016 38.5191 47.8816 38.6791 47.7216 38.9991C46.6016 40.9191 45.2416 42.6791 43.6416 44.1991C43.4016 44.4391 43.2416 44.8391 43.4016 45.1591L44.4416 48.7591C41.6416 50.8391 38.5216 52.3591 35.1616 53.2391L33.0016 50.1191C32.6016 49.9591 32.2816 49.7991 31.8816 49.7991C29.7216 50.1191 27.4816 50.1191 25.2416 49.7991C24.9216 49.7191 24.5216 49.8791 24.2816 50.1991L22.1216 53.3191C18.7616 52.4391 15.5616 50.9191 12.8416 48.8391L13.8816 45.2391C13.9616 44.9191 13.8816 44.5191 13.6416 44.2791C12.0416 42.7591 10.6016 40.9991 9.48156 39.0791C9.32156 38.7591 9.00156 38.5991 8.60156 38.5991L4.84156 38.8391C3.40156 35.6391 2.68156 32.2791 2.52156 28.7591L6.04156 27.3191C6.36156 27.1591 6.60156 26.8391 6.60156 26.5191C6.76156 24.2791 7.24156 22.1191 8.04156 20.0391C8.20156 19.7191 8.12156 19.3191 7.88156 18.9991L5.40156 16.1991C7.00156 13.0791 9.16156 10.3591 11.8816 8.11906L15.1616 9.95906C15.4816 10.1191 15.8816 10.1191 16.2016 9.87906C18.0416 8.59906 20.0416 7.63906 22.2016 6.99906C22.5216 6.91906 22.7616 6.59906 22.8416 6.19906L23.4816 2.43906C26.8416 1.79906 30.3616 1.79906 33.8016 2.51906ZM28.6016 12.1191C19.8016 12.1191 12.6016 19.3191 12.6016 28.1191C12.6016 36.9191 19.8016 44.1191 28.6016 44.1191C37.4016 44.1191 44.6016 36.9191 44.6016 28.1191C44.6016 19.3191 37.4016 12.1191 28.6016 12.1191ZM28.6016 14.0391C36.3616 14.0391 42.6816 20.3591 42.6816 28.1191C42.6816 35.8791 36.3616 42.1191 28.6016 42.1191C20.8416 42.1191 14.5216 35.7991 14.5216 28.0391C14.5216 20.2791 20.8416 14.0391 28.6016 14.0391ZM20.4416 28.9191L25.4816 33.9591C25.8816 34.3591 26.4416 34.3591 26.8416 33.9591L37.1616 23.6391C37.5616 23.2391 37.5616 22.6791 37.1616 22.2791C36.7616 21.8791 36.2016 21.8791 35.8016 22.2791L26.1216 31.8791L21.8016 27.5591C21.4016 27.1591 20.7616 27.1591 20.4416 27.5591C20.0416 27.8791 20.0416 28.5191 20.4416 28.9191Z" fill="white"/>
</svg>
