<svg width="120" height="96" viewBox="0 0 120 96" fill="none" xmlns="http://www.w3.org/2000/svg">
<path d="M32.317 74.0006C29.3447 74.0002 26.3724 73.9995 22.2111 74.0006C20.8575 74.001 20.4277 76.9729 20.4277 76.9729V88.2677C20.4277 88.2677 21.0504 90.6456 22.2111 90.6456H32.317C33.6302 90.6456 34.6948 88.2677 34.6948 88.2677V76.9729C34.6948 76.9729 33.8035 74.0008 32.317 74.0006Z" stroke="white" stroke-width="3.56678"/>
<path d="M15.6727 74H4.97232C4.97232 74 2.00001 74.8914 2 76.3779C1.99997 81.1336 2.00028 84.1059 2 88.2671C1.9999 89.7536 4.97232 90.645 4.97232 90.645H15.6727" stroke="white" stroke-width="3.56678"/>
<path d="M113.595 90.5078H119.399" stroke="white" stroke-width="3.56678"/>
<path d="M99.5186 88.8618C99.5185 89.8468 101.302 90.6452 101.302 90.6452H113.786C114.38 90.6452 114.38 88.8323 114.38 87.6715V76.3781C114.38 76.3781 113.91 74.0005 112.597 74.0003C109.03 73.9995 105.463 74.0007 101.302 74.0003C100.141 74.0001 99.5186 76.3781 99.5186 76.3781C99.5186 76.3781 99.5188 84.6992 99.5186 88.8618Z" stroke="white" stroke-width="3.56678"/>
<path d="M41.8547 93.0311V82.9252C41.8547 82.9252 48.9882 82.9252 52.555 82.9252C54.1123 82.9252 54.3384 81.1419 54.3384 79.3585C54.3384 76.9074 54.5385 74.6033 52.555 74.6028C49.5827 74.6019 40.0713 74.6028 40.0713 74.6028" stroke="white" stroke-width="3.56678"/>
<path d="M80.4883 74.5994H94.7554" stroke="white" stroke-width="3.56678"/>
<path d="M94.7601 82.3259H82.2764V88.2706C82.2764 88.2706 83.341 90.6484 84.6542 90.6484C88.8155 90.6484 94.7601 90.6484 94.7601 90.6484" stroke="white" stroke-width="3.56678"/>
<path d="M59.6895 74.5996C59.6895 74.5996 68.0119 74.5996 72.1731 74.5996C73.8819 74.5996 74.4357 76.5529 74.5509 78.2729C74.6797 80.1959 74.087 82.5584 72.1731 82.5584C68.0119 82.5584 61.4728 82.5584 61.4728 82.5584V93.418" stroke="white" stroke-width="3.56678"/>
<path d="M50.5 84L55 92.5" stroke="white" stroke-width="3"/>
<path d="M74.2812 4.54872C78.4514 7.03661 81.8839 10.5901 84.2259 14.844C86.5678 19.0978 87.7348 23.8986 87.6069 28.7529C87.4789 33.6071 86.0607 38.3398 83.4979 42.4644C80.935 46.5889 78.5766 48.8586 74.2812 51.1233L68.5002 40.423C71.2476 38.9744 73.9536 38.3054 75.5928 35.6673C77.2319 33.0292 77.6735 31.598 77.7553 28.4932C77.8371 25.3884 77.0907 22.3178 75.5928 19.597C74.0948 16.8762 71.8993 14.6033 69.2321 13.012L74.2812 4.54872Z" fill="white"/>
<g filter="url(#filter0_f_628_1003)">
<path d="M80.7861 10.8828L83.7887 13.6732L85.7367 17.8345L86.8321 21.9957L87.52 26.7514L87.3328 31.1514L86.5901 32.6479L84.4136 23.2163L80.7861 10.8828Z" fill="white"/>
</g>
<path d="M59.6545 19.6144C53.7098 19.6154 42.4157 19.0205 42.4157 19.0205C42.4157 19.0205 40.6258 22.5873 40.6258 26.1541C40.6258 27.343 40.2859 30.2041 41.2194 32.6932C42.9987 37.4376 44.4422 38.8806 45.382 39.82L45.3887 39.8267C47.7673 42.2046 48.4279 43.0331 51.9265 43.9874C58.4669 45.7713 62.0323 43.9874 62.0323 43.9874C58.0857 39.5765 54.0718 38.7334 52.4547 33.8821C51.2658 30.3153 57.8652 32.6932 62.0323 31.5037C64.8295 30.7052 66.0086 27.8445 65.5991 24.9646C65.1594 21.8724 62.7778 19.6139 59.6545 19.6144Z" fill="#D9D9D9"/>
<path d="M72.44 3.21174C68.3056 1.00895 63.6746 -0.0947805 58.9911 0.00637601C54.3077 0.107533 49.7287 1.41018 45.6933 3.78943C41.6579 6.16867 38.3014 9.54472 35.9456 13.5939C33.5898 17.643 32.3137 22.2295 32.2397 26.9135C32.1658 31.5975 33.2963 36.2219 35.5231 40.3435C37.7498 44.465 40.9981 47.9453 44.9563 50.4508C48.9146 52.9563 53.4501 54.4029 58.1281 54.6519C62.806 54.901 67.4695 53.944 71.6714 51.8729L67.3144 43.0333C64.6268 44.3581 61.644 44.9701 58.6519 44.8109C55.6599 44.6516 52.7589 43.7263 50.2272 42.1238C47.6954 40.5213 45.6178 38.2952 44.1936 35.659C42.7693 33.0229 42.0462 30.065 42.0935 27.0691C42.1408 24.0732 42.957 21.1396 44.4638 18.5498C45.9706 15.9599 48.1174 13.8006 50.6985 12.2788C53.2796 10.757 56.2084 9.9238 59.204 9.8591C62.1996 9.7944 65.1615 10.5004 67.8059 11.9093L72.44 3.21174Z" fill="#000C7F"/>
<g filter="url(#filter1_f_628_1003)">
<path d="M37.5916 10.7008L40.8863 7.25507L36.3979 19.6175L32.9043 32.648L32.2369 27.7118L34.0202 19.0235L37.5916 10.7008Z" fill="white"/>
</g>
<g filter="url(#filter2_f_628_1003)">
<path d="M61.2841 20.1849L64.8506 21.3741L66.9774 27.8287L65.4081 30.2908L61.2841 20.1849Z" fill="white"/>
</g>
<defs>
<filter id="filter0_f_628_1003" x="78.4083" y="8.50496" width="11.4901" height="26.5208" filterUnits="userSpaceOnUse" color-interpolation-filters="sRGB">
<feFlood flood-opacity="0" result="BackgroundImageFix"/>
<feBlend mode="normal" in="SourceGraphic" in2="BackgroundImageFix" result="shape"/>
<feGaussianBlur stdDeviation="1.18893" result="effect1_foregroundBlur_628_1003"/>
</filter>
<filter id="filter1_f_628_1003" x="29.8595" y="4.87727" width="13.4051" height="30.1485" filterUnits="userSpaceOnUse" color-interpolation-filters="sRGB">
<feFlood flood-opacity="0" result="BackgroundImageFix"/>
<feBlend mode="normal" in="SourceGraphic" in2="BackgroundImageFix" result="shape"/>
<feGaussianBlur stdDeviation="1.18893" result="effect1_foregroundBlur_628_1003"/>
</filter>
<filter id="filter2_f_628_1003" x="58.9063" y="17.807" width="10.4491" height="14.8617" filterUnits="userSpaceOnUse" color-interpolation-filters="sRGB">
<feFlood flood-opacity="0" result="BackgroundImageFix"/>
<feBlend mode="normal" in="SourceGraphic" in2="BackgroundImageFix" result="shape"/>
<feGaussianBlur stdDeviation="1.18893" result="effect1_foregroundBlur_628_1003"/>
</filter>
</defs>
</svg>
