<svg width="149" height="39" viewBox="0 0 149 39" fill="none" xmlns="http://www.w3.org/2000/svg">
<path d="M10.428 8.90106C9.94537 9.29941 5.89286 12.9325 5.89286 12.9325C4.81348 16.133 6.39005 17.6779 7.53505 18.32L16.0821 10.7222C15.4948 10.103 14.4668 9.29468 13.2793 8.85634C12.0918 8.418 10.9106 8.50271 10.428 8.90106Z" fill="url(#paint0_linear_921_1133)"/>
<path d="M1.93395 20.1866L12.3456 31.1618L16.3576 27.5954L7.5358 18.3193C4.59789 16.2623 5.71338 14.0257 5.93055 12.899L1.05836 17.2301C0.0815633 18.0984 1.23509 19.5629 1.93395 20.1866Z" fill="url(#paint1_linear_921_1133)"/>
<path d="M21.5708 37.073C22.0239 36.8084 26.1059 33.0415 26.1059 33.0415C27.1853 29.841 25.6087 28.2961 24.4637 27.654L15.9167 35.2519C16.504 35.871 17.532 36.6793 18.7195 37.1177C19.907 37.556 21.1177 37.3375 21.5708 37.073Z" fill="url(#paint2_linear_921_1133)"/>
<path d="M30.0661 25.787L19.6544 14.8118L15.6424 18.3782L24.4642 27.6544C27.4021 29.7113 26.2866 31.9479 26.0694 33.0747L30.9416 28.7436C31.9184 27.8752 30.7649 26.4107 30.0661 25.787Z" fill="url(#paint3_linear_921_1133)"/>
<path d="M52.4205 20H47.2642V5.45455H52.4631C53.9261 5.45455 55.1856 5.74574 56.2415 6.32812C57.2973 6.90578 58.1094 7.73674 58.6776 8.82102C59.2505 9.9053 59.5369 11.2027 59.5369 12.7131C59.5369 14.2282 59.2505 15.5303 58.6776 16.6193C58.1094 17.7083 57.2926 18.544 56.2273 19.1264C55.1667 19.7088 53.8977 20 52.4205 20ZM50.3395 17.3651H52.2926C53.2017 17.3651 53.9664 17.2041 54.5866 16.8821C55.2116 16.5554 55.6804 16.0511 55.9929 15.3693C56.3101 14.6828 56.4688 13.7973 56.4688 12.7131C56.4688 11.6383 56.3101 10.7599 55.9929 10.0781C55.6804 9.39631 55.214 8.89441 54.5938 8.57244C53.9735 8.25047 53.2088 8.08949 52.2997 8.08949H50.3395V17.3651ZM63.215 20V5.45455H66.2903V11.456H72.5332V5.45455H75.6013V20H72.5332V13.9915H66.2903V20H63.215ZM82.044 20H78.7485L83.7698 5.45455H87.7329L92.7471 20H89.4516L85.8082 8.77841H85.6945L82.044 20ZM81.838 14.2827H89.6221V16.6832H81.838V14.2827ZM108.064 5.45455V20H105.408L99.0796 10.8452H98.9731V20H95.8978V5.45455H98.5967L104.875 14.6023H105.003V5.45455H108.064ZM115.08 5.45455V20H112.005V5.45455H115.08ZM119.01 20V5.45455H122.086V11.8679H122.277L127.512 5.45455H131.198L125.8 11.9673L131.262 20H127.583L123.598 14.0199L122.086 15.8665V20H119.01ZM136.706 20H133.411L138.432 5.45455H142.395L147.41 20H144.114L140.471 8.77841H140.357L136.706 20ZM136.5 14.2827H144.285V16.6832H136.5V14.2827Z" fill="url(#paint4_linear_921_1133)"/>
<path d="M51.7188 30.5653C51.6733 30.1619 51.4858 29.8494 51.1562 29.6278C50.8267 29.4034 50.4119 29.2912 49.9119 29.2912C49.554 29.2912 49.2443 29.348 48.983 29.4616C48.7216 29.5724 48.5185 29.7259 48.3736 29.9219C48.2315 30.1151 48.1605 30.3352 48.1605 30.5824C48.1605 30.7898 48.2088 30.9687 48.3054 31.1193C48.4048 31.2699 48.5341 31.3963 48.6932 31.4986C48.8551 31.598 49.0284 31.6818 49.2131 31.75C49.3977 31.8153 49.5753 31.8693 49.7457 31.9119L50.598 32.1335C50.8764 32.2017 51.1619 32.294 51.4545 32.4105C51.7472 32.527 52.0185 32.6804 52.2685 32.8707C52.5185 33.0611 52.7202 33.2969 52.8736 33.5781C53.0298 33.8594 53.108 34.196 53.108 34.5881C53.108 35.0824 52.9801 35.5213 52.7244 35.9048C52.4716 36.2884 52.1037 36.5909 51.6207 36.8125C51.1406 37.0341 50.5597 37.1449 49.8778 37.1449C49.2244 37.1449 48.6591 37.0412 48.1818 36.8338C47.7045 36.6264 47.331 36.3324 47.0611 35.9517C46.7912 35.5682 46.642 35.1136 46.6136 34.5881H47.9347C47.9602 34.9034 48.0625 35.1662 48.2415 35.3764C48.4233 35.5838 48.6548 35.7386 48.9361 35.8409C49.2202 35.9403 49.5312 35.9901 49.8693 35.9901C50.2415 35.9901 50.5724 35.9318 50.8622 35.8153C51.1548 35.696 51.3849 35.5312 51.5526 35.321C51.7202 35.108 51.804 34.8594 51.804 34.5753C51.804 34.3168 51.7301 34.1051 51.5824 33.9403C51.4375 33.7756 51.2401 33.6392 50.9901 33.5312C50.7429 33.4233 50.4631 33.3281 50.1506 33.2457L49.1193 32.9645C48.4205 32.7741 47.8665 32.4943 47.4574 32.125C47.0511 31.7557 46.848 31.267 46.848 30.6591C46.848 30.1562 46.9844 29.7173 47.2571 29.3423C47.5298 28.9673 47.8991 28.6761 48.3651 28.4688C48.831 28.2585 49.3565 28.1534 49.9418 28.1534C50.5327 28.1534 51.054 28.2571 51.5057 28.4645C51.9602 28.6719 52.3182 28.9574 52.5795 29.321C52.8409 29.6818 52.9773 30.0966 52.9886 30.5653H51.7188ZM66.3424 32.6364C66.3424 33.5682 66.172 34.3693 65.8311 35.0398C65.4902 35.7074 65.0228 36.2216 64.4291 36.5824C63.8382 36.9403 63.1663 37.1193 62.4135 37.1193C61.6578 37.1193 60.9831 36.9403 60.3893 36.5824C59.7984 36.2216 59.3325 35.706 58.9916 35.0355C58.6507 34.3651 58.4802 33.5653 58.4802 32.6364C58.4802 31.7045 58.6507 30.9048 58.9916 30.2372C59.3325 29.5668 59.7984 29.0526 60.3893 28.6946C60.9831 28.3338 61.6578 28.1534 62.4135 28.1534C63.1663 28.1534 63.8382 28.3338 64.4291 28.6946C65.0228 29.0526 65.4902 29.5668 65.8311 30.2372C66.172 30.9048 66.3424 31.7045 66.3424 32.6364ZM65.0385 32.6364C65.0385 31.9261 64.9234 31.3281 64.6933 30.8423C64.466 30.3537 64.1535 29.9844 63.7558 29.7344C63.3609 29.4815 62.9135 29.3551 62.4135 29.3551C61.9106 29.3551 61.4617 29.4815 61.0669 29.7344C60.672 29.9844 60.3595 30.3537 60.1294 30.8423C59.9021 31.3281 59.7885 31.9261 59.7885 32.6364C59.7885 33.3466 59.9021 33.946 60.1294 34.4347C60.3595 34.9205 60.672 35.2898 61.0669 35.5426C61.4617 35.7926 61.9106 35.9176 62.4135 35.9176C62.9135 35.9176 63.3609 35.7926 63.7558 35.5426C64.1535 35.2898 64.466 34.9205 64.6933 34.4347C64.9234 33.946 65.0385 33.3466 65.0385 32.6364ZM72.0641 37V28.2727H73.3809V35.8665H77.3354V37H72.0641ZM88.5298 28.2727H89.8508V34.0128C89.8508 34.6236 89.7073 35.1648 89.4204 35.6364C89.1335 36.1051 88.7301 36.4744 88.2102 36.7443C87.6903 37.0114 87.0809 37.1449 86.382 37.1449C85.686 37.1449 85.0781 37.0114 84.5582 36.7443C84.0383 36.4744 83.6349 36.1051 83.348 35.6364C83.061 35.1648 82.9176 34.6236 82.9176 34.0128V28.2727H84.2343V33.9062C84.2343 34.3011 84.321 34.652 84.4943 34.9588C84.6704 35.2656 84.919 35.5071 85.24 35.6832C85.561 35.8565 85.9417 35.9432 86.382 35.9432C86.8252 35.9432 87.2073 35.8565 87.5284 35.6832C87.8522 35.5071 88.0994 35.2656 88.2698 34.9588C88.4431 34.652 88.5298 34.3011 88.5298 33.9062V28.2727ZM95.4148 29.4062V28.2727H102.169V29.4062H99.4461V37H98.1336V29.4062H95.4148ZM109.058 28.2727V37H107.742V28.2727H109.058ZM122.637 32.6364C122.637 33.5682 122.467 34.3693 122.126 35.0398C121.785 35.7074 121.317 36.2216 120.724 36.5824C120.133 36.9403 119.461 37.1193 118.708 37.1193C117.952 37.1193 117.278 36.9403 116.684 36.5824C116.093 36.2216 115.627 35.706 115.286 35.0355C114.945 34.3651 114.775 33.5653 114.775 32.6364C114.775 31.7045 114.945 30.9048 115.286 30.2372C115.627 29.5668 116.093 29.0526 116.684 28.6946C117.278 28.3338 117.952 28.1534 118.708 28.1534C119.461 28.1534 120.133 28.3338 120.724 28.6946C121.317 29.0526 121.785 29.5668 122.126 30.2372C122.467 30.9048 122.637 31.7045 122.637 32.6364ZM121.333 32.6364C121.333 31.9261 121.218 31.3281 120.988 30.8423C120.761 30.3537 120.448 29.9844 120.05 29.7344C119.655 29.4815 119.208 29.3551 118.708 29.3551C118.205 29.3551 117.756 29.4815 117.361 29.7344C116.967 29.9844 116.654 30.3537 116.424 30.8423C116.197 31.3281 116.083 31.9261 116.083 32.6364C116.083 33.3466 116.197 33.946 116.424 34.4347C116.654 34.9205 116.967 35.2898 117.361 35.5426C117.756 35.7926 118.205 35.9176 118.708 35.9176C119.208 35.9176 119.655 35.7926 120.05 35.5426C120.448 35.2898 120.761 34.9205 120.988 34.4347C121.218 33.946 121.333 33.3466 121.333 32.6364ZM135.403 28.2727V37H134.192L129.756 30.5994H129.675V37H128.359V28.2727H129.577L134.018 34.6818H134.099V28.2727H135.403ZM146.163 30.5653C146.118 30.1619 145.93 29.8494 145.601 29.6278C145.271 29.4034 144.857 29.2912 144.357 29.2912C143.999 29.2912 143.689 29.348 143.428 29.4616C143.166 29.5724 142.963 29.7259 142.818 29.9219C142.676 30.1151 142.605 30.3352 142.605 30.5824C142.605 30.7898 142.653 30.9687 142.75 31.1193C142.85 31.2699 142.979 31.3963 143.138 31.4986C143.3 31.598 143.473 31.6818 143.658 31.75C143.842 31.8153 144.02 31.8693 144.19 31.9119L145.043 32.1335C145.321 32.2017 145.607 32.294 145.899 32.4105C146.192 32.527 146.463 32.6804 146.713 32.8707C146.963 33.0611 147.165 33.2969 147.318 33.5781C147.475 33.8594 147.553 34.196 147.553 34.5881C147.553 35.0824 147.425 35.5213 147.169 35.9048C146.916 36.2884 146.548 36.5909 146.065 36.8125C145.585 37.0341 145.004 37.1449 144.323 37.1449C143.669 37.1449 143.104 37.0412 142.627 36.8338C142.149 36.6264 141.776 36.3324 141.506 35.9517C141.236 35.5682 141.087 35.1136 141.058 34.5881H142.379C142.405 34.9034 142.507 35.1662 142.686 35.3764C142.868 35.5838 143.1 35.7386 143.381 35.8409C143.665 35.9403 143.976 35.9901 144.314 35.9901C144.686 35.9901 145.017 35.9318 145.307 35.8153C145.6 35.696 145.83 35.5312 145.997 35.321C146.165 35.108 146.249 34.8594 146.249 34.5753C146.249 34.3168 146.175 34.1051 146.027 33.9403C145.882 33.7756 145.685 33.6392 145.435 33.5312C145.188 33.4233 144.908 33.3281 144.595 33.2457L143.564 32.9645C142.865 32.7741 142.311 32.4943 141.902 32.125C141.496 31.7557 141.293 31.267 141.293 30.6591C141.293 30.1562 141.429 29.7173 141.702 29.3423C141.975 28.9673 142.344 28.6761 142.81 28.4688C143.276 28.2585 143.801 28.1534 144.386 28.1534C144.977 28.1534 145.499 28.2571 145.95 28.4645C146.405 28.6719 146.763 28.9574 147.024 29.321C147.286 29.6818 147.422 30.0966 147.433 30.5653H146.163Z" fill="white"/>
<defs>
<linearGradient id="paint0_linear_921_1133" x1="15.0035" y1="8.56736" x2="6.36645" y2="17.4038" gradientUnits="userSpaceOnUse">
<stop stop-color="#0139A6"/>
<stop offset="0.517338" stop-color="#0275C0"/>
<stop offset="1" stop-color="#07B6DE"/>
</linearGradient>
<linearGradient id="paint1_linear_921_1133" x1="2.96528" y1="15.5349" x2="14.8655" y2="28.9218" gradientUnits="userSpaceOnUse">
<stop stop-color="#07249D"/>
<stop offset="0.481949" stop-color="#0285C8"/>
<stop offset="1" stop-color="#01EDF7"/>
</linearGradient>
<linearGradient id="paint2_linear_921_1133" x1="16.9954" y1="37.4067" x2="25.6325" y2="28.5702" gradientUnits="userSpaceOnUse">
<stop stop-color="#0139A6"/>
<stop offset="0.517338" stop-color="#0275C0"/>
<stop offset="1" stop-color="#07B6DE"/>
</linearGradient>
<linearGradient id="paint3_linear_921_1133" x1="29.0347" y1="30.4387" x2="17.1345" y2="17.0518" gradientUnits="userSpaceOnUse">
<stop stop-color="#07249D"/>
<stop offset="0.481949" stop-color="#0285C8"/>
<stop offset="1" stop-color="#01EDF7"/>
</linearGradient>
<linearGradient id="paint4_linear_921_1133" x1="37.8696" y1="13" x2="118.556" y2="36.5826" gradientUnits="userSpaceOnUse">
<stop stop-color="#0144AC"/>
<stop offset="0.711493" stop-color="#0596CF"/>
<stop offset="1" stop-color="#06B6DF"/>
</linearGradient>
</defs>
</svg>
