<svg width="198" height="52" viewBox="0 0 198 52" fill="none" xmlns="http://www.w3.org/2000/svg">
<path d="M13.8627 11.8244C13.2211 12.3539 7.83402 17.1835 7.83402 17.1835C6.39917 21.4379 8.49494 23.4916 10.017 24.3452L21.3788 14.2452C20.5981 13.4222 19.2315 12.3476 17.6529 11.7649C16.0744 11.1822 14.5042 11.2949 13.8627 11.8244Z" fill="white"/>
<path d="M2.57084 26.827L16.4113 41.4166L21.7445 36.6757L10.0175 24.3447C6.11208 21.6103 7.59492 18.6372 7.88361 17.1394L1.4069 22.8968C0.108424 24.0511 1.64183 25.9979 2.57084 26.827Z" fill="white"/>
<path d="M28.6739 49.2778C29.2762 48.9261 34.7025 43.9186 34.7025 43.9186C36.1374 39.6642 34.0416 37.6105 32.5195 36.757L21.1578 46.857C21.9385 47.68 23.3051 48.7545 24.8836 49.3372C26.4622 49.9199 28.0716 49.6294 28.6739 49.2778Z" fill="white"/>
<path d="M39.9682 34.2716L26.1278 19.682L20.7945 24.423L32.5216 36.7539C36.427 39.4883 34.9441 42.4614 34.6554 43.9593L41.1322 38.2018C42.4306 37.0476 40.8972 35.1008 39.9682 34.2716Z" fill="white"/>
<path d="M69.6852 27H62.8309V7.6644H69.7419C71.6868 7.6644 73.361 8.05149 74.7646 8.82567C76.1682 9.59356 77.2477 10.6982 78.0029 12.1395C78.7645 13.5809 79.1453 15.3055 79.1453 17.3133C79.1453 19.3274 78.7645 21.0583 78.0029 22.506C77.2477 23.9536 76.1619 25.0646 74.7457 25.8387C73.3358 26.6129 71.649 27 69.6852 27ZM66.919 23.4973H69.5153C70.7238 23.4973 71.7403 23.2833 72.5648 22.8553C73.3956 22.421 74.0188 21.7507 74.4342 20.8443C74.8559 19.9317 75.0667 18.7547 75.0667 17.3133C75.0667 15.8846 74.8559 14.717 74.4342 13.8106C74.0188 12.9043 73.3988 12.2371 72.5743 11.8091C71.7497 11.3811 70.7332 11.1671 69.5247 11.1671H66.919V23.4973ZM84.0347 27V7.6644H88.1227V15.6422H96.4215V7.6644H100.5V27H96.4215V19.0127H88.1227V27H84.0347ZM109.064 27H104.684L111.359 7.6644H116.627L123.292 27H118.912L114.068 12.0829H113.917L109.064 27ZM108.791 19.3998H119.138V22.591H108.791V19.3998ZM143.653 7.6644V27H140.122L131.71 14.8303H131.569V27H127.481V7.6644H131.068L139.414 19.8247H139.584V7.6644H143.653ZM152.98 7.6644V27H148.892V7.6644H152.98ZM158.205 27V7.6644H162.293V16.1898H162.548L169.506 7.6644H174.406L167.23 16.322L174.491 27H169.6L164.304 19.0505L162.293 21.5052V27H158.205ZM181.728 27H177.348L184.023 7.6644H189.291L195.956 27H191.576L186.732 12.0829H186.581L181.728 27ZM181.455 19.3998H191.802V22.591H181.455V19.3998Z" fill="white"/>
<path d="M68.7525 41.3398C68.692 40.8036 68.4428 40.3881 68.0047 40.0936C67.5666 39.7952 67.0153 39.6461 66.3506 39.6461C65.8748 39.6461 65.4631 39.7216 65.1157 39.8727C64.7683 40.0199 64.4982 40.2239 64.3056 40.4844C64.1168 40.7412 64.0224 41.0339 64.0224 41.3625C64.0224 41.6382 64.0866 41.8761 64.215 42.0762C64.3472 42.2764 64.519 42.4444 64.7305 42.5804C64.9458 42.7126 65.1761 42.824 65.4216 42.9146C65.6671 43.0015 65.9031 43.0732 66.1297 43.1299L67.2626 43.4244C67.6327 43.5151 68.0123 43.6378 68.4012 43.7926C68.7902 43.9475 69.1509 44.1514 69.4832 44.4044C69.8155 44.6575 70.0837 44.9709 70.2876 45.3448C70.4953 45.7187 70.5992 46.1662 70.5992 46.6873C70.5992 47.3444 70.4292 47.9279 70.0893 48.4377C69.7532 48.9475 69.2642 49.3497 68.6222 49.6443C67.9839 49.9389 67.2116 50.0862 66.3053 50.0862C65.4367 50.0862 64.6852 49.9483 64.0507 49.6726C63.4163 49.3969 62.9197 49.0061 62.5609 48.5C62.2021 47.9902 62.0039 47.386 61.9661 46.6873H63.7222C63.7562 47.1065 63.8921 47.4558 64.13 47.7353C64.3717 48.011 64.6795 48.2168 65.0534 48.3527C65.431 48.4849 65.8446 48.551 66.294 48.551C66.7887 48.551 67.2286 48.4736 67.6138 48.3188C68.0028 48.1601 68.3087 47.9411 68.5315 47.6617C68.7543 47.3784 68.8657 47.048 68.8657 46.6703C68.8657 46.3267 68.7676 46.0453 68.5712 45.8263C68.3786 45.6072 68.1161 45.426 67.7838 45.2825C67.4552 45.139 67.0832 45.0125 66.6678 44.9029L65.297 44.5291C64.368 44.276 63.6315 43.9041 63.0877 43.4131C62.5477 42.9222 62.2777 42.2726 62.2777 41.4644C62.2777 40.796 62.4589 40.2125 62.8215 39.714C63.184 39.2155 63.675 38.8285 64.2943 38.5528C64.9137 38.2733 65.6123 38.1336 66.3903 38.1336C67.1758 38.1336 67.8688 38.2714 68.4692 38.5471C69.0735 38.8228 69.5493 39.2023 69.8967 39.6857C70.2442 40.1653 70.4254 40.7167 70.4405 41.3398H68.7525ZM88.192 44.0929C88.192 45.3316 87.9654 46.3965 87.5123 47.2878C87.0591 48.1753 86.4379 48.8588 85.6486 49.3384C84.8631 49.8142 83.9699 50.0522 82.9692 50.0522C81.9646 50.0522 81.0677 49.8142 80.2784 49.3384C79.4929 48.8588 78.8736 48.1734 78.4204 47.2821C77.9672 46.3909 77.7406 45.3278 77.7406 44.0929C77.7406 42.8542 77.9672 41.7911 78.4204 40.9036C78.8736 40.0124 79.4929 39.3288 80.2784 38.853C81.0677 38.3734 81.9646 38.1336 82.9692 38.1336C83.9699 38.1336 84.8631 38.3734 85.6486 38.853C86.4379 39.3288 87.0591 40.0124 87.5123 40.9036C87.9654 41.7911 88.192 42.8542 88.192 44.0929ZM86.4586 44.0929C86.4586 43.1488 86.3057 42.3538 85.9998 41.708C85.6977 41.0585 85.2823 40.5675 84.7535 40.2352C84.2286 39.8991 83.6338 39.731 82.9692 39.731C82.3007 39.731 81.704 39.8991 81.1791 40.2352C80.6542 40.5675 80.2388 41.0585 79.9329 41.708C79.6307 42.3538 79.4797 43.1488 79.4797 44.0929C79.4797 45.037 79.6307 45.8338 79.9329 46.4834C80.2388 47.1292 80.6542 47.6201 81.1791 47.9562C81.704 48.2885 82.3007 48.4547 82.9692 48.4547C83.6338 48.4547 84.2286 48.2885 84.7535 47.9562C85.2823 47.6201 85.6977 47.1292 85.9998 46.4834C86.3057 45.8338 86.4586 45.037 86.4586 44.0929ZM95.798 49.8936V38.2922H97.5484V48.3867H102.805V49.8936H95.798ZM117.686 38.2922H119.442V45.9226C119.442 46.7345 119.252 47.4539 118.87 48.0808C118.489 48.704 117.952 49.1949 117.261 49.5537C116.57 49.9087 115.76 50.0862 114.831 50.0862C113.906 50.0862 113.098 49.9087 112.407 49.5537C111.716 49.1949 111.179 48.704 110.798 48.0808C110.416 47.4539 110.226 46.7345 110.226 45.9226V38.2922H111.976V45.781C111.976 46.3059 112.091 46.7723 112.322 47.1802C112.556 47.588 112.886 47.909 113.313 48.1432C113.74 48.3735 114.246 48.4887 114.831 48.4887C115.42 48.4887 115.928 48.3735 116.355 48.1432C116.785 47.909 117.114 47.588 117.341 47.1802C117.571 46.7723 117.686 46.3059 117.686 45.781V38.2922ZM126.839 39.799V38.2922H135.817V39.799H132.197V49.8936H130.453V39.799H126.839ZM144.975 38.2922V49.8936H143.225V38.2922H144.975ZM163.026 44.0929C163.026 45.3316 162.799 46.3965 162.346 47.2878C161.893 48.1753 161.271 48.8588 160.482 49.3384C159.697 49.8142 158.803 50.0522 157.803 50.0522C156.798 50.0522 155.901 49.8142 155.112 49.3384C154.326 48.8588 153.707 48.1734 153.254 47.2821C152.801 46.3909 152.574 45.3278 152.574 44.0929C152.574 42.8542 152.801 41.7911 153.254 40.9036C153.707 40.0124 154.326 39.3288 155.112 38.853C155.901 38.3734 156.798 38.1336 157.803 38.1336C158.803 38.1336 159.697 38.3734 160.482 38.853C161.271 39.3288 161.893 40.0124 162.346 40.9036C162.799 41.7911 163.026 42.8542 163.026 44.0929ZM161.292 44.0929C161.292 43.1488 161.139 42.3538 160.833 41.708C160.531 41.0585 160.116 40.5675 159.587 40.2352C159.062 39.8991 158.467 39.731 157.803 39.731C157.134 39.731 156.538 39.8991 156.013 40.2352C155.488 40.5675 155.072 41.0585 154.766 41.708C154.464 42.3538 154.313 43.1488 154.313 44.0929C154.313 45.037 154.464 45.8338 154.766 46.4834C155.072 47.1292 155.488 47.6201 156.013 47.9562C156.538 48.2885 157.134 48.4547 157.803 48.4547C158.467 48.4547 159.062 48.2885 159.587 47.9562C160.116 47.6201 160.531 47.1292 160.833 46.4834C161.139 45.8338 161.292 45.037 161.292 44.0929ZM179.995 38.2922V49.8936H178.387L172.49 41.3851H172.382V49.8936H170.632V38.2922H172.252L178.154 46.8119H178.262V38.2922H179.995ZM194.3 41.3398C194.239 40.8036 193.99 40.3881 193.552 40.0936C193.114 39.7952 192.563 39.6461 191.898 39.6461C191.422 39.6461 191.011 39.7216 190.663 39.8727C190.316 40.0199 190.046 40.2239 189.853 40.4844C189.664 40.7412 189.57 41.0339 189.57 41.3625C189.57 41.6382 189.634 41.8761 189.762 42.0762C189.895 42.2764 190.066 42.4444 190.278 42.5804C190.493 42.7126 190.724 42.824 190.969 42.9146C191.214 43.0015 191.451 43.0732 191.677 43.1299L192.81 43.4244C193.18 43.5151 193.56 43.6378 193.949 43.7926C194.338 43.9475 194.698 44.1514 195.031 44.4044C195.363 44.6575 195.631 44.9709 195.835 45.3448C196.043 45.7187 196.147 46.1662 196.147 46.6873C196.147 47.3444 195.977 47.9279 195.637 48.4377C195.301 48.9475 194.812 49.3497 194.17 49.6443C193.531 49.9389 192.759 50.0862 191.853 50.0862C190.984 50.0862 190.233 49.9483 189.598 49.6726C188.964 49.3969 188.467 49.0061 188.108 48.5C187.75 47.9902 187.551 47.386 187.514 46.6873H189.27C189.304 47.1065 189.44 47.4558 189.677 47.7353C189.919 48.011 190.227 48.2168 190.601 48.3527C190.978 48.4849 191.392 48.551 191.841 48.551C192.336 48.551 192.776 48.4736 193.161 48.3188C193.55 48.1601 193.856 47.9411 194.079 47.6617C194.302 47.3784 194.413 47.048 194.413 46.6703C194.413 46.3267 194.315 46.0453 194.119 45.8263C193.926 45.6072 193.664 45.426 193.331 45.2825C193.003 45.139 192.631 45.0125 192.215 44.9029L190.844 44.5291C189.915 44.276 189.179 43.9041 188.635 43.4131C188.095 42.9222 187.825 42.2726 187.825 41.4644C187.825 40.796 188.006 40.2125 188.369 39.714C188.731 39.2155 189.222 38.8285 189.842 38.5528C190.461 38.2733 191.16 38.1336 191.938 38.1336C192.723 38.1336 193.416 38.2714 194.017 38.5471C194.621 38.8228 195.097 39.2023 195.444 39.6857C195.792 40.1653 195.973 40.7167 195.988 41.3398H194.3Z" fill="white"/>
</svg>
