<svg width="56" height="56" viewBox="0 0 56 56" fill="none" xmlns="http://www.w3.org/2000/svg">
<g clip-path="url(#clip0_1595_3045)">
<path fill-rule="evenodd" clip-rule="evenodd" d="M24.5003 9.33295C20.4779 9.33295 16.6202 10.9309 13.7759 13.7752C10.9316 16.6195 9.33366 20.4772 9.33366 24.4996C9.33366 28.5221 10.9316 32.3798 13.7759 35.2241C16.6202 38.0684 20.4779 39.6663 24.5003 39.6663C28.5228 39.6663 32.3805 38.0684 35.2248 35.2241C38.0691 32.3798 39.667 28.5221 39.667 24.4996C39.667 20.4772 38.0691 16.6195 35.2248 13.7752C32.3805 10.9309 28.5228 9.33295 24.5003 9.33295ZM4.66699 24.4996C4.66726 21.337 5.42384 18.2203 6.87361 15.4095C8.32338 12.5988 10.4243 10.1755 13.0011 8.34183C15.5779 6.50817 18.5558 5.3173 21.6864 4.8686C24.8171 4.4199 28.0096 4.72636 30.9977 5.76243C33.9858 6.7985 36.6828 8.53412 38.8637 10.8245C41.0446 13.1149 42.6461 15.8936 43.5347 18.9288C44.4233 21.964 44.5732 25.1677 43.9718 28.2727C43.3704 31.3776 42.0352 34.2937 40.0777 36.7776L48.599 45.299C49.024 45.739 49.2592 46.3284 49.2539 46.9402C49.2486 47.552 49.0032 48.1372 48.5706 48.5699C48.138 49.0025 47.5527 49.2479 46.9409 49.2532C46.3291 49.2585 45.7397 49.0233 45.2997 48.5983L36.7783 40.077C33.8538 42.3823 30.3393 43.8177 26.637 44.2188C22.9348 44.62 19.1944 43.9708 15.8439 42.3455C12.4934 40.7201 9.66816 38.1843 7.69153 35.0283C5.71491 31.8723 4.66674 28.2235 4.66699 24.4996ZM22.167 16.3329C22.167 15.7141 22.4128 15.1206 22.8504 14.683C23.288 14.2454 23.8815 13.9996 24.5003 13.9996C27.2851 13.9996 29.9558 15.1059 31.9249 17.075C33.8941 19.0441 35.0003 21.7148 35.0003 24.4996C35.0003 25.1185 34.7545 25.7119 34.3169 26.1495C33.8793 26.5871 33.2858 26.833 32.667 26.833C32.0482 26.833 31.4547 26.5871 31.0171 26.1495C30.5795 25.7119 30.3337 25.1185 30.3337 24.4996C30.3337 22.9525 29.7191 21.4688 28.6251 20.3748C27.5312 19.2809 26.0474 18.6663 24.5003 18.6663C23.8815 18.6663 23.288 18.4204 22.8504 17.9829C22.4128 17.5453 22.167 16.9518 22.167 16.3329Z" fill="white"/>
</g>
<defs>
<clipPath id="clip0_1595_3045">
<rect width="56" height="56" fill="white"/>
</clipPath>
</defs>
</svg>
