<svg width="66" height="66" viewBox="0 0 66 66" fill="none" xmlns="http://www.w3.org/2000/svg">
<path d="M29.7006 13.2C27.1827 13.2 24.8331 13.9029 22.83 15.1272C22.6232 14.0197 22.2458 12.9509 21.7113 11.9592C24.2236 10.5689 27.0551 9.85824 29.9262 9.8975C32.7972 9.93676 35.6083 10.7246 38.0816 12.183C40.555 13.6415 42.6049 15.7201 44.0288 18.2135C45.4527 20.7069 46.2013 23.5287 46.2006 26.4H54.4539C55.7661 26.4008 57.0243 26.9227 57.9519 27.851C58.8795 28.7792 59.4006 30.0377 59.4006 31.35V51.15C59.4006 52.4628 58.8791 53.7218 57.9508 54.6501C57.0225 55.5784 55.7634 56.1 54.4506 56.1H34.6506C33.3378 56.1 32.0787 55.5784 31.1504 54.6501C30.2221 53.7218 29.7006 52.4628 29.7006 51.15V42.9C27.4052 42.9012 25.1348 42.4235 23.0346 41.4975C23.0786 40.3777 23.1006 39.1952 23.1006 37.95V37.8345C25.041 38.9565 27.2949 39.6 29.7006 39.6V31.35C29.7006 30.0371 30.2221 28.7781 31.1504 27.8498C32.0787 26.9215 33.3378 26.4 34.6506 26.4H42.9006C42.9006 22.8991 41.5099 19.5416 39.0344 17.0662C36.5589 14.5907 33.2014 13.2 29.7006 13.2ZM45.8706 29.7C45.2199 32.8691 43.6537 35.7777 41.366 38.0654C39.0783 40.3531 36.1697 41.9193 33.0006 42.57V51.15C33.0006 51.5876 33.1744 52.0073 33.4839 52.3167C33.7933 52.6261 34.213 52.8 34.6506 52.8H54.4506C54.8882 52.8 55.3079 52.6261 55.6173 52.3167C55.9267 52.0073 56.1006 51.5876 56.1006 51.15V31.35C56.1006 30.9124 55.9267 30.4927 55.6173 30.1832C55.3079 29.8738 54.8882 29.7 54.4506 29.7H45.8706ZM42.4848 29.7H34.6506C34.213 29.7 33.7933 29.8738 33.4839 30.1832C33.1744 30.4927 33.0006 30.9124 33.0006 31.35V39.1842C35.2831 38.5917 37.3659 37.4002 39.0333 35.7327C40.7008 34.0652 41.8924 31.9825 42.4848 29.7ZM15.1179 7.01247C15.3918 7.25205 15.5788 7.57547 15.6498 7.93238C15.7209 8.28929 15.6719 8.65967 15.5106 8.98587C15.4813 9.08211 15.4668 9.18226 15.4677 9.28287C15.4677 9.49077 15.5205 9.88677 16.0188 10.3818C16.2597 10.6227 16.4445 10.7943 16.6458 10.9824C16.8108 11.1342 16.9857 11.2926 17.2068 11.5104C17.6358 11.9196 18.0879 12.4014 18.4938 13.0053C19.3353 14.2692 19.8006 15.8499 19.8006 18.15C19.8006 20.9649 18.7578 23.364 17.1309 24.8358L17.3421 25.08C18.2661 26.2152 18.804 27.687 19.1406 29.139C19.8006 32.01 19.8006 35.4618 19.8006 37.8675V37.95C19.8006 47.1471 18.5499 52.3644 17.1738 55.3476C16.4808 56.8491 15.7449 57.8061 15.108 58.4067C14.8487 58.6547 14.5632 58.8738 14.2566 59.0601C14.116 59.1446 13.9693 59.2185 13.8177 59.2812C13.8177 59.2812 13.4448 59.4 13.2006 59.4C12.9564 59.4 12.5835 59.2812 12.5835 59.2812C12.4319 59.2185 12.2852 59.1446 12.1446 59.0601C11.8379 58.8738 11.5525 58.6547 11.2932 58.4067C10.6563 57.8028 9.92039 56.8491 9.22739 55.3476C7.85129 52.3644 6.60059 47.1471 6.60059 37.95V37.8675C6.60059 35.4585 6.60059 32.01 7.26059 29.139C7.59719 27.687 8.13509 26.2152 9.05909 25.08C9.12509 24.9964 9.19549 24.915 9.27029 24.8358C7.64339 23.364 6.60059 20.9649 6.60059 18.15C6.60059 17.0742 6.88769 15.7905 7.28369 14.6058C7.67969 13.4211 8.23409 12.1902 8.87429 11.2002C9.63659 9.91317 10.7091 8.83407 11.5407 8.10807C11.9983 7.70911 12.474 7.33141 12.9663 6.97617L13.0653 6.91017L13.095 6.88706L13.1049 6.88047L13.1115 6.87717C13.4141 6.67546 13.7748 6.57937 14.1377 6.60384C14.5005 6.62831 14.8451 6.77196 15.1179 7.01247ZM13.2006 23.1C14.4777 23.0967 16.5006 21.681 16.5006 18.15C16.5006 16.3251 16.1409 15.4308 15.7449 14.8368C15.5035 14.4903 15.2258 14.1706 14.9166 13.8831L14.5074 13.5003C14.2401 13.2495 13.9266 12.9591 13.6824 12.7182C13.3224 12.3602 13.0127 11.955 12.7617 11.5137C12.3418 11.9555 11.9721 12.4424 11.6595 12.9657C11.1975 13.6752 10.7487 14.6487 10.4154 15.6519C10.0722 16.6749 9.90059 17.5791 9.90059 18.15C9.90059 21.6876 11.9301 23.1 13.2006 23.1ZM11.6166 27.1656C11.148 27.7365 10.7586 28.6473 10.4748 29.8815C9.90719 32.3499 9.90059 35.4519 9.90059 37.95C9.90059 46.9029 11.1249 51.5856 12.2238 53.9649C12.5868 54.747 12.9267 55.2684 13.2006 55.6149C13.5892 55.1047 13.917 54.551 14.1774 53.9649C15.2763 51.5856 16.5006 46.9029 16.5006 37.95C16.5006 35.4519 16.494 32.3499 15.9231 29.8815C15.6393 28.6473 15.2499 27.7365 14.7846 27.1656C14.603 26.9185 14.3637 26.7196 14.0876 26.5862C13.8115 26.4527 13.507 26.3888 13.2006 26.4H13.194C12.8887 26.3899 12.5855 26.4543 12.3106 26.5877C12.0358 26.7211 11.7976 26.9195 11.6166 27.1656Z" fill="white"/>
</svg>
