<svg width="55" height="54" viewBox="0 0 55 54" fill="none" xmlns="http://www.w3.org/2000/svg">
<path d="M54.2503 22.9503L48.7697 12.1819C48.5932 11.835 48.3489 11.5255 48.0506 11.2713C47.7523 11.0171 47.406 10.823 47.0313 10.7002C46.6566 10.5774 46.261 10.5282 45.867 10.5555C45.473 10.5828 45.0883 10.6861 44.7349 10.8593L39.2435 13.5551L27.8289 10.5893C27.6133 10.5345 27.387 10.5345 27.1714 10.5893L15.7568 13.5551L10.2675 10.8593C9.91405 10.6858 9.52919 10.5823 9.13494 10.5548C8.7407 10.5273 8.34481 10.5764 7.96989 10.6992C7.59498 10.822 7.2484 11.0162 6.94996 11.2706C6.65153 11.525 6.40709 11.8347 6.23061 12.1819L0.74995 22.9503C0.393385 23.6507 0.334761 24.4615 0.586971 25.2044C0.83918 25.9473 1.38157 26.5614 2.09487 26.9117L7.92788 29.7762L19.8753 38.1547C20.0048 38.2463 20.1505 38.3135 20.305 38.3529L34.055 41.7279C34.1597 41.7537 34.2672 41.7665 34.3751 41.7659C34.7169 41.7656 35.0446 41.6321 35.2861 41.3947L47.1691 29.7277L52.9054 26.9117C53.6187 26.5614 54.1611 25.9473 54.4133 25.2044C54.6655 24.4615 54.6069 23.6507 54.2503 22.9503ZM42.8636 30.3668L35.1722 24.3172C34.9242 24.1222 34.6115 24.0241 34.2943 24.0417C33.9771 24.0592 33.6777 24.1911 33.4535 24.4121C29.4466 28.3756 24.9671 27.8757 22.1119 26.0827C22.0557 26.0487 22.0083 26.0025 21.9733 25.9476C21.9383 25.8928 21.9166 25.8307 21.9099 25.7663C21.9023 25.7072 21.9082 25.6472 21.9271 25.5907C21.9461 25.5341 21.9776 25.4824 22.0195 25.4393L31.4597 16.4534H38.7343L44.838 28.4389L42.8636 30.3668ZM3.03159 24.4036C2.99606 24.2979 3.00456 24.1826 3.05522 24.083L8.53804 13.3126C8.57407 13.2423 8.62937 13.1834 8.6977 13.1424C8.76604 13.1014 8.84468 13.08 8.92476 13.0805C8.99112 13.0806 9.05657 13.0958 9.11597 13.1248L13.8876 15.4662L8.01811 27.0003L3.24643 24.6589C3.19494 24.6328 3.14936 24.5967 3.11244 24.5528C3.07552 24.509 3.04802 24.4582 3.03159 24.4036ZM33.9798 39.0997L21.1751 35.9567L10.2396 28.287L16.5087 15.9788L27.5001 13.1227L30.6798 13.9496C30.4367 13.9958 30.2126 14.1109 30.0353 14.2808L20.2169 23.6358C19.8982 23.9486 19.655 24.3278 19.5056 24.7452C19.3561 25.1627 19.3041 25.6078 19.3534 26.0476C19.4027 26.4875 19.552 26.9108 19.7904 27.2864C20.0287 27.662 20.35 27.9801 20.7304 28.2174C25.0746 30.9427 30.3447 30.4301 34.4375 26.975L41.0353 32.1683L33.9798 39.0997ZM51.9687 24.4036C51.951 24.4563 51.9229 24.505 51.8861 24.547C51.8492 24.589 51.8043 24.6234 51.7539 24.6483L46.9822 27.0003L41.1126 15.4662L45.8843 13.1248C45.9349 13.0999 45.9899 13.085 46.0463 13.081C46.1027 13.0771 46.1594 13.0841 46.213 13.1016C46.2667 13.119 46.3163 13.1465 46.359 13.1827C46.4018 13.2189 46.4369 13.263 46.4623 13.3126L51.9451 24.083C51.9957 24.1826 52.0042 24.2979 51.9687 24.4036ZM27.9062 45.8686C27.8235 46.1942 27.6125 46.4741 27.3196 46.647C27.0267 46.8198 26.6759 46.8714 26.3443 46.7904L17.3789 44.5904C17.2242 44.5514 17.0784 44.4842 16.9492 44.3921L11.2837 40.4243C11.0054 40.2285 10.8177 39.9322 10.7619 39.6005C10.7061 39.2688 10.7868 38.9289 10.9862 38.6556C11.1856 38.3824 11.4874 38.198 11.8253 38.1433C12.1631 38.0885 12.5093 38.1677 12.7876 38.3635L18.2425 42.1878L26.9673 44.3288C27.132 44.3692 27.2869 44.4411 27.4232 44.5405C27.5595 44.6398 27.6744 44.7646 27.7615 44.9077C27.8485 45.0508 27.9059 45.2093 27.9304 45.3742C27.9548 45.5391 27.9459 45.7071 27.9041 45.8686H27.9062Z" fill="white"/>
</svg>
