<svg width="233" height="217" viewBox="0 0 233 217" fill="none" xmlns="http://www.w3.org/2000/svg">
<path d="M145.481 62.6294L148.733 61.5387C150.351 60.9958 151.219 59.2471 150.681 57.6263C150.133 56.0107 148.387 55.1401 146.769 55.6829L143.399 56.8146C139.507 58.3023 136.691 60.4761 134.732 66.6467L68.1506 74.6174C66.4812 74.8171 65.2752 76.3226 65.4468 78.0023L68.9315 112.046C69.0903 113.621 70.4166 114.819 72.0015 114.819L123.318 114.86L126.754 122.19C127.263 123.437 127.164 124.054 127.112 124.141C127.054 124.213 126.547 124.52 125.269 124.52H71.853C70.9338 124.52 70.0504 124.933 69.4692 125.644L66.1279 129.715C65.0525 131.026 65.2368 132.98 66.5606 134.058C67.1341 134.532 67.8305 134.757 68.5142 134.757C69.4078 134.757 70.2937 134.373 70.9082 133.628L73.3124 130.694H79.647V132.053C76.4797 133.013 74.1548 135.922 74.1548 139.394C74.1548 143.634 77.6063 147.085 81.849 147.085C86.0967 147.085 89.5508 143.634 89.5508 139.394C89.5508 135.922 87.2208 133.013 84.056 132.053V130.694H116.402V132.053C113.232 133.013 110.91 135.922 110.91 139.394C110.91 143.634 114.367 147.085 118.604 147.085C122.852 147.085 126.298 143.634 126.298 139.394C126.298 135.922 123.976 133.013 120.811 132.053V130.694H125.264C129.291 130.694 131.278 129.004 132.231 127.59C133.196 126.162 134.018 123.668 132.415 119.72L128.495 111.357L140.527 68.8231C141.889 64.2911 143.353 63.4462 145.481 62.6294ZM85.1391 139.396C85.1391 141.204 83.6617 142.676 81.8515 142.676C80.0413 142.676 78.5665 141.204 78.5665 139.396C78.5665 138.439 78.9889 137.579 79.647 136.979V137.589C79.647 138.808 80.6327 139.796 81.8515 139.796C83.0677 139.796 84.0586 138.805 84.0586 137.589V136.974C84.7167 137.579 85.1391 138.436 85.1391 139.396ZM121.892 139.396C121.892 141.204 120.419 142.676 118.604 142.676C116.796 142.676 115.324 141.204 115.324 139.396C115.324 138.439 115.744 137.579 116.402 136.979V137.589C116.402 138.808 117.39 139.796 118.604 139.796C119.825 139.796 120.811 138.805 120.811 137.589V136.979C121.469 137.579 121.892 138.439 121.892 139.396ZM102.681 76.7041L115.967 75.1115L114.914 80.9775L102.212 82.1118L102.681 76.7041ZM71.8991 80.3912L82.2919 79.1494L82.3918 83.8836L72.3523 84.7772L71.8991 80.3912ZM72.7082 88.2901L82.466 87.417L82.571 92.3254L73.1793 92.9015L72.7082 88.2901ZM73.5403 96.4144L82.6452 95.8562L82.7426 100.552L73.9858 100.765L73.5403 96.4144ZM74.7898 108.646L74.3469 104.288L82.8194 104.083L82.9141 108.653L74.7898 108.646ZM96.3769 108.664L86.4424 108.656L86.3425 103.998L96.8019 103.745L96.3769 108.664ZM97.1041 100.206L86.2708 100.473L86.1684 95.6437L97.5573 94.9422L97.1041 100.206ZM97.8645 91.3908L86.0916 92.1129L85.9866 87.1072L98.3279 86.0062L97.8645 91.3908ZM98.6352 82.4318L85.9098 83.5661L85.8074 78.7269L99.091 77.1343L98.6352 82.4318ZM109.927 108.679L99.9154 108.669L100.351 103.658L110.877 103.402L109.927 108.679ZM111.512 99.8556L100.655 100.119L101.124 94.7271L112.567 94.0281L111.512 99.8556ZM101.429 91.1732L101.902 85.6836L114.264 84.58L113.204 90.4486L101.429 91.1732ZM122.836 108.689L113.514 108.684L114.482 103.315L124.427 103.074L122.836 108.689ZM125.43 99.5177L115.114 99.7686L116.192 93.8028L127.233 93.1242L125.43 99.5177ZM128.252 89.5294L116.832 90.2284L117.905 84.2574L130.049 83.1744L128.252 89.5294ZM131.079 79.5334L118.555 80.6523L119.633 74.6763L132.904 73.0888L131.079 79.5334Z" fill="white"/>
<path d="M33.4404 46.7197H199.549V139.405H212.413V42.7229C212.413 37.8324 208.436 33.8535 203.543 33.8535H29.4436C24.5506 33.8535 20.5742 37.8324 20.5742 42.7229V139.403H33.4379V46.7197H33.4404Z" fill="white"/>
<path d="M213.433 156.715H19.5643L0 191.222V205.176H233V191.222L213.433 156.715ZM81.4527 179.16L87.3366 168.777H145.663L151.55 179.16H81.4527Z" fill="white"/>
<path d="M156.422 119.824L164.856 128.253L172.174 120.935L163.74 112.503L170.476 105.775L142.086 98.165L149.693 126.558L156.422 119.824Z" fill="white"/>
</svg>
