<svg width="190" height="40" viewBox="0 0 190 40" fill="none" xmlns="http://www.w3.org/2000/svg">
<path d="M76 30.4999H70C70 30.4999 69.9996 24 70 19.4999C70.0002 17.7535 70.8081 16.7765 72 15.4999C73.6102 13.7754 75.1418 13.075 77.5 12.9999C80.0371 12.9191 81.7676 13.6446 83.5 15.4999C84.692 16.7764 85.5 17.7535 85.5 19.4999V30.4999H79V20.9999C79 20.9999 78.3284 19.4999 77.5 19.4999C76.6716 19.4999 76 20.9999 76 20.9999V30.4999Z" fill="#D9D9D9"/>
<path d="M62.5001 14H67.5001V7H59.0001C57.475 7 56.2811 8.02369 55.5001 9C54.719 9.97631 54 11 54.0001 12C54.0001 13 53.9999 21 54.0001 26C54.0001 27.4081 54.9355 28.5783 56 29.5C56.9902 30.3574 57.6902 30.5 59.0001 30.5H67.5001V24H62.5001C62.5001 24 61.6084 23.5416 61.5001 23C61.362 22.3096 62.5001 21.5 62.5001 21.5H67.5001V16.5H62.5001C62.5001 16.5 61.6084 16.0416 61.5001 15.5C61.362 14.8096 62.5001 14 62.5001 14Z" fill="#D9D9D9"/>
<rect x="175" y="7.5" width="6" height="24" fill="#D9D9D9"/>
<rect x="184" y="7.5" width="6" height="24" fill="#D9D9D9"/>
<rect x="88" y="21.5" width="6" height="16" fill="#D9D9D9"/>
<path d="M106 22.5C106 27.4706 101.971 31.5 97 31.5C92.0294 31.5 88 27.4706 88 22.5C88 17.5294 92.0294 13.5 97 13.5C101.971 13.5 106 17.5294 106 22.5ZM94.0027 22.5C94.0027 24.1554 95.3446 25.4973 97 25.4973C98.6554 25.4973 99.9973 24.1554 99.9973 22.5C99.9973 20.8446 98.6554 19.5027 97 19.5027C95.3446 19.5027 94.0027 20.8446 94.0027 22.5Z" fill="#D9D9D9"/>
<path d="M173 22.5C173 27.4706 168.971 31.5 164 31.5C159.029 31.5 155 27.4706 155 22.5C155 17.5294 159.029 13.5 164 13.5C168.971 13.5 173 17.5294 173 22.5ZM161.003 22.5C161.003 24.1554 162.345 25.4973 164 25.4973C165.655 25.4973 166.997 24.1554 166.997 22.5C166.997 20.8446 165.655 19.5027 164 19.5027C162.345 19.5027 161.003 20.8446 161.003 22.5Z" fill="#D9D9D9"/>
<path d="M126 22.5C126 20.4178 125.278 18.4 123.957 16.7905C122.636 15.1809 120.798 14.0791 118.756 13.6729C116.714 13.2667 114.594 13.5812 112.757 14.5627C110.921 15.5442 109.482 17.1321 108.685 19.0558C107.888 20.9795 107.783 23.12 108.388 25.1126C108.992 27.1051 110.269 28.8264 112 29.9832C113.731 31.14 115.81 31.6608 117.882 31.4567C119.954 31.2526 121.892 30.3363 123.364 28.864L119.119 24.6194C118.629 25.1098 117.984 25.4149 117.294 25.4829C116.604 25.5508 115.911 25.3774 115.335 24.9922C114.758 24.6069 114.333 24.0337 114.132 23.3701C113.93 22.7065 113.965 21.9936 114.231 21.353C114.496 20.7123 114.976 20.1835 115.587 19.8566C116.199 19.5297 116.905 19.425 117.585 19.5603C118.265 19.6956 118.877 20.0625 119.317 20.5985C119.757 21.1346 119.997 21.8066 119.997 22.5H126Z" fill="#D9D9D9"/>
<path d="M116 20.5H125.812L126.075 23.5H116V20.5Z" fill="#D9D9D9"/>
<rect x="129" y="20.5" width="6" height="10" fill="#D9D9D9"/>
<path d="M136 18.5C135.323 19.052 135 20.5 135 20.5H129C129 18.1569 129.343 16.1569 131 14.5C132.5 13 135 12.5 135 12.5C135 12.5 136.157 12.1953 138.5 12V18C138.5 18 136.771 17.8706 136 18.5Z" fill="#D9D9D9"/>
<path d="M150 20C149.323 20.552 149 22 149 22H143C143 19.6569 143.343 17.6569 145 16C146.5 14.5 149 14 149 14C149 14 150.157 13.6953 152.5 13.5V19.5C152.5 19.5 150.771 19.3706 150 20Z" fill="#D9D9D9"/>
<path d="M142.5 24.5C143.177 23.948 143 22 143 22H149C149 24.3431 149.157 26.8431 147.5 28.5C146 30 143.5 30.5 143.5 30.5C143.5 30.5 142.343 30.8047 140 31V25C140 25 141.728 25.1294 142.5 24.5Z" fill="#D9D9D9"/>
<rect width="43" height="40" rx="5" fill="url(#paint0_linear_651_980)"/>
<path d="M30.4331 37.9307C27.1793 39.4498 24.0709 40.0983 21.108 39.8764C18.1523 39.6343 15.4757 38.5931 13.0781 36.7528C10.6741 34.8987 8.69338 32.3036 7.13584 28.9674C5.61676 25.7136 4.9151 22.5632 5.03085 19.516C5.1466 16.4688 6.03036 13.7236 7.68214 11.2803C9.34765 8.83056 11.7318 6.88142 14.8345 5.43285C16.9213 4.45859 19.021 3.88799 21.1336 3.72105C23.2535 3.53397 25.297 3.79222 27.2642 4.49579C29.2451 5.19295 31.0842 6.37435 32.7815 8.03999C34.4724 9.69189 35.946 11.8633 37.2023 14.5542L38.3272 16.9636L11.6174 29.4335L9.0792 23.9968L27.531 15.3823C26.9413 14.1192 26.1443 13.1285 25.1401 12.4101C24.1358 11.6918 23.0181 11.2855 21.787 11.1915C20.5632 11.0772 19.3129 11.3182 18.0361 11.9143C16.7044 12.536 15.6679 13.3961 14.9266 14.4947C14.1927 15.5731 13.7778 16.7617 13.6819 18.0606C13.5796 19.3457 13.8132 20.6162 14.3828 21.8719L16.796 27.0409C17.5267 28.606 18.4463 29.8237 19.555 30.694C20.6773 31.5579 21.9181 32.0488 23.2774 32.1666C24.6367 32.2845 26.0509 32.0005 27.5199 31.3147C28.4946 30.8596 29.3229 30.3057 30.0047 29.6529C30.6865 29.0002 31.1876 28.2646 31.5078 27.4462C31.828 26.6279 31.9533 25.7501 31.8836 24.8128L40.2474 21.5601C40.7457 23.7019 40.6961 25.7985 40.0988 27.8499C39.5087 29.8811 38.4005 31.7696 36.7743 33.5154C35.1553 35.2411 33.0416 36.7129 30.4331 37.9307Z" fill="white"/>
<defs>
<linearGradient id="paint0_linear_651_980" x1="2.64309e-07" y1="20" x2="43" y2="21.5" gradientUnits="userSpaceOnUse">
<stop stop-color="#1658A2"/>
<stop offset="1" stop-color="#367EC0"/>
</linearGradient>
</defs>
</svg>
