<svg width="61" height="61" viewBox="0 0 61 61" fill="none" xmlns="http://www.w3.org/2000/svg">
<path d="M30.5 53.375C27.496 53.375 24.5214 52.7833 21.7461 51.6337C18.9708 50.4842 16.4491 48.7992 14.3249 46.6751C12.2008 44.5509 10.5158 42.0292 9.36625 39.2539C8.21668 36.4786 7.625 33.504 7.625 30.5C7.625 27.496 8.21668 24.5214 9.36625 21.7461C10.5158 18.9708 12.2008 16.4491 14.3249 14.3249C16.4491 12.2008 18.9708 10.5158 21.7461 9.36626C24.5214 8.21668 27.496 7.625 30.5 7.625C36.5668 7.625 42.3852 10.035 46.6751 14.3249C50.965 18.6148 53.375 24.4332 53.375 30.5C53.375 36.5668 50.965 42.3852 46.6751 46.6751C42.3852 50.965 36.5668 53.375 30.5 53.375ZM30.5 57.1875C37.578 57.1875 44.366 54.3758 49.3709 49.3709C54.3758 44.366 57.1875 37.578 57.1875 30.5C57.1875 23.422 54.3758 16.634 49.3709 11.6291C44.366 6.62421 37.578 3.8125 30.5 3.8125C23.422 3.8125 16.634 6.62421 11.6291 11.6291C6.62421 16.634 3.8125 23.422 3.8125 30.5C3.8125 37.578 6.62421 44.366 11.6291 49.3709C16.634 54.3758 23.422 57.1875 30.5 57.1875Z" fill="white"/>
<path d="M49.5625 30.5C49.5625 25.4443 47.5541 20.5957 43.9792 17.0208C40.4043 13.4459 35.5557 11.4375 30.5 11.4375C25.4443 11.4375 20.5957 13.4459 17.0208 17.0208C13.4459 20.5957 11.4375 25.4443 11.4375 30.5C11.4375 31.0056 11.6383 31.4904 11.9958 31.8479C12.3533 32.2054 12.8382 32.4062 13.3438 32.4062C13.8493 32.4062 14.3342 32.2054 14.6917 31.8479C15.0492 31.4904 15.25 31.0056 15.25 30.5C15.25 26.4554 16.8567 22.5766 19.7166 19.7166C22.5766 16.8567 26.4554 15.25 30.5 15.25C34.5446 15.25 38.4234 16.8567 41.2834 19.7166C44.1433 22.5766 45.75 26.4554 45.75 30.5C45.75 31.0056 45.9508 31.4904 46.3083 31.8479C46.6658 32.2054 47.1507 32.4062 47.6562 32.4062C48.1618 32.4062 48.6467 32.2054 49.0042 31.8479C49.3617 31.4904 49.5625 31.0056 49.5625 30.5Z" fill="white"/>
<path d="M27.0191 37.401C25.9493 38.2227 25.2045 39.3962 24.9163 40.7141C24.628 42.0319 24.8149 43.4092 25.4439 44.6026C26.0729 45.7959 27.1035 46.7285 28.3536 47.2355C29.6037 47.7425 30.9927 47.7913 32.2753 47.3732C33.5579 46.9552 34.6513 46.0971 35.3625 44.9508C36.0736 43.8045 36.3566 42.4437 36.1615 41.1089C35.9664 39.7741 35.3057 38.5513 34.2962 37.6565C33.2867 36.7617 31.9934 36.2525 30.6448 36.2191L27.0115 25.0332C26.9362 24.7926 26.814 24.5694 26.6518 24.3764C26.4897 24.1834 26.2909 24.0244 26.0669 23.9088C25.8429 23.7931 25.5982 23.723 25.347 23.7026C25.0957 23.6821 24.8429 23.7117 24.6032 23.7896C24.3635 23.8675 24.1415 23.9922 23.9503 24.1564C23.7591 24.3206 23.6023 24.5211 23.4891 24.7464C23.3759 24.9716 23.3085 25.217 23.2907 25.4685C23.273 25.7199 23.3053 25.9724 23.3858 26.2113L27.0191 37.3971V37.401ZM31.0909 43.7526C30.8526 43.8302 30.6013 43.8601 30.3514 43.8406C30.1015 43.8211 29.858 43.7525 29.6346 43.6389C29.4112 43.5253 29.2124 43.3687 29.0495 43.1783C28.8866 42.9878 28.7628 42.7671 28.6852 42.5288C28.6076 42.2904 28.5777 42.0392 28.5972 41.7893C28.6167 41.5394 28.6852 41.2958 28.7989 41.0725C28.9125 40.8491 29.069 40.6503 29.2595 40.4874C29.45 40.3245 29.6707 40.2007 29.909 40.1231C30.3903 39.9664 30.9141 40.0072 31.3653 40.2367C31.8165 40.4663 32.158 40.8656 32.3147 41.3469C32.4714 41.8282 32.4305 42.352 32.201 42.8032C31.9715 43.2543 31.5722 43.5958 31.0909 43.7526Z" fill="white"/>
</svg>
