<svg width="41" height="45" viewBox="0 0 41 45" fill="none" xmlns="http://www.w3.org/2000/svg">
<path fill-rule="evenodd" clip-rule="evenodd" d="M8.37207 22.4997C8.37207 19.3079 9.64003 16.2468 11.897 13.9898C14.154 11.7328 17.2151 10.4648 20.407 10.4648C23.5988 10.4648 26.6599 11.7328 28.9169 13.9898C31.1739 16.2468 32.4418 19.3079 32.4418 22.4997C32.4418 25.6916 31.1739 28.7527 28.9169 31.0097C26.6599 33.2667 23.5988 34.5346 20.407 34.5346C17.2151 34.5346 14.154 33.2667 11.897 31.0097C9.64003 28.7527 8.37207 25.6916 8.37207 22.4997ZM20.2897 13.6421C20.3254 13.6206 20.3655 13.6077 20.407 13.6044C20.4153 13.6044 20.4509 13.6044 20.5242 13.6421C20.6576 13.7151 20.7778 13.8099 20.88 13.9225C21.2002 14.2532 21.5665 14.8246 21.9097 15.6828C22.2488 16.5283 22.5293 17.5686 22.726 18.7511C22.8411 19.4502 22.9249 20.1807 22.973 20.93H17.8409C17.889 20.1807 17.9728 19.4502 18.0879 18.7532C18.2502 17.7037 18.5239 16.6744 18.9042 15.6828C19.2474 14.8246 19.6158 14.2532 19.9339 13.9225C20.0361 13.8099 20.1563 13.7151 20.2897 13.6421ZM14.693 20.93C14.7453 20.0111 14.8458 19.1069 14.9881 18.2383C15.171 17.0855 15.4618 15.9523 15.8567 14.8539C14.761 15.506 13.8182 16.386 13.0924 17.4344C12.3665 18.4827 11.8745 19.6748 11.6497 20.93H14.693ZM11.6497 24.0695H14.693C14.7453 24.9883 14.8458 25.8925 14.9881 26.7611C15.171 27.914 15.4618 29.0471 15.8567 30.1455C14.761 29.4935 13.8182 28.6134 13.0924 27.5651C12.3665 26.5168 11.8745 25.3246 11.6497 24.0695ZM29.16 20.93C28.9356 19.6747 28.4438 18.4824 27.7179 17.434C26.992 16.3856 26.049 15.5057 24.953 14.8539C25.3297 15.8711 25.6186 17.0181 25.8216 18.2383C25.9639 19.1069 26.0644 20.0111 26.1146 20.93H29.16ZM26.1167 24.0695H29.16C28.9356 25.3248 28.4438 26.5171 27.7179 27.5654C26.992 28.6138 26.049 29.4938 24.953 30.1455C25.3297 29.1283 25.6186 27.9814 25.8216 26.7611C25.9639 25.8925 26.0665 24.9883 26.1167 24.0695ZM22.9688 24.0695C22.9225 24.7987 22.8401 25.5252 22.7218 26.2462C22.5595 27.2958 22.2859 28.3251 21.9056 29.3167C21.5623 30.1748 21.1939 30.7462 20.8758 31.0769C20.7736 31.1896 20.6534 31.2844 20.52 31.3574C20.4844 31.3789 20.4442 31.3918 20.4028 31.3951C20.3944 31.3951 20.3588 31.3951 20.2856 31.3574C20.1522 31.2844 20.0319 31.1896 19.9297 31.0769C19.6095 30.7462 19.2432 30.1748 18.9 29.3167C18.5198 28.3258 18.2462 27.2972 18.0837 26.2483C17.9654 25.5266 17.8829 24.7994 17.8367 24.0695H22.9688Z" fill="white"/>
<path fill-rule="evenodd" clip-rule="evenodd" d="M20.407 0C18.4458 0 16.5705 0.642558 13.5481 1.67651L12.0265 2.19977C8.92674 3.25884 6.53232 4.0793 4.82023 4.77419C3.95791 5.12372 3.21488 5.46488 2.61837 5.81023C2.04279 6.14512 1.46721 6.56163 1.07581 7.12047C0.688604 7.67093 0.487675 8.34907 0.362093 9.00419C0.230233 9.68233 0.152791 10.4965 0.100465 11.4321C2.02725e-07 13.2865 0 15.8316 0 19.1302V22.4812C0 35.2507 9.64465 41.3728 15.3795 43.8802L15.436 43.9033C16.1477 44.2151 16.8174 44.506 17.5856 44.7028C18.3956 44.9121 19.2579 45 20.407 45C21.5581 45 22.4163 44.9121 23.2284 44.7028C23.9965 44.506 24.6663 44.2151 25.3758 43.9033L25.4344 43.8802C31.1693 41.3728 40.8139 35.2507 40.8139 22.4812V19.1302C40.8139 15.8316 40.8139 13.2865 40.7135 11.43C40.6798 10.6158 40.5924 9.80476 40.4519 9.00209C40.3263 8.34907 40.1253 7.67093 39.7402 7.11837C39.3467 6.56163 38.7712 6.14512 38.1956 5.81023C37.486 5.41535 36.7503 5.0692 35.9937 4.77419C34.2816 4.0793 31.8872 3.25884 28.7874 2.19977L27.2658 1.67651C24.2435 0.642558 22.3681 0 20.407 0ZM14.2953 4.7386C17.6756 3.58326 19.0298 3.13953 20.407 3.13953C21.7842 3.13953 23.1384 3.58326 26.5186 4.7386L27.7158 5.14884C30.8826 6.23302 33.1912 7.02419 34.8112 7.6814C35.6212 8.01209 36.2072 8.28837 36.6195 8.52698C36.8226 8.64419 36.9628 8.74047 37.0549 8.81791C37.1344 8.8807 37.1658 8.91837 37.17 8.92256C37.1974 8.97185 37.2198 9.02373 37.237 9.07744C37.2788 9.19465 37.3249 9.36209 37.3688 9.59651C37.4821 10.2596 37.552 10.9294 37.5781 11.6016C37.6744 13.3619 37.6744 15.8191 37.6744 19.1867V22.4812C37.6744 33.3147 29.5744 38.6456 24.1765 41.0023C23.4 41.3414 22.95 41.534 22.4498 41.6616C21.9726 41.7851 21.3907 41.8605 20.407 41.8605C19.4233 41.8605 18.8414 41.7851 18.3642 41.6616C17.8619 41.536 17.414 41.3414 16.6374 41.0023C11.2374 38.6456 3.13953 33.3126 3.13953 22.4812V19.1867C3.13953 15.8191 3.13953 13.3619 3.23581 11.6016C3.26196 10.9294 3.33188 10.2596 3.44512 9.59651C3.48907 9.36209 3.53512 9.19465 3.57698 9.07744C3.61465 8.97279 3.63977 8.93093 3.64395 8.92256C3.67887 8.88405 3.71742 8.84901 3.75907 8.81791C3.89614 8.70878 4.04172 8.6108 4.19442 8.52488C4.60674 8.28628 5.19279 8.01209 6.00279 7.68349C7.62279 7.02419 9.9314 6.23302 13.0981 5.15093L14.2953 4.7386Z" fill="white"/>
</svg>
