<svg width="65" height="66" viewBox="0 0 65 66" fill="none" xmlns="http://www.w3.org/2000/svg">
<path d="M32.2271 20.5C37.6437 20.5 41.9771 16.1667 41.9771 10.75C41.9771 5.33333 37.6437 1 32.2271 1C26.8104 1 22.4771 5.33333 22.4771 10.75C22.4771 16.1667 26.8104 20.5 32.2271 20.5ZM32.2271 3.03125C36.425 3.03125 39.9458 6.41667 39.9458 10.75C39.9458 15.0833 36.5604 18.4687 32.2271 18.4687C27.8937 18.4687 24.5083 14.9479 24.5083 10.75C24.5083 6.55208 27.8937 3.03125 32.2271 3.03125Z" fill="white" stroke="white" stroke-width="0.8125" stroke-miterlimit="10"/>
<path d="M23.6979 45.555H40.625H40.7604C44.0104 45.2842 46.3125 42.5758 46.3125 39.3258V38.7842C46.3125 30.93 39.9479 24.5654 32.0937 24.5654C24.2396 24.5654 17.875 30.93 17.875 38.7842V39.3258C18.0104 42.4404 20.4479 45.1488 23.6979 45.555ZM20.1771 38.7842C20.1771 32.1488 25.5938 26.7321 32.2292 26.7321C38.8646 26.7321 44.2812 32.1488 44.2812 38.7842V39.3258C44.2812 41.4925 42.6563 43.2529 40.625 43.3883H23.8333C21.6667 43.1175 20.1771 41.3571 20.1771 39.3258V38.7842Z" fill="white" stroke="white" stroke-width="0.8125" stroke-miterlimit="10"/>
<circle cx="33.3125" cy="59.5" r="5.28125" stroke="white" stroke-width="2.4375"/>
<rect x="31.6875" y="45.6875" width="2.4375" height="8.125" fill="white"/>
<circle cx="48.3676" cy="56.0117" r="5.28125" transform="rotate(-30.5429 48.3676 56.0117)" stroke="white" stroke-width="2.4375"/>
<rect x="39.9487" y="44.9414" width="2.4375" height="8.125" transform="rotate(-30.5429 39.9487 44.9414)" fill="white"/>
<circle cx="6.5" cy="6.5" r="5.28125" transform="matrix(-0.861248 -0.508184 -0.508184 0.861248 25.9272 53.7168)" stroke="white" stroke-width="2.4375"/>
<rect width="2.4375" height="8.125" transform="matrix(-0.861248 -0.508184 -0.508184 0.861248 25.4448 44.9414)" fill="white"/>
<circle cx="6.5" cy="6.5" r="5.28125" transform="matrix(-0.0201971 -0.999796 -0.999796 0.0201971 13.2598 44.8711)" stroke="white" stroke-width="2.4375"/>
<rect width="2.4375" height="8.125" transform="matrix(-0.0201971 -0.999796 -0.999796 0.0201971 20.4722 39.8496)" fill="white"/>
<circle cx="57.816" cy="38.6521" r="5.28125" transform="rotate(-88.8427 57.816 38.6521)" stroke="white" stroke-width="2.4375"/>
<rect x="43.9736" y="39.998" width="2.4375" height="8.125" transform="rotate(-88.8427 43.9736 39.998)" fill="white"/>
</svg>
