<svg width="60" height="60" viewBox="0 0 60 60" fill="none" xmlns="http://www.w3.org/2000/svg">
<g clip-path="url(#clip0_401_463)">
<g clip-path="url(#clip1_401_463)">
<path d="M27.76 28.477C30.96 28.477 33.52 25.917 33.52 22.717C33.52 19.517 30.96 16.957 27.76 16.957C24.56 16.957 22 19.517 22 22.717C22 25.917 24.56 28.477 27.76 28.477ZM27.76 18.157C30.24 18.157 32.32 20.157 32.32 22.717C32.32 25.277 30.32 27.277 27.76 27.277C25.2 27.277 23.2 25.197 23.2 22.717C23.2 20.237 25.2 18.157 27.76 18.157Z" fill="white" stroke="white" stroke-width="1.6" stroke-miterlimit="10"/>
<path d="M22.7212 43.2789H32.7213H32.8012C34.7212 43.1189 36.0812 41.5189 36.0812 39.5989V39.2789C36.0812 34.6389 32.3212 30.8789 27.6812 30.8789C23.0412 30.8789 19.2812 34.6389 19.2812 39.2789V39.5989C19.3613 41.4389 20.8012 43.0389 22.7212 43.2789ZM20.6412 39.2789C20.6412 35.3589 23.8413 32.1589 27.7613 32.1589C31.6813 32.1589 34.8812 35.3589 34.8812 39.2789V39.5989C34.8812 40.8789 33.9213 41.9189 32.7213 41.9989H22.8012C21.5212 41.8389 20.6412 40.7989 20.6412 39.5989V39.2789Z" fill="white" stroke="white" stroke-width="1.6" stroke-miterlimit="10"/>
<path d="M3.12257 37.7584C2.40257 38.1584 1.92257 38.7984 1.76257 39.5184C1.60257 40.2384 1.60257 41.1184 2.00257 41.8384L4.96257 46.9584C5.36257 47.6784 6.00257 48.1584 6.72257 48.3184C6.96257 48.3984 7.20257 48.3984 7.52257 48.3984C8.00257 48.3984 8.56257 48.2384 8.96257 47.9984L13.2026 45.5184C15.6026 47.8384 18.5626 49.5184 21.7626 50.4784V55.3584C21.7626 56.9584 23.1226 58.3184 24.7226 58.3184H30.6426C32.2426 58.3184 33.6026 56.9584 33.6026 55.3584V50.4784C36.8026 49.5184 39.6826 47.8384 42.1626 45.5184L46.4026 47.9984C46.8826 48.2384 47.3626 48.3984 47.8426 48.3984C48.8826 48.3984 49.8426 47.8384 50.4026 46.9584L53.3626 41.8384C54.1626 40.3984 53.6826 38.6384 52.2426 37.7584L48.0026 35.2784C48.4026 33.6784 48.5626 31.9984 48.5626 30.3184C48.5626 28.6384 48.3226 26.9584 48.0026 25.3584L52.2426 22.8784C52.9626 22.4784 53.4426 21.8384 53.6026 21.1184C53.7626 20.3984 53.6826 19.5984 53.2826 18.8784L50.3226 13.7584C49.9226 13.0384 49.2826 12.5584 48.5626 12.3984C47.7626 12.1584 47.0426 12.3184 46.3226 12.7184L42.2426 15.1984C39.8426 12.8784 36.8826 11.1984 33.6826 10.2384V5.35844C33.6826 3.75844 32.3226 2.39844 30.7226 2.39844H24.8026C23.2026 2.39844 21.8426 3.75844 21.8426 5.35844V10.2384C18.6426 11.1984 15.6826 12.8784 13.2826 15.1984L9.04258 12.7184C7.60258 11.9184 5.84257 12.3984 4.96257 13.8384L2.00257 18.9584C1.20257 20.3984 1.68257 22.1584 3.12257 23.0384L7.36257 25.5184C6.96257 27.1184 6.80257 28.7984 6.80257 30.4784C6.80257 32.1584 7.04257 33.8384 7.36257 35.4384L3.12257 37.7584ZM3.68257 21.9184C2.88257 21.4384 2.56257 20.3984 3.04257 19.5984L6.00257 14.4784C6.48257 13.6784 7.52257 13.3584 8.32257 13.8384L12.5626 16.3184C12.7226 16.3984 12.8826 16.4784 13.0426 16.5584C13.1226 16.6384 13.2026 16.6384 13.3626 16.6384C13.4426 16.6384 13.5226 16.6384 13.6026 16.5584C13.6826 16.5584 13.7626 16.4784 13.8426 16.3984C16.2426 13.9984 19.2826 12.2384 22.5626 11.3584C22.6426 11.3584 22.6426 11.3584 22.6426 11.2784C22.8026 11.1984 22.9626 11.0384 22.9626 10.7984C22.9626 10.6384 22.9626 10.3984 22.9626 10.2384V5.35844C22.9626 4.39844 23.7626 3.67844 24.6426 3.67844H30.5626C31.5226 3.67844 32.2426 4.47844 32.2426 5.35844V10.2384C32.2426 10.3984 32.2426 10.6384 32.2426 10.7984V10.8784C32.2426 10.9584 32.2426 10.9584 32.3226 11.0384C32.3226 11.0384 32.3226 11.1184 32.4026 11.1184C32.4026 11.1984 32.4826 11.1984 32.4826 11.1984C32.4826 11.1984 32.5626 11.1984 32.5626 11.2784C32.6426 11.2784 32.6426 11.3584 32.7226 11.3584C36.0026 12.2384 39.0426 13.9984 41.4426 16.3984C41.5226 16.4784 41.5226 16.4784 41.6026 16.4784C41.6826 16.5584 41.7626 16.5584 41.9226 16.5584C42.0026 16.5584 42.0826 16.5584 42.2426 16.4784C42.4026 16.3984 42.5626 16.3184 42.7226 16.2384L46.9626 13.7584C47.3626 13.5184 47.8426 13.4384 48.2426 13.5984C48.7226 13.6784 49.0426 13.9984 49.2826 14.3984L52.2426 19.5184C52.4826 19.9184 52.5626 20.3984 52.4026 20.7984C52.3226 21.2784 52.0026 21.5984 51.6026 21.8384L47.3626 24.3184C47.2026 24.3984 47.0426 24.4784 46.8826 24.6384C46.7226 24.7184 46.6426 24.8784 46.6426 25.0384C46.6426 25.1184 46.6426 25.1984 46.6426 25.2784C47.0426 26.8784 47.2826 28.6384 47.2826 30.3184C47.2826 31.9984 47.0426 33.7584 46.6426 35.3584C46.5626 35.5984 46.6426 35.8384 46.8026 35.9984C46.9626 36.0784 47.1226 36.2384 47.2826 36.3184L51.5226 38.7984C52.3226 39.2784 52.6426 40.3184 52.1626 41.1184L49.3626 46.3984C48.8826 47.1984 47.8426 47.5184 47.0426 47.0384L42.8026 44.5584C42.6426 44.4784 42.4826 44.3984 42.3226 44.3184C42.3226 44.3184 42.3226 44.3184 42.2426 44.3184C42.0026 44.2384 41.7626 44.3184 41.6026 44.4784C39.2026 46.8784 36.1626 48.6384 32.8826 49.5184C32.8026 49.5184 32.8026 49.5984 32.7226 49.5984C32.6426 49.6784 32.5626 49.7584 32.4826 49.8384C32.4826 49.9184 32.4026 49.9984 32.4026 50.0784C32.4026 50.2384 32.4026 50.4784 32.4026 50.6384V55.5184C32.4026 56.4784 31.6026 57.1984 30.7226 57.1984H24.8026C23.8426 57.1984 23.1226 56.3984 23.1226 55.5184V50.6384C23.1226 50.4784 23.1226 50.2384 23.1226 50.0784C23.1226 49.9984 23.1226 49.9184 23.0426 49.8384C22.9626 49.7584 22.8826 49.6784 22.8026 49.5984C22.7226 49.5984 22.7226 49.5184 22.6426 49.5184C19.3626 48.6384 16.3226 46.8784 13.9226 44.4784C13.7626 44.3184 13.5226 44.2384 13.3626 44.3184H13.2826C13.1226 44.3984 12.9626 44.4784 12.8026 44.5584L8.56257 47.0384C8.00257 47.2784 7.52257 47.2784 7.12257 47.1984C6.72257 47.1184 6.32257 46.7984 6.08257 46.3984L3.12257 41.2784C2.88257 40.8784 2.80257 40.3984 2.96257 39.9984C3.04257 39.5184 3.36257 39.1984 3.76257 38.9584L8.00257 36.4784C8.16257 36.3984 8.32258 36.2384 8.48258 36.1584C8.64258 35.9984 8.72257 35.7584 8.72257 35.5184C8.32257 33.9184 8.08258 32.1584 8.08258 30.4784C8.08258 28.7984 8.32257 27.0384 8.72257 25.4384C8.72257 25.3584 8.72257 25.2784 8.72257 25.1984C8.72257 25.0384 8.64258 24.8784 8.48258 24.7984C8.32258 24.7184 8.16257 24.5584 8.00257 24.4784L3.68257 21.9184Z" fill="white" stroke="white" stroke-width="1.6" stroke-miterlimit="10"/>
</g>
</g>
<defs>
<clipPath id="clip0_401_463">
<rect width="60" height="60" fill="white"/>
</clipPath>
<clipPath id="clip1_401_463">
<rect width="60" height="60" fill="white"/>
</clipPath>
</defs>
</svg>
