<svg width="155" height="31" viewBox="0 0 155 31" fill="none" xmlns="http://www.w3.org/2000/svg">
<path d="M44.0724 17.9276V24H41.63V10.1818H44.0185V15.3974H44.1399C44.3828 14.8126 44.7584 14.3516 45.2667 14.0142C45.7795 13.6723 46.4317 13.5014 47.2234 13.5014C47.9431 13.5014 48.5705 13.6521 49.1058 13.9535C49.6411 14.2549 50.0549 14.6957 50.3473 15.2759C50.6442 15.8562 50.7926 16.5646 50.7926 17.4013V24H48.3501V17.7791C48.3501 17.0819 48.1702 16.5399 47.8104 16.1531C47.455 15.7617 46.9557 15.5661 46.3125 15.5661C45.8807 15.5661 45.4938 15.6605 45.152 15.8494C44.8146 16.0339 44.5492 16.3015 44.3558 16.6523C44.1669 17.0032 44.0724 17.4283 44.0724 17.9276ZM59.8878 19.6413V13.6364H62.3303V24H59.962V22.158H59.854C59.6201 22.7383 59.2356 23.2128 58.7003 23.5817C58.1695 23.9505 57.515 24.1349 56.7369 24.1349C56.0576 24.1349 55.4571 23.9843 54.9354 23.6829C54.4181 23.377 54.0133 22.9339 53.7209 22.3537C53.4285 21.7689 53.2823 21.0627 53.2823 20.2351V13.6364H55.7248V19.8572C55.7248 20.514 55.9047 21.0357 56.2646 21.4226C56.6244 21.8094 57.0967 22.0028 57.6815 22.0028C58.0413 22.0028 58.3899 21.9151 58.7273 21.7397C59.0646 21.5643 59.3413 21.3034 59.5572 20.957C59.7776 20.6062 59.8878 20.1676 59.8878 19.6413ZM64.8419 24V13.6364H67.1764V15.3974H67.2979C67.5138 14.8036 67.8714 14.3403 68.3706 14.0075C68.8699 13.6701 69.4659 13.5014 70.1586 13.5014C70.8604 13.5014 71.4519 13.6723 71.9332 14.0142C72.4189 14.3516 72.7608 14.8126 72.9587 15.3974H73.0667C73.2961 14.8216 73.6829 14.3628 74.2272 14.021C74.776 13.6746 75.4259 13.5014 76.1771 13.5014C77.1307 13.5014 77.9089 13.8028 78.5116 14.4055C79.1144 15.0083 79.4157 15.8877 79.4157 17.0437V24H76.9665V17.4215C76.9665 16.7783 76.7956 16.3082 76.4537 16.0114C76.1119 15.71 75.6936 15.5593 75.1988 15.5593C74.6095 15.5593 74.1485 15.7437 73.8156 16.1126C73.4872 16.4769 73.3231 16.9515 73.3231 17.5362V24H70.9278V17.3203C70.9278 16.785 70.7659 16.3577 70.442 16.0384C70.1227 15.719 69.7043 15.5593 69.1871 15.5593C68.8362 15.5593 68.5168 15.6493 68.229 15.8292C67.9411 16.0046 67.7117 16.2543 67.5407 16.5781C67.3698 16.8975 67.2844 17.2708 67.2844 17.6982V24H64.8419ZM84.8759 24.2092C84.2192 24.2092 83.6277 24.0922 83.1014 23.8583C82.5796 23.6199 82.1658 23.2691 81.8599 22.8058C81.5585 22.3424 81.4078 21.7712 81.4078 21.092C81.4078 20.5072 81.5158 20.0237 81.7317 19.6413C81.9476 19.259 82.2422 18.9531 82.6156 18.7237C82.9889 18.4943 83.4095 18.3211 83.8773 18.2042C84.3496 18.0827 84.8377 17.995 85.3414 17.9411C85.9487 17.8781 86.4412 17.8219 86.8191 17.7724C87.1969 17.7184 87.4713 17.6374 87.6422 17.5295C87.8176 17.417 87.9054 17.2438 87.9054 17.0099V16.9695C87.9054 16.4612 87.7547 16.0676 87.4533 15.7887C87.1519 15.5098 86.7179 15.3704 86.1511 15.3704C85.5529 15.3704 85.0783 15.5008 84.7275 15.7617C84.3811 16.0226 84.1472 16.3307 84.0257 16.6861L81.7452 16.3622C81.9251 15.7325 82.222 15.2062 82.6358 14.7834C83.0497 14.3561 83.5557 14.0367 84.1539 13.8253C84.7522 13.6094 85.4134 13.5014 86.1376 13.5014C86.6369 13.5014 87.1339 13.5599 87.6287 13.6768C88.1235 13.7938 88.5756 13.9872 88.9849 14.2571C89.3942 14.5225 89.7226 14.8846 89.97 15.3434C90.2219 15.8022 90.3478 16.3757 90.3478 17.0639V24H87.9998V22.5763H87.9189C87.7704 22.8642 87.5613 23.1341 87.2914 23.386C87.026 23.6334 86.6909 23.8336 86.286 23.9865C85.8857 24.1349 85.4157 24.2092 84.8759 24.2092ZM85.5101 22.4144C86.0004 22.4144 86.4255 22.3177 86.7853 22.1243C87.1452 21.9264 87.4218 21.6655 87.6152 21.3416C87.8132 21.0178 87.9121 20.6647 87.9121 20.2823V19.0611C87.8356 19.1241 87.7052 19.1825 87.5208 19.2365C87.3409 19.2905 87.1384 19.3377 86.9135 19.3782C86.6886 19.4187 86.466 19.4547 86.2456 19.4862C86.0252 19.5176 85.834 19.5446 85.6721 19.5671C85.3077 19.6166 84.9816 19.6976 84.6937 19.81C84.4058 19.9225 84.1787 20.0799 84.0123 20.2823C83.8458 20.4802 83.7626 20.7366 83.7626 21.0515C83.7626 21.5013 83.9268 21.8409 84.2551 22.0703C84.5835 22.2997 85.0018 22.4144 85.5101 22.4144ZM95.2463 17.9276V24H92.8038V13.6364H95.1383V15.3974H95.2598C95.4982 14.8171 95.8783 14.3561 96.4 14.0142C96.9263 13.6723 97.5763 13.5014 98.35 13.5014C99.0652 13.5014 99.6882 13.6544 100.219 13.9602C100.754 14.2661 101.168 14.7092 101.46 15.2894C101.757 15.8697 101.903 16.5736 101.899 17.4013V24H99.4565V17.7791C99.4565 17.0864 99.2766 16.5444 98.9167 16.1531C98.5614 15.7617 98.0688 15.5661 97.4391 15.5661C97.0118 15.5661 96.6317 15.6605 96.2988 15.8494C95.9705 16.0339 95.7118 16.3015 95.5229 16.6523C95.3385 17.0032 95.2463 17.4283 95.2463 17.9276ZM108.903 24.2024C107.868 24.2024 106.98 23.9753 106.237 23.521C105.5 23.0666 104.931 22.4392 104.53 21.6385C104.135 20.8333 103.937 19.9067 103.937 18.8587C103.937 17.8061 104.139 16.8772 104.544 16.0721C104.949 15.2624 105.52 14.6327 106.258 14.1829C107 13.7286 107.877 13.5014 108.889 13.5014C109.73 13.5014 110.475 13.6566 111.122 13.967C111.775 14.2728 112.294 14.7069 112.681 15.2692C113.068 15.8269 113.288 16.4792 113.342 17.2259H111.008C110.913 16.7266 110.688 16.3105 110.333 15.9776C109.982 15.6403 109.512 15.4716 108.923 15.4716C108.423 15.4716 107.985 15.6065 107.607 15.8764C107.229 16.1418 106.935 16.5241 106.723 17.0234C106.516 17.5227 106.413 18.121 106.413 18.8182C106.413 19.5244 106.516 20.1316 106.723 20.6399C106.93 21.1437 107.22 21.5328 107.594 21.8072C107.971 22.0771 108.414 22.212 108.923 22.212C109.283 22.212 109.604 22.1445 109.888 22.0096C110.175 21.8701 110.416 21.67 110.61 21.4091C110.803 21.1482 110.936 20.8311 111.008 20.4577H113.342C113.284 21.1909 113.068 21.8409 112.694 22.4077C112.321 22.9699 111.813 23.4107 111.17 23.7301C110.526 24.045 109.771 24.2024 108.903 24.2024ZM117.79 10.1818V24H115.348V10.1818H117.79ZM124.822 24.2024C123.81 24.2024 122.933 23.9798 122.191 23.5344C121.449 23.0891 120.873 22.4661 120.464 21.6655C120.059 20.8648 119.857 19.9292 119.857 18.8587C119.857 17.7881 120.059 16.8503 120.464 16.0451C120.873 15.2399 121.449 14.6147 122.191 14.1694C122.933 13.7241 123.81 13.5014 124.822 13.5014C125.835 13.5014 126.712 13.7241 127.454 14.1694C128.196 14.6147 128.77 15.2399 129.174 16.0451C129.584 16.8503 129.788 17.7881 129.788 18.8587C129.788 19.9292 129.584 20.8648 129.174 21.6655C128.77 22.4661 128.196 23.0891 127.454 23.5344C126.712 23.9798 125.835 24.2024 124.822 24.2024ZM124.836 22.2457C125.385 22.2457 125.844 22.0951 126.212 21.7937C126.581 21.4878 126.856 21.0785 127.036 20.5657C127.22 20.0529 127.312 19.4817 127.312 18.8519C127.312 18.2177 127.22 17.6442 127.036 17.1314C126.856 16.6141 126.581 16.2025 126.212 15.8967C125.844 15.5908 125.385 15.4379 124.836 15.4379C124.274 15.4379 123.806 15.5908 123.433 15.8967C123.064 16.2025 122.787 16.6141 122.603 17.1314C122.423 17.6442 122.333 18.2177 122.333 18.8519C122.333 19.4817 122.423 20.0529 122.603 20.5657C122.787 21.0785 123.064 21.4878 123.433 21.7937C123.806 22.0951 124.274 22.2457 124.836 22.2457ZM138.467 19.6413V13.6364H140.909V24H138.541V22.158H138.433C138.199 22.7383 137.815 23.2128 137.279 23.5817C136.749 23.9505 136.094 24.1349 135.316 24.1349C134.637 24.1349 134.036 23.9843 133.514 23.6829C132.997 23.377 132.592 22.9339 132.3 22.3537C132.008 21.7689 131.861 21.0627 131.861 20.2351V13.6364H134.304V19.8572C134.304 20.514 134.484 21.0357 134.844 21.4226C135.204 21.8094 135.676 22.0028 136.261 22.0028C136.62 22.0028 136.969 21.9151 137.306 21.7397C137.644 21.5643 137.92 21.3034 138.136 20.957C138.357 20.6062 138.467 20.1676 138.467 19.6413ZM147.267 24.1822C146.453 24.1822 145.724 23.973 145.081 23.5547C144.438 23.1364 143.929 22.5291 143.556 21.733C143.183 20.9368 142.996 19.9697 142.996 18.8317C142.996 17.6802 143.185 16.7086 143.563 15.9169C143.945 15.1207 144.46 14.5202 145.108 14.1154C145.756 13.7061 146.477 13.5014 147.274 13.5014C147.881 13.5014 148.38 13.6049 148.771 13.8118C149.163 14.0142 149.473 14.2594 149.703 14.5472C149.932 14.8306 150.11 15.0982 150.236 15.3501H150.337V10.1818H152.786V24H150.384V22.3672H150.236C150.11 22.6191 149.927 22.8867 149.689 23.1701C149.451 23.449 149.136 23.6874 148.744 23.8853C148.353 24.0832 147.861 24.1822 147.267 24.1822ZM147.948 22.1783C148.466 22.1783 148.906 22.0388 149.271 21.7599C149.635 21.4766 149.912 21.083 150.101 20.5792C150.29 20.0754 150.384 19.4884 150.384 18.8182C150.384 18.148 150.29 17.5655 150.101 17.0707C149.916 16.5759 149.642 16.1913 149.278 15.9169C148.918 15.6425 148.475 15.5053 147.948 15.5053C147.404 15.5053 146.95 15.647 146.585 15.9304C146.221 16.2138 145.947 16.6051 145.762 17.1044C145.578 17.6037 145.486 18.175 145.486 18.8182C145.486 19.4659 145.578 20.0439 145.762 20.5522C145.951 21.056 146.228 21.4541 146.592 21.7464C146.961 22.0343 147.413 22.1783 147.948 22.1783Z" fill="white"/>
<path d="M12.6694 7.44561L18.004 3.88916L23.3387 7.44561L34.0081 21.6714L28.6734 28.7843H7.33468L2 21.6714L12.6694 7.44561Z" fill="white"/>
<path d="M11.7802 15.4477C11.7802 15.4477 10.8911 14.5586 9.1129 14.5586C4.66734 14.5586 2 18.115 2 21.6715C2 25.2279 4.66734 28.7844 9.1129 28.7844C13.5585 28.7844 18.004 28.7844 18.004 28.7844H26.8952C31.3407 28.7844 34.0081 25.2279 34.0081 21.6715C34.0081 18.115 31.3407 14.5586 26.8952 14.5586C25.1169 14.5586 24.2278 15.4477 24.2278 15.4477" stroke="white" stroke-width="3.55645" stroke-linecap="round" stroke-linejoin="round"/>
<path d="M26.8946 14.5585C26.8946 14.5585 26.8946 13.6694 26.8946 12.7803C26.8946 8.33472 23.3381 3.88916 18.0034 3.88916C12.6688 3.88916 9.1123 8.33472 9.1123 12.7803V14.5585" stroke="white" stroke-width="3.55645" stroke-linecap="round" stroke-linejoin="round"/>
<path d="M3.82685 20.0202V18.0197L13.3292 13.6297V16.0956L6.57754 18.9922L6.65395 18.8602V19.1797L6.57754 19.0478L13.3292 21.9443V24.4102L3.82685 20.0202ZM31.3425 20.0202L21.8401 24.4102V21.9443L28.5918 19.0478L28.5154 19.1797V18.8602L28.5918 18.9922L21.8401 16.0956V13.6297L31.3425 18.0197V20.0202Z" fill="#184CA8"/>
<path d="M22.4493 3L14.4473 30.5625" stroke="#184CA8" stroke-width="1.77823"/>
</svg>
