<svg width="278" height="278" viewBox="0 0 278 278" fill="none" xmlns="http://www.w3.org/2000/svg">
<path d="M208.496 231.668L252.791 187.373C254.095 186.071 254.828 184.304 254.829 182.462V121.626C254.829 117.018 252.999 112.598 249.74 109.34C246.482 106.082 242.063 104.251 237.454 104.251C232.846 104.251 228.427 106.082 225.168 109.34C221.91 112.598 220.079 117.018 220.079 121.626V173.751" stroke="white" stroke-opacity="0.8" stroke-width="4" stroke-linecap="round" stroke-linejoin="round"/>
<path d="M208.497 185.334L218.436 175.396C218.96 174.876 219.376 174.257 219.658 173.575C219.94 172.893 220.084 172.161 220.081 171.423C220.073 170.383 219.779 169.365 219.231 168.48C218.684 167.595 217.904 166.878 216.976 166.407L211.845 163.847C207.498 161.674 202.577 160.922 197.779 161.7C192.981 162.477 188.549 164.744 185.111 168.179L174.744 178.546C170.399 182.89 167.957 188.782 167.956 194.925V231.668M69.4974 231.668L25.2027 187.373C23.899 186.071 23.1657 184.304 23.1641 182.462V121.626C23.1641 117.018 24.9946 112.598 28.2531 109.34C31.5115 106.082 35.9309 104.251 40.5391 104.251C45.1472 104.251 49.5666 106.082 52.825 109.34C56.0835 112.598 57.9141 117.018 57.9141 121.626V173.751" stroke="white" stroke-opacity="0.8" stroke-width="4" stroke-linecap="round" stroke-linejoin="round"/>
<path d="M69.4974 185.334L59.5589 175.395C58.5211 174.331 57.9322 172.909 57.9141 171.422C57.9141 169.303 59.1187 167.368 61.0184 166.407L66.1498 163.847C70.4972 161.673 75.4181 160.922 80.216 161.699C85.0139 162.477 89.4457 164.744 92.8841 168.179L103.251 178.546C107.596 182.89 110.038 188.781 110.039 194.925V231.667M158.307 139.001H119.688V111.977H92.6641V73.3579H119.688V46.334H158.307V73.3579H185.331V111.977H158.307V139.001Z" stroke="white" stroke-opacity="0.8" stroke-width="4" stroke-linecap="round" stroke-linejoin="round"/>
</svg>
