<svg width="55" height="55" viewBox="0 0 55 55" fill="none" xmlns="http://www.w3.org/2000/svg">
<rect x="0.827698" y="0.755432" width="52.8803" height="52.8803" rx="26.4401" stroke="white" stroke-width="1.51086"/>
<g clip-path="url(#clip0_311_1463)">
<path d="M21.4261 36.2598H17.0408V22.1379H21.4261V36.2598ZM19.2311 20.2116C17.8288 20.2116 16.6914 19.0501 16.6914 17.6478C16.6914 16.9743 16.959 16.3283 17.4353 15.852C17.9115 15.3757 18.5575 15.1082 19.2311 15.1082C19.9046 15.1082 20.5506 15.3757 21.0269 15.852C21.5032 16.3283 21.7707 16.9743 21.7707 17.6478C21.7707 19.0501 20.6329 20.2116 19.2311 20.2116ZM37.8388 36.2598H33.4629V29.3854C33.4629 27.747 33.4299 25.646 31.183 25.646C28.903 25.646 28.5536 27.426 28.5536 29.2673V36.2598H24.173V22.1379H28.3789V24.0643H28.4403C29.0257 22.9547 30.4559 21.7838 32.5895 21.7838C37.0276 21.7838 37.8435 24.7064 37.8435 28.5024V36.2598H37.8388Z" fill="white"/>
</g>
<defs>
<clipPath id="clip0_311_1463">
<rect width="21.1521" height="24.1738" fill="white" transform="translate(16.6914 15.1084)"/>
</clipPath>
</defs>
</svg>
