<svg width="36" height="36" viewBox="0 0 36 36" fill="none" xmlns="http://www.w3.org/2000/svg">
<rect x="0.5" y="0.5" width="35" height="35" rx="17.5" stroke="white"/>
<path d="M15 9C13.4087 9 11.8826 9.63214 10.7574 10.7574C9.63214 11.8826 9 13.4087 9 15V22C9 23.5913 9.63214 25.1174 10.7574 26.2426C11.8826 27.3679 13.4087 28 15 28H22C23.5913 28 25.1174 27.3679 26.2426 26.2426C27.3679 25.1174 28 23.5913 28 22V17C28 16.7348 27.8946 16.4804 27.7071 16.2929C27.5196 16.1054 27.2652 16 27 16H26C25.7348 16 25.4804 15.8946 25.2929 15.7071C25.1054 15.5196 25 15.2652 25 15C25 13.4087 24.3679 11.8826 23.2426 10.7574C22.1174 9.63214 20.5913 9 19 9H15ZM15 13H19C19.55 13 20 14.45 20 15C20 15.55 19.55 17 19 17H15C14.45 17 14 15.55 14 15C14 14.45 14.45 13 15 13ZM15 20H22C22.55 20 23 21.45 23 22C23 22.55 22.55 24 22 24H15C14.45 24 14 22.55 14 22C14 21.45 14.45 20 15 20Z" fill="white"/>
</svg>
