<svg width="82" height="78" viewBox="0 0 82 78" fill="none" xmlns="http://www.w3.org/2000/svg">
<g clip-path="url(#clip0_1065_1763)">
<path d="M57.3975 2.27344H82.0162L49.1134 63.0494C49.1134 63.0494 43.57 46.9483 41.1875 41.2024" fill="url(#paint0_linear_1065_1763)"/>
<path d="M63.4707 77.4219H82.0165V2.27344C82.0009 41.545 65.495 77.4219 63.4707 77.4219Z" fill="url(#paint1_linear_1065_1763)"/>
<path d="M49.1128 63.0494H33.8059L0 2.27345C5.99506 1.51044 17.9696 0.482719 23.9024 0L49.1128 63.0494Z" fill="url(#paint2_linear_1065_1763)"/>
<path d="M19.6046 39.0547C14.5283 59.1109 -0.0155591 78.0148 1.24943e-05 77.9992C16.8485 77.9992 20.4767 75.5545 20.4767 74.2621C20.4767 73.5458 20.4767 51.1694 20.4767 40.5807C20.1808 40.0824 19.9005 39.5686 19.6046 39.0547Z" fill="url(#paint3_linear_1065_1763)"/>
<path d="M0 2.27344V77.9981C9.21838 62.7691 14.5906 52.8032 19.3399 38.602C7.63008 17.8917 0 2.27344 0 2.27344Z" fill="url(#paint4_linear_1065_1763)"/>
<path d="M62.1934 74.4452L63.4702 77.4194V37.9609L62.1934 40.0942" fill="url(#paint5_linear_1065_1763)"/>
<path d="M63.4082 38.0414V77.2974L63.4549 77.4219C64.7785 77.4219 82.0007 34.9426 82.0007 2.27344C82.0007 2.27344 71.4899 24.1982 63.4082 38.0414Z" fill="url(#paint6_linear_1065_1763)"/>
</g>
<defs>
<linearGradient id="paint0_linear_1065_1763" x1="40.0333" y1="35.2364" x2="86.6489" y2="26.1752" gradientUnits="userSpaceOnUse">
<stop stop-color="#0F6067"/>
<stop offset="0.5" stop-color="#05ABAC"/>
<stop offset="1" stop-color="#58BEC4"/>
</linearGradient>
<linearGradient id="paint1_linear_1065_1763" x1="72.6637" y1="78.2303" x2="79.3289" y2="2.04655" gradientUnits="userSpaceOnUse">
<stop stop-color="#117C83"/>
<stop offset="0.5" stop-color="#21B5B5"/>
<stop offset="1" stop-color="#7ED4D4"/>
</linearGradient>
<linearGradient id="paint2_linear_1065_1763" x1="34.095" y1="3.31018" x2="16.509" y2="57.4342" gradientUnits="userSpaceOnUse">
<stop stop-color="#9ACCD3"/>
<stop offset="0.5" stop-color="#72AEB3"/>
<stop offset="1" stop-color="#317D7F"/>
</linearGradient>
<linearGradient id="paint3_linear_1065_1763" x1="-4.19258" y1="65.0962" x2="25.32" y2="55.507" gradientUnits="userSpaceOnUse">
<stop stop-color="#21626E"/>
<stop offset="0.5" stop-color="#157C84"/>
<stop offset="1" stop-color="#03A3A5"/>
</linearGradient>
<linearGradient id="paint4_linear_1065_1763" x1="18.8834" y1="22.5306" x2="-18.8834" y2="57.7486" gradientUnits="userSpaceOnUse">
<stop stop-color="#0B7C81"/>
<stop offset="0.5" stop-color="#068D90"/>
<stop offset="1" stop-color="#16B1B1"/>
</linearGradient>
<linearGradient id="paint5_linear_1065_1763" x1="53.8118" y1="65.5041" x2="73.1149" y2="49.8727" gradientUnits="userSpaceOnUse">
<stop stop-color="#0A8A8F"/>
<stop offset="0.5" stop-color="#0F7C82"/>
<stop offset="1" stop-color="#1A5964"/>
</linearGradient>
<linearGradient id="paint6_linear_1065_1763" x1="83.04" y1="46.293" x2="62.5162" y2="33.4683" gradientUnits="userSpaceOnUse">
<stop stop-color="#256A77"/>
<stop offset="0.5" stop-color="#0D9499"/>
<stop offset="1" stop-color="#06A0A2"/>
</linearGradient>
<clipPath id="clip0_1065_1763">
<rect width="82" height="77.9981" fill="white"/>
</clipPath>
</defs>
</svg>
