<svg width="212" height="212" viewBox="0 0 212 212" fill="none" xmlns="http://www.w3.org/2000/svg">
<path d="M66.2526 172.251V128.084L101.586 150.167L66.2526 172.251ZM114.836 88.334C107.475 88.334 101.218 85.7576 96.0651 80.6048C90.9123 75.452 88.3359 69.1951 88.3359 61.834C88.3359 54.4729 90.9123 48.2159 96.0651 43.0632C101.218 37.9104 107.475 35.334 114.836 35.334H125.878V48.584H114.836C111.155 48.584 108.028 49.8737 105.455 52.453C102.881 55.0323 101.592 58.1593 101.586 61.834C101.58 65.5087 102.87 68.6386 105.455 71.2238C108.04 73.809 111.167 75.0958 114.836 75.084H125.878V88.334H114.836ZM139.128 88.334V75.084H150.169C153.85 75.084 156.98 73.7973 159.559 71.2238C162.138 68.6504 163.425 65.5204 163.419 61.834C163.413 58.1475 162.127 55.0205 159.559 52.453C156.992 49.8854 153.862 48.5958 150.169 48.584H139.128V35.334H150.169C157.53 35.334 163.787 37.9104 168.94 43.0632C174.093 48.2159 176.669 54.4729 176.669 61.834C176.669 69.1951 174.093 75.452 168.94 80.6048C163.787 85.7576 157.53 88.334 150.169 88.334H139.128ZM114.836 68.459V55.209H150.169V68.459H114.836ZM142.219 123.667V106.001H185.503V26.5007H79.5026V106.001H61.8359V26.5007C61.8359 21.6423 63.5673 17.4848 67.0299 14.028C70.4926 10.5712 74.6502 8.83987 79.5026 8.83398H185.503C190.361 8.83398 194.521 10.5653 197.984 14.028C201.447 17.4907 203.175 21.6482 203.169 26.5007V106.001C203.169 110.859 201.441 115.019 197.984 118.482C194.527 121.945 190.367 123.673 185.503 123.667H142.219ZM26.5026 203.167C21.6443 203.167 17.4867 201.439 14.0299 197.982C10.5732 194.525 8.84183 190.365 8.83594 185.501V114.834C8.83594 109.976 10.5673 105.818 14.0299 102.361C17.4926 98.9045 21.6502 97.1732 26.5026 97.1673H132.503C137.361 97.1673 141.521 98.8987 144.984 102.361C148.447 105.824 150.175 109.982 150.169 114.834V185.501C150.169 190.359 148.441 194.519 144.984 197.982C141.527 201.445 137.367 203.173 132.503 203.167H26.5026ZM26.5026 185.501H132.503V114.834H26.5026V185.501Z" fill="white" fill-opacity="0.8"/>
</svg>
