<svg width="536" height="183" viewBox="0 0 536 183" fill="none" xmlns="http://www.w3.org/2000/svg">
<path d="M68.4238 73.4238H0V5H68.4238V73.4238Z" fill="#F1511B"/>
<path d="M143.973 73.4238H75.5488V5H143.973V73.4238Z" fill="#80CC28"/>
<path d="M68.4225 149H0V80.5762H68.4225V149Z" fill="#00ADEF"/>
<path d="M143.973 149H75.5488V80.5762H143.973V149Z" fill="#FBBC09"/>
<path d="M532 32.359V23.354H520.818V9.356L520.442 9.471L509.939 12.685L509.733 12.748V23.354H493.156V17.446C493.156 14.695 493.771 12.589 494.984 11.186C496.188 9.798 497.91 9.093 500.106 9.093C501.686 9.093 503.32 9.465 504.966 10.198L505.378 10.382V0.9L505.184 0.83C503.649 0.277 501.561 0 498.974 0C495.712 0 492.749 0.708999 490.164 2.116C487.616 3.48585 485.518 5.56059 484.119 8.092C482.699 10.646 481.979 13.595 481.979 16.859V23.355H474.193V32.36H481.979V70.293H493.156V32.359H509.733V56.465C509.733 66.393 514.415 71.425 523.651 71.425C525.247 71.4157 526.838 71.2387 528.397 70.897C530.057 70.54 531.187 70.183 531.853 69.802L532 69.715V60.627L531.546 60.928C530.939 61.333 530.184 61.663 529.298 61.908C528.408 62.158 527.665 62.284 527.09 62.284C524.926 62.284 523.326 61.701 522.332 60.55C521.328 59.39 520.818 57.359 520.818 54.519V32.359H532ZM449.232 62.285C445.175 62.285 441.977 60.939 439.722 58.29C437.455 55.626 436.305 51.83 436.305 47.005C436.305 42.028 437.455 38.133 439.724 35.422C441.979 32.73 445.147 31.363 449.141 31.363C453.016 31.363 456.101 32.668 458.311 35.245C460.532 37.834 461.659 41.698 461.659 46.733C461.659 51.83 460.599 55.746 458.509 58.365C456.434 60.965 453.313 62.285 449.232 62.285ZM449.73 22.223C441.99 22.223 435.842 24.491 431.46 28.964C427.079 33.438 424.858 39.628 424.858 47.366C424.858 54.715 427.026 60.626 431.302 64.933C435.578 69.241 441.398 71.423 448.597 71.423C456.1 71.423 462.125 69.124 466.507 64.589C470.887 60.059 473.107 53.927 473.107 46.369C473.107 38.906 471.024 32.951 466.915 28.673C462.803 24.393 457.02 22.223 449.73 22.223ZM406.836 22.223C401.571 22.223 397.216 23.57 393.889 26.225C390.543 28.896 388.845 32.4 388.845 36.639C388.845 38.842 389.211 40.799 389.933 42.459C390.658 44.125 391.781 45.591 393.273 46.822C394.753 48.043 397.038 49.322 400.067 50.622C402.612 51.67 404.511 52.557 405.717 53.255C406.896 53.94 407.733 54.628 408.205 55.298C408.664 55.953 408.897 56.851 408.897 57.958C408.897 61.112 406.536 62.646 401.677 62.646C399.874 62.646 397.818 62.27 395.566 61.528C393.33 60.7969 391.22 59.7268 389.309 58.355L388.845 58.023V68.783L389.015 68.863C390.597 69.593 392.591 70.208 394.941 70.693C397.287 71.177 399.417 71.424 401.269 71.424C406.982 71.424 411.583 70.071 414.939 67.4C418.319 64.71 420.031 61.125 420.031 56.738C420.031 53.575 419.109 50.861 417.291 48.673C415.488 46.503 412.356 44.51 407.988 42.749C404.508 41.352 402.278 40.193 401.359 39.303C400.472 38.443 400.022 37.227 400.022 35.688C400.022 34.322 400.578 33.229 401.719 32.343C402.869 31.453 404.469 31 406.475 31C408.338 31 410.243 31.294 412.138 31.87C414.032 32.447 415.694 33.22 417.083 34.164L417.539 34.476V24.268L417.364 24.193C416.084 23.643 414.394 23.173 412.344 22.793C410.3 22.415 408.447 22.223 406.836 22.223ZM359.706 62.285C355.65 62.285 352.451 60.939 350.197 58.29C347.929 55.626 346.782 51.83 346.782 47.005C346.782 42.028 347.93 38.133 350.2 35.422C352.453 32.73 355.62 31.363 359.616 31.363C363.491 31.363 366.576 32.668 368.786 35.245C371.007 37.834 372.134 41.698 372.134 46.733C372.134 51.83 371.074 55.746 368.984 58.365C366.908 60.965 363.788 62.285 359.706 62.285ZM360.205 22.223C352.463 22.223 346.315 24.491 341.935 28.964C337.555 33.438 335.332 39.628 335.332 47.366C335.332 54.718 337.502 60.626 341.777 64.933C346.053 69.241 351.872 71.423 359.073 71.423C366.573 71.423 372.601 69.124 376.983 64.589C381.362 60.059 383.583 53.927 383.583 46.369C383.583 38.906 381.499 32.951 377.389 28.673C373.276 24.393 367.494 22.223 360.205 22.223ZM318.365 31.483V23.354H307.324V70.291H318.364V46.28C318.364 42.197 319.29 38.843 321.117 36.31C322.92 33.807 325.324 32.538 328.257 32.538C329.252 32.538 330.368 32.702 331.577 33.027C332.774 33.349 333.641 33.699 334.152 34.067L334.616 34.404V23.274L334.436 23.197C333.409 22.76 331.954 22.54 330.114 22.54C327.339 22.54 324.856 23.431 322.73 25.186C320.863 26.729 319.513 28.845 318.482 31.483H318.365ZM287.552 22.223C282.487 22.223 277.968 23.31 274.125 25.451C270.275 27.596 267.296 30.661 265.27 34.556C263.253 38.443 262.229 42.983 262.229 48.046C262.229 52.48 263.222 56.55 265.184 60.136C267.148 63.729 269.928 66.54 273.446 68.49C276.96 70.437 281.021 71.424 285.516 71.424C290.763 71.424 295.243 70.375 298.836 68.307L298.98 68.223V58.108L298.517 58.447C296.864 59.6447 295.044 60.5922 293.115 61.259C291.163 61.94 289.385 62.284 287.825 62.284C283.492 62.284 280.015 60.929 277.49 58.257C274.96 55.58 273.677 51.823 273.677 47.094C273.677 42.336 275.015 38.482 277.651 35.637C280.28 32.802 283.764 31.364 288.007 31.364C291.636 31.364 295.172 32.593 298.517 35.02L298.98 35.356V24.698L298.831 24.614C297.571 23.909 295.855 23.327 293.723 22.886C291.601 22.446 289.525 22.223 287.552 22.223ZM254.625 23.354H243.583V70.291H254.625V23.354ZM249.217 3.359C247.4 3.359 245.815 3.978 244.513 5.203C243.205 6.433 242.541 7.981 242.541 9.807C242.541 11.605 243.197 13.124 244.491 14.321C245.778 15.514 247.368 16.119 249.217 16.119C251.065 16.119 252.661 15.514 253.963 14.323C255.273 13.124 255.938 11.605 255.938 9.807C255.938 8.045 255.291 6.512 254.017 5.253C252.744 3.996 251.128 3.359 249.217 3.359ZM221.669 19.892V70.29H232.937V4.796H217.342L197.519 53.443L178.283 4.796H162.053V70.291H172.642V19.887H173.006L193.319 70.291H201.309L221.305 19.891L221.669 19.892Z" fill="#706D6E"/>
<path d="M162.207 149V90.8182H174.508V114.824H199.48V90.8182H211.752V149H199.48V124.966H174.508V149H162.207ZM242.983 149.852C238.57 149.852 234.754 148.915 231.534 147.04C228.333 145.146 225.862 142.513 224.119 139.142C222.377 135.752 221.506 131.822 221.506 127.352C221.506 122.845 222.377 118.905 224.119 115.534C225.862 112.144 228.333 109.511 231.534 107.636C234.754 105.742 238.57 104.795 242.983 104.795C247.396 104.795 251.203 105.742 254.403 107.636C257.623 109.511 260.104 112.144 261.847 115.534C263.589 118.905 264.46 122.845 264.46 127.352C264.46 131.822 263.589 135.752 261.847 139.142C260.104 142.513 257.623 145.146 254.403 147.04C251.203 148.915 247.396 149.852 242.983 149.852ZM243.04 140.477C245.047 140.477 246.723 139.909 248.068 138.773C249.413 137.617 250.426 136.045 251.108 134.057C251.809 132.068 252.159 129.805 252.159 127.267C252.159 124.729 251.809 122.466 251.108 120.477C250.426 118.489 249.413 116.917 248.068 115.761C246.723 114.606 245.047 114.028 243.04 114.028C241.013 114.028 239.309 114.606 237.926 115.761C236.562 116.917 235.53 118.489 234.83 120.477C234.148 122.466 233.807 124.729 233.807 127.267C233.807 129.805 234.148 132.068 234.83 134.057C235.53 136.045 236.562 137.617 237.926 138.773C239.309 139.909 241.013 140.477 243.04 140.477ZM286.032 90.8182V149H273.93V90.8182H286.032ZM317.042 149.852C312.629 149.852 308.813 148.915 305.593 147.04C302.393 145.146 299.921 142.513 298.179 139.142C296.436 135.752 295.565 131.822 295.565 127.352C295.565 122.845 296.436 118.905 298.179 115.534C299.921 112.144 302.393 109.511 305.593 107.636C308.813 105.742 312.629 104.795 317.042 104.795C321.455 104.795 325.262 105.742 328.463 107.636C331.682 109.511 334.164 112.144 335.906 115.534C337.648 118.905 338.52 122.845 338.52 127.352C338.52 131.822 337.648 135.752 335.906 139.142C334.164 142.513 331.682 145.146 328.463 147.04C325.262 148.915 321.455 149.852 317.042 149.852ZM317.099 140.477C319.107 140.477 320.783 139.909 322.128 138.773C323.472 137.617 324.486 136.045 325.167 134.057C325.868 132.068 326.218 129.805 326.218 127.267C326.218 124.729 325.868 122.466 325.167 120.477C324.486 118.489 323.472 116.917 322.128 115.761C320.783 114.606 319.107 114.028 317.099 114.028C315.073 114.028 313.368 114.606 311.986 115.761C310.622 116.917 309.59 118.489 308.889 120.477C308.207 122.466 307.866 124.729 307.866 127.267C307.866 129.805 308.207 132.068 308.889 134.057C309.59 136.045 310.622 137.617 311.986 138.773C313.368 139.909 315.073 140.477 317.099 140.477ZM348.216 149V90.8182H360.517V138.858H385.461V149H348.216ZM414.866 149.852C410.377 149.852 406.514 148.943 403.275 147.125C400.055 145.288 397.574 142.693 395.832 139.341C394.089 135.97 393.218 131.983 393.218 127.381C393.218 122.892 394.089 118.953 395.832 115.562C397.574 112.172 400.027 109.53 403.19 107.636C406.372 105.742 410.103 104.795 414.383 104.795C417.262 104.795 419.942 105.259 422.423 106.188C424.923 107.097 427.101 108.47 428.957 110.307C430.832 112.144 432.29 114.455 433.332 117.239C434.373 120.004 434.894 123.242 434.894 126.955V130.278H398.048V122.778H423.502C423.502 121.036 423.123 119.492 422.366 118.148C421.608 116.803 420.557 115.752 419.212 114.994C417.887 114.218 416.343 113.83 414.582 113.83C412.745 113.83 411.116 114.256 409.695 115.108C408.294 115.941 407.195 117.068 406.4 118.489C405.605 119.89 405.197 121.453 405.178 123.176V130.307C405.178 132.466 405.576 134.331 406.372 135.903C407.186 137.475 408.332 138.688 409.809 139.54C411.286 140.392 413.038 140.818 415.065 140.818C416.409 140.818 417.641 140.629 418.758 140.25C419.875 139.871 420.832 139.303 421.627 138.545C422.423 137.788 423.029 136.86 423.445 135.761L434.639 136.5C434.07 139.189 432.906 141.538 431.144 143.545C429.402 145.534 427.148 147.087 424.383 148.205C421.637 149.303 418.464 149.852 414.866 149.852ZM456.494 123.773V149H444.392V105.364H455.926V113.062H456.438C457.403 110.525 459.023 108.517 461.295 107.04C463.568 105.544 466.324 104.795 469.562 104.795C472.593 104.795 475.235 105.458 477.489 106.784C479.742 108.11 481.494 110.004 482.744 112.466C483.994 114.909 484.619 117.826 484.619 121.216V149H472.517V123.375C472.536 120.705 471.854 118.621 470.472 117.125C469.089 115.61 467.186 114.852 464.761 114.852C463.133 114.852 461.693 115.203 460.443 115.903C459.212 116.604 458.246 117.627 457.545 118.972C456.864 120.297 456.513 121.898 456.494 123.773ZM532.064 117.807L520.985 118.489C520.796 117.542 520.388 116.689 519.763 115.932C519.138 115.155 518.314 114.54 517.292 114.085C516.288 113.612 515.085 113.375 513.684 113.375C511.809 113.375 510.227 113.773 508.939 114.568C507.652 115.345 507.008 116.386 507.008 117.693C507.008 118.735 507.424 119.616 508.258 120.335C509.091 121.055 510.521 121.633 512.547 122.068L520.445 123.659C524.688 124.53 527.85 125.932 529.934 127.864C532.017 129.795 533.059 132.333 533.059 135.477C533.059 138.337 532.216 140.847 530.53 143.006C528.864 145.165 526.572 146.85 523.655 148.062C520.758 149.256 517.415 149.852 513.627 149.852C507.85 149.852 503.248 148.65 499.82 146.244C496.411 143.82 494.413 140.525 493.826 136.358L505.729 135.733C506.089 137.494 506.96 138.839 508.343 139.767C509.725 140.676 511.496 141.131 513.655 141.131C515.777 141.131 517.481 140.723 518.769 139.909C520.076 139.076 520.739 138.006 520.758 136.699C520.739 135.6 520.275 134.701 519.366 134C518.457 133.28 517.055 132.731 515.161 132.352L507.604 130.847C503.343 129.994 500.171 128.517 498.087 126.415C496.023 124.312 494.991 121.633 494.991 118.375C494.991 115.572 495.748 113.157 497.263 111.131C498.797 109.104 500.947 107.542 503.712 106.443C506.496 105.345 509.754 104.795 513.485 104.795C518.996 104.795 523.333 105.96 526.496 108.29C529.678 110.619 531.534 113.792 532.064 117.807Z" fill="#706D6E"/>
</svg>
