<svg width="49" height="49" viewBox="0 0 49 49" fill="none" xmlns="http://www.w3.org/2000/svg">
<g clip-path="url(#clip0_830_1031)">
<path fill-rule="evenodd" clip-rule="evenodd" d="M21.4372 4.08252C18.6699 4.08276 15.9428 4.74476 13.4834 6.01331C11.0239 7.28186 8.90356 9.12016 7.2991 11.3748C5.69465 13.6295 4.65264 16.2352 4.26003 18.9745C3.86741 21.7138 4.13557 24.5073 5.04213 27.1219C5.94869 29.7365 7.46736 32.0963 9.47144 34.0046C11.4755 35.9129 13.9069 37.3143 16.5627 38.0918C19.2185 38.8693 22.0218 39.0004 24.7386 38.4742C27.4554 37.948 30.0069 36.7797 32.1804 35.0669L39.6366 42.523C40.0216 42.8949 40.5374 43.1007 41.0727 43.0961C41.608 43.0914 42.1201 42.8767 42.4986 42.4982C42.8772 42.1196 43.0919 41.6075 43.0965 41.0722C43.1012 40.5369 42.8954 40.0212 42.5235 39.6361L35.0673 32.1799C37.0845 29.6209 38.3404 26.5458 38.6915 23.3063C39.0425 20.0668 38.4745 16.794 37.0523 13.8623C35.6301 10.9306 33.4113 8.45854 30.6498 6.72899C27.8883 4.99945 24.6956 4.0823 21.4372 4.08252ZM8.16633 21.4367C8.16633 17.917 9.5645 14.5416 12.0533 12.0528C14.542 9.56403 17.9175 8.16585 21.4372 8.16585C24.9568 8.16585 28.3323 9.56403 30.8211 12.0528C33.3098 14.5416 34.708 17.917 34.708 21.4367C34.708 24.9563 33.3098 28.3318 30.8211 30.8206C28.3323 33.3093 24.9568 34.7075 21.4372 34.7075C17.9175 34.7075 14.542 33.3093 12.0533 30.8206C9.5645 28.3318 8.16633 24.9563 8.16633 21.4367Z" fill="white"/>
<path d="M29.3722 22.4018C29.2178 22.2261 29.1326 22.0001 29.1326 21.7662C29.1326 21.5323 29.2178 21.3064 29.3722 21.1306L30.6048 19.7439C30.7407 19.5924 30.825 19.4017 30.8458 19.1993C30.8665 18.9969 30.8226 18.7931 30.7204 18.6172L28.7944 15.2851C28.6931 15.1094 28.539 14.9701 28.354 14.8871C28.169 14.8041 27.9625 14.7816 27.7639 14.8229L25.9535 15.1888C25.7231 15.2364 25.4833 15.1981 25.2793 15.081C25.0752 14.9639 24.9211 14.7762 24.846 14.5532L24.2586 12.7909C24.194 12.5996 24.0709 12.4335 23.9067 12.316C23.7425 12.1985 23.5456 12.1356 23.3437 12.1361H19.4917C19.2817 12.1251 19.0738 12.1832 18.8999 12.3014C18.7261 12.4197 18.5956 12.5916 18.5286 12.7909L17.9894 14.5532C17.9142 14.7762 17.7601 14.9639 17.5561 15.081C17.3521 15.1981 17.1123 15.2364 16.8819 15.1888L15.0233 14.8229C14.8351 14.7963 14.6432 14.826 14.4718 14.9082C14.3004 14.9905 14.1572 15.1216 14.0603 15.2851L12.1342 18.6172C12.0294 18.7911 11.9823 18.9938 11.9996 19.1961C12.0169 19.3985 12.0977 19.5902 12.2305 19.7439L13.4536 21.1306C13.608 21.3064 13.6931 21.5323 13.6931 21.7662C13.6931 22.0001 13.608 22.2261 13.4536 22.4018L12.2305 23.7885C12.0977 23.9422 12.0169 24.1339 11.9996 24.3363C11.9823 24.5386 12.0294 24.7413 12.1342 24.9153L14.0603 28.2473C14.1615 28.423 14.3156 28.5623 14.5006 28.6453C14.6856 28.7283 14.8921 28.7508 15.0907 28.7095L16.9012 28.3436C17.1315 28.296 17.3713 28.3343 17.5754 28.4514C17.7794 28.5685 17.9335 28.7562 18.0086 28.9792L18.5961 30.7415C18.6631 30.9408 18.7935 31.1127 18.9674 31.231C19.1413 31.3492 19.3491 31.4073 19.5591 31.3963H23.4111C23.613 31.3969 23.81 31.3339 23.9741 31.2164C24.1383 31.0989 24.2614 30.9328 24.326 30.7415L24.9134 28.9792C24.9885 28.7562 25.1426 28.5685 25.3467 28.4514C25.5507 28.3343 25.7905 28.296 26.0209 28.3436L27.8313 28.7095C28.0299 28.7508 28.2364 28.7283 28.4214 28.6453C28.6065 28.5623 28.7606 28.423 28.8618 28.2473L30.7878 24.9153C30.89 24.7393 30.9339 24.5355 30.9132 24.3331C30.8924 24.1307 30.8081 23.94 30.6722 23.7885L29.3722 22.4018ZM27.9373 23.6922L28.7077 24.5589L27.475 26.6968L26.3387 26.4657C25.6451 26.3239 24.9236 26.4417 24.3111 26.7968C23.6987 27.1518 23.2379 27.7194 23.0163 28.3917L22.6503 29.4703H20.185L19.8383 28.3725C19.6167 27.7001 19.1559 27.1326 18.5435 26.7775C17.931 26.4225 17.2095 26.3047 16.5159 26.4464L15.3796 26.6776L14.1277 24.5493L14.8981 23.6826C15.3718 23.1529 15.6338 22.4672 15.6338 21.7566C15.6338 21.0459 15.3718 20.3602 14.8981 19.8305L14.1277 18.9638L15.3603 16.8452L16.4967 17.0763C17.1903 17.2181 17.9118 17.1003 18.5242 16.7452C19.1367 16.3902 19.5974 15.8226 19.8191 15.1503L20.185 14.0621H22.6503L23.0163 15.1599C23.2379 15.8323 23.6987 16.3998 24.3111 16.7549C24.9236 17.1099 25.6451 17.2277 26.3387 17.086L27.475 16.8548L28.7077 18.9927L27.9373 19.8594C27.4688 20.3879 27.2102 21.0696 27.2102 21.7758C27.2102 22.482 27.4688 23.1638 27.9373 23.6922ZM21.4177 17.9142C20.6558 17.9142 19.9111 18.1401 19.2776 18.5633C18.6441 18.9866 18.1504 19.5882 17.8589 20.2921C17.5673 20.996 17.491 21.7705 17.6396 22.5177C17.7883 23.2649 18.1552 23.9513 18.6939 24.49C19.2326 25.0287 19.919 25.3956 20.6662 25.5442C21.4134 25.6929 22.1879 25.6166 22.8918 25.325C23.5957 25.0335 24.1973 24.5398 24.6205 23.9063C25.0438 23.2728 25.2697 22.5281 25.2697 21.7662C25.2697 20.7446 24.8639 19.7648 24.1415 19.0424C23.4191 18.32 22.4393 17.9142 21.4177 17.9142ZM21.4177 23.6922C21.0368 23.6922 20.6644 23.5793 20.3476 23.3676C20.0309 23.156 19.784 22.8552 19.6383 22.5033C19.4925 22.1513 19.4543 21.7641 19.5287 21.3905C19.603 21.0168 19.7864 20.6737 20.0558 20.4043C20.3251 20.1349 20.6683 19.9515 21.0419 19.8772C21.4155 19.8029 21.8028 19.841 22.1547 19.9868C22.5067 20.1326 22.8075 20.3794 23.0191 20.6962C23.2307 21.0129 23.3437 21.3853 23.3437 21.7662C23.3437 22.277 23.1408 22.7669 22.7796 23.1281C22.4184 23.4893 21.9285 23.6922 21.4177 23.6922Z" fill="white"/>
</g>
<defs>
<clipPath id="clip0_830_1031">
<rect width="49" height="49" fill="white"/>
</clipPath>
</defs>
</svg>
