<svg width="48" height="48" viewBox="0 0 48 48" fill="none" xmlns="http://www.w3.org/2000/svg">
<path d="M16.5 31.5H13.5V28.5C13.5012 27.3069 13.9757 26.163 14.8193 25.3193C15.663 24.4757 16.8069 24.0012 18 24H27V27H18C17.6023 27.0004 17.221 27.1586 16.9398 27.4398C16.6586 27.721 16.5004 28.1023 16.5 28.5V31.5ZM22.5 22.5C21.3133 22.5 20.1533 22.1481 19.1666 21.4888C18.1799 20.8295 17.4108 19.8925 16.9567 18.7961C16.5026 17.6997 16.3838 16.4933 16.6153 15.3295C16.8468 14.1656 17.4182 13.0965 18.2574 12.2574C19.0965 11.4182 20.1656 10.8468 21.3295 10.6153C22.4933 10.3838 23.6997 10.5026 24.7961 10.9567C25.8925 11.4109 26.8295 12.1799 27.4888 13.1666C28.1481 14.1533 28.5 15.3133 28.5 16.5C28.498 18.0907 27.8652 19.6157 26.7404 20.7405C25.6157 21.8652 24.0907 22.498 22.5 22.5ZM22.5 13.5C21.9067 13.5 21.3266 13.6759 20.8333 14.0056C20.3399 14.3352 19.9554 14.8038 19.7284 15.352C19.5013 15.9001 19.4419 16.5033 19.5576 17.0853C19.6734 17.6672 19.9591 18.2018 20.3787 18.6213C20.7982 19.0409 21.3328 19.3266 21.9147 19.4424C22.4967 19.5581 23.0999 19.4987 23.648 19.2716C24.1962 19.0446 24.6648 18.6601 24.9944 18.1667C25.3241 17.6734 25.5 17.0933 25.5 16.5C25.4992 15.7046 25.1829 14.942 24.6204 14.3796C24.058 13.8171 23.2954 13.5008 22.5 13.5ZM36 33C34.8133 33 33.6533 32.6481 32.6666 31.9888C31.6799 31.3295 30.9108 30.3925 30.4567 29.2961C30.0026 28.1997 29.8838 26.9933 30.1153 25.8295C30.3468 24.6656 30.9182 23.5965 31.7574 22.7574C32.5965 21.9182 33.6656 21.3468 34.8295 21.1153C35.9933 20.8838 37.1997 21.0026 38.2961 21.4567C39.3925 21.9109 40.3295 22.6799 40.9888 23.6666C41.6481 24.6533 42 25.8133 42 27C41.998 28.5907 41.3652 30.1157 40.2404 31.2405C39.1157 32.3652 37.5907 32.998 36 33ZM36 24C35.4067 24 34.8266 24.176 34.3333 24.5056C33.8399 24.8352 33.4554 25.3038 33.2284 25.852C33.0013 26.4001 32.9419 27.0033 33.0576 27.5853C33.1734 28.1672 33.4591 28.7018 33.8787 29.1213C34.2982 29.5409 34.8328 29.8266 35.4147 29.9424C35.9967 30.0581 36.5999 29.9987 37.1481 29.7716C37.6962 29.5446 38.1648 29.1601 38.4944 28.6667C38.8241 28.1734 39 27.5933 39 27C38.9992 26.2046 38.6829 25.442 38.1204 24.8796C37.558 24.3171 36.7954 24.0008 36 24ZM45 42H42V39C41.9996 38.6023 41.8414 38.221 41.5602 37.9398C41.279 37.6586 40.8977 37.5004 40.5 37.5H31.5C31.1023 37.5004 30.721 37.6586 30.4398 37.9398C30.1586 38.221 30.0004 38.6023 30 39V42H27V39C27.0012 37.8069 27.4757 36.663 28.3193 35.8193C29.163 34.9757 30.3069 34.5012 31.5 34.5H40.5C41.6931 34.5012 42.837 34.9757 43.6807 35.8193C44.5243 36.663 44.9988 37.8069 45 39V42Z" fill="white"/>
<path d="M21.378 41.3727V41.5995V45V45.6298L20.8222 45.3335L11.5585 40.3942L21.378 41.3727ZM21.378 41.3727L21.1778 41.266M21.378 41.3727L21.1778 41.266M21.1778 41.266L13.3268 37.081L13.3265 37.0808M21.1778 41.266L13.3265 37.0808M13.3265 37.0808C11.2259 35.9635 9.46924 34.2951 8.24507 32.2549C7.0209 30.2147 6.37544 27.8797 6.37796 25.5004V25.5M13.3265 37.0808L6.37796 25.5M6.37796 25.5V6.37795M6.37796 25.5V6.37795M6.37796 6.37795H35.6221V15V15.378H36H39H39.378V15V6V5.99962C39.3771 5.10411 39.0209 4.24553 38.3877 3.6123C37.7545 2.97908 36.8959 2.62294 36.0004 2.62205H36L6.00001 2.62205L5.99963 2.62205C5.10412 2.62294 4.24554 2.97908 3.61231 3.6123C2.97909 4.24553 2.62295 5.10411 2.62206 5.99962V6V25.4998V25.5H3.00001C2.99667 28.4915 3.80809 31.4275 5.34718 33.9927L6.37796 6.37795Z" fill="white" stroke="white" stroke-width="0.755906"/>
</svg>
