<svg width="59" height="59" viewBox="0 0 59 59" fill="none" xmlns="http://www.w3.org/2000/svg">
<g clip-path="url(#clip0_830_1065)">
<path fill-rule="evenodd" clip-rule="evenodd" d="M51.625 46.708C52.2516 46.7087 52.8543 46.9486 53.3099 47.3788C53.7655 47.8089 54.0397 48.3968 54.0764 49.0223C54.1131 49.6478 53.9096 50.2637 53.5075 50.7442C53.1053 51.2247 52.5349 51.5335 51.9127 51.6075L51.625 51.6247H7.37504C6.74846 51.624 6.1458 51.3841 5.69018 50.9539C5.23456 50.5238 4.96038 49.9359 4.92366 49.3104C4.88694 48.6849 5.09045 48.069 5.49261 47.5885C5.89477 47.108 6.46522 46.7992 7.08742 46.7252L7.37504 46.708H51.625ZM46.7084 9.83301C47.9488 9.83262 49.1435 10.3011 50.0531 11.1445C50.9626 11.988 51.5197 13.144 51.6128 14.3809L51.625 14.7497V39.333C51.6254 40.5734 51.157 41.7682 50.3135 42.6777C49.4701 43.5872 48.314 44.1444 47.0771 44.2374L46.7084 44.2497H12.2917C11.0513 44.2501 9.85657 43.7816 8.94703 42.9382C8.03749 42.0947 7.48037 40.9387 7.38734 39.7018L7.37504 39.333V14.7497C7.37465 13.5093 7.84313 12.3145 8.68656 11.405C9.52999 10.4955 10.686 9.93833 11.923 9.8453L12.2917 9.83301H46.7084ZM46.7084 14.7497H12.2917V39.333H46.7084V14.7497Z" fill="white"/>
<path d="M29.4999 34.2354C27.9705 33.7811 26.6996 32.8544 25.6875 31.4554C24.6758 30.0559 24.1699 28.4795 24.1699 26.7261V22.6083L29.4999 20.6172L34.83 22.6083V26.7261C34.83 28.4795 34.3241 30.0556 33.3124 31.4546C32.3002 32.8541 31.0294 33.7811 29.4999 34.2354ZM29.4999 33.4267C30.7309 33.046 31.7588 32.2942 32.5837 31.1714C33.4086 30.0485 33.8909 28.7952 34.0304 27.4114H29.4999V21.4296L24.9314 23.1284V27.0543C24.9314 27.1528 24.944 27.2718 24.9694 27.4114H29.4999V33.4267Z" fill="white"/>
</g>
<defs>
<clipPath id="clip0_830_1065">
<rect width="59" height="59" fill="white"/>
</clipPath>
</defs>
</svg>
