<svg width="43" height="43" viewBox="0 0 43 43" fill="none" xmlns="http://www.w3.org/2000/svg">
<g clip-path="url(#clip0_830_987)">
<path d="M21.5 -0.000488281C9.64361 -0.000488281 0 9.64312 0 21.4995C0 33.3559 9.64361 42.9995 21.5 42.9995C33.3564 42.9995 43 33.3559 43 21.4995C43 9.64312 33.3564 -0.000488281 21.5 -0.000488281ZM22.5776 3.04305C28.0893 3.35824 32.9427 6.07584 36.1166 10.1673C35.2789 10.1458 34.4452 10.1406 33.6148 10.1531C32.1735 10.177 30.7334 10.2533 29.2976 10.3819C29.0336 9.83687 28.6214 9.37723 28.1084 9.05556C27.5953 8.73388 27.002 8.56317 26.3964 8.56296C26.2464 8.56298 26.0965 8.57347 25.9479 8.59435C24.938 6.67731 23.8125 4.82345 22.5776 3.04305ZM19.964 3.07745C21.528 5.21412 22.8837 7.38304 24.0439 9.58206C23.6123 10.0424 23.3253 10.6192 23.2183 11.241C21.2123 11.6319 19.2275 12.1241 17.2714 12.7159C17.028 12.3868 16.7241 12.1071 16.3761 11.8916C17.1875 8.99554 18.3227 6.06122 19.774 3.09164C19.8372 3.08605 19.9008 3.08304 19.964 3.07745ZM17.1948 3.51691C15.9822 6.16786 15.0147 8.80892 14.2949 11.4332C13.8595 11.4855 13.4393 11.626 13.06 11.8461C12.6807 12.0663 12.3503 12.3615 12.089 12.7138C10.1489 12.095 8.18379 11.5573 6.19888 11.1021C8.78949 7.29039 12.7115 4.58489 17.1948 3.51691ZM34.8777 12.2967C35.7773 12.3022 36.6812 12.3311 37.5897 12.3784C38.6757 14.2912 39.4094 16.3835 39.7557 18.5557C37.1542 18.9789 34.6214 19.5649 32.1558 20.3037C31.8897 19.9741 31.5611 19.7001 31.1891 19.4975C30.817 19.2949 30.4086 19.1676 29.9873 19.1229C29.573 17.4729 29.0681 15.8469 28.475 14.2523C29.0083 13.8023 29.3813 13.1916 29.538 12.5117C31.3006 12.3586 33.0795 12.285 34.8777 12.2967ZM5.04476 13.0543C7.23862 13.5372 9.37916 14.1018 11.4574 14.7653C11.4575 14.7696 11.4576 14.7739 11.4578 14.7782C8.65934 15.9276 5.90777 17.2829 3.20221 18.8361C3.49162 16.82 4.11429 14.8661 5.04476 13.0543ZM23.5752 13.3484C23.8539 13.8524 24.2626 14.2726 24.7586 14.5652C25.2547 14.8578 25.82 15.0123 26.396 15.0125C26.4249 15.0122 26.4539 15.0115 26.4828 15.0104C27.045 16.5157 27.5239 18.0508 27.9173 19.6088C27.7558 19.7112 27.6037 19.8278 27.4628 19.9571C24.4305 17.9808 21.2293 16.2766 17.8966 14.8646C17.8992 14.828 17.9012 14.7913 17.9026 14.7545C19.7688 14.1909 21.6618 13.7216 23.5752 13.3484ZM12.258 16.7631C12.4951 17.0327 12.7756 17.2609 13.0879 17.4382C12.5582 21.5838 12.6755 25.6714 13.4839 29.6699C11.5788 31.0631 9.74336 32.5491 7.98424 34.1226C4.89856 30.8206 3.01 26.3869 3.01 21.4995C3.01 21.4793 3.01172 21.46 3.01172 21.4397C6.04193 19.6191 9.12202 18.0556 12.2576 16.7635M17.0396 16.8319C20.3246 18.2201 23.4768 19.9035 26.4575 21.8616C26.4343 22.0167 26.4225 22.1734 26.4222 22.3303C26.4222 22.337 26.4222 22.3437 26.4222 22.3505C22.5694 23.9522 18.8912 25.9539 15.3833 28.3335C14.777 24.8944 14.7125 21.389 15.1652 17.8226C15.8838 17.713 16.5443 17.3639 17.0396 16.8319ZM39.9698 20.6993C39.981 20.9646 39.99 21.2312 39.99 21.4995C39.9928 24.1184 39.4383 26.7078 38.3633 29.0959C36.5535 27.1687 34.6188 25.3628 32.5716 23.6899C32.7689 23.266 32.8716 22.8043 32.8726 22.3367C35.2017 21.6427 37.5721 21.0958 39.9698 20.6993ZM27.148 24.3668C27.6122 24.9365 28.2569 25.3306 28.9756 25.4839C29.446 29.7448 29.3024 34.1123 28.5748 38.5903C26.3313 39.5168 23.9273 39.9923 21.5 39.9895C20.8649 39.9895 20.2371 39.9577 19.6188 39.8953C17.8936 36.8578 16.6479 33.7592 15.8653 30.6043C19.4463 28.1004 23.2024 26.0141 27.148 24.3668ZM31.0959 25.2526C33.3056 27.0531 35.3806 29.013 37.3042 31.1165C35.7244 33.7083 33.5319 35.8723 30.9196 37.4181C31.4721 33.2893 31.5388 29.2292 31.0959 25.2526ZM14.0206 31.9416C14.7043 34.4756 15.6692 36.9713 16.9244 39.4206C14.2065 38.7296 11.6824 37.4268 9.54471 35.6117C11.0054 34.3131 12.4971 33.0876 14.0206 31.9416Z" fill="white"/>
<circle cx="21.5002" cy="21.5002" r="13.76" fill="white"/>
<path d="M25.6209 19.0275V17.3791C25.6209 15.0715 23.8077 13.2583 21.5001 13.2583C19.1924 13.2583 17.3792 15.0715 17.3792 17.3791V19.0275C15.9782 19.0275 14.9067 20.0989 14.9067 21.5V27.2691C14.9067 28.6702 15.9782 29.7416 17.3792 29.7416H25.6209C27.022 29.7416 28.0934 28.6702 28.0934 27.2691V21.5C28.0934 20.0989 27.022 19.0275 25.6209 19.0275ZM19.0276 17.3791C19.0276 15.9781 20.099 14.9066 21.5001 14.9066C22.9012 14.9066 23.9726 15.9781 23.9726 17.3791V19.0275H19.0276V17.3791Z" fill="black"/>
</g>
<defs>
<clipPath id="clip0_830_987">
<rect width="43" height="43" fill="white"/>
</clipPath>
</defs>
</svg>
