<svg width="144" height="36" viewBox="0 0 144 36" fill="none" xmlns="http://www.w3.org/2000/svg">
<path d="M46 4C46 5.65685 44.6569 7 43 7C41.3431 7 40 5.65685 40 4C40 2.34315 41.3431 1 43 1C44.6569 1 46 2.34315 46 4Z" fill="#FD7D3D"/>
<path d="M136.5 26.6904V35.1904" stroke="#B1B1B1" stroke-width="1.5"/>
<path d="M130 9.69043C130 9.69043 130 17.6904 130 22.1904C130 23.9369 130.438 25.4094 132 26.1904C135 27.6904 137.51 28.0767 140 26.1904C141.468 25.0782 142.5 24.0325 142.5 22.1904C142.5 17.6904 142.5 9.69043 142.5 9.69043" stroke="#B1B1B1" stroke-width="1.5"/>
<path d="M54.663 9H49.5458C49.2754 9 49.0829 9.26264 49.1644 9.52045L54.9117 27.7205C54.9643 27.8869 55.1186 28 55.2932 28H58.7068C58.8814 28 59.0357 27.8869 59.0883 27.7205L64.8356 9.52045C64.9171 9.26264 64.7246 9 64.4542 9H59.337C59.1423 9 58.9758 9.14021 58.9428 9.3321L57.3942 18.3226C57.3179 18.7654 56.6821 18.7654 56.6058 18.3226L55.0572 9.3321C55.0242 9.14021 54.8577 9 54.663 9Z" fill="#FD7D3D"/>
<path d="M27 14.5C27 21.9558 20.9558 28 13.5 28C6.04416 28 0 21.9558 0 14.5C0 7.04416 6.04416 1 13.5 1C20.9558 1 27 7.04416 27 14.5ZM5.84598 14.5C5.84598 18.7272 9.2728 22.154 13.5 22.154C17.7272 22.154 21.154 18.7272 21.154 14.5C21.154 10.2728 17.7272 6.84598 13.5 6.84598C9.2728 6.84598 5.84598 10.2728 5.84598 14.5Z" fill="#FD7D3D"/>
<rect x="30" y="2" width="6" height="26" fill="#FD7D3D"/>
<rect x="40" y="9" width="6" height="19" fill="#FD7D3D"/>
<path d="M89 27.1906V5.69056C89 5.69056 90.9695 2.56078 93 1.69056C95.1537 0.767547 96.8443 0.77204 99 1.69043C100.656 2.39602 101.682 3.08681 102.5 4.69056C103.476 6.60402 103.235 8.17238 102.5 10.1906C101.925 11.7688 100 13.6906 100 13.6906M100 13.6906H91M100 13.6906C100 13.6906 103.128 15.3071 104 17.1906C104.903 19.1395 104.729 20.6701 104 22.6906C103.202 24.9024 102.051 26.0409 100 27.1906C96.9341 28.9092 91 27.1906 91 27.1906" stroke="#B1B1B1" stroke-width="1.5"/>
<path d="M126 14.6904C125.197 12.9568 123.672 11.6156 122 10.6904C120.328 9.76521 118.764 9.52175 116.869 9.76192C114.973 10.0021 113.203 10.8392 111.815 12.1521C110.427 13.465 109.493 15.1856 109.148 17.0647C108.803 18.9439 109.065 20.8841 109.896 22.6045C110.727 24.325 112.083 25.7364 113.77 26.6344C115.456 27.5324 117.385 27.8705 119.276 27.5996C121.167 27.3288 122.923 26.4631 124.29 25.1279L123.209 24.0214C122.077 25.1271 120.623 25.844 119.056 26.0683C117.49 26.2925 115.893 26.0126 114.497 25.2689C113.1 24.5253 111.977 23.3565 111.289 21.9318C110.601 20.5071 110.384 18.9003 110.67 17.3442C110.955 15.7881 111.729 14.3632 112.878 13.276C114.028 12.1888 115.493 11.4955 117.063 11.2966C118.633 11.0978 120.225 11.4035 121.609 12.1697C122.993 12.9359 123.5 13.1904 124.5 14.6904H126Z" fill="#ADADAD"/>
<path d="M124.5 14.6904H126V27.6904H124.5V14.6904Z" fill="#ADADAD"/>
<path d="M82.2175 11.7825C80.7099 10.2749 78.739 9.31824 76.6218 9.06647C74.5046 8.8147 72.3643 9.28244 70.5452 10.3944C68.7261 11.5064 67.3339 13.1981 66.5926 15.1971C65.8514 17.1962 65.8041 19.3865 66.4585 21.4157C67.1129 23.4449 68.4308 25.195 70.2003 26.3844C71.9698 27.5738 74.0879 28.1334 76.214 27.9731C78.34 27.8129 80.3504 26.9421 81.9216 25.5009C83.4928 24.0597 84.5336 22.1319 84.8764 20.0275L79.7274 19.1887C79.5728 20.1374 79.1036 21.0066 78.3952 21.6564C77.6868 22.3062 76.7804 22.6987 75.8219 22.771C74.8634 22.8432 73.9084 22.5909 73.1106 22.0547C72.3128 21.5184 71.7186 20.7294 71.4236 19.8146C71.1286 18.8997 71.1499 17.9122 71.4841 17.0109C71.8183 16.1096 72.446 15.3469 73.2661 14.8456C74.0863 14.3442 75.0512 14.1334 76.0058 14.2469C76.9603 14.3604 77.8489 14.7917 78.5286 15.4714L82.2175 11.7825Z" fill="#FD7D3D"/>
<path d="M73.2141 18.4539L82.0346 11.501L83.8912 14.5179L75.1848 21.1262L73.2141 18.4539Z" fill="#FD7D3D"/>
</svg>
