<svg width="200" height="54" viewBox="0 0 200 54" fill="none" xmlns="http://www.w3.org/2000/svg">
<path d="M41.0922 32C41.0922 32 38.4255 33.5 39.5922 34C40.7589 34.5 43.2922 35.6 44.0922 36C44.8922 36.4 47.0922 37.1667 48.0922 37.5C49.0922 37.8334 54.8495 41.0384 53.0922 38.5L48.5922 32C46.8348 29.4616 44.5922 29.5 44.5922 29.5C44.5922 29.5 42.9141 28.9732 42.0922 29.5C41.2069 30.0675 41.0922 32 41.0922 32Z" fill="#B53533" stroke="white" stroke-width="0.3"/>
<path d="M48.0913 27.5C46.1424 27.7295 43.0913 27 43.0913 27C43.0913 27 41.9201 25.8563 42.0913 25C42.3335 23.789 44.0494 24.663 45.0913 24C46.0232 23.407 47.0913 22 47.0913 22H53.0913C53.0913 22 57.0405 21.6513 56.5913 23C56.0918 24.5 52.5913 26 52.5913 26C52.5913 26 49.931 27.2834 48.0913 27.5Z" fill="#B53533" stroke="white" stroke-width="0.3"/>
<path d="M43.0917 22C41.0363 23.1418 39.0917 17.5 39.0917 17.5C39.0917 17.5 38.5665 16.6169 38.5917 16C38.6491 14.5931 40.3948 14.7415 41.5917 14C43.3006 12.9412 44.2345 12.2696 46.0917 11.5C48.1484 10.6477 49.3767 10.2247 51.5917 9.99996C52.9516 9.862 55.1567 8.63467 55.0917 9.99996C55.0582 10.7032 54.0917 11.5 54.0917 11.5C54.0917 11.5 47.5917 19.5 43.0917 22Z" fill="#B53533" stroke="white" stroke-width="0.3"/>
<path d="M32.0921 16C32.0921 16 29.1556 14.8099 29.5921 13.5C31.0918 9 30.5918 8 32.0921 4.5C32.8014 2.84538 35.0921 1 35.0921 1H36.5921C36.5921 1 37.1779 7.85212 36.5921 10L35.0921 15.5C35.0921 15.5 34.1779 17.3905 33.5921 17L32.0921 16Z" fill="#B53533" stroke="white" stroke-width="0.3"/>
<path d="M21.5921 12.5C23.2593 14.2907 27.0921 15.5 27.0921 15.5C27.0921 15.5 27.6314 13.9949 27.5921 13C27.5233 11.2549 25.5921 9 25.5921 9C25.5921 9 23.9383 6.12748 22.5921 4.5C21.3601 3.01052 19.0921 1 19.0921 1C19.0921 1 18.4651 5.04025 19.0921 7.5C19.6314 9.61545 20.1045 10.9022 21.5921 12.5Z" fill="#B53533" stroke="white" stroke-width="0.3"/>
<path d="M20.0921 29C19.6077 31.3008 18.4431 33 16.0918 33C11.0918 33 5.59213 32.5 5.59213 32.5L1.09214 30.5C1.09214 30.5 0.550871 29 2.09214 29C3.6334 29 20.0921 26.5 20.0921 26.5C20.0921 26.5 20.2933 28.0446 20.0921 29Z" fill="#B53533" stroke="white" stroke-width="0.3"/>
<path d="M11.5918 24C13.61 24.7351 17.0915 24 17.0915 24C17.0915 24 17.0919 23.0001 15.5919 22C14.0919 21 12.0915 19.5 12.0915 19.5C12.0915 19.5 9.42464 19.1666 8.0913 19.4999C6.75797 19.8333 8.59182 21.5 8.59182 21.5C8.59182 21.5 10.0135 23.4252 11.5918 24Z" fill="#B53533" stroke="white" stroke-width="0.3"/>
<path d="M14.0919 12C13.2711 11.2109 11.7602 11.0892 12.0917 10C12.2525 9.47167 12.0532 10.0656 12.5919 9.50006C13.3171 8.73861 14.0919 9.5 14.0919 9.5L20.0919 13.5C20.0919 13.5 23.3927 14.8056 24.5917 17C25.4549 18.5798 26.0919 19.5 25.0919 21C24.6075 21.7266 24.951 20.8438 24.0919 21C23.2768 21.1482 23.3461 22.1572 22.5919 22.5C21.7031 22.904 20.0919 22.5 20.0919 22.5C20.0919 22.5 18.3741 21.1378 17.5919 20C16.7494 18.7746 16.0919 16.5 16.0919 16.5C16.0919 16.5 15.4783 13.3328 14.0919 12Z" fill="#B53533" stroke="white" stroke-width="0.3"/>
<path d="M33.5918 35.4999C33.0918 35.8332 31.9918 36.4999 31.5918 36.4999V39.4999C31.5918 39.4999 32.4643 42.7246 33.5918 44.4999C34.9242 46.5978 36.2719 47.3074 38.0918 48.9999C39.6118 50.4134 42.0918 54.5755 42.0918 52.4999C42.0918 50.5 42.7194 49.054 42.0918 46.9999C41.4746 44.98 39.9009 44.4508 39.0918 42.4999C38.475 41.0125 38.0918 38.4999 38.0918 38.4999C38.0918 38.4999 38.0143 34.0463 36.0918 33.9999C34.9536 33.9724 33.5918 35.4999 33.5918 35.4999Z" fill="#B53533" stroke="white" stroke-width="0.3"/>
<path d="M26.0918 35.5C26.4839 33.4994 26.4825 31.2623 24.5918 30.5C23.6863 30.1349 23.04 30.2675 22.0918 30.5C19.6631 31.0952 18.0918 35.5 18.0918 35.5L15.0918 40L12.0918 46C12.0918 46 15.3303 45.1488 17.0918 44C18.9422 42.7932 19.4926 41.5241 21.0918 40C22.9934 38.1876 25.5866 38.0779 26.0918 35.5Z" fill="#B53533" stroke="white" stroke-width="0.3"/>
<path d="M25.5916 45.4999C25.5916 45.4999 26.0916 48.4999 27.0916 49.9999C27.9648 51.3098 28.6089 47.9983 29.0916 46.4999C29.8101 44.2697 29.0916 40.4999 29.0916 40.4999C29.0916 40.4999 29.232 38.9878 28.5916 38.4999C27.9703 38.0266 26.5916 38.4999 26.5916 38.4999C26.5916 38.4999 25.4843 39.2705 25.0916 39.9999C24.4436 41.2034 24.8815 42.1493 25.0916 43.4999C25.2153 44.2954 25.5916 45.4999 25.5916 45.4999Z" fill="#B53533" stroke="white" stroke-width="0.3"/>
<circle cx="31.5918" cy="26" r="2.35" fill="#B53533" stroke="white" stroke-width="0.3"/>
<path d="M31.9418 20.5C31.9418 21.5217 31.1135 22.35 30.0918 22.35C29.0701 22.35 28.2418 21.5217 28.2418 20.5C28.2418 19.4783 29.0701 18.65 30.0918 18.65C31.1135 18.65 31.9418 19.4783 31.9418 20.5ZM39.4418 22.5C39.4418 23.5217 38.6135 24.35 37.5918 24.35C36.5701 24.35 35.7418 23.5217 35.7418 22.5C35.7418 21.4783 36.5701 20.65 37.5918 20.65C38.6135 20.65 39.4418 21.4783 39.4418 22.5Z" fill="#B53533" stroke="white" stroke-width="0.3"/>
<circle cx="37.5918" cy="30" r="2.35" fill="#B53533" stroke="white" stroke-width="0.3"/>
<circle cx="30.5918" cy="32" r="2.35" fill="#B53533" stroke="white" stroke-width="0.3"/>
<circle cx="25.0918" cy="26.5" r="1.85" fill="#B53533" stroke="white" stroke-width="0.3"/>
<path d="M68.3869 34.176C67.5229 34.176 66.7602 34.0053 66.0989 33.664C65.4482 33.312 64.9415 32.8213 64.5789 32.192C64.2162 31.5627 64.0349 30.832 64.0349 30V26.8C64.0349 25.9893 64.2162 25.2747 64.5789 24.656C64.9415 24.0267 65.4482 23.5413 66.0989 23.2C66.7602 22.848 67.5229 22.672 68.3869 22.672C69.2509 22.672 70.0135 22.848 70.6749 23.2C71.3362 23.5413 71.8482 24.0267 72.2109 24.656C72.5735 25.2747 72.7549 25.9893 72.7549 26.8V30C72.7549 30.832 72.5735 31.5627 72.2109 32.192C71.8482 32.8213 71.3362 33.312 70.6749 33.664C70.0135 34.0053 69.2509 34.176 68.3869 34.176ZM68.3869 31.904C68.8989 31.904 69.3095 31.7387 69.6189 31.408C69.9389 31.0773 70.0989 30.6347 70.0989 30.08V26.768C70.0989 26.224 69.9389 25.7867 69.6189 25.456C69.3095 25.1147 68.8989 24.944 68.3869 24.944C67.8855 24.944 67.4749 25.1147 67.1549 25.456C66.8455 25.7867 66.6909 26.224 66.6909 26.768V30.08C66.6909 30.6347 66.8455 31.0773 67.1549 31.408C67.4749 31.7387 67.8855 31.904 68.3869 31.904ZM77.9869 34.128C77.1549 34.128 76.4242 33.9733 75.7949 33.664C75.1655 33.3547 74.6802 32.9173 74.3389 32.352C73.9975 31.776 73.8269 31.12 73.8269 30.384V29.44C73.8269 29.3867 73.8429 29.344 73.8749 29.312C73.9175 29.2693 73.9655 29.248 74.0189 29.248H76.2909C76.3442 29.248 76.3869 29.2693 76.4189 29.312C76.4615 29.344 76.4829 29.3867 76.4829 29.44V30.368C76.4829 30.816 76.6162 31.1787 76.8829 31.456C77.1495 31.7227 77.5175 31.856 77.9869 31.856C78.4349 31.856 78.8029 31.7227 79.0909 31.456C79.3789 31.1787 79.5229 30.816 79.5229 30.368V22.992C79.5229 22.9387 79.5389 22.896 79.5709 22.864C79.6135 22.8213 79.6615 22.8 79.7149 22.8H81.9709C82.0242 22.8 82.0669 22.8213 82.0989 22.864C82.1415 22.896 82.1629 22.9387 82.1629 22.992V30.384C82.1629 31.12 81.9869 31.7707 81.6349 32.336C81.2829 32.9013 80.7869 33.344 80.1469 33.664C79.5175 33.9733 78.7975 34.128 77.9869 34.128ZM90.8272 34C90.7099 34 90.6352 33.9467 90.6032 33.84L90.1872 32.416C90.1659 32.3733 90.1392 32.352 90.1072 32.352H86.4592C86.4272 32.352 86.4006 32.3733 86.3792 32.416L85.9632 33.84C85.9312 33.9467 85.8566 34 85.7392 34H83.2912C83.2272 34 83.1792 33.984 83.1472 33.952C83.1152 33.9093 83.1099 33.8507 83.1312 33.776L86.5552 22.96C86.5872 22.8533 86.6566 22.8 86.7632 22.8H89.7872C89.8939 22.8 89.9632 22.8533 89.9952 22.96L93.4352 33.776C93.4459 33.7973 93.4512 33.824 93.4512 33.856C93.4512 33.952 93.3926 34 93.2752 34H90.8272ZM87.0192 30.208C87.0086 30.272 87.0299 30.304 87.0832 30.304H89.4672C89.5312 30.304 89.5526 30.272 89.5312 30.208L88.3152 26.096C88.3046 26.0533 88.2886 26.0373 88.2672 26.048C88.2459 26.048 88.2299 26.064 88.2192 26.096L87.0192 30.208ZM98.0986 34.128C97.2133 34.128 96.44 33.9893 95.7786 33.712C95.128 33.424 94.6213 33.0187 94.2586 32.496C93.9066 31.9627 93.7306 31.3493 93.7306 30.656V30.352C93.7306 30.2987 93.7466 30.256 93.7786 30.224C93.8213 30.1813 93.8693 30.16 93.9226 30.16H96.1466C96.2 30.16 96.2426 30.1813 96.2746 30.224C96.3173 30.256 96.3386 30.2987 96.3386 30.352V30.544C96.3386 30.896 96.5146 31.2053 96.8666 31.472C97.2186 31.728 97.6933 31.856 98.2906 31.856C98.76 31.856 99.1066 31.7547 99.3306 31.552C99.5546 31.3493 99.6666 31.1147 99.6666 30.848C99.6666 30.6347 99.5973 30.464 99.4586 30.336C99.3306 30.1973 99.1546 30.0853 98.9306 30C98.7066 29.904 98.36 29.776 97.8906 29.616C97.8266 29.584 97.7626 29.5627 97.6986 29.552C97.6346 29.5307 97.576 29.5093 97.5226 29.488C96.8293 29.264 96.2266 29.024 95.7146 28.768C95.2026 28.5013 94.7653 28.1387 94.4026 27.68C94.04 27.2107 93.8586 26.6347 93.8586 25.952C93.8586 25.2907 94.0293 24.7147 94.3706 24.224C94.7226 23.7227 95.208 23.3387 95.8266 23.072C96.4453 22.8053 97.144 22.672 97.9226 22.672C98.744 22.672 99.48 22.8213 100.131 23.12C100.792 23.4187 101.309 23.84 101.683 24.384C102.056 24.928 102.243 25.552 102.243 26.256V26.48C102.243 26.5333 102.221 26.5813 102.179 26.624C102.147 26.656 102.104 26.672 102.051 26.672H99.8266C99.7733 26.672 99.7253 26.656 99.6826 26.624C99.6506 26.5813 99.6346 26.5333 99.6346 26.48V26.368C99.6346 25.9947 99.4693 25.664 99.1386 25.376C98.808 25.088 98.3653 24.944 97.8106 24.944C97.3946 24.944 97.0693 25.0293 96.8346 25.2C96.6 25.3707 96.4826 25.6107 96.4826 25.92C96.4826 26.1547 96.5573 26.352 96.7066 26.512C96.856 26.6613 97.0853 26.8053 97.3946 26.944C97.7146 27.072 98.2 27.2427 98.8506 27.456C99.5973 27.712 100.179 27.936 100.595 28.128C101.011 28.32 101.4 28.6347 101.763 29.072C102.136 29.4987 102.323 30.064 102.323 30.768C102.323 31.4613 102.147 32.0587 101.795 32.56C101.443 33.0613 100.947 33.4507 100.307 33.728C99.6773 33.9947 98.9413 34.128 98.0986 34.128ZM111.248 34.128C110.395 34.128 109.643 33.9627 108.992 33.632C108.352 33.3013 107.851 32.832 107.488 32.224C107.136 31.616 106.96 30.912 106.96 30.112V26.656C106.96 25.8667 107.136 25.1733 107.488 24.576C107.851 23.968 108.352 23.4987 108.992 23.168C109.643 22.8373 110.395 22.672 111.248 22.672C112.101 22.672 112.848 22.832 113.488 23.152C114.139 23.4613 114.64 23.904 114.992 24.48C115.355 25.0453 115.536 25.7013 115.536 26.448C115.536 26.5013 115.515 26.544 115.472 26.576C115.44 26.608 115.397 26.624 115.344 26.624L113.072 26.768C112.944 26.768 112.88 26.7093 112.88 26.592C112.88 26.0907 112.731 25.6907 112.432 25.392C112.133 25.0933 111.739 24.944 111.248 24.944C110.757 24.944 110.363 25.0987 110.064 25.408C109.765 25.7067 109.616 26.1013 109.616 26.592V30.224C109.616 30.7147 109.765 31.1093 110.064 31.408C110.363 31.7067 110.757 31.856 111.248 31.856C111.739 31.856 112.133 31.7067 112.432 31.408C112.731 31.1093 112.88 30.7147 112.88 30.224C112.88 30.1067 112.944 30.048 113.072 30.048L115.344 30.16C115.397 30.16 115.44 30.176 115.472 30.208C115.515 30.24 115.536 30.2773 115.536 30.32C115.536 31.0773 115.355 31.744 114.992 32.32C114.64 32.896 114.139 33.344 113.488 33.664C112.848 33.9733 112.101 34.128 111.248 34.128ZM121.222 34.176C120.358 34.176 119.595 34.0053 118.934 33.664C118.283 33.312 117.777 32.8213 117.414 32.192C117.051 31.5627 116.87 30.832 116.87 30V26.8C116.87 25.9893 117.051 25.2747 117.414 24.656C117.777 24.0267 118.283 23.5413 118.934 23.2C119.595 22.848 120.358 22.672 121.222 22.672C122.086 22.672 122.849 22.848 123.51 23.2C124.171 23.5413 124.683 24.0267 125.046 24.656C125.409 25.2747 125.59 25.9893 125.59 26.8V30C125.59 30.832 125.409 31.5627 125.046 32.192C124.683 32.8213 124.171 33.312 123.51 33.664C122.849 34.0053 122.086 34.176 121.222 34.176ZM121.222 31.904C121.734 31.904 122.145 31.7387 122.454 31.408C122.774 31.0773 122.934 30.6347 122.934 30.08V26.768C122.934 26.224 122.774 25.7867 122.454 25.456C122.145 25.1147 121.734 24.944 121.222 24.944C120.721 24.944 120.31 25.1147 119.99 25.456C119.681 25.7867 119.526 26.224 119.526 26.768V30.08C119.526 30.6347 119.681 31.0773 119.99 31.408C120.31 31.7387 120.721 31.904 121.222 31.904ZM133.495 22.992C133.495 22.9387 133.511 22.896 133.543 22.864C133.586 22.8213 133.634 22.8 133.687 22.8H135.959C136.013 22.8 136.055 22.8213 136.087 22.864C136.13 22.896 136.151 22.9387 136.151 22.992V33.808C136.151 33.8613 136.13 33.9093 136.087 33.952C136.055 33.984 136.013 34 135.959 34H133.783C133.677 34 133.602 33.9573 133.559 33.872L129.879 27.76C129.858 27.728 129.837 27.7173 129.815 27.728C129.794 27.728 129.783 27.7493 129.783 27.792L129.799 33.808C129.799 33.8613 129.778 33.9093 129.735 33.952C129.703 33.984 129.661 34 129.607 34H127.335C127.282 34 127.234 33.984 127.191 33.952C127.159 33.9093 127.143 33.8613 127.143 33.808V22.992C127.143 22.9387 127.159 22.896 127.191 22.864C127.234 22.8213 127.282 22.8 127.335 22.8H129.527C129.634 22.8 129.709 22.8427 129.751 22.928L133.415 29.024C133.437 29.056 133.458 29.072 133.479 29.072C133.501 29.0613 133.511 29.0347 133.511 28.992L133.495 22.992ZM141.961 34.128C141.076 34.128 140.302 33.9893 139.641 33.712C138.99 33.424 138.484 33.0187 138.121 32.496C137.769 31.9627 137.593 31.3493 137.593 30.656V30.352C137.593 30.2987 137.609 30.256 137.641 30.224C137.684 30.1813 137.732 30.16 137.785 30.16H140.009C140.062 30.16 140.105 30.1813 140.137 30.224C140.18 30.256 140.201 30.2987 140.201 30.352V30.544C140.201 30.896 140.377 31.2053 140.729 31.472C141.081 31.728 141.556 31.856 142.153 31.856C142.622 31.856 142.969 31.7547 143.193 31.552C143.417 31.3493 143.529 31.1147 143.529 30.848C143.529 30.6347 143.46 30.464 143.321 30.336C143.193 30.1973 143.017 30.0853 142.793 30C142.569 29.904 142.222 29.776 141.753 29.616C141.689 29.584 141.625 29.5627 141.561 29.552C141.497 29.5307 141.438 29.5093 141.385 29.488C140.692 29.264 140.089 29.024 139.577 28.768C139.065 28.5013 138.628 28.1387 138.265 27.68C137.902 27.2107 137.721 26.6347 137.721 25.952C137.721 25.2907 137.892 24.7147 138.233 24.224C138.585 23.7227 139.07 23.3387 139.689 23.072C140.308 22.8053 141.006 22.672 141.785 22.672C142.606 22.672 143.342 22.8213 143.993 23.12C144.654 23.4187 145.172 23.84 145.545 24.384C145.918 24.928 146.105 25.552 146.105 26.256V26.48C146.105 26.5333 146.084 26.5813 146.041 26.624C146.009 26.656 145.966 26.672 145.913 26.672H143.689C143.636 26.672 143.588 26.656 143.545 26.624C143.513 26.5813 143.497 26.5333 143.497 26.48V26.368C143.497 25.9947 143.332 25.664 143.001 25.376C142.67 25.088 142.228 24.944 141.673 24.944C141.257 24.944 140.932 25.0293 140.697 25.2C140.462 25.3707 140.345 25.6107 140.345 25.92C140.345 26.1547 140.42 26.352 140.569 26.512C140.718 26.6613 140.948 26.8053 141.257 26.944C141.577 27.072 142.062 27.2427 142.713 27.456C143.46 27.712 144.041 27.936 144.457 28.128C144.873 28.32 145.262 28.6347 145.625 29.072C145.998 29.4987 146.185 30.064 146.185 30.768C146.185 31.4613 146.009 32.0587 145.657 32.56C145.305 33.0613 144.809 33.4507 144.169 33.728C143.54 33.9947 142.804 34.128 141.961 34.128ZM151.843 34.128C151.001 34.128 150.254 33.968 149.603 33.648C148.963 33.3173 148.462 32.8533 148.099 32.256C147.747 31.6587 147.571 30.9707 147.571 30.192V22.992C147.571 22.9387 147.587 22.896 147.619 22.864C147.662 22.8213 147.71 22.8 147.763 22.8H150.035C150.089 22.8 150.131 22.8213 150.163 22.864C150.206 22.896 150.227 22.9387 150.227 22.992V30.192C150.227 30.6933 150.371 31.0987 150.659 31.408C150.958 31.7067 151.353 31.856 151.843 31.856C152.323 31.856 152.707 31.7067 152.995 31.408C153.294 31.0987 153.443 30.6933 153.443 30.192V22.992C153.443 22.9387 153.459 22.896 153.491 22.864C153.534 22.8213 153.582 22.8 153.635 22.8H155.907C155.961 22.8 156.003 22.8213 156.035 22.864C156.078 22.896 156.099 22.9387 156.099 22.992V30.192C156.099 30.9707 155.923 31.6587 155.571 32.256C155.219 32.8533 154.718 33.3173 154.067 33.648C153.427 33.968 152.686 34.128 151.843 34.128ZM157.956 34C157.903 34 157.855 33.984 157.812 33.952C157.78 33.9093 157.764 33.8613 157.764 33.808V22.992C157.764 22.9387 157.78 22.896 157.812 22.864C157.855 22.8213 157.903 22.8 157.956 22.8H160.228C160.281 22.8 160.324 22.8213 160.356 22.864C160.399 22.896 160.42 22.9387 160.42 22.992V31.648C160.42 31.7013 160.447 31.728 160.5 31.728H165.604C165.657 31.728 165.7 31.7493 165.732 31.792C165.775 31.824 165.796 31.8667 165.796 31.92V33.808C165.796 33.8613 165.775 33.9093 165.732 33.952C165.7 33.984 165.657 34 165.604 34H157.956ZM173.911 22.8C173.964 22.8 174.007 22.8213 174.039 22.864C174.081 22.896 174.103 22.9387 174.103 22.992V24.896C174.103 24.9493 174.081 24.9973 174.039 25.04C174.007 25.072 173.964 25.088 173.911 25.088H171.111C171.057 25.088 171.031 25.1147 171.031 25.168V33.808C171.031 33.8613 171.009 33.9093 170.967 33.952C170.935 33.984 170.892 34 170.839 34H168.567C168.513 34 168.465 33.984 168.423 33.952C168.391 33.9093 168.375 33.8613 168.375 33.808V25.168C168.375 25.1147 168.348 25.088 168.295 25.088H165.591C165.537 25.088 165.489 25.072 165.447 25.04C165.415 24.9973 165.399 24.9493 165.399 24.896V22.992C165.399 22.9387 165.415 22.896 165.447 22.864C165.489 22.8213 165.537 22.8 165.591 22.8H173.911ZM175.604 34C175.551 34 175.503 33.984 175.46 33.952C175.428 33.9093 175.412 33.8613 175.412 33.808V22.992C175.412 22.9387 175.428 22.896 175.46 22.864C175.503 22.8213 175.551 22.8 175.604 22.8H177.876C177.929 22.8 177.972 22.8213 178.004 22.864C178.047 22.896 178.068 22.9387 178.068 22.992V33.808C178.068 33.8613 178.047 33.9093 178.004 33.952C177.972 33.984 177.929 34 177.876 34H175.604ZM186.158 22.992C186.158 22.9387 186.174 22.896 186.206 22.864C186.249 22.8213 186.297 22.8 186.35 22.8H188.622C188.676 22.8 188.718 22.8213 188.75 22.864C188.793 22.896 188.814 22.9387 188.814 22.992V33.808C188.814 33.8613 188.793 33.9093 188.75 33.952C188.718 33.984 188.676 34 188.622 34H186.446C186.34 34 186.265 33.9573 186.222 33.872L182.542 27.76C182.521 27.728 182.5 27.7173 182.478 27.728C182.457 27.728 182.446 27.7493 182.446 27.792L182.462 33.808C182.462 33.8613 182.441 33.9093 182.398 33.952C182.366 33.984 182.324 34 182.27 34H179.998C179.945 34 179.897 33.984 179.854 33.952C179.822 33.9093 179.806 33.8613 179.806 33.808V22.992C179.806 22.9387 179.822 22.896 179.854 22.864C179.897 22.8213 179.945 22.8 179.998 22.8H182.19C182.297 22.8 182.372 22.8427 182.414 22.928L186.078 29.024C186.1 29.056 186.121 29.072 186.142 29.072C186.164 29.0613 186.174 29.0347 186.174 28.992L186.158 22.992ZM194.672 34.128C193.819 34.128 193.067 33.9573 192.416 33.616C191.776 33.2747 191.275 32.7947 190.912 32.176C190.56 31.5573 190.384 30.8427 190.384 30.032V26.752C190.384 25.9413 190.56 25.232 190.912 24.624C191.275 24.0053 191.776 23.5253 192.416 23.184C193.067 22.8427 193.819 22.672 194.672 22.672C195.515 22.672 196.262 22.8373 196.912 23.168C197.563 23.488 198.064 23.9307 198.416 24.496C198.779 25.0613 198.96 25.6853 198.96 26.368V26.448C198.96 26.5013 198.939 26.5493 198.896 26.592C198.864 26.624 198.822 26.64 198.768 26.64H196.496C196.443 26.64 196.395 26.624 196.352 26.592C196.32 26.5493 196.304 26.5013 196.304 26.448C196.304 26.032 196.155 25.68 195.856 25.392C195.568 25.0933 195.174 24.944 194.672 24.944C194.182 24.944 193.787 25.104 193.488 25.424C193.19 25.744 193.04 26.16 193.04 26.672V30.112C193.04 30.624 193.206 31.04 193.536 31.36C193.867 31.68 194.283 31.84 194.784 31.84C195.254 31.84 195.632 31.7173 195.92 31.472C196.208 31.216 196.352 30.864 196.352 30.416V29.968C196.352 29.9147 196.326 29.888 196.272 29.888H194.672C194.619 29.888 194.571 29.872 194.528 29.84C194.496 29.7973 194.48 29.7493 194.48 29.696V27.936C194.48 27.8827 194.496 27.84 194.528 27.808C194.571 27.7653 194.619 27.744 194.672 27.744H198.768C198.822 27.744 198.864 27.7653 198.896 27.808C198.939 27.84 198.96 27.8827 198.96 27.936V30.112C198.96 30.912 198.779 31.616 198.416 32.224C198.064 32.832 197.563 33.3013 196.912 33.632C196.272 33.9627 195.526 34.128 194.672 34.128Z" fill="white"/>
</svg>
