<svg width="1957" height="962" viewBox="0 0 1957 962" fill="none" xmlns="http://www.w3.org/2000/svg">
<g opacity="0.3">
<path d="M16.2772 247.333C16.2772 247.333 294.379 154.622 418.375 336.744C497.077 452.339 430.652 890.006 539.1 949.858C647.548 1009.71 686.125 718.047 824.475 658.6C923.024 616.254 949.512 751.083 1022.94 714.577C1096.37 678.071 962.377 40.152 1106.22 6.78956C1250.07 -26.5729 1298.99 621.062 1451.38 642.967C1603.78 664.871 1635.66 288.941 1725.68 285.069C1815.69 281.196 1812.41 772.353 1936.98 794.442" stroke="#410078" stroke-width="2.45562" stroke-miterlimit="10"/>
<path d="M16.8164 255.605C16.8164 255.605 291.472 160.921 416.761 338.924C496.641 452.411 433.454 884.433 541.656 943.182C648.863 1001.39 686.966 715.291 823.021 656.341C919.823 614.532 946.086 746.649 1018.12 710.285C1090.85 673.563 959.963 46.6735 1102.12 13.8895C1193.22 -6.88525 1249.43 239.084 1314 426.665C1352.08 535.959 1394.6 627.204 1450.93 636.224C1463.46 638.231 1475.2 637.387 1486.21 634.374C1607.37 601.275 1640.35 294.564 1723.16 291.679C1728.46 291.494 1733.44 292.986 1738.15 295.988C1813.86 343.946 1818.31 766.577 1937.09 786.22" stroke="#440078" stroke-width="2.45562" stroke-miterlimit="10"/>
<path d="M17.3479 263.875C17.3479 263.875 288.584 167.222 415.143 341.101C496.219 452.491 436.241 878.858 544.208 936.506C650.163 993.079 687.8 712.536 821.56 654.085C916.612 612.813 942.653 742.208 1013.29 705.994C1085.34 669.05 957.468 52.8495 1098.02 20.9848C1189.44 0.259486 1248.22 242.766 1313.08 424.769C1350.79 530.581 1394.07 619.517 1450.47 629.478C1462.84 631.662 1474.46 630.912 1485.35 628.135C1605.24 597.71 1637.53 300.494 1720.64 298.283C1725.91 298.142 1730.86 299.634 1735.57 302.584C1811.82 350.414 1816.83 759.486 1937.19 777.991" stroke="#460079" stroke-width="2.45562" stroke-miterlimit="10"/>
<path d="M17.895 272.145C17.895 272.145 285.739 173.53 413.54 343.277C495.828 452.577 439.036 873.28 546.777 929.827C651.472 984.773 688.655 709.775 820.119 651.825C913.424 611.091 939.238 737.757 1008.48 701.699C1079.84 664.534 955.026 59.2113 1093.93 28.0845C1185.7 7.51889 1247.38 246.34 1312.18 422.874C1349.73 525.139 1393.54 611.82 1450.03 622.732C1462.24 625.09 1473.74 624.438 1484.51 621.899C1603.12 594.144 1634.73 306.423 1718.14 304.888C1723.38 304.792 1728.31 306.277 1733 309.183C1809.88 356.768 1815.37 752.399 1937.31 769.764" stroke="#490079" stroke-width="2.45562" stroke-miterlimit="10"/>
<path d="M18.4264 280.419C18.4264 280.419 282.913 179.845 411.919 345.459C495.435 452.675 441.803 867.709 549.325 923.152C652.75 976.483 689.351 706.713 818.657 649.568C910.115 609.15 935.803 733.3 1003.65 697.406C1074.33 660.012 952.571 65.5799 1089.82 35.1837C1181.94 14.7827 1246.52 249.923 1311.27 420.981C1348.64 519.704 1392.98 604.114 1449.56 615.989C1461.61 618.517 1473 617.967 1483.64 615.667C1600.98 590.584 1631.92 313.624 1715.62 311.498C1720.82 311.365 1725.73 312.924 1730.41 315.788C1807.91 363.128 1813.88 745.319 1937.4 761.544" stroke="#4C0079" stroke-width="2.45562" stroke-miterlimit="10"/>
<path d="M18.9579 288.693C18.9579 288.693 280.116 186.162 410.3 347.64C495.065 452.782 444.566 862.138 551.877 916.477C654.021 968.201 690.153 703.88 817.198 647.313C906.884 607.379 932.367 728.836 998.823 693.116C1068.82 655.491 950.12 71.9585 1085.71 42.2829C1178.18 22.0466 1245.65 253.516 1310.35 419.089C1347.55 514.276 1392.42 596.397 1449.11 609.246C1460.99 611.939 1472.26 611.496 1482.79 609.432C1598.85 587.02 1629.1 319.838 1713.1 318.105C1718.28 317.997 1723.16 319.566 1727.84 322.388C1805.96 369.479 1812.4 738.231 1937.51 753.316" stroke="#4F0079" stroke-width="2.45562" stroke-miterlimit="10"/>
<path d="M19.5128 296.967C19.5128 296.967 277.375 192.478 408.703 349.821C494.736 452.895 447.339 856.569 554.449 909.802C655.303 959.929 690.972 701.053 815.758 645.056C903.671 605.607 928.947 724.362 994.014 688.823C1063.34 650.959 947.689 78.3417 1081.63 49.3819C1174.45 29.3128 1244.79 257.124 1309.45 417.196C1346.48 508.856 1391.86 588.668 1448.66 602.503C1460.38 605.357 1471.54 605.025 1481.95 603.197C1596.74 583.456 1626.27 324.191 1710.6 324.713C1715.74 324.745 1720.6 326.21 1725.27 328.988C1804.02 375.824 1810.94 731.146 1937.62 745.091" stroke="#51007A" stroke-width="2.45562" stroke-miterlimit="10"/>
<path d="M20.0364 305.233C20.0364 305.233 274.637 198.787 407.077 351.994C494.395 453.004 450.074 850.993 556.995 903.122C656.549 951.662 691.768 698.218 814.294 642.796C900.432 603.833 925.503 719.876 989.182 684.53C1057.83 646.425 945.239 84.7348 1077.51 56.481C1170.69 36.579 1243.9 260.741 1308.53 415.301C1345.39 503.44 1391.26 580.923 1448.2 595.757C1459.75 598.767 1470.8 598.551 1481.09 596.963C1594.6 579.894 1623.43 330.103 1708.07 331.322C1713.19 331.396 1718.02 332.855 1722.69 335.591C1802.07 382.172 1809.46 724.063 1937.72 736.868" stroke="#54017A" stroke-width="2.45562" stroke-miterlimit="10"/>
<path d="M20.5834 313.5C20.5834 313.5 271.956 205.097 405.471 354.171C494.097 453.122 452.82 845.42 559.559 896.443C657.804 943.405 692.58 695.386 812.848 640.536C897.214 602.059 922.073 715.38 984.368 680.235C1052.35 641.882 942.809 91.1308 1073.42 63.5757C1166.95 43.8456 1243.03 264.372 1307.63 413.404C1344.31 498.033 1390.68 573.165 1447.75 589.009C1459.13 592.17 1470.07 592.051 1480.24 590.723C1592.45 576.073 1620.61 336.003 1705.57 337.925C1710.66 338.041 1715.47 339.495 1720.12 342.187C1800.14 388.511 1807.99 716.971 1937.83 728.638" stroke="#57017A" stroke-width="2.45562" stroke-miterlimit="10"/>
<path d="M21.1149 321.774C21.1149 321.774 269.295 211.407 403.853 356.351C493.805 453.248 455.543 839.856 562.11 889.767C659.033 935.164 693.379 692.558 811.389 638.278C893.983 600.289 918.63 710.876 979.541 675.941C1046.85 637.335 940.367 97.5378 1069.32 70.674C1163.19 51.1184 1242.14 268.021 1306.71 411.51C1343.22 492.639 1390.08 565.395 1447.29 582.266C1458.5 585.572 1469.33 585.576 1479.38 584.488C1590.31 572.481 1617.77 341.902 1703.05 344.531C1708.11 344.687 1712.89 346.136 1717.54 348.786C1798.2 394.848 1806.51 709.885 1937.93 720.412" stroke="#5A017B" stroke-width="2.45562" stroke-miterlimit="10"/>
<path d="M21.6541 330.056C21.6541 330.056 266.677 217.721 402.239 358.541C493.541 453.383 458.264 834.303 564.667 883.101C660.258 926.942 694.184 689.741 809.933 636.032C890.752 598.531 915.187 706.374 974.717 671.66C1041.36 632.794 937.929 103.962 1065.21 77.7841C1159.45 58.4029 1241.25 271.698 1305.8 409.626C1342.14 487.264 1389.47 557.62 1446.83 575.531C1457.88 578.981 1468.59 579.111 1478.53 578.262C1588.19 568.895 1614.94 347.805 1700.53 351.147C1705.56 351.345 1710.33 352.786 1714.96 355.395C1796.26 401.193 1805.03 702.809 1938.04 712.195" stroke="#5C017B" stroke-width="2.45562" stroke-miterlimit="10"/>
<path d="M22.1777 338.326C22.1777 338.326 264.081 224.013 400.613 360.718C493.286 453.508 460.96 828.738 567.213 876.425C661.463 918.723 694.977 686.915 808.468 633.775C887.516 596.763 911.733 701.852 969.885 667.368C1035.87 628.239 935.487 110.385 1061.1 84.8819C1155.69 65.6801 1240.34 275.386 1304.88 407.732C1341.05 481.893 1388.86 549.823 1446.37 568.786C1457.25 572.373 1467.85 572.636 1477.66 572.028C1586.06 565.305 1612.1 353.694 1698.01 357.756C1703 357.992 1707.74 359.429 1712.37 361.997C1794.32 407.525 1803.54 695.722 1938.13 703.971" stroke="#5F017B" stroke-width="2.45562" stroke-miterlimit="10"/>
<path d="M22.7248 346.589C22.7248 346.589 261.548 230.29 399.008 362.887C493.072 453.625 463.667 823.173 569.777 869.738C662.674 910.508 695.789 684.081 807.023 631.506C884.298 594.985 908.295 697.307 965.071 663.066C1030.39 623.667 933.065 116.806 1057.01 91.9719C1151.96 72.9494 1239.44 279.088 1303.98 405.83C1339.98 476.528 1388.25 542.001 1445.92 562.034C1456.63 565.754 1467.13 566.153 1476.82 565.784C1583.95 561.707 1609.27 359.567 1695.5 364.354C1700.47 364.63 1705.19 366.062 1709.8 368.59C1792.4 413.846 1802.08 688.63 1938.25 695.739" stroke="#62017C" stroke-width="2.45562" stroke-miterlimit="10"/>
<path d="M23.2484 354.858C23.2484 354.858 259.026 236.564 397.381 365.064C492.864 453.746 466.343 817.615 572.32 863.059C663.856 902.311 696.58 681.252 805.556 629.247C881.056 593.216 904.832 692.763 960.236 658.771C1024.9 619.097 930.622 123.239 1052.9 99.0691C1148.2 80.2309 1238.53 282.822 1303.06 403.936C1338.89 471.187 1387.62 534.172 1445.45 555.289C1456 559.14 1466.38 559.678 1475.96 559.548C1581.81 558.116 1606.42 365.44 1692.97 370.962C1697.91 371.277 1702.61 372.705 1707.21 375.191C1790.46 420.17 1800.59 681.546 1938.34 687.515" stroke="#64017C" stroke-width="2.45562" stroke-miterlimit="10"/>
<path d="M23.7954 363.134C23.7954 363.134 256.566 242.826 395.776 367.247C492.696 453.869 469.03 812.071 574.885 856.386C665.045 894.134 697.392 678.434 804.108 626.994C877.836 591.456 901.384 688.215 955.42 654.483C1019.43 614.525 928.2 129.688 1048.8 106.17C1144.47 87.5162 1237.63 286.589 1302.15 402.043C1337.82 465.864 1387 526.327 1445 548.548C1455.38 552.523 1465.65 553.206 1475.11 553.315C1579.7 554.532 1603.59 371.312 1690.47 377.571C1695.37 377.924 1700.05 379.346 1704.64 381.794C1788.55 426.493 1799.12 674.46 1938.45 679.292" stroke="#67017C" stroke-width="2.45562" stroke-miterlimit="10"/>
<path d="M24.3425 371.409C24.3425 371.409 254.14 249.076 394.173 369.429C492.555 453.986 471.708 806.529 577.451 849.713C666.23 885.969 698.205 675.615 802.664 624.738C874.62 589.693 897.939 683.654 950.609 650.191C1013.96 609.943 925.786 136.138 1044.71 113.27C1140.73 94.808 1236.73 290.387 1301.25 400.151C1336.76 460.562 1386.39 518.468 1444.56 541.805C1454.77 545.902 1464.93 546.733 1474.27 547.084C1577.6 550.949 1600.76 377.179 1687.96 384.181C1692.84 384.574 1697.49 385.992 1702.07 388.397C1786.64 432.812 1797.65 667.379 1938.57 671.067" stroke="#6A017C" stroke-width="2.45562" stroke-miterlimit="10"/>
<path d="M24.8661 379.679C24.8661 379.679 251.731 255.3 392.544 371.606C492.413 454.093 474.349 800.989 579.992 843.036C667.376 877.814 698.991 672.796 801.195 622.481C871.376 587.932 894.462 679.08 945.771 645.899C1008.47 605.356 923.348 142.596 1040.6 120.37C1136.98 102.1 1235.81 294.22 1300.32 398.259C1335.69 455.285 1385.75 510.595 1444.08 535.063C1454.13 539.277 1464.18 540.263 1473.4 540.85C1575.47 547.366 1597.91 383.035 1685.43 390.79C1690.27 391.219 1694.91 392.632 1699.48 394.999C1784.71 439.127 1796.16 660.292 1938.66 662.843" stroke="#6D017D" stroke-width="2.45562" stroke-miterlimit="10"/>
<path d="M25.4131 387.955C25.4131 387.955 249.381 261.513 390.941 373.789C492.319 454.196 477.007 795.462 582.562 836.363C668.54 869.679 699.808 669.98 799.754 620.228C868.163 586.174 891.012 674.498 940.962 641.613C1003.01 600.765 920.939 149.067 1036.51 127.474C1133.25 109.397 1234.92 298.092 1299.43 396.369C1334.65 450.031 1385.15 502.703 1443.65 528.322C1453.53 532.649 1463.46 533.791 1472.56 534.617C1573.37 543.786 1595.08 388.888 1682.93 397.399C1687.74 397.865 1692.36 399.276 1696.92 401.601C1782.81 445.435 1794.7 653.209 1938.78 654.62" stroke="#6F017D" stroke-width="2.45562" stroke-miterlimit="10"/>
<path d="M25.9367 396.225C25.9367 396.225 247.042 267.697 389.312 375.966C492.223 454.283 479.627 789.934 585.103 829.684C669.664 861.554 700.594 667.161 798.282 617.967C864.92 584.411 887.526 669.897 936.123 637.316C997.516 596.156 918.501 155.537 1032.39 134.569C1129.5 116.691 1234.01 302.003 1298.5 394.472C1333.6 444.798 1384.51 494.791 1443.17 521.575C1452.89 526.011 1462.71 527.314 1471.69 528.379C1571.23 540.201 1592.22 394.727 1680.4 404.005C1685.18 404.508 1689.78 405.914 1694.32 408.2C1780.89 451.737 1793.21 646.122 1938.87 646.393" stroke="#72017D" stroke-width="2.45562" stroke-miterlimit="10"/>
<path d="M26.4837 404.492C26.4837 404.492 244.763 273.854 387.71 378.14C492.173 454.354 482.261 784.414 587.669 823.003C670.805 853.44 701.406 664.341 796.839 615.705C861.704 582.647 884.065 665.284 931.311 633.019C992.051 591.538 916.094 162.009 1028.3 141.664C1125.77 123.987 1233.15 305.957 1297.6 392.575C1332.59 439.596 1383.91 486.858 1442.73 514.827C1452.28 519.37 1461.99 520.838 1470.85 522.142C1569.14 536.622 1589.39 400.561 1677.9 410.61C1682.65 411.148 1687.22 412.552 1691.76 414.798C1778.99 458.034 1791.74 639.033 1938.98 638.166" stroke="#75017E" stroke-width="2.45562" stroke-miterlimit="10"/>
<path d="M27.0073 412.769C27.0073 412.769 242.493 279.993 386.083 380.324C492.123 454.42 484.861 778.909 590.213 816.332C671.912 845.353 702.195 661.533 795.372 613.452C858.465 580.897 880.574 660.67 926.476 628.73C986.566 586.921 913.664 168.5 1024.19 148.765C1122.03 131.297 1232.29 309.967 1296.68 390.682C1331.57 434.433 1383.28 478.912 1442.26 508.084C1451.65 512.729 1461.25 514.364 1469.98 515.907C1567.01 533.045 1586.53 406.389 1675.37 417.217C1680.08 417.792 1684.64 419.191 1689.17 421.4C1777.08 464.33 1790.25 631.95 1939.08 629.942" stroke="#78027E" stroke-width="2.45562" stroke-miterlimit="10"/>
<path d="M27.5465 421.046C27.5465 421.046 240.272 286.108 384.47 382.508C492.112 454.47 487.464 773.419 592.772 809.661C673.025 837.281 702.997 658.726 793.918 611.201C855.239 579.149 877.093 656.045 921.655 624.444C981.094 582.294 911.25 174.997 1020.09 155.87C1118.29 138.611 1231.49 314.035 1295.76 388.795C1330.6 429.315 1382.68 470.955 1441.8 501.346C1451.03 506.091 1460.52 507.899 1469.13 509.678C1564.9 529.479 1583.7 412.216 1672.86 423.83C1677.54 424.44 1682.08 425.836 1686.59 428.007C1775.18 470.627 1788.78 624.87 1939.18 621.723" stroke="#7A027E" stroke-width="2.45562" stroke-miterlimit="10"/>
<path d="M28.0935 429.31C28.0935 429.31 238.089 292.18 382.864 384.682C492.125 454.491 490.064 767.927 595.336 802.979C674.134 829.216 703.806 655.911 792.472 608.938C852.021 577.389 873.613 651.397 916.841 620.148C975.627 577.652 908.845 181.495 1016 162.966C1114.57 145.921 1230.74 318.145 1294.86 386.9C1329.68 424.225 1382.08 462.973 1441.36 494.6C1450.43 499.439 1459.8 501.422 1468.29 503.443C1562.8 525.907 1580.87 418.032 1670.35 430.437C1675.01 431.081 1679.53 432.475 1684.03 434.606C1773.29 476.91 1787.32 617.783 1939.3 613.498" stroke="#7D027E" stroke-width="2.45562" stroke-miterlimit="10"/>
<path d="M28.6171 437.579C28.6171 437.579 235.911 298.225 381.238 386.858C492.14 454.493 492.63 762.45 597.879 796.299C675.209 821.171 704.595 653.103 791.006 606.676C848.782 575.634 870.107 646.736 912.006 615.85C970.136 572.997 906.418 187.994 1011.88 170.058C1110.82 153.231 1230.03 322.304 1293.94 384.997C1328.78 419.169 1381.48 454.966 1440.89 487.847C1449.8 492.78 1459.05 494.941 1467.42 497.199C1560.68 522.33 1578.01 423.829 1667.82 437.034C1672.44 437.713 1676.95 439.103 1681.43 441.197C1771.38 483.18 1785.82 610.687 1939.39 605.262" stroke="#80027F" stroke-width="2.45562" stroke-miterlimit="10"/>
<path d="M29.1797 445.847C29.1797 445.847 233.799 304.24 379.648 389.033C492.21 454.474 495.223 756.986 600.459 789.621C676.314 813.142 705.418 650.297 789.575 604.418C845.58 573.884 866.632 642.068 907.208 611.557C964.682 568.337 904.032 194.507 1007.8 177.157C1107.11 160.553 1229.45 326.514 1293.05 383.104C1327.96 414.166 1380.92 446.948 1440.46 481.103C1449.21 486.126 1458.34 488.469 1466.59 490.963C1558.59 518.763 1575.19 429.627 1665.33 443.643C1669.92 444.357 1674.41 445.744 1678.88 447.799C1769.51 489.456 1784.37 603.604 1939.52 597.039" stroke="#82027F" stroke-width="2.45562" stroke-miterlimit="10"/>
<path d="M29.7033 454.118C29.7033 454.118 231.672 310.219 378.022 391.21C492.263 454.433 497.767 751.537 603.005 782.942C677.375 805.135 706.209 647.493 788.109 602.159C842.344 572.138 863.116 637.387 902.373 607.263C959.189 563.665 901.609 201.023 1003.69 184.254C1103.37 167.88 1228.95 330.758 1292.13 381.21C1327.18 409.202 1380.33 438.913 1439.99 474.359C1448.59 479.468 1457.59 481.997 1465.73 484.73C1556.47 515.202 1572.34 435.422 1662.8 450.252C1667.36 451 1671.83 452.382 1676.29 454.401C1767.61 495.726 1782.88 596.518 1939.61 588.812" stroke="#85027F" stroke-width="2.45562" stroke-miterlimit="10"/>
<path d="M30.2503 462.394C30.2503 462.394 229.594 316.172 376.419 393.393C492.357 454.37 500.322 746.114 605.572 776.269C678.448 797.151 707.019 644.699 786.665 599.903C839.131 570.396 859.613 632.7 897.562 602.972C953.717 558.983 899.213 207.551 999.601 191.356C1099.65 175.214 1228.61 335.02 1291.23 379.319C1326.51 404.274 1379.78 430.861 1439.55 467.618C1447.99 472.812 1456.87 475.527 1464.89 478.497C1554.37 511.645 1569.52 441.209 1660.3 456.861C1664.83 457.641 1669.28 459.021 1673.72 461.003C1765.73 501.989 1781.42 589.435 1939.73 580.589" stroke="#880280" stroke-width="2.45562" stroke-miterlimit="10"/>
<path d="M30.7821 470.669C30.7821 470.669 227.519 322.088 374.798 395.576C492.447 454.28 502.85 740.706 608.121 769.596C679.493 789.184 707.813 641.908 785.204 597.65C835.9 568.66 856.09 628 892.733 598.686C948.223 554.294 896.798 214.091 995.493 198.459C1095.92 182.556 1236.61 328.402 1290.31 377.428C1329.37 392.354 1379.22 422.792 1439.08 460.876C1447.37 466.152 1456.14 469.061 1464.03 472.264C1552.25 508.09 1566.68 446.987 1657.78 463.47C1662.28 464.285 1666.7 465.663 1671.14 467.605C1763.84 508.251 1779.94 582.351 1939.83 572.366" stroke="#8B0280" stroke-width="2.45562" stroke-miterlimit="10"/>
<path d="M31.3057 478.944C31.3057 478.944 225.456 327.967 373.172 397.758C492.547 454.159 505.363 735.319 610.664 762.922C680.525 781.236 708.6 639.119 783.737 595.396C832.664 566.926 852.552 623.289 887.898 594.396C942.715 549.588 894.378 220.632 991.38 205.561C1092.18 189.901 1236.1 331.841 1289.39 375.539C1328.49 386.835 1378.67 414.707 1438.61 454.139C1446.76 459.495 1455.39 462.595 1463.16 466.035C1550.13 504.543 1563.83 452.76 1655.25 470.083C1659.72 470.93 1664.13 472.303 1668.55 474.214C1761.95 514.511 1778.45 575.272 1939.92 564.149" stroke="#8D0280" stroke-width="2.45562" stroke-miterlimit="10"/>
<path d="M31.8606 487.209C31.8606 487.209 223.435 333.798 371.574 399.93C492.687 453.996 507.892 729.942 613.236 756.241C681.578 773.302 709.418 636.326 782.297 593.132C829.454 565.185 849.032 618.553 883.089 590.096C937.228 544.861 891.987 227.17 987.293 212.651C1088.47 197.241 1235.62 335.268 1288.49 373.637C1327.63 381.303 1378.16 406.59 1438.17 447.386C1446.17 452.819 1454.67 456.115 1462.32 459.794C1548.03 500.985 1561.01 458.516 1652.75 476.686C1657.19 477.565 1661.58 478.936 1665.99 480.809C1760.08 520.751 1776.99 568.183 1940.04 555.919" stroke="#900281" stroke-width="2.45562" stroke-miterlimit="10"/>
<path d="M32.3841 495.486C32.3841 495.486 221.398 339.605 369.948 402.115C492.81 453.816 510.383 724.602 615.782 749.569C682.598 765.396 710.209 633.547 780.832 590.881C826.222 563.458 845.481 613.819 878.257 585.81C931.712 540.129 889.574 233.726 983.183 219.756C1084.73 204.602 1235.12 338.71 1287.57 371.748C1326.75 375.784 1377.64 398.47 1437.71 440.647C1445.55 446.154 1453.93 449.649 1461.46 453.563C1545.9 497.438 1558.17 464.272 1650.22 483.297C1654.63 484.208 1659 485.576 1663.4 487.413C1758.19 526.994 1775.5 561.101 1940.13 547.698" stroke="#930281" stroke-width="2.45562" stroke-miterlimit="10"/>
<path d="M32.9312 503.759C32.9312 503.759 219.395 345.37 368.343 404.295C492.962 453.595 512.888 719.284 618.346 742.893C683.627 757.507 711.019 630.77 779.387 588.625C823.009 561.732 841.938 609.069 873.443 581.518C926.203 535.381 887.178 240.285 979.091 226.857C1081.01 211.965 1234.63 342.147 1286.67 369.856C1325.89 370.263 1377.16 390.329 1437.26 433.905C1444.96 439.487 1453.21 443.179 1460.62 447.329C1543.8 493.893 1555.35 470.018 1647.72 489.905C1652.1 490.849 1656.45 492.215 1660.83 494.015C1756.33 533.23 1774.04 554.015 1940.25 539.474" stroke="#950281" stroke-width="2.45562" stroke-miterlimit="10"/>
<path d="M33.4548 512.022C33.4548 512.022 217.374 351.086 366.716 406.465C493.102 453.332 515.359 713.984 620.89 736.207C684.633 749.631 711.808 627.987 777.917 586.356C819.776 559.998 838.368 604.293 868.606 577.214C920.66 530.603 884.761 246.838 974.972 233.945C1077.27 219.323 1234.12 345.571 1285.74 367.953C1325 364.73 1376.66 382.158 1436.79 427.151C1444.35 432.805 1452.45 436.7 1459.75 441.083C1541.66 490.337 1552.51 475.742 1645.19 496.502C1649.54 497.475 1653.87 498.841 1658.24 500.604C1754.44 539.446 1772.55 546.919 1940.34 531.237" stroke="#980381" stroke-width="2.45562" stroke-miterlimit="10"/>
<path d="M34.0017 520.295C34.0017 520.295 215.382 356.773 365.111 408.644C493.268 453.042 517.842 708.728 623.454 729.534C685.652 741.786 712.62 625.223 776.472 584.102C816.565 558.282 834.808 599.521 863.792 572.927C915.131 525.825 882.367 253.412 970.88 241.048C1073.56 226.703 1233.64 349.011 1284.84 366.061C1324.13 359.209 1376.21 373.982 1436.34 420.409C1443.76 426.133 1451.73 430.232 1458.9 434.852C1539.55 486.798 1549.69 481.473 1642.69 503.112C1647 504.118 1651.31 505.479 1655.67 507.208C1752.58 545.67 1771.08 539.837 1940.46 523.016" stroke="#9B0382" stroke-width="2.45562" stroke-miterlimit="10"/>
<path d="M34.5409 528.564C34.5409 528.564 213.382 362.421 363.5 410.821C493.433 452.714 520.315 703.5 626.013 722.854C686.658 733.958 713.43 622.457 775.02 581.84C813.352 556.564 831.233 594.729 858.973 568.63C909.579 521.016 879.97 259.984 966.783 248.142C1069.84 234.082 1233.15 352.442 1283.93 364.164C1323.26 353.684 1375.78 365.785 1435.89 413.661C1443.17 419.454 1451 423.758 1458.05 428.613C1537.42 483.251 1546.88 487.189 1640.17 509.715C1644.46 510.75 1648.75 512.111 1653.09 513.804C1750.71 551.88 1769.6 532.745 1940.56 514.783" stroke="#9E0382" stroke-width="2.45562" stroke-miterlimit="10"/>
<path d="M35.0645 536.841C35.0645 536.841 211.366 368.039 361.871 413.007C493.58 452.357 522.76 698.322 628.556 716.185C687.647 726.162 714.224 619.709 773.553 579.591C810.123 554.862 827.635 589.938 854.138 564.345C903.997 516.204 877.558 266.574 962.669 255.247C1066.11 241.482 1232.65 355.883 1283.01 362.277C1322.38 348.167 1375.35 357.581 1435.42 406.923C1442.56 412.784 1450.25 417.295 1457.19 422.384C1535.28 479.72 1544.04 492.907 1637.64 516.33C1641.9 517.395 1646.17 518.754 1650.5 520.412C1748.83 558.096 1768.11 525.668 1940.65 506.566" stroke="#A00382" stroke-width="2.45562" stroke-miterlimit="10"/>
<path d="M35.6115 545.114C35.6115 545.114 209.368 373.617 360.268 415.187C493.75 451.958 525.226 693.178 631.123 709.508C688.657 718.381 715.046 616.963 772.108 577.334C806.92 553.157 824.045 585.127 849.324 560.053C898.416 511.362 875.166 273.162 958.577 262.347C1062.4 248.886 1232.16 359.32 1282.11 360.382C1321.51 342.643 1374.96 349.352 1434.98 400.178C1441.98 406.109 1449.53 410.822 1456.34 416.15C1533.17 476.181 1541.24 498.611 1635.14 522.938C1639.37 524.032 1643.62 525.389 1647.94 527.015C1746.97 564.299 1766.65 518.586 1940.77 498.344" stroke="#A30383" stroke-width="2.45562" stroke-miterlimit="10"/>
<path d="M36.135 553.379C36.135 553.379 207.341 379.151 358.639 417.359C493.894 451.513 527.662 688.074 633.664 702.827C689.639 710.617 715.843 614.217 770.638 575.07C803.696 551.453 820.422 580.298 844.487 555.756C892.789 506.493 872.751 279.752 954.462 269.442C1058.67 256.293 1231.65 362.752 1281.18 358.486C1320.62 337.117 1374.57 341.109 1434.5 393.431C1441.37 399.426 1448.78 404.349 1455.47 409.911C1531.02 472.64 1538.41 504.3 1632.61 529.541C1636.81 530.665 1641.04 532.02 1645.34 533.612C1745.09 570.49 1765.15 511.494 1940.86 490.115" stroke="#A60383" stroke-width="2.45562" stroke-miterlimit="10"/>
<path d="M36.682 561.657C36.682 561.657 205.328 384.666 357.036 419.544C494.059 451.044 530.12 683.032 636.231 696.156C690.644 702.886 716.672 611.494 769.195 572.819C800.498 549.768 816.813 575.474 839.675 551.47C887.163 501.613 870.365 286.357 950.372 276.547C1054.96 263.72 1231.17 366.194 1280.28 356.599C1319.76 331.601 1374.23 332.859 1434.06 386.694C1440.8 392.754 1448.06 397.887 1454.64 403.683C1528.9 469.109 1535.62 509.995 1630.11 536.155C1634.28 537.309 1638.49 538.661 1642.78 540.219C1743.25 576.682 1763.69 504.415 1940.98 481.896" stroke="#A90383" stroke-width="2.45562" stroke-miterlimit="10"/>
<path d="M37.2129 569.932C37.2129 569.932 203.287 390.144 355.415 421.726C494.197 450.536 532.559 678.041 638.781 689.483C691.633 695.174 717.491 608.779 767.735 570.563C797.292 548.083 813.175 570.634 834.848 547.178C881.489 496.703 867.96 292.965 946.266 283.645C1051.24 271.152 1233.78 377.412 1279.36 354.705C1323.04 332.947 1373.89 324.588 1433.6 379.949C1440.21 386.074 1447.32 391.417 1453.78 397.447C1526.76 465.573 1532.81 515.67 1627.59 542.761C1631.73 543.944 1635.92 545.294 1640.2 546.817C1741.38 582.859 1762.21 497.329 1941.08 473.669" stroke="#AB0383" stroke-width="2.45562" stroke-miterlimit="10"/>
<path d="M37.7599 578.202C37.7599 578.202 201.249 395.586 353.812 423.904C494.347 449.988 535.014 673.107 641.348 682.804C692.644 687.482 718.331 606.068 766.289 568.305C794.101 546.406 809.539 565.78 830.034 542.884C875.799 491.764 865.571 299.575 942.174 290.743C1047.53 278.596 1233.58 379.754 1278.46 352.809C1322.23 326.537 1373.6 316.301 1433.15 373.203C1439.63 379.392 1446.59 384.945 1452.93 391.211C1524.63 462.035 1530.03 521.34 1625.08 549.37C1629.19 550.58 1633.37 551.93 1637.63 553.419C1739.53 589.033 1760.75 490.243 1941.2 465.445" stroke="#AE0384" stroke-width="2.45562" stroke-miterlimit="10"/>
<path d="M38.3069 586.475C38.3069 586.475 199.193 401.001 352.206 426.083C494.481 449.406 537.473 668.239 643.912 676.128C693.652 679.815 719.178 603.374 764.843 566.048C790.918 544.736 805.888 560.923 825.22 538.592C870.067 486.799 863.183 306.193 938.081 297.844C1043.83 286.055 1233.2 382.164 1277.56 350.918C1321.25 320.147 1373.33 308.004 1432.71 366.461C1439.06 372.715 1445.86 378.477 1452.09 384.978C1522.49 458.499 1527.24 527 1622.58 555.978C1626.66 557.218 1630.82 558.566 1635.06 560.021C1737.68 595.198 1759.28 483.159 1941.31 457.221" stroke="#B10384" stroke-width="2.45562" stroke-miterlimit="10"/>
<path d="M38.8304 594.744C38.8304 594.744 197.097 406.381 350.58 428.259C494.584 448.785 542.077 647.27 646.456 669.45C693.666 679.482 720.014 600.693 763.377 563.79C787.719 543.074 802.201 556.055 820.385 534.302C864.27 481.802 860.77 312.816 933.966 304.942C1040.1 293.524 1232.63 384.657 1276.63 349.025C1320.13 313.801 1373.05 299.694 1432.23 359.717C1438.47 366.036 1445.11 372.008 1451.22 378.743C1520.33 454.963 1524.43 532.651 1620.04 562.585C1624.09 563.852 1628.23 565.2 1632.47 566.621C1735.81 601.356 1757.78 476.073 1941.4 448.996" stroke="#B30384" stroke-width="2.45562" stroke-miterlimit="10"/>
<path d="M39.3696 603.011C39.3696 603.011 194.997 411.734 348.967 430.433C494.684 448.129 544.066 643.466 649.012 662.769C694.921 671.213 720.876 598.023 761.923 561.526C784.538 541.416 798.515 551.173 815.564 530.002C858.431 476.767 858.374 319.438 929.866 312.034C1036.39 301.002 1231.96 387.24 1275.73 347.123C1318.93 307.515 1372.83 291.364 1431.78 352.965C1437.89 359.348 1444.38 365.53 1450.37 372.501C1518.19 451.419 1521.65 538.288 1617.53 569.185C1621.56 570.482 1625.68 571.825 1629.89 573.214C1733.96 607.497 1756.31 468.979 1941.5 440.763" stroke="#B60385" stroke-width="2.45562" stroke-miterlimit="10"/>
<path d="M39.906 611.285C39.906 611.285 192.871 417.07 347.353 432.615C494.77 447.448 546.075 639.933 651.571 656.094C696.169 662.926 721.757 595.38 760.469 559.272C781.369 539.777 794.811 546.296 810.741 525.712C852.536 471.708 855.975 326.076 925.765 319.134C1032.67 308.501 1231.2 389.926 1274.81 345.23C1317.67 301.315 1372.62 283.033 1431.33 346.224C1437.32 352.67 1443.64 359.064 1449.52 366.269C1516.04 447.885 1518.87 543.925 1615.02 575.796C1619.01 577.12 1623.11 578.46 1627.32 579.82C1732.11 613.644 1754.84 461.899 1941.61 432.541" stroke="#B90385" stroke-width="2.45562" stroke-miterlimit="10"/>
<path d="M40.4511 619.551C40.4511 619.551 190.73 422.372 345.746 434.787C494.843 446.729 548.13 636.684 654.133 649.411C697.41 654.607 722.667 592.745 759.021 557.006C778.217 538.134 791.096 541.405 805.926 521.411C846.576 466.602 853.584 332.707 921.671 326.225C1028.97 316.012 1230.37 392.696 1273.91 343.329C1316.37 295.186 1372.45 274.683 1430.88 339.473C1436.75 345.983 1442.92 352.587 1448.67 360.026C1513.9 444.34 1516.11 549.543 1612.51 582.394C1616.48 583.746 1620.56 585.086 1624.75 586.412C1730.26 619.767 1753.37 454.803 1941.72 424.307" stroke="#BC0485" stroke-width="2.45562" stroke-miterlimit="10"/>
<path d="M40.9652 627.833C40.9652 627.833 188.535 427.669 344.11 436.977C494.869 445.998 550.223 633.766 656.667 642.747C698.606 646.287 723.573 590.153 757.545 554.762C775.05 536.525 787.336 536.534 801.082 517.131C840.508 461.479 851.163 339.366 917.549 333.337C1025.24 323.559 1229.47 395.57 1272.98 341.448C1315.02 289.149 1372.28 266.343 1430.4 332.741C1436.16 339.315 1442.15 346.139 1447.8 353.803C1511.57 440.92 1513.32 555.171 1609.98 589.013C1613.92 590.391 1617.97 591.73 1622.15 593.023C1728.39 625.902 1751.87 447.729 1941.81 416.093" stroke="#BE0486" stroke-width="2.45562" stroke-miterlimit="10"/>
<path d="M41.5107 636.095C41.5107 636.095 186.347 432.926 342.505 439.146C494.908 445.216 552.442 631.172 659.232 636.06C699.815 637.917 724.545 587.561 756.1 552.495C771.93 534.903 783.59 531.64 796.269 512.829C834.38 456.296 848.773 346.007 913.458 340.427C1021.53 331.103 1228.56 398.501 1272.08 339.545C1313.69 283.161 1372.17 257.974 1429.96 325.988C1435.6 332.627 1441.42 339.658 1446.95 347.561C1509.46 437.351 1510.57 560.773 1607.47 595.615C1611.38 597.021 1615.42 598.357 1619.58 599.618C1726.55 632.014 1750.41 440.639 1941.92 407.863" stroke="#C10486" stroke-width="2.45562" stroke-miterlimit="10"/>
<path d="M42.0642 644.368C42.0642 644.368 184.14 438.177 340.906 441.328C494.932 444.424 555.044 636.595 661.805 629.387C700.917 626.747 725.571 585.008 754.661 550.239C768.835 533.298 779.827 526.759 791.464 508.539C828.152 451.083 846.388 352.666 909.374 347.527C1017.84 338.679 1227.64 401.506 1271.18 337.654C1312.38 277.248 1372.09 249.609 1429.52 319.246C1435.05 325.952 1440.71 333.188 1446.12 341.327C1507.34 433.788 1507.83 566.377 1604.97 602.224C1608.86 603.657 1612.87 604.99 1617.02 606.22C1724.72 638.124 1748.95 433.553 1942.05 399.639" stroke="#C40486" stroke-width="2.45562" stroke-miterlimit="10"/>
<path d="M42.5945 652.647C42.5945 652.647 181.902 446.038 339.287 443.515C494.893 441.018 557.683 632.53 664.355 622.717C702.02 619.252 726.631 582.484 753.2 547.989C765.741 531.708 776.024 521.891 786.633 504.255C821.778 445.839 843.978 359.335 905.265 354.634C1014.12 346.285 1226.68 404.58 1270.26 335.769C1311.04 271.392 1372.01 241.244 1429.05 312.511C1434.47 319.282 1439.96 326.723 1445.26 335.1C1505.21 430.232 1505.07 571.977 1602.45 608.839C1606.31 610.299 1610.3 611.63 1614.44 612.828C1722.86 644.232 1747.46 426.476 1942.14 391.422" stroke="#C70486" stroke-width="2.45562" stroke-miterlimit="10"/>
<path d="M43.1249 660.909C43.1249 660.909 179.598 448.623 337.665 445.683C494.87 442.758 560.376 628.585 666.903 616.032C703.145 611.761 727.76 579.968 751.738 545.724C762.672 530.107 772.197 517.016 781.803 499.954C815.261 440.535 841.569 365.995 901.157 361.723C1010.4 353.896 1225.72 407.684 1269.35 333.864C1309.71 265.563 1371.95 232.854 1428.59 305.754C1433.9 312.592 1439.22 320.238 1444.4 328.853C1503.07 426.657 1502.32 577.546 1599.93 615.433C1603.76 616.918 1607.73 618.245 1611.85 619.416C1721.06 650.141 1745.98 419.378 1942.24 383.184" stroke="#C90487" stroke-width="2.45562" stroke-miterlimit="10"/>
<path d="M43.6633 669.186C43.6633 669.186 177.292 453.835 336.053 447.867C494.814 441.899 563.153 624.802 669.461 609.361C775.77 593.919 787.419 376.104 897.056 368.828C1006.69 361.549 1224.76 410.849 1268.43 331.977C1312.11 253.105 1383.91 218.247 1443.54 322.627C1503.17 427.006 1499.38 595.652 1609.27 626.027C1719.16 656.401 1744.51 412.301 1942.35 374.969" stroke="#CC0487" stroke-width="2.45562" stroke-miterlimit="10"/>
<path d="M53.5305 672.069C53.5305 672.069 187.159 456.718 345.92 450.75C504.682 444.782 573.02 627.685 679.329 612.243C785.637 596.802 797.286 378.987 906.923 371.711C1016.56 364.432 1234.62 413.732 1278.3 334.86C1321.98 255.987 1393.78 221.13 1453.41 325.509C1513.04 429.889 1509.25 598.535 1619.14 628.91C1729.03 659.284 1754.37 415.184 1952.22 377.852" stroke="#CC0487" stroke-width="2.45562" stroke-miterlimit="10"/>
<path d="M52.5079 665.416C52.5079 665.416 78.6623 625.784 119.866 580.755C174.325 521.241 254.874 457.132 346.048 454.936C349.999 454.844 353.898 454.852 357.752 454.957C508.113 458.646 575.301 619.313 679.408 604.459C779.309 590.216 794.586 408.412 886.169 378.73C892.572 376.674 899.314 375.357 906.454 374.899C952.656 372.003 1015.89 376.916 1079.09 380.692C1167.01 385.944 1251.02 386.038 1276.86 341.858C1291.68 316.525 1309.52 295.688 1329.3 282.777C1368.43 257.152 1412.83 263.899 1452.64 330.74C1474.17 366.887 1487.9 411.135 1502.19 455.222C1527.66 532.822 1551.03 609.231 1621.93 627.951C1731.97 657.006 1758.25 417.164 1952.22 380.563" stroke="#C90989" stroke-width="2.45562" stroke-miterlimit="10"/>
<path d="M51.5167 658.739C51.5167 658.739 79.1502 619.23 120.828 574.996C175.671 516.79 254.403 460.087 346.204 459.098C350.185 459.059 354.122 459.119 358.017 459.243C508.162 463.995 574.986 611.301 679.515 596.652C779.922 582.605 793.756 410.115 885.645 381.749C892.09 379.759 898.865 378.508 906.01 378.065C952.915 375.293 1015.19 378.392 1078.97 382.685C1166.53 388.58 1249.32 391.065 1275.45 348.832C1290.47 324.556 1308.39 304.34 1328.56 291.488C1368.24 266.033 1411.96 271.746 1451.9 335.949C1473.35 370.441 1487.38 412.74 1502.75 455.811C1529.88 531.791 1553.03 608.907 1624.75 626.97C1734.93 654.722 1762.17 419.121 1952.25 383.253" stroke="#C50D8A" stroke-width="2.45562" stroke-miterlimit="10"/>
<path d="M50.5018 652.078C50.5018 652.078 79.6095 612.696 121.767 569.252C176.984 512.353 253.909 463.057 346.34 463.276C350.35 463.291 354.321 463.4 358.261 463.546C508.193 469.131 574.65 603.302 679.6 588.861C780.512 575.008 792.948 411.952 885.1 384.785C891.59 382.871 898.391 381.662 905.547 381.25C953.149 378.503 1014.48 379.882 1078.83 384.697C1166.02 391.22 1247.59 396.119 1274.02 355.828C1289.25 332.616 1307.27 313.059 1327.8 300.217C1368.08 275.022 1411.07 279.63 1451.13 341.177C1472.52 374.029 1486.91 414.344 1503.29 456.418C1532.21 530.741 1554.99 608.606 1627.54 626.008C1737.86 652.47 1766.06 421.096 1952.26 385.958" stroke="#C2128C" stroke-width="2.45562" stroke-miterlimit="10"/>
<path d="M49.4794 645.416C49.4794 645.416 80.0565 606.159 122.7 563.51C178.285 507.92 253.41 466.029 346.468 467.456C350.508 467.525 354.516 467.68 358.5 467.85C508.221 474.254 574.308 595.306 679.682 581.074C781.102 567.416 792.141 413.797 884.552 387.825C891.087 385.989 897.918 384.831 905.081 384.437C953.384 381.782 1013.77 381.368 1078.69 386.709C1165.51 393.855 1245.85 401.188 1272.59 362.822C1288.01 340.682 1306.12 321.744 1327.03 308.945C1367.87 283.947 1410.17 287.536 1450.37 346.406C1471.69 377.628 1486.46 415.951 1503.82 457.027C1534.54 529.697 1556.96 608.311 1630.33 625.044C1740.78 650.231 1769.95 423.072 1952.27 388.667" stroke="#BE168D" stroke-width="2.45562" stroke-miterlimit="10"/>
<path d="M48.4806 638.749C48.4806 638.749 80.5196 599.619 123.657 557.762C179.6 503.478 252.935 468.993 346.619 471.628C350.691 471.749 354.735 471.953 358.761 472.144C508.266 479.359 573.988 587.302 679.783 573.276C781.707 559.811 791.359 415.633 884.021 390.855C890.6 389.095 897.461 387.991 904.632 387.614C953.635 385.056 1013.07 382.84 1078.57 388.716C1165.02 396.47 1244.13 406.262 1271.17 369.812C1286.8 348.746 1304.99 330.424 1326.28 317.672C1367.68 292.869 1409.28 295.463 1449.62 351.631C1470.87 381.237 1486.02 417.559 1504.37 457.631C1536.89 528.659 1558.92 608.02 1633.14 624.079C1743.71 648.003 1773.85 425.044 1952.29 391.37" stroke="#BB1B8F" stroke-width="2.45562" stroke-miterlimit="10"/>
<path d="M47.4819 632.079C47.4819 632.079 80.9779 593.076 124.612 552.009C180.907 499.029 252.457 471.955 346.768 475.797C350.87 475.974 354.951 476.219 359.019 476.437C508.308 484.449 573.666 579.296 679.882 565.476C782.313 552.207 790.576 417.475 883.489 393.881C890.116 392.199 897.002 391.144 904.182 390.79C953.888 388.327 1012.37 384.306 1078.45 390.718C1164.53 399.071 1242.39 411.347 1269.75 376.795C1285.57 356.814 1303.86 339.097 1325.53 326.39C1367.49 301.78 1408.41 303.408 1448.86 356.847C1470.07 384.855 1485.58 419.158 1504.92 458.227C1539.26 527.614 1560.89 607.726 1635.95 623.103C1746.63 645.778 1777.75 427.007 1952.32 394.064" stroke="#B71F90" stroke-width="2.45562" stroke-miterlimit="10"/>
<path d="M46.4755 625.422C46.4755 625.422 81.4212 586.544 125.562 546.27C182.199 494.591 251.971 474.931 346.914 479.979C351.046 480.209 355.161 480.501 359.274 480.744C508.347 489.54 573.341 571.301 679.978 557.689C782.917 544.613 789.794 419.333 882.955 396.921C889.626 395.315 896.542 394.314 903.73 393.976C954.137 391.612 1011.66 385.778 1078.32 392.731C1164.03 401.671 1240.65 416.453 1268.33 383.79C1284.34 364.897 1302.73 347.781 1324.78 335.118C1367.29 310.701 1407.53 311.391 1448.11 362.073C1469.27 388.498 1485.15 420.773 1505.46 458.833C1541.63 526.588 1562.85 607.449 1638.75 622.14C1749.54 643.582 1781.65 428.981 1952.34 396.771" stroke="#B42492" stroke-width="2.45562" stroke-miterlimit="10"/>
<path d="M45.4536 618.755C45.4536 618.755 81.8465 580.003 126.493 540.521C183.463 490.142 251.47 477.895 347.04 484.152C351.202 484.433 355.354 484.774 359.511 485.041C508.369 494.612 572.997 563.299 680.059 549.893C783.502 537.012 788.998 421.188 882.403 399.951C889.121 398.424 896.064 397.474 903.26 397.156C954.369 394.893 1010.94 387.238 1078.18 394.737C1163.51 404.256 1238.87 421.566 1266.89 390.779C1283.09 372.983 1301.58 356.459 1324.01 343.845C1367.07 319.618 1406.64 319.401 1447.34 367.3C1468.47 392.161 1484.7 422.388 1505.99 459.44C1543.99 525.566 1564.78 607.177 1641.54 621.177C1752.42 641.398 1785.54 430.955 1952.35 399.478" stroke="#B02893" stroke-width="2.45562" stroke-miterlimit="10"/>
<path d="M44.4553 612.086C44.4553 612.086 82.2856 573.459 127.451 534.772C184.749 485.689 250.995 480.86 347.192 488.324C351.383 488.659 355.573 489.044 359.772 489.338C508.411 499.671 572.678 555.297 680.161 542.097C784.111 529.409 788.228 423.046 881.874 402.981C888.64 401.532 895.608 400.633 902.813 400.332C954.623 398.17 1010.23 388.687 1078.06 396.74C1163.02 406.829 1237.11 426.691 1265.48 397.766C1281.85 381.072 1300.45 365.133 1323.26 352.566C1366.88 328.529 1405.79 327.438 1446.6 372.52C1467.7 395.834 1484.29 424 1506.55 460.039C1546.38 524.539 1566.74 606.907 1644.35 620.206C1755.33 639.221 1789.45 432.924 1952.37 402.177" stroke="#AD2D95" stroke-width="2.45562" stroke-miterlimit="10"/>
<path d="M43.4572 605.416C43.4572 605.416 82.7225 566.913 128.406 529.02C186.022 481.229 250.518 483.821 347.344 492.493C351.568 492.885 355.792 493.313 360.033 493.629C508.453 504.716 572.358 547.289 680.263 534.295C784.717 521.803 787.461 424.906 881.346 406.006C888.159 404.635 895.154 403.787 902.365 403.504C954.878 401.443 1009.53 390.129 1077.93 398.74C1162.52 409.387 1235.32 431.826 1264.06 404.748C1280.6 389.162 1299.32 373.803 1322.51 361.282C1366.69 337.433 1404.96 335.501 1445.84 377.734C1466.94 399.523 1483.88 425.605 1507.1 460.632C1548.78 523.512 1568.69 606.637 1647.16 619.228C1758.22 637.046 1793.35 434.883 1952.4 404.869" stroke="#A93196" stroke-width="2.45562" stroke-miterlimit="10"/>
<path d="M42.4357 598.756C42.4357 598.756 83.1286 560.373 129.338 523.277C187.262 476.776 250.017 486.793 347.47 496.674C351.724 497.12 355.983 497.592 360.268 497.934C508.47 509.764 572.013 539.296 680.341 526.51C785.303 514.213 786.674 426.787 880.794 409.047C887.654 407.754 894.677 406.958 901.895 406.694C955.111 404.736 1008.8 391.582 1077.79 400.757C1162.01 411.954 1233.49 436.99 1262.63 411.749C1279.33 397.277 1298.17 382.491 1321.74 370.019C1366.47 346.355 1404.13 343.617 1445.08 382.969C1466.19 403.255 1483.45 427.235 1507.63 461.247C1551.18 522.509 1570.62 606.398 1649.95 618.273C1761.1 634.913 1797.23 436.865 1952.41 407.585" stroke="#A63698" stroke-width="2.45562" stroke-miterlimit="10"/>
<path d="M41.4302 592.089C41.4302 592.089 83.5433 553.827 130.289 517.528C188.516 472.315 249.535 489.756 347.615 500.847C351.898 501.346 356.194 501.865 360.521 502.232C508.508 514.795 571.686 531.294 680.436 518.714C785.902 506.61 785.904 428.66 880.256 412.078C887.163 410.865 894.213 410.121 901.439 409.871C955.358 408.019 1008.09 393.018 1077.66 402.761C1161.5 414.501 1231.66 442.151 1261.2 418.734C1278.05 405.378 1297.03 391.161 1320.99 378.738C1366.26 355.26 1403.34 351.745 1444.32 388.189C1465.47 406.994 1483.04 428.848 1508.17 461.847C1553.59 521.49 1572.55 606.148 1652.75 617.304C1763.97 632.773 1801.13 438.835 1952.42 410.285" stroke="#A23A99" stroke-width="2.45562" stroke-miterlimit="10"/>
<path d="M40.4094 585.425C40.4094 585.425 83.9377 547.281 131.224 511.782C189.744 467.848 249.038 492.725 347.747 505.022C352.06 505.572 356.393 506.138 360.764 506.531C508.532 519.818 571.349 523.292 680.52 510.92C786.493 499.012 785.127 430.542 879.71 415.11C886.664 413.976 893.742 413.283 900.974 413.053C955.594 411.307 1007.37 394.453 1077.52 404.769C1160.99 417.042 1229.79 447.324 1259.77 425.723C1276.75 413.489 1295.88 399.836 1320.22 387.462C1366.05 364.167 1402.59 359.906 1443.55 393.411C1464.76 410.759 1482.63 430.463 1508.7 462.449C1556.01 520.473 1574.47 605.908 1655.55 616.336C1766.84 630.648 1805.02 440.804 1952.43 412.987" stroke="#9F3F9B" stroke-width="2.45562" stroke-miterlimit="10"/>
<path d="M39.4122 578.757C39.4122 578.757 84.3508 540.727 132.18 506.034C190.987 463.378 248.561 495.69 347.897 509.195C352.243 509.802 356.608 510.409 361.024 510.829C508.573 524.829 571.028 515.291 680.62 503.125C787.098 491.41 784.368 432.429 879.18 418.142C886.181 417.086 893.284 416.447 900.526 416.231C955.849 414.594 1006.66 395.88 1077.4 406.776C1160.49 419.575 1227.91 452.503 1258.35 432.714C1275.45 421.599 1294.75 408.512 1319.47 396.19C1365.85 373.077 1401.9 368.096 1442.81 398.637C1464.11 414.55 1482.25 432.081 1509.26 463.054C1558.45 519.458 1576.41 605.679 1658.36 615.369C1769.72 628.539 1808.93 442.777 1952.46 415.691" stroke="#9B439C" stroke-width="2.45562" stroke-miterlimit="10"/>
<path d="M38.4077 572.099C38.4077 572.099 84.7492 534.18 133.129 500.294C192.212 458.91 248.078 498.664 348.04 513.376C352.416 514.035 356.818 514.688 361.276 515.132C508.606 529.839 570.7 507.295 680.715 495.335C787.701 483.816 783.605 434.325 878.645 421.178C885.694 420.203 892.823 419.613 900.074 419.414C956.1 417.885 1005.95 397.306 1077.27 408.786C1159.99 422.1 1226 457.685 1256.93 439.705C1274.13 429.707 1293.61 417.186 1318.72 404.915C1365.64 381.983 1401.28 376.297 1442.05 403.86C1463.5 418.358 1481.86 433.697 1509.8 463.657C1560.9 518.439 1578.35 605.455 1661.16 614.403C1772.59 626.44 1812.83 444.748 1952.48 418.395" stroke="#98489E" stroke-width="2.45562" stroke-miterlimit="10"/>
<path d="M37.3958 565.429C37.3958 565.429 85.1353 527.618 134.073 494.541C193.427 454.423 247.589 501.626 348.179 517.545C352.584 518.257 357.024 518.955 361.523 519.426C508.637 534.828 570.367 499.289 680.804 487.535C788.294 476.211 782.836 436.215 878.1 424.204C885.196 423.31 892.353 422.771 899.611 422.59C956.34 421.171 1005.23 398.718 1077.14 410.788C1159.48 424.61 1224.05 462.86 1255.5 446.691C1272.78 437.807 1292.46 425.854 1317.96 413.635C1365.43 390.884 1400.71 384.5 1441.29 409.081C1462.91 422.181 1481.47 435.305 1510.34 464.257C1563.35 517.416 1580.27 605.236 1663.96 613.433C1775.45 624.351 1816.72 446.715 1952.5 421.095" stroke="#944C9F" stroke-width="2.45562" stroke-miterlimit="10"/>
<path d="M36.3964 558.759C36.3964 558.759 85.529 521.051 135.027 488.788C194.645 449.931 247.108 504.586 348.33 521.714C352.765 522.48 357.239 523.221 361.785 523.719C508.683 539.811 570.048 491.283 680.907 479.736C788.904 468.605 782.086 438.111 877.573 427.231C884.719 426.417 891.898 425.93 899.163 425.764C956.595 424.455 1004.53 400.122 1077.02 412.788C1158.99 427.111 1222.08 468.023 1254.08 453.672C1271.43 445.893 1291.33 434.518 1317.21 422.353C1365.23 399.78 1404.81 385.76 1440.54 414.297C1464.15 421.866 1481.1 436.907 1510.89 464.853C1565.83 516.381 1582.2 605.02 1666.77 612.457C1778.32 622.267 1820.63 448.679 1952.52 423.789" stroke="#9151A1" stroke-width="2.45562" stroke-miterlimit="10"/>
<path d="M35.3723 552.091C35.3723 552.091 85.8906 514.485 135.959 483.039C195.833 445.435 246.607 507.552 348.456 525.886C352.921 526.706 357.432 527.491 362.02 528.015C508.701 544.786 569.703 483.278 680.985 471.941C789.49 461.006 781.31 440.018 877.021 430.265C884.214 429.532 891.421 429.096 898.694 428.947C956.829 427.752 1003.8 401.532 1076.87 414.798C1158.47 429.615 1220.06 473.181 1252.64 460.666C1270.05 453.982 1290.17 443.192 1316.44 431.081C1365 408.686 1404.27 393.393 1439.77 419.524C1463.5 425.313 1480.71 438.518 1511.42 465.459C1568.29 515.353 1584.11 604.823 1669.56 611.494C1781.17 620.205 1824.51 450.652 1952.53 426.496" stroke="#8E56A3" stroke-width="2.45562" stroke-miterlimit="10"/>
<path d="M34.3822 545.436C34.3822 545.436 86.2836 507.924 136.924 477.304C197.045 440.948 246.141 510.529 348.616 530.072C353.113 530.946 357.659 531.773 362.289 532.324C508.753 549.767 569.392 475.288 681.095 464.157C790.104 453.414 780.569 441.939 876.501 433.307C883.741 432.655 890.975 432.27 898.255 432.136C957.093 431.057 1003.1 402.94 1076.76 416.815C1157.99 432.116 1218.04 478.33 1251.24 467.665C1268.68 462.063 1289.05 451.874 1315.7 439.814C1364.81 417.595 1403.76 401.032 1439.03 424.755C1462.87 428.766 1480.36 440.127 1511.98 466.07C1570.79 514.323 1586.04 604.639 1672.37 610.535C1784.04 618.161 1828.42 452.631 1952.56 429.207" stroke="#8A5AA4" stroke-width="2.45562" stroke-miterlimit="10"/>
<path d="M33.372 538.769C33.372 538.769 86.6492 501.348 137.868 471.554C198.233 436.439 245.651 513.494 348.756 534.243C353.283 535.171 357.863 536.042 362.538 536.62C508.786 554.727 569.063 467.284 681.185 456.359C790.701 445.813 779.807 443.854 875.958 436.336C883.248 435.767 890.507 435.431 897.794 435.312C957.336 434.348 1002.39 404.33 1076.62 418.818C1157.49 434.597 1215.98 483.439 1249.81 474.651C1267.27 470.115 1287.9 460.54 1314.94 448.536C1364.59 426.49 1403.24 408.66 1438.27 429.978C1462.23 432.211 1479.99 441.726 1512.52 466.673C1573.28 513.277 1587.96 604.452 1675.17 609.566C1786.89 616.118 1832.31 454.601 1952.57 431.909" stroke="#875FA6" stroke-width="2.45562" stroke-miterlimit="10"/>
<path d="M32.3462 532.102C32.3462 532.102 86.9942 494.766 138.795 465.805C199.397 431.924 245.146 516.458 348.878 538.416C353.434 539.398 358.052 540.31 362.771 540.917C508.805 559.679 568.713 459.283 681.259 448.564C791.28 438.212 779.03 445.774 875.402 439.367C882.739 438.878 890.025 438.594 897.32 438.491C957.565 437.646 1001.66 405.719 1076.47 420.824C1156.97 437.078 1213.88 488.521 1248.37 481.639C1265.84 478.151 1286.74 469.208 1314.17 457.258C1364.36 435.388 1402.69 416.288 1437.49 435.198C1461.57 435.652 1479.62 443.316 1513.05 467.272C1575.77 512.221 1589.86 604.271 1677.96 608.596C1789.74 614.082 1836.19 456.568 1952.57 434.609" stroke="#8363A7" stroke-width="2.45562" stroke-miterlimit="10"/>
<path d="M31.3511 525.437C31.3511 525.437 87.3651 488.18 139.756 460.058C200.589 427.405 244.675 519.425 349.033 542.59C353.619 543.625 358.274 544.581 363.035 545.215C508.855 564.627 568.397 451.282 681.366 440.768C791.895 430.61 778.289 447.699 874.879 442.398C882.263 441.993 889.574 441.654 896.88 441.669C957.83 441.794 1000.96 407.098 1076.36 422.828C1156.49 439.546 1211.8 493.566 1246.96 488.627C1264.43 486.171 1285.61 477.874 1313.42 465.981C1364.16 444.281 1402.19 423.916 1436.75 440.419C1460.95 439.094 1479.27 444.905 1513.6 467.873C1578.29 511.156 1591.79 604.099 1680.77 607.627C1792.61 612.059 1840.11 458.539 1952.61 437.31" stroke="#8068A9" stroke-width="2.45562" stroke-miterlimit="10"/>
<path d="M30.3332 518.767C30.3332 518.767 87.7105 481.582 140.694 454.305C201.752 422.871 244.18 522.385 349.167 546.759C353.786 547.848 358.476 548.845 363.279 549.506C508.886 569.56 568.062 443.271 681.451 432.966C792.484 423.004 777.522 449.622 874.333 445.422C881.767 445.1 889.103 444.813 896.416 444.843C958.07 445.093 1000.25 408.468 1076.22 424.828C1155.99 442.005 1211.27 506.543 1245.53 495.609C1262.23 490.277 1284.46 486.534 1312.66 474.699C1363.95 453.17 1401.65 431.54 1435.99 445.635C1460.3 442.531 1478.91 446.481 1514.14 468.468C1580.8 510.076 1593.7 603.931 1683.57 606.651C1795.45 610.039 1844 460.5 1952.62 440.004" stroke="#7C6CAA" stroke-width="2.45562" stroke-miterlimit="10"/>
<path d="M29.3308 512.098C29.3308 512.098 88.0666 474.98 141.645 448.554C202.924 418.332 243.698 525.349 349.313 550.929C353.962 552.072 358.688 553.111 363.533 553.801C508.929 574.492 567.736 435.267 681.546 425.168C793.086 415.398 776.768 451.554 873.796 448.45C881.277 448.211 888.64 447.973 895.958 448.017C958.312 448.393 999.537 409.832 1076.09 426.829C1155.49 444.458 1208.71 511.662 1244.1 502.591C1261.03 498.252 1283.31 495.196 1311.9 483.415C1363.73 462.057 1401.13 439.162 1435.23 450.852C1459.66 445.967 1478.56 448.057 1514.68 469.065C1583.31 508.989 1595.62 603.77 1686.37 605.678C1798.31 608.032 1847.89 462.464 1952.63 442.701" stroke="#7971AC" stroke-width="2.45562" stroke-miterlimit="10"/>
<path d="M28.3366 505.443C28.3366 505.443 88.4258 468.385 142.605 442.819C204.098 413.799 243.225 528.329 349.466 555.115C354.145 556.312 358.906 557.393 363.795 558.112C508.979 579.431 567.416 427.279 681.649 417.388C793.694 407.814 776.005 450.754 873.269 451.497C880.801 451.555 888.187 451.154 895.513 451.211C958.568 451.712 998.842 411.213 1075.97 428.852C1155.01 446.928 1206.15 516.684 1242.69 509.597C1259.85 506.266 1282.18 503.878 1311.16 492.156C1363.53 470.968 1400.62 446.808 1434.48 456.091C1459.04 449.428 1478.23 449.646 1515.23 469.684C1585.85 507.915 1597.74 598.814 1689.18 604.727C1800.95 611.954 1851.8 464.452 1952.66 445.418" stroke="#7575AD" stroke-width="2.45562" stroke-miterlimit="10"/>
<path d="M27.3268 498.776C27.3268 498.776 88.767 461.773 143.551 437.07C205.258 409.247 242.739 531.292 349.609 559.288C354.318 560.538 359.116 561.66 364.05 562.408C509.024 584.35 567.092 419.276 681.747 409.592C794.299 400.211 775.283 452.712 872.736 454.527C880.313 454.668 887.729 454.319 895.062 454.39C958.818 455.015 998.143 412.569 1075.85 430.858C1154.52 449.373 1203.6 521.572 1241.27 516.587C1258.66 514.285 1281.04 512.545 1310.4 500.879C1363.32 479.86 1400.09 454.44 1433.73 461.313C1458.4 452.871 1477.88 451.216 1515.78 470.285C1588.38 506.814 1599.61 598.674 1691.99 603.759C1803.86 609.918 1855.7 466.422 1952.69 448.12" stroke="#727AAF" stroke-width="2.45562" stroke-miterlimit="10"/>
<path d="M26.3175 492.103C26.3175 492.103 89.1061 455.145 144.495 431.315C206.409 404.679 242.25 534.252 349.748 563.456C354.486 564.761 359.321 565.924 364.297 566.702C509.062 589.259 566.759 411.271 681.835 401.792C794.894 392.607 774.552 454.684 872.194 457.553C879.816 457.777 887.262 457.477 894.602 457.564C959.061 458.308 997.435 413.917 1075.71 432.857C1154.03 451.807 1201.32 518.235 1239.84 523.568C1257.34 525.991 1279.9 521.202 1309.65 509.597C1363.1 488.744 1399.57 462.063 1432.97 466.529C1457.76 456.308 1477.53 452.773 1516.32 470.881C1590.9 505.697 1601.48 598.551 1694.79 602.783C1806.77 607.86 1859.6 468.382 1952.7 450.813" stroke="#6E7EB0" stroke-width="2.45562" stroke-miterlimit="10"/>
<path d="M25.3005 485.445C25.3005 485.445 89.4327 448.524 145.434 425.574C207.552 400.118 241.754 537.223 349.881 567.637C354.651 568.995 359.522 570.2 364.539 571.004C509.097 594.171 566.421 403.272 681.918 394.001C795.482 385.012 773.741 459.352 871.644 460.591C879.319 460.687 886.785 460.748 894.135 460.748C959.301 460.762 996.722 415.267 1075.57 434.869C1153.53 454.248 1199.26 523.066 1238.4 530.563C1255.92 533.916 1278.74 529.872 1308.88 518.326C1362.88 497.639 1399.03 469.698 1432.2 471.759C1457.11 459.759 1477.18 454.341 1516.85 471.49C1593.42 504.584 1603.35 598.469 1697.58 601.823C1809.68 605.814 1863.49 470.362 1952.71 453.524" stroke="#6B83B2" stroke-width="2.45562" stroke-miterlimit="10"/>
<path d="M24.2918 478.781C24.2918 478.781 89.7649 441.891 146.378 419.828C208.699 395.542 241.269 540.193 350.022 571.812C354.823 573.224 359.73 574.471 364.789 575.304C509.14 599.077 566.091 395.273 682.012 386.208C796.081 377.412 772.983 461.311 871.108 463.624C878.83 463.806 886.323 463.916 893.68 463.931C959.549 464.072 996.024 416.609 1075.44 436.878C1153.04 456.68 1197.22 527.868 1236.98 537.553C1254.53 541.83 1277.6 538.538 1308.12 527.053C1362.66 506.532 1398.51 477.331 1431.45 476.984C1456.47 463.206 1476.83 455.897 1517.4 472.095C1595.95 503.459 1605.22 598.402 1700.38 600.858C1812.58 603.753 1867.38 472.334 1952.73 456.229" stroke="#6787B3" stroke-width="2.45562" stroke-miterlimit="10"/>
<path d="M23.2753 472.114C23.2753 472.114 90.0894 435.247 147.318 414.081C209.84 390.957 240.773 543.158 350.156 575.987C354.986 577.452 359.928 578.741 365.034 579.603C509.18 603.974 565.755 387.272 682.098 378.414C796.674 369.813 772.218 463.274 870.564 466.657C878.333 466.924 885.85 467.08 893.218 467.11C959.79 467.381 995.321 417.945 1075.31 438.886C1152.55 459.107 1195.21 532.648 1235.55 544.542C1253.15 549.732 1276.45 547.202 1307.36 535.777C1362.44 515.421 1397.98 484.96 1430.68 482.206C1455.82 466.649 1476.48 457.447 1517.93 472.696C1598.47 502.318 1607.14 603.027 1703.17 599.887C1815.44 596.22 1871.27 474.303 1952.74 458.928" stroke="#648CB5" stroke-width="2.45562" stroke-miterlimit="10"/>
<path d="M22.2823 465.444C22.2823 465.444 90.4349 428.59 148.278 408.329C210.997 386.358 240.301 546.12 350.311 580.156C355.171 581.675 360.15 583.002 365.298 583.896C509.241 608.86 565.439 379.267 682.202 370.614C797.285 362.206 771.472 465.234 870.038 469.683C877.857 470.036 885.399 470.242 892.774 470.286C960.05 470.688 994.637 419.269 1075.19 440.888C1152.08 461.522 1193.24 537.401 1234.14 551.529C1251.79 557.627 1275.31 555.861 1306.62 544.497C1362.24 524.305 1397.47 492.586 1429.94 487.424C1455.2 470.088 1476.15 458.992 1518.49 473.294C1601.01 501.169 1609.07 602.923 1705.99 598.916C1818.32 594.274 1875.18 476.269 1952.77 461.627" stroke="#6090B6" stroke-width="2.45562" stroke-miterlimit="10"/>
<path d="M21.266 458.781C21.266 458.781 90.7545 421.936 149.218 402.584C212.136 381.759 239.808 549.09 350.445 584.332C355.337 585.906 360.351 587.274 365.541 588.198C509.282 613.75 565.101 371.269 682.286 362.825C797.874 354.612 770.702 467.209 869.489 472.72C877.355 473.159 884.925 473.41 892.305 473.469C960.284 474.002 993.932 420.595 1075.05 442.898C1151.58 463.942 1191.27 542.151 1232.7 558.52C1250.42 565.521 1274.16 564.526 1305.85 553.225C1362.01 533.194 1396.93 500.22 1429.17 492.653C1454.55 473.538 1475.78 460.539 1519.02 473.903C1603.52 500.021 1610.98 602.837 1708.78 597.955C1821.17 592.345 1879.07 478.245 1952.78 464.336" stroke="#5D95B8" stroke-width="2.45562" stroke-miterlimit="10"/>
<path d="M20.2576 452.121C20.2576 452.121 91.0819 415.271 150.163 396.841C213.275 377.153 239.32 552.06 350.586 588.51C355.508 590.138 360.559 591.545 365.791 592.498C509.33 618.633 564.771 363.27 682.38 355.032C798.475 347.012 769.943 469.185 868.952 475.753C876.866 476.278 884.463 476.578 891.85 476.65C960.53 477.315 993.242 421.911 1074.92 444.905C1151.1 466.354 1189.34 546.886 1231.28 565.511C1249.08 573.415 1273.01 573.192 1305.09 561.95C1361.8 542.082 1396.41 507.85 1428.41 497.876C1453.91 476.983 1475.43 462.078 1519.56 474.505C1606.04 498.859 1612.91 602.752 1711.58 596.988C1824.03 590.419 1882.97 480.217 1952.79 467.039" stroke="#5999B9" stroke-width="2.45562" stroke-miterlimit="10"/>
<path d="M19.2648 445.456C19.2648 445.456 91.425 408.597 151.126 391.093C214.435 372.534 238.851 555.027 350.744 592.684C355.696 594.366 360.784 595.812 366.058 596.796C509.399 623.51 564.457 355.267 682.487 347.237C799.087 339.413 769.194 471.163 868.429 478.785C876.392 479.398 884.015 479.745 891.409 479.831C960.792 480.631 992.567 423.222 1074.8 446.912C1150.64 468.759 1187.45 551.619 1229.87 572.499C1247.76 581.307 1271.88 581.851 1304.35 570.673C1361.59 550.966 1395.9 515.479 1427.67 503.097C1453.29 480.425 1475.1 463.613 1520.12 475.106C1608.58 497.686 1614.85 602.671 1714.4 596.017C1826.92 588.495 1886.88 482.183 1952.83 469.738" stroke="#569EBB" stroke-width="2.45562" stroke-miterlimit="10"/>
<path d="M18.2564 438.778C18.2564 438.778 91.7499 401.898 152.071 385.336C215.577 367.898 238.363 557.982 350.883 596.848C355.865 598.583 360.99 600.069 366.308 601.085C509.452 628.372 564.127 347.256 682.579 339.432C799.686 331.804 768.43 473.132 867.891 481.807C875.901 482.505 883.548 482.901 890.953 482.999C961.039 483.935 991.882 424.516 1074.67 448.909C1150.17 471.151 1185.57 556.336 1228.44 579.48C1246.43 589.191 1270.74 590.505 1303.59 579.39C1361.38 559.842 1398.15 527.961 1426.92 508.313C1456.23 488.296 1474.75 465.138 1520.67 475.701C1611.09 496.505 1616.78 602.594 1717.2 595.043C1829.78 586.575 1890.78 484.146 1952.85 472.434" stroke="#53A3BD" stroke-width="2.45562" stroke-miterlimit="10"/>
<path d="M17.2403 432.119C17.2403 432.119 92.0694 395.21 153.011 379.594C216.713 363.27 237.871 560.955 351.02 601.028C356.031 602.817 361.193 604.344 366.554 605.389C509.5 633.243 563.792 339.261 682.667 331.644C800.279 324.208 767.66 475.123 867.347 484.844C875.404 485.63 883.079 486.073 890.491 486.186C961.28 487.259 991.191 425.82 1074.54 450.923C1149.69 473.557 1183.7 561.072 1227.01 586.475C1245.11 597.088 1269.58 599.17 1302.83 588.119C1361.16 568.731 1397.66 535.086 1426.15 513.54C1455.53 491.327 1474.39 466.672 1521.2 476.308C1613.6 495.326 1618.71 602.538 1720 594.08C1832.65 584.671 1894.67 486.123 1952.86 475.142" stroke="#4FA7BE" stroke-width="2.45562" stroke-miterlimit="10"/>
<path d="M16.232 425.457C16.232 425.457 92.3967 388.513 153.956 373.851C217.857 358.63 237.383 563.924 351.159 605.206C356.203 607.048 361.4 608.615 366.802 609.689C509.553 638.106 563.46 331.262 682.757 323.85C800.875 316.611 766.889 477.111 866.806 487.877C874.91 488.752 882.612 489.241 890.032 489.366C961.524 490.577 990.509 427.111 1074.4 452.929C1149.21 475.949 1181.85 565.801 1225.59 593.465C1243.8 604.986 1268.44 607.831 1302.07 596.844C1360.94 577.614 1397.12 542.238 1425.39 518.765C1454.78 494.366 1474.03 468.201 1521.74 476.913C1616.11 494.142 1620.64 602.486 1722.79 593.113C1835.52 582.773 1898.56 488.092 1952.87 477.844" stroke="#4CACC0" stroke-width="2.45562" stroke-miterlimit="10"/>
<path d="M15.2237 418.793C15.2237 418.793 92.724 381.803 154.904 368.104C219.004 353.982 236.898 566.892 351.301 609.38C356.375 611.277 361.609 612.882 367.053 613.988C509.611 642.966 563.131 323.262 682.848 316.056C801.472 309.01 766.12 479.101 866.267 490.91C874.419 491.87 882.148 492.407 889.575 492.545C961.769 493.896 989.828 428.396 1074.27 454.935C1148.74 478.338 1180.02 570.536 1224.16 600.452C1242.5 612.883 1267.29 616.49 1301.32 605.567C1360.72 586.496 1396.54 549.415 1424.64 523.987C1453.99 497.415 1473.67 469.724 1522.28 477.514C1618.61 492.948 1622.57 602.437 1725.6 592.145C1838.39 580.876 1902.46 490.064 1952.89 480.546" stroke="#48B0C1" stroke-width="2.45562" stroke-miterlimit="10"/>
<path d="M14.2232 412.123C14.2232 412.123 93.0615 375.08 155.857 362.352C220.158 349.319 236.418 569.853 351.448 613.55C356.552 615.5 361.823 617.142 367.311 618.282C509.679 647.814 562.809 315.254 682.948 308.257C802.079 301.406 765.357 481.091 865.734 493.937C873.933 494.987 881.687 495.569 889.124 495.721C962.021 497.215 989.158 429.673 1074.15 456.937C1148.28 480.721 1178.21 575.271 1222.74 607.439C1241.21 620.783 1266.15 625.145 1300.56 614.288C1360.51 595.373 1395.92 556.622 1423.88 529.205C1453.17 500.481 1473.31 471.244 1522.83 478.112C1621.12 491.748 1624.51 602.39 1728.4 591.173C1841.27 578.986 1906.36 492.03 1952.91 483.245" stroke="#45B5C3" stroke-width="2.45562" stroke-miterlimit="10"/>
<path d="M13.2149 405.462C13.2149 405.462 93.3912 368.358 156.804 356.611C221.309 344.66 235.931 572.827 351.592 617.73C356.726 619.734 362.034 621.415 367.565 622.587C509.742 652.67 562.482 307.26 683.042 300.471C802.677 293.816 764.588 483.097 865.198 496.98C873.444 498.118 881.226 498.747 888.667 498.911C962.267 500.545 988.487 430.956 1074.02 458.956C1147.81 483.115 1176.41 580.029 1221.32 614.439C1239.93 628.7 1265 633.816 1299.8 623.022C1360.29 604.263 1395.27 563.875 1423.12 534.438C1452.32 503.582 1472.95 472.774 1523.37 478.725C1623.61 490.557 1626.45 602.367 1731.2 590.214C1844.15 577.11 1910.26 494.007 1952.93 485.956" stroke="#41B9C4" stroke-width="2.45562" stroke-miterlimit="10"/>
<path d="M12.191 398.804C12.191 398.804 93.7101 361.63 157.734 350.871C222.445 339.996 235.428 575.801 351.716 621.913C356.882 623.971 362.227 625.692 367.797 626.892C509.787 657.522 562.134 299.267 683.118 292.683C803.261 286.221 763.798 485.106 864.644 500.018C872.937 501.245 880.746 501.92 888.195 502.096C962.496 503.876 987.801 432.228 1073.87 460.968C1147.33 485.497 1174.6 584.788 1219.87 621.435C1238.63 636.614 1263.84 642.482 1299.03 631.754C1360.06 613.152 1394.57 571.156 1422.35 539.671C1451.44 506.707 1472.57 474.303 1523.9 479.337C1626.09 489.361 1628.38 602.351 1733.99 589.257C1847.02 575.244 1914.14 495.99 1952.93 488.669" stroke="#3EBEC6" stroke-width="2.45562" stroke-miterlimit="10"/>
<path d="M11.1906 392.128C11.1906 392.128 94.0524 354.874 158.689 345.112C223.609 335.307 234.951 578.755 351.866 626.076C357.062 628.188 362.444 629.945 368.056 631.18C509.857 662.351 561.813 291.255 683.218 284.878C803.867 278.611 763.03 487.097 864.113 503.039C872.454 504.354 880.287 505.075 887.747 505.266C962.751 507.191 987.143 433.479 1073.75 462.964C1146.88 487.864 1172.83 589.538 1218.46 628.412C1237.36 644.516 1262.7 651.128 1298.28 640.466C1359.85 622.02 1393.87 578.446 1421.6 544.881C1450.57 509.833 1472.21 475.808 1524.45 479.927C1628.59 488.14 1630.33 602.318 1736.8 588.277C1849.91 573.36 1918.04 497.947 1952.96 491.36" stroke="#3AC2C7" stroke-width="2.45562" stroke-miterlimit="10"/>
<path d="M10.1823 385.461C10.1823 385.461 94.3917 348.122 159.635 339.363C224.767 330.619 234.464 581.721 352.008 630.249C357.233 632.414 362.653 634.21 368.307 635.476C509.923 667.187 561.483 283.253 683.31 277.081C804.464 271.008 762.251 489.099 863.575 506.069C871.96 507.474 879.823 508.24 887.29 508.443C962.995 510.513 986.48 434.731 1073.62 464.968C1146.42 490.233 1171.06 594.303 1217.03 635.399C1236.09 652.43 1261.56 659.782 1297.53 649.188C1359.63 630.894 1393.14 585.774 1420.84 550.101C1449.67 512.99 1471.83 477.321 1524.99 480.528C1631.08 486.927 1632.28 602.303 1739.6 587.307C1852.8 571.488 1921.94 499.914 1952.97 494.059" stroke="#37C7C9" stroke-width="2.45562" stroke-miterlimit="10"/>
<path d="M9.17412 378.807C9.17412 378.807 94.731 341.373 160.582 333.627C225.931 325.938 233.979 584.697 352.15 634.434C357.405 636.653 362.862 638.485 368.56 639.786C509.995 672.033 561.156 275.261 683.406 269.298C805.068 263.42 761.477 491.12 863.039 509.112C871.471 510.605 879.362 511.417 886.836 511.635C963.244 513.852 985.824 435.99 1073.49 466.986C1145.97 492.612 1169.29 599.09 1215.61 642.399C1234.82 660.36 1260.41 668.45 1296.77 657.924C1359.42 639.785 1392.4 593.141 1420.09 555.335C1448.77 516.188 1471.47 478.848 1525.54 481.143C1633.56 485.725 1634.24 602.309 1742.41 586.351C1855.7 569.638 1925.84 501.898 1953 496.774" stroke="#33CBCA" stroke-width="2.45562" stroke-miterlimit="10"/>
<path d="M8.1737 372.136C8.1737 372.136 95.0855 334.602 161.535 327.876C227.104 321.239 233.499 587.661 352.297 638.604C357.582 640.877 363.076 642.749 368.816 644.081C510.069 676.86 560.832 267.257 683.503 261.5C805.67 255.817 760.702 493.126 862.505 512.14C870.986 513.724 878.903 514.58 886.385 514.81C963.494 517.175 985.174 437.229 1073.36 468.988C1145.52 494.975 1167.54 603.867 1214.19 649.382C1233.56 668.277 1259.25 677.033 1296.02 666.641C1359.17 648.538 1391.65 600.514 1419.34 560.553C1447.87 519.385 1471.1 480.355 1526.09 481.738C1636.04 484.503 1636.2 602.3 1745.21 585.377C1858.6 567.774 1929.74 503.861 1953.02 499.467" stroke="#30D0CC" stroke-width="2.45562" stroke-miterlimit="10"/>
<path d="M7.1655 365.475C7.1655 365.475 95.4321 327.831 162.483 322.132C228.278 316.54 233.014 590.63 352.442 642.782C357.759 645.109 363.29 647.017 369.07 648.381C510.144 681.686 560.505 259.258 683.598 253.707C806.271 248.217 759.921 495.141 861.969 515.173C870.494 516.848 878.44 517.762 885.928 517.99C963.734 520.655 984.52 438.465 1073.23 470.997C1145.07 497.339 1165.78 608.66 1212.77 656.375C1232.3 676.207 1258.11 685.703 1295.27 675.368C1358.96 657.435 1390.88 607.92 1418.58 565.778C1446.96 522.613 1470.72 481.872 1526.63 482.342C1638.52 483.287 1638.15 602.309 1748.01 584.412C1861.5 565.922 1933.64 505.833 1953.04 502.172" stroke="#2CD4CD" stroke-width="2.45562" stroke-miterlimit="10"/>
<path d="M6.16509 358.802C6.16509 358.802 95.7914 321.044 163.436 316.377C229.461 311.822 232.535 593.59 352.589 646.948C357.936 649.329 363.504 651.274 369.326 652.671C510.222 686.503 560.181 251.249 683.695 245.906C806.873 240.612 759.14 497.15 861.434 518.199C870.006 519.964 877.979 520.923 885.475 521.165C963.984 523.953 983.874 439.689 1073.11 472.999C1144.63 499.695 1164.04 613.45 1211.35 663.358C1231.04 684.13 1256.97 694.364 1294.51 684.088C1358.76 666.326 1390.11 615.336 1417.83 570.996C1446.05 525.85 1470.36 483.814 1527.18 482.942C1640.98 481.193 1640.12 602.32 1750.82 583.44C1864.41 564.07 1937.54 507.801 1953.06 504.871" stroke="#29D9CF" stroke-width="2.45562" stroke-miterlimit="10"/>
<path d="M5.15689 352.14C5.15689 352.14 96.1477 314.26 164.384 310.633C230.641 307.112 232.05 596.56 352.731 651.125C358.108 653.56 363.715 655.541 369.579 656.973C510.299 691.327 559.854 243.252 683.791 238.115C807.477 233.014 758.359 499.17 860.9 521.234C869.517 523.087 877.517 524.09 885.023 524.347C964.233 527.258 983.235 440.915 1072.98 475.007C1144.18 502.053 1162.29 618.253 1209.93 670.35C1229.78 692.066 1255.83 703.034 1293.76 692.814C1358.55 675.222 1389.34 622.778 1417.08 576.22C1445.14 529.111 1469.97 484.893 1527.72 483.546C1643.47 480.846 1642.09 602.339 1753.62 582.475C1867.32 562.227 1941.44 509.772 1953.08 507.575" stroke="#25DDD0" stroke-width="2.45562" stroke-miterlimit="10"/>
<path d="M4.1409 345.469C4.1409 345.469 96.5011 307.46 165.321 304.88C231.819 302.389 231.555 599.52 352.865 655.294C358.272 657.782 363.919 659.788 369.822 661.263C510.433 695.876 559.516 235.243 683.876 230.312C808.065 225.407 757.523 501.353 860.354 524.258C869.013 526.216 877.045 527.246 884.559 527.517C964.472 530.551 982.586 442.125 1072.84 477.004C1143.73 504.399 1160.54 623.053 1208.49 677.328C1228.52 699.989 1254.68 711.69 1293 701.526C1358.33 684.106 1388.55 630.224 1416.31 581.434C1444.23 532.375 1469.58 486.285 1528.26 484.139C1645.91 479.395 1644.04 602.353 1756.42 581.498C1870.22 560.376 1945.33 511.735 1953.09 510.269" stroke="#22E2D2" stroke-width="2.45562" stroke-miterlimit="10"/>
<path d="M3.1327 338.805C3.1327 338.805 96.8647 300.658 166.269 299.133C233.009 297.667 231.07 602.488 353.007 659.468C358.444 662.01 364.128 664.057 370.073 665.562C510.482 700.817 559.187 227.241 683.967 222.518C808.664 217.806 756.748 503.292 859.815 527.29C868.522 529.334 876.581 530.41 884.103 530.699C964.719 533.858 982.01 443.188 1072.71 479.011C1143.34 506.637 1158.79 627.869 1207.07 684.32C1227.26 707.929 1253.54 720.36 1292.24 710.255C1358.12 693.007 1387.76 637.7 1415.55 586.66C1443.32 535.668 1469.2 487.853 1528.8 484.745C1648.37 478.284 1646.05 602.564 1759.22 580.532C1873.17 558.716 1949.23 513.706 1953.11 512.973" stroke="#1EE6D3" stroke-width="2.45562" stroke-miterlimit="10"/>
<path d="M2.1245 332.142C2.1245 332.142 97.2357 293.856 167.214 293.39C237.195 292.925 230.117 633.966 370.324 669.866C510.529 705.765 558.857 219.245 684.059 214.728C809.261 210.212 755.977 505.232 859.275 530.327C962.575 555.421 972.865 441.171 1072.58 481.024C1172.3 520.876 1159.11 753.013 1291.48 718.983C1423.86 684.952 1407.85 493.526 1529.34 485.351C1650.84 477.175 1647.99 602.428 1762.02 579.568C1876.05 556.708 1953.12 515.679 1953.12 515.679" stroke="#1BEBD5" stroke-width="2.45562" stroke-miterlimit="10"/>
</g>
</svg>
