<svg width="140" height="100" viewBox="0 0 140 100" fill="none" xmlns="http://www.w3.org/2000/svg">
<path d="M27.3685 67.6057C16.9967 75.6086 14.3822 83.6165 6.61225 93.7257C6.24101 94.2088 5.50701 94.0987 5.30785 93.5229C4.64741 91.6136 3.3464 87.458 1.77787 80.401C0.178253 73.2042 -0.303571 69.2018 0.178467 62.0078C0.783924 52.9719 6.10973 40.1645 7.1865 37.6534C7.30364 37.3802 7.54709 37.2056 7.84389 37.1897C11.2569 37.008 32.5509 36.144 45.7619 42.016C53.549 45.4771 59.0271 50.4706 60.9744 52.4041C61.3654 52.7925 61.2213 53.4345 60.7102 53.6406C47.8319 58.8323 38.593 58.9449 27.3685 67.6057Z" fill="white"/>
<path d="M55.9831 37.8419C41.4577 31.0959 17.0312 30.0344 10.9852 29.8728C10.3681 29.8564 10.0003 29.1849 10.3291 28.6626C12.0518 25.9255 16.5491 19.1085 20.796 15.4502C27.8867 9.34213 33.6254 6.7416 42.3881 3.45532C54.2295 -0.985553 74.29 0.0528932 77.2151 0.232399C77.452 0.246939 77.6518 0.362615 77.7845 0.559421C79.1781 2.62535 87.1305 15.1213 89.5707 34.6431C90.8563 44.9286 90.592 58.831 90.4386 63.8898C90.417 64.6049 89.5365 64.9257 89.0457 64.4053C84.5161 59.6014 69.1955 43.9782 55.9831 37.8419Z" fill="white"/>
<path d="M58.7516 92.1876C58.7516 93.6766 58.3908 94.9709 57.6691 96.0705C56.9476 97.1701 55.8938 98.0178 54.5079 98.6132C53.1333 99.2088 51.461 99.5067 49.4908 99.5067C48.6204 99.5067 47.767 99.4494 46.931 99.3349C46.1062 99.2204 45.3101 99.0543 44.5427 98.8367C43.7867 98.6076 43.0652 98.3269 42.3779 97.9947V93.0466C43.5692 93.5735 44.8062 94.0488 46.089 94.4727C47.3719 94.8965 48.6433 95.1083 49.9033 95.1083C50.7737 95.1083 51.4725 94.9937 51.9993 94.7647C52.5377 94.5357 52.9272 94.2206 53.1677 93.8198C53.4083 93.4188 53.5285 92.9607 53.5285 92.4452C53.5285 91.8152 53.3166 91.2769 52.8928 90.8302C52.4689 90.3834 51.8848 89.9654 51.1403 89.5761C50.4073 89.1866 49.5769 88.7685 48.6491 88.3218C48.0648 88.0469 47.4292 87.7147 46.7419 87.3252C46.0547 86.9244 45.4018 86.4375 44.7833 85.8648C44.1648 85.2922 43.6551 84.5992 43.2541 83.7859C42.8646 82.9612 42.67 81.9761 42.67 80.8308C42.67 79.3302 43.0135 78.0475 43.7008 76.9821C44.3881 75.9169 45.3674 75.1038 46.6388 74.5424C47.9216 73.9698 49.4336 73.6833 51.1747 73.6833C52.4805 73.6833 53.7232 73.838 54.9029 74.1473C56.0942 74.4451 57.3369 74.8803 58.6313 75.4531L56.9132 79.5937C55.7564 79.1241 54.7196 78.7632 53.8033 78.5113C52.887 78.2479 51.9536 78.1161 51.0029 78.1161C50.3385 78.1161 49.7715 78.225 49.3019 78.4426C48.8324 78.6487 48.4773 78.9465 48.2367 79.336C47.9962 79.7139 47.8759 80.155 47.8759 80.659C47.8759 81.2546 48.0477 81.7586 48.3912 82.1709C48.7463 82.5718 49.2733 82.9612 49.9719 83.3392C50.6821 83.7173 51.5641 84.1582 52.6178 84.6622C53.9007 85.2693 54.9946 85.9049 55.8995 86.5693C56.8158 87.2222 57.5202 87.9954 58.0128 88.8888C58.5053 89.7707 58.7516 90.8703 58.7516 92.1876ZM79.0336 99.1631L77.2123 93.184H68.0549L66.2336 99.1631H60.4951L69.3606 73.9412H75.8723L84.7721 99.1631H79.0336ZM75.9409 88.717L74.1198 82.8753C74.0052 82.4859 73.8507 81.9877 73.6559 81.3805C73.4726 80.762 73.2837 80.1378 73.0889 79.5078C72.9056 78.8664 72.7567 78.3109 72.6422 77.8412C72.5276 78.3109 72.3674 78.895 72.161 79.5937C71.9664 80.2809 71.7773 80.9338 71.5942 81.5525C71.4109 82.1709 71.2791 82.6119 71.199 82.8753L69.395 88.717H75.9409ZM95.6217 74.0442C97.901 74.0442 99.7795 74.3191 101.257 74.8688C102.746 75.4187 103.851 76.2491 104.573 77.3602C105.295 78.4712 105.655 79.8743 105.655 81.5696C105.655 82.7149 105.438 83.7173 105.003 84.5763C104.567 85.4353 103.995 86.1626 103.284 86.7582C102.574 87.3538 101.807 87.8407 100.982 88.2186L108.37 99.1631H102.46L96.4636 89.5244H93.6287V99.1631H88.3025V74.0442H95.6217ZM95.2438 78.4082H93.6287V85.1948H95.3468C97.1107 85.1948 98.3706 84.9027 99.1266 84.3186C99.894 83.723 100.278 82.8525 100.278 81.707C100.278 80.5157 99.8654 79.6682 99.0408 79.1642C98.2275 78.6602 96.9618 78.4082 95.2438 78.4082ZM122.553 78.1161C121.533 78.1161 120.628 78.3165 119.838 78.7175C119.059 79.107 118.401 79.6739 117.862 80.4185C117.335 81.163 116.935 82.062 116.66 83.1159C116.385 84.1697 116.247 85.3552 116.247 86.6723C116.247 88.4478 116.465 89.9654 116.9 91.2254C117.347 92.4739 118.034 93.4303 118.962 94.0947C119.89 94.7476 121.087 95.074 122.553 95.074C123.572 95.074 124.592 94.9594 125.611 94.7303C126.642 94.5013 127.759 94.1748 128.961 93.751V98.2182C127.85 98.6762 126.756 99.0027 125.68 99.1975C124.603 99.4036 123.395 99.5067 122.055 99.5067C119.466 99.5067 117.335 98.974 115.663 97.9088C114.002 96.8321 112.771 95.3317 111.969 93.4075C111.167 91.4717 110.767 89.2152 110.767 86.6379C110.767 84.7366 111.024 82.9956 111.54 81.4149C112.055 79.8342 112.811 78.4654 113.808 77.3086C114.804 76.1517 116.035 75.2583 117.501 74.6284C118.968 73.9984 120.651 73.6833 122.553 73.6833C123.801 73.6833 125.05 73.8438 126.298 74.1644C127.558 74.4738 128.761 74.9032 129.906 75.4531L128.188 79.7827C127.249 79.336 126.304 78.9465 125.353 78.6143C124.403 78.2823 123.469 78.1161 122.553 78.1161ZM134.674 99.1631V74.0442H140V99.1631H134.674Z" fill="white"/>
</svg>
