<svg width="39" height="44" viewBox="0 0 39 44" fill="none" xmlns="http://www.w3.org/2000/svg">
<path d="M12.2961 5.43213L2.79339 5.48698C2.35447 5.48952 2 5.84604 2 6.28497V41.202C2 41.6427 2.35728 42 2.798 42H30.2292C30.6699 42 31.0272 41.6427 31.0272 41.202V37.0125" stroke="white" stroke-width="2.74562"/>
<path d="M11.3809 5.59099L15.8532 2.36326C16.1492 2.1496 16.5525 2.1641 16.8324 2.39846L20.4234 5.40487C20.5671 5.52511 20.7484 5.59099 20.9357 5.59099H29.723C30.1637 5.59099 30.521 5.94827 30.521 6.38899V12.773" stroke="white" stroke-width="2.74562"/>
<path d="M5.49121 17.6602H12.374" stroke="white" stroke-width="1.197" stroke-linecap="round"/>
<path d="M5.49121 21.252H12.374" stroke="white" stroke-width="1.197" stroke-linecap="round"/>
<path d="M5.49121 24.8428H12.374" stroke="white" stroke-width="1.197" stroke-linecap="round"/>
<path d="M5.49121 28.2339H12.374" stroke="white" stroke-width="1.197" stroke-linecap="round"/>
<path d="M5.49121 31.626H14.8677" stroke="white" stroke-width="1.197" stroke-linecap="round"/>
<path d="M5.49121 35.4165H16.4637" stroke="white" stroke-width="1.197" stroke-linecap="round"/>
<path d="M8.98236 5.84912L8.86415 5.97915C8.29836 6.60152 7.98486 7.41242 7.98486 8.25352V8.25352C7.98486 10.1208 9.49863 11.6346 11.366 11.6346H21.2117C23.217 11.6346 24.8426 10.009 24.8426 8.0037V8.0037C24.8426 7.31315 24.6457 6.63693 24.2749 6.05434L24.1443 5.84912" stroke="white" stroke-width="2.74562" stroke-linecap="round"/>
<circle cx="16.364" cy="6.98753" r="1.38985" stroke="white" stroke-width="1.0108"/>
<path d="M34.5684 17.241L25.8298 14.263C25.7244 14.227 25.5829 14.209 25.4415 14.209C25.3 14.209 25.1586 14.227 25.0531 14.263L16.3146 17.241C16.1011 17.313 15.9263 17.5599 15.9263 17.7862V30.192C15.9263 30.4183 16.0729 30.7166 16.2503 30.858L25.1149 37.7655C25.2049 37.835 25.3206 37.871 25.4389 37.871C25.5572 37.871 25.6755 37.835 25.7629 37.7655L34.6275 30.858C34.8049 30.7191 34.9515 30.4208 34.9515 30.192V17.7862C34.9567 17.5599 34.7818 17.3156 34.5684 17.241ZM33.1051 29.6982L25.4415 35.6696L17.7779 29.6982V18.7017L25.4415 16.0889L33.1051 18.7017V29.6982ZM22.6358 26.4707L20.6427 28.4638C20.6044 28.5025 20.583 28.5547 20.583 28.6091C20.583 28.6635 20.6044 28.7157 20.6427 28.7544L21.5171 29.6288C21.5968 29.7085 21.728 29.7085 21.8077 29.6288L23.8007 27.6357C25.2332 28.5384 27.1465 28.3661 28.3938 27.1188C29.8416 25.6709 29.8416 23.3256 28.3938 21.8777C26.9459 20.4299 24.6005 20.4299 23.1527 21.8777C21.9054 23.125 21.7331 25.0409 22.6358 26.4707ZM24.3176 23.0427C25.1226 22.2378 26.4264 22.2378 27.2288 23.0427C28.0337 23.8476 28.0337 25.1515 27.2288 25.9538C26.4239 26.7588 25.12 26.7588 24.3176 25.9538C23.5153 25.1489 23.5127 23.8476 24.3176 23.0427Z" fill="white"/>
</svg>
