<svg width="86" height="92" viewBox="0 0 86 92" fill="none" xmlns="http://www.w3.org/2000/svg">
<path d="M42.3401 46.8417C41.999 46.4535 41.8109 45.9543 41.8109 45.4375C41.8109 44.9207 41.999 44.4215 42.3401 44.0332L45.0635 40.9694C45.3636 40.6347 45.55 40.2135 45.5958 39.7663C45.6417 39.3191 45.5447 38.8688 45.3188 38.4801L41.0635 31.1185C40.8399 30.7302 40.4995 30.4225 40.0907 30.2391C39.6819 30.0557 39.2256 30.0061 38.787 30.0972L34.787 30.9057C34.278 31.0109 33.7482 30.9261 33.2974 30.6674C32.8467 30.4087 32.5062 29.994 32.3402 29.5015L31.0424 25.6079C30.8996 25.1853 30.6277 24.8182 30.265 24.5586C29.9023 24.299 29.4672 24.1599 29.0211 24.1611H20.5106C20.0466 24.1369 19.5875 24.2652 19.2033 24.5264C18.8191 24.7877 18.531 25.1675 18.3829 25.6079L17.1914 29.5015C17.0255 29.994 16.685 30.4087 16.2343 30.6674C15.7835 30.9261 15.2536 31.0109 14.7447 30.9057L10.6383 30.0972C10.2225 30.0384 9.79854 30.1041 9.41992 30.2858C9.04131 30.4675 8.72494 30.7573 8.51068 31.1185L4.25541 38.4801C4.02384 38.8645 3.91971 39.3122 3.95793 39.7593C3.99614 40.2064 4.17473 40.63 4.46817 40.9694L7.17027 44.0332C7.51137 44.4215 7.69949 44.9207 7.69949 45.4375C7.69949 45.9543 7.51137 46.4535 7.17027 46.8417L4.46817 49.9055C4.17473 50.245 3.99614 50.6686 3.95793 51.1157C3.91971 51.5628 4.02384 52.0105 4.25541 52.3949L8.51068 59.7565C8.73429 60.1447 9.07476 60.4525 9.48355 60.6359C9.89234 60.8193 10.3486 60.8689 10.7873 60.7778L14.7872 59.9692C15.2962 59.8641 15.826 59.9488 16.2768 60.2075C16.7276 60.4662 17.068 60.881 17.234 61.3735L18.5319 65.2671C18.6799 65.7075 18.968 66.0873 19.3522 66.3485C19.7364 66.6098 20.1955 66.7381 20.6595 66.7139H29.17C29.6161 66.715 30.0512 66.576 30.4139 66.3163C30.7766 66.0567 31.0486 65.6897 31.1913 65.2671L32.4892 61.3735C32.6551 60.881 32.9956 60.4662 33.4464 60.2075C33.8971 59.9488 34.427 59.8641 34.9359 59.9692L38.9359 60.7778C39.3746 60.8689 39.8308 60.8193 40.2396 60.6359C40.6484 60.4525 40.9889 60.1447 41.2125 59.7565L45.4678 52.3949C45.6937 52.0062 45.7906 51.5559 45.7448 51.1087C45.6989 50.6615 45.5125 50.2403 45.2124 49.9055L42.3401 46.8417ZM39.1699 49.6928L40.8721 51.6076L38.1487 56.331L35.6381 55.8204C34.1057 55.5071 32.5117 55.7674 31.1585 56.5518C29.8054 57.3363 28.7874 58.5902 28.2977 60.0756L27.4892 62.4586H22.0425L21.2765 60.0331C20.7868 58.5476 19.7688 57.2937 18.4157 56.5093C17.0626 55.7249 15.4685 55.4646 13.9362 55.7778L11.4255 56.2884L8.65962 51.5864L10.3617 49.6715C11.4084 48.5012 11.9871 46.9863 11.9871 45.4162C11.9871 43.8461 11.4084 42.3312 10.3617 41.1609L8.65962 39.2461L11.383 34.5652L13.8936 35.0759C15.426 35.3891 17.02 35.1288 18.3731 34.3444C19.7263 33.56 20.7443 32.306 21.234 30.8206L22.0425 28.4164H27.4892L28.2977 30.8419C28.7874 32.3273 29.8054 33.5813 31.1585 34.3657C32.5117 35.1501 34.1057 35.4104 35.6381 35.0972L38.1487 34.5865L40.8721 39.3099L39.1699 41.2248C38.135 42.3923 37.5635 43.8985 37.5635 45.4588C37.5635 47.019 38.135 48.5252 39.1699 49.6928ZM24.7658 36.9269C23.0826 36.9269 21.4372 37.4261 20.0376 38.3612C18.6381 39.2964 17.5473 40.6255 16.9031 42.1806C16.259 43.7357 16.0904 45.4469 16.4188 47.0978C16.7472 48.7487 17.5577 50.2651 18.748 51.4554C19.9382 52.6456 21.4546 53.4561 23.1055 53.7845C24.7564 54.1129 26.4676 53.9444 28.0227 53.3002C29.5778 52.6561 30.907 51.5652 31.8421 50.1657C32.7773 48.7661 33.2764 47.1207 33.2764 45.4375C33.2764 43.1803 32.3797 41.0156 30.7837 39.4196C29.1877 37.8236 27.023 36.9269 24.7658 36.9269ZM24.7658 49.6928C23.9242 49.6928 23.1015 49.4432 22.4017 48.9756C21.702 48.508 21.1565 47.8435 20.8345 47.0659C20.5124 46.2884 20.4281 45.4328 20.5923 44.6073C20.7565 43.7819 21.1618 43.0237 21.7569 42.4285C22.352 41.8334 23.1102 41.4282 23.9357 41.264C24.7611 41.0998 25.6167 41.184 26.3943 41.5061C27.1718 41.8282 27.8364 42.3736 28.304 43.0734C28.7715 43.7732 29.0211 44.5959 29.0211 45.4375C29.0211 46.566 28.5728 47.6484 27.7748 48.4464C26.9768 49.2444 25.8944 49.6928 24.7658 49.6928Z" fill="white"/>
<path d="M29.5429 11.5147L39.7259 11.6311L39.778 7.06662C39.781 6.81491 39.8585 6.56972 40.0007 6.36205C40.143 6.15437 40.3436 5.99354 40.5773 5.89988C40.8109 5.80622 41.0671 5.78394 41.3134 5.83585C41.5597 5.88777 41.7851 6.01154 41.9611 6.19154L50.2484 14.6705C50.4843 14.9119 50.6147 15.2372 50.6108 15.5747C50.607 15.9122 50.4692 16.2344 50.2278 16.4703L41.7489 24.7577C41.5688 24.9336 41.3407 25.0522 41.0932 25.0984C40.8458 25.1447 40.5902 25.1166 40.3587 25.0176C40.1273 24.9186 39.9304 24.7532 39.7929 24.5424C39.6554 24.3315 39.5836 24.0846 39.5864 23.8329L39.6386 19.2684L29.4556 19.152C29.118 19.1481 28.7958 19.0103 28.5598 18.7689C28.3238 18.5274 28.1934 18.2021 28.1973 17.8646L28.2555 12.7731C28.2593 12.4355 28.3971 12.1132 28.6386 11.8773C28.88 11.6413 29.2053 11.5109 29.5429 11.5147Z" stroke="white" stroke-width="1.73096" stroke-linecap="round" stroke-linejoin="round"/>
<path d="M29.5429 72.6163L39.7259 72.7327L39.778 68.1682C39.781 67.9165 39.8585 67.6713 40.0007 67.4636C40.143 67.2559 40.3436 67.0951 40.5773 67.0014C40.8109 66.9078 41.0671 66.8855 41.3134 66.9374C41.5597 66.9893 41.7851 67.1131 41.9611 67.2931L50.2484 75.7721C50.4843 76.0135 50.6147 76.3387 50.6108 76.6762C50.607 77.0138 50.4692 77.3359 50.2278 77.5719L41.7489 85.8592C41.5688 86.0351 41.3407 86.1537 41.0932 86.2C40.8458 86.2463 40.5902 86.2181 40.3587 86.1192C40.1273 86.0202 39.9304 85.8548 39.7929 85.6439C39.6554 85.4331 39.5836 85.1862 39.5864 84.9345L39.6386 80.3699L29.4556 80.2535C29.118 80.2497 28.7958 80.1119 28.5598 79.8704C28.3238 79.629 28.1934 79.3037 28.1973 78.9661L28.2555 73.8746C28.2593 73.537 28.3971 73.2148 28.6386 72.9788C28.88 72.7428 29.2053 72.6124 29.5429 72.6163Z" stroke="white" stroke-width="1.73096" stroke-linecap="round" stroke-linejoin="round"/>
<path d="M60.0941 42.0655L70.2771 42.1819L70.3293 37.6174C70.3322 37.3657 70.4097 37.1205 70.552 36.9128C70.6942 36.7052 70.8949 36.5443 71.1285 36.4507C71.3622 36.357 71.6184 36.3347 71.8647 36.3866C72.111 36.4385 72.3364 36.5623 72.5124 36.7423L80.7997 45.2213C81.0356 45.4627 81.1659 45.7879 81.1621 46.1255C81.1582 46.463 81.0205 46.7852 80.7791 47.0211L72.3002 55.3084C72.1201 55.4844 71.8919 55.603 71.6445 55.6492C71.3971 55.6955 71.1415 55.6674 70.91 55.5684C70.6786 55.4694 70.4816 55.304 70.3442 55.0932C70.2067 54.8823 70.1348 54.6354 70.1376 54.3837L70.1898 49.8192L60.0068 49.7028C59.6693 49.6989 59.347 49.5611 59.111 49.3197C58.8751 49.0782 58.7447 48.7529 58.7485 48.4153L58.8067 43.3238C58.8106 42.9863 58.9484 42.664 59.1898 42.428C59.4313 42.1921 59.7566 42.0617 60.0941 42.0655Z" stroke="white" stroke-width="1.73096" stroke-linecap="round" stroke-linejoin="round"/>
</svg>
