<svg width="161" height="40" viewBox="0 0 161 40" fill="none" xmlns="http://www.w3.org/2000/svg">
<path d="M68.6251 13.1748C68.3796 12.7659 68.0883 12.3859 67.7567 12.042C67.2888 11.6217 66.7405 11.2992 66.1444 11.0939C65.5482 10.8886 64.9165 10.8046 64.287 10.847C63.1584 10.8048 62.0543 11.1808 61.1893 11.9018C60.8078 12.206 60.5 12.5914 60.2886 13.0295C60.0771 13.4676 59.9675 13.9472 59.9678 14.433C59.9678 16.1449 60.9473 17.2112 62.9063 17.6319L66.5172 18.3696C68.4307 18.657 70.1966 19.559 71.5447 20.9374C72.7101 22.1885 73.3444 23.8378 73.3154 25.5417C73.322 26.5468 73.1125 27.5418 72.7008 28.4602C72.2891 29.3785 71.6847 30.199 70.928 30.8668C69.1397 32.4257 66.8075 33.2269 64.4312 33.0988C61.9164 33.2496 59.441 32.4241 57.5276 30.7967C56.4848 29.8567 55.6802 28.6855 55.179 27.3786C55.1263 27.2374 55.0626 27.0527 55.002 26.8493C55.002 26.8493 58.9581 25.5654 58.9581 25.5723C58.9581 25.5792 59.0337 25.7935 59.0576 25.8686C59.3487 26.6233 59.8046 27.3046 60.3925 27.8635C60.9347 28.3584 61.5709 28.7408 62.264 28.9882C62.957 29.2357 63.6928 29.3432 64.4283 29.3045C65.6346 29.3823 66.8305 29.0404 67.8104 28.3376C68.1886 28.0446 68.4926 27.668 68.6985 27.2379C68.9043 26.8077 69.0063 26.3358 68.9962 25.8597C69.0005 25.4643 68.9243 25.0722 68.7722 24.7068C68.62 24.3414 68.3951 24.0103 68.1108 23.7333C67.4253 23.0861 66.5639 22.6521 65.6329 22.485L62.0926 21.7473C60.3214 21.448 58.6914 20.5988 57.4371 19.3217C56.2835 18.0808 55.6669 16.4398 55.7202 14.752C55.7173 13.7277 55.941 12.7152 56.3753 11.786C56.8097 10.8568 57.4441 10.0336 58.2339 9.37448C59.8762 7.88709 62.0306 7.08184 64.2532 7.12471C66.4649 6.97517 68.652 7.65937 70.3779 9.04067C71.2848 9.84307 72.015 10.8228 72.5226 11.9186C72.5226 11.9186 68.6221 13.1748 68.6251 13.1748ZM81.2983 27.983C81.7317 28.4521 82.2603 28.8246 82.8493 29.0761C83.4383 29.3275 84.0742 29.4521 84.7153 29.4417C85.3547 29.4527 85.9894 29.3301 86.578 29.0819C87.1667 28.8336 87.6962 28.4653 88.1323 28.0008C88.6191 27.457 88.9933 26.8232 89.2333 26.1356C89.4733 25.4481 89.5744 24.7204 89.5309 23.9941C89.5731 23.2764 89.4711 22.5576 89.231 21.8795C88.9909 21.2013 88.6174 20.5772 88.1323 20.0436C87.6936 19.5837 87.1632 19.2195 86.5749 18.9745C85.9865 18.7295 85.3532 18.6089 84.7153 18.6205C84.0774 18.6089 83.444 18.7295 82.8557 18.9745C82.2674 19.2195 81.7369 19.5837 81.2983 20.0436C80.8131 20.5772 80.4396 21.2013 80.1995 21.8795C79.9594 22.5576 79.8575 23.2764 79.8997 23.9941C79.8183 25.4549 80.3214 26.8885 81.2993 27.983H81.2983ZM84.7153 14.9249C85.9071 14.8879 87.0937 15.097 88.1998 15.5391C89.306 15.9811 90.3077 16.6463 91.1414 17.4926C91.9819 18.3519 92.6394 19.3706 93.0743 20.4878C93.5093 21.6051 93.713 22.7979 93.673 23.9951C93.7116 25.1944 93.5075 26.3893 93.0726 27.5089C92.6378 28.6285 91.9811 29.6501 91.1414 30.5133C90.3101 31.3639 89.3093 32.0331 88.2028 32.4779C87.0963 32.9228 85.9085 33.1336 84.7153 33.0969C83.5271 33.1315 82.3448 32.9195 81.2439 32.4745C80.143 32.0294 79.1478 31.3611 78.322 30.5123C77.4823 29.6492 76.8256 28.6275 76.3908 27.5079C75.9559 26.3883 75.7517 25.1934 75.7903 23.9941C75.7504 22.7969 75.9541 21.6041 76.3891 20.4868C76.824 19.3696 77.4815 18.3509 78.322 17.4917C79.1505 16.6475 80.1465 15.9835 81.2471 15.5416C82.3477 15.0997 83.5287 14.8897 84.7153 14.9249ZM105.144 18.6857C104.514 18.6756 103.889 18.7971 103.31 19.0423C102.73 19.2875 102.209 19.6508 101.78 20.1088C101.304 20.634 100.936 21.2475 100.699 21.9141C100.463 22.5807 100.361 23.2873 100.4 23.9931C100.36 24.7086 100.463 25.4248 100.703 26.1006C100.943 26.7764 101.315 27.3984 101.798 27.9307C102.234 28.3952 102.764 28.7635 103.352 29.0118C103.941 29.26 104.576 29.3826 105.215 29.3716C106.265 29.4242 107.297 29.0786 108.1 28.4047C108.779 27.8232 109.276 27.0611 109.533 26.2083L113.144 27.509C112.65 29.0653 111.693 30.4372 110.401 31.4456C108.923 32.5872 107.085 33.1725 105.214 33.0979C104.031 33.125 102.855 32.9078 101.761 32.4599C100.667 32.0121 99.6788 31.3435 98.8587 30.4965C98.0123 29.6398 97.3488 28.6223 96.9078 27.505C96.4668 26.3877 96.2574 25.1936 96.2922 23.9941C96.2524 22.7969 96.456 21.6041 96.891 20.4869C97.326 19.3696 97.9834 18.3509 98.8239 17.4917C99.635 16.6548 100.612 15.9944 101.694 15.5524C102.776 15.1103 103.938 14.8963 105.108 14.9239C107.002 14.8421 108.864 15.4273 110.365 16.5761C111.657 17.579 112.584 18.974 113.003 20.5483L109.323 21.8836C109.099 21.0114 108.626 20.2223 107.96 19.612C107.176 18.9547 106.167 18.6222 105.144 18.6857ZM121.992 10.2149V15.4493H125.573V19.0699H121.992V27.0142C121.965 27.3081 121.998 27.6044 122.089 27.8852C122.181 28.1661 122.328 28.4258 122.523 28.6487C122.99 29.0265 123.587 29.2092 124.187 29.1583C124.663 29.1581 125.137 29.1111 125.604 29.018V32.3927C124.799 32.682 123.945 32.8132 123.09 32.7789C122.399 32.817 121.708 32.7169 121.057 32.4845C120.407 32.2521 119.81 31.892 119.302 31.4258C118.827 30.9285 118.459 30.3399 118.221 29.6961C117.984 29.0524 117.882 28.3672 117.921 27.6828V19.0708H114.738V15.4503H118.031L118 10.21L121.992 10.2149ZM133.764 27.983C134.197 28.4521 134.726 28.8246 135.315 29.0761C135.904 29.3275 136.54 29.4521 137.181 29.4417C137.82 29.4527 138.455 29.3301 139.043 29.0819C139.632 28.8336 140.162 28.4653 140.598 28.0008C141.085 27.457 141.459 26.8232 141.699 26.1356C141.939 25.4481 142.04 24.7204 141.996 23.9941C142.038 23.2764 141.937 22.5576 141.696 21.8795C141.456 21.2013 141.083 20.5772 140.598 20.0436C140.159 19.5837 139.629 19.2195 139.04 18.9745C138.452 18.7295 137.819 18.6089 137.181 18.6205C136.543 18.6089 135.909 18.7295 135.321 18.9745C134.733 19.2195 134.202 19.5837 133.764 20.0436C133.278 20.5772 132.905 21.2013 132.665 21.8795C132.425 22.5576 132.323 23.2764 132.365 23.9941C132.285 25.4555 132.789 26.8892 133.769 27.983H133.764ZM137.181 14.9249C138.372 14.8879 139.559 15.097 140.665 15.5391C141.771 15.9811 142.773 16.6463 143.607 17.4926C144.447 18.3519 145.105 19.3706 145.54 20.4878C145.975 21.6051 146.178 22.7979 146.138 23.9951C146.177 25.1944 145.973 26.3893 145.538 27.5089C145.103 28.6285 144.446 29.6501 143.607 30.5133C142.776 31.3639 141.775 32.0331 140.668 32.4779C139.562 32.9228 138.374 33.1336 137.181 33.0969C135.993 33.1312 134.811 32.9192 133.711 32.4743C132.611 32.0295 131.616 31.3616 130.79 30.5133C129.951 29.6501 129.294 28.6285 128.859 27.5089C128.424 26.3893 128.22 25.1944 128.259 23.9951C128.219 22.7979 128.422 21.6051 128.857 20.4878C129.292 19.3706 129.95 18.3519 130.79 17.4926C131.619 16.6482 132.615 15.9839 133.716 15.5419C134.817 15.0998 135.998 14.8897 137.185 14.9249H137.181ZM160.193 15.5303L160.199 19.4461C159.751 19.3857 159.299 19.3665 158.847 19.3888C155.951 19.5409 154.282 22.1176 154.21 25.7036V32.5705H150.103V15.4522H154.103V18.3775C154.569 17.4999 155.266 16.7643 156.12 16.2491C156.973 15.7339 157.952 15.4585 158.951 15.4522C159.368 15.422 159.788 15.4486 160.198 15.5312L160.193 15.5303Z" fill="white"/>
<path d="M31.2411 1.77651C30.6739 1.21328 30.0004 0.766524 29.2592 0.461706C28.518 0.156889 27.7236 0 26.9214 0C26.1191 0 25.3247 0.156889 24.5835 0.461706C23.8424 0.766524 23.169 1.21328 22.6017 1.77651C21.4561 0.639326 19.9024 0.000482231 18.2824 0.000482231C16.6624 0.000482231 15.1088 0.639326 13.9632 1.77651C13.3959 2.33969 12.9459 3.00831 12.6389 3.74416C12.3319 4.48002 12.1738 5.26871 12.1738 6.0652C12.1738 6.8617 12.3319 7.65042 12.6389 8.38627C12.9459 9.12213 13.3959 9.79071 13.9632 10.3539L15.8234 12.2008L20.3107 16.6558C20.612 16.9549 20.9696 17.1922 21.3632 17.3541C21.7568 17.516 22.1786 17.5993 22.6047 17.5993C23.0307 17.5993 23.4525 17.516 23.8461 17.3541C24.2397 17.1922 24.5973 16.9549 24.8985 16.6558L29.3869 12.1998L31.2471 10.3529C32.3917 9.21478 33.0341 7.67183 33.033 6.06349C33.0318 4.45514 32.3873 2.91309 31.2411 1.77651Z" fill="url(#paint0_linear_1130_1664)"/>
<path d="M23.0119 14.0478C22.9575 14.1018 22.8929 14.1446 22.8218 14.1739C22.7507 14.2031 22.6746 14.2182 22.5976 14.2182C22.5207 14.2182 22.4444 14.2031 22.3733 14.1739C22.3022 14.1446 22.2377 14.1018 22.1833 14.0478L16.2148 8.11619C15.85 7.75397 15.5879 7.30271 15.4548 6.80786C15.3217 6.31301 15.3224 5.79209 15.4567 5.29758C15.5179 5.06063 15.6127 4.8335 15.7383 4.62302C15.9954 4.17888 16.3659 3.8099 16.8124 3.55328C17.259 3.29666 17.7659 3.16146 18.2819 3.16135C18.6659 3.16032 19.0464 3.23496 19.4012 3.38092C19.756 3.52688 20.0781 3.74129 20.3489 4.01171L22.604 6.24962L24.8094 4.06008C25.3474 3.51356 26.0756 3.19202 26.8447 3.16135C27.3514 3.14691 27.8532 3.26351 28.3009 3.49967C28.7485 3.73583 29.1267 4.08346 29.3982 4.50846C29.5889 4.80021 29.7219 5.12532 29.7901 5.46645C29.8895 5.93868 29.8687 6.42807 29.7298 6.89035C29.5909 7.35264 29.3381 7.77326 28.9944 8.11423L23.0119 14.0478Z" fill="url(#paint1_linear_1130_1664)"/>
<path d="M45.1983 25.1518C45.1983 26.7831 44.5456 28.3476 43.3837 29.5011C42.2219 30.6546 40.646 31.3026 39.0029 31.3026H36.4564V33.8467C36.4564 35.478 35.8037 37.0425 34.6418 38.196C33.48 39.3495 31.9042 39.9976 30.2611 39.9976H30.2461C28.603 39.9976 27.0272 39.3495 25.8654 38.196C24.7035 37.0425 24.0508 35.478 24.0508 33.8467V22.1702C24.0508 21.3299 24.387 20.524 24.9855 19.9299C25.5839 19.3357 26.3956 19.002 27.242 19.002H39.0029C40.6459 19.002 42.2215 19.6499 43.3834 20.8031C44.5452 21.9564 45.198 23.5207 45.1983 25.1518Z" fill="url(#paint2_linear_1130_1664)"/>
<path d="M45.1988 25.1518C45.1988 26.7831 44.5461 28.3476 43.3842 29.5011C42.2224 30.6546 40.6466 31.3026 39.0035 31.3026H36.4549L24.9844 19.9303C25.2804 19.6357 25.632 19.4021 26.0192 19.2428C26.4064 19.0835 26.8214 19.0016 27.2405 19.002H39.0015C39.8151 19.0017 40.6209 19.1605 41.3727 19.4695C42.1245 19.7784 42.8077 20.2313 43.3832 20.8024C43.9586 21.3735 44.4152 22.0516 44.7267 22.7978C45.0382 23.5441 45.1987 24.344 45.1988 25.1518Z" fill="url(#paint3_linear_1130_1664)"/>
<path d="M0 25.1537C0 26.785 0.652739 28.3495 1.81459 29.503C2.97644 30.6566 4.55226 31.3046 6.19536 31.3046H8.74193V33.8487C8.74193 35.48 9.39467 37.0445 10.5565 38.198C11.7184 39.3515 13.2942 39.9995 14.9373 39.9995H14.9532C16.5963 39.9995 18.1721 39.3515 19.334 38.198C20.4958 37.0445 21.1485 35.48 21.1485 33.8487V22.1722C21.1485 21.3319 20.8123 20.526 20.2138 19.9318C19.6154 19.3377 18.8037 19.0039 17.9573 19.0039H6.19536C4.55243 19.0039 2.97678 19.6518 1.81495 20.8051C0.653132 21.9584 0.000263798 23.5226 0 25.1537Z" fill="url(#paint4_linear_1130_1664)"/>
<path d="M0 25.1537C0 26.785 0.652739 28.3495 1.81459 29.503C2.97644 30.6566 4.55225 31.3046 6.19536 31.3046H8.74193L20.2125 19.9323C19.9165 19.6377 19.5648 19.404 19.1776 19.2447C18.7905 19.0854 18.3754 19.0036 17.9563 19.0039H6.19633C5.38275 19.0038 4.57711 19.1627 3.82541 19.4717C3.07371 19.7807 2.39064 20.2337 1.81526 20.8047C1.23988 21.3758 0.783464 22.0538 0.471998 22.8C0.160533 23.5462 0.000130623 24.346 0 25.1537Z" fill="url(#paint5_linear_1130_1664)"/>
<defs>
<linearGradient id="paint0_linear_1130_1664" x1="22.6034" y1="23.0374" x2="22.6034" y2="-4.32942" gradientUnits="userSpaceOnUse">
<stop stop-color="#3366FF"/>
<stop offset="0.095" stop-color="#2D74FF"/>
<stop offset="0.523" stop-color="#14B3FF"/>
<stop offset="0.837" stop-color="#05DAFF"/>
<stop offset="1" stop-color="#00E9FF"/>
</linearGradient>
<linearGradient id="paint1_linear_1130_1664" x1="22.6037" y1="-22.0189" x2="22.6037" y2="13.0792" gradientUnits="userSpaceOnUse">
<stop stop-color="#00E9FF"/>
<stop offset="0.107" stop-color="#02E0FF"/>
<stop offset="0.276" stop-color="#08CAFF"/>
<stop offset="0.485" stop-color="#12A4FF"/>
<stop offset="0.728" stop-color="#2071FF"/>
<stop offset="0.994" stop-color="#3230FF"/>
<stop offset="1" stop-color="#332FFF"/>
</linearGradient>
<linearGradient id="paint2_linear_1130_1664" x1="20.7095" y1="38.108" x2="31.9838" y2="26.752" gradientUnits="userSpaceOnUse">
<stop stop-color="#00E9FF"/>
<stop offset="0.137" stop-color="#03E1FF"/>
<stop offset="0.35" stop-color="#0BCBFF"/>
<stop offset="0.61" stop-color="#19A7FF"/>
<stop offset="0.907" stop-color="#2C76FF"/>
<stop offset="1" stop-color="#3366FF"/>
</linearGradient>
<linearGradient id="paint3_linear_1130_1664" x1="25.5302" y1="11.7691" x2="33.3768" y2="32.805" gradientUnits="userSpaceOnUse">
<stop stop-color="#00E9FF"/>
<stop offset="0.137" stop-color="#03E1FF"/>
<stop offset="0.35" stop-color="#0BCBFF"/>
<stop offset="0.61" stop-color="#19A7FF"/>
<stop offset="0.907" stop-color="#2C76FF"/>
<stop offset="1" stop-color="#3366FF"/>
</linearGradient>
<linearGradient id="paint4_linear_1130_1664" x1="24.49" y1="38.1099" x2="13.2156" y2="26.7535" gradientUnits="userSpaceOnUse">
<stop stop-color="#00E9FF"/>
<stop offset="0.137" stop-color="#03E1FF"/>
<stop offset="0.35" stop-color="#0BCBFF"/>
<stop offset="0.61" stop-color="#19A7FF"/>
<stop offset="0.907" stop-color="#2C76FF"/>
<stop offset="1" stop-color="#3366FF"/>
</linearGradient>
<linearGradient id="paint5_linear_1130_1664" x1="19.6667" y1="11.7711" x2="11.8195" y2="32.8064" gradientUnits="userSpaceOnUse">
<stop stop-color="#00E9FF"/>
<stop offset="0.137" stop-color="#03E1FF"/>
<stop offset="0.35" stop-color="#0BCBFF"/>
<stop offset="0.61" stop-color="#19A7FF"/>
<stop offset="0.907" stop-color="#2C76FF"/>
<stop offset="1" stop-color="#3366FF"/>
</linearGradient>
</defs>
</svg>
