<svg width="199" height="51" viewBox="0 0 199 51" fill="none" xmlns="http://www.w3.org/2000/svg">
<path d="M85.2461 16.4819C84.9411 15.9702 84.5792 15.4947 84.1673 15.0645C83.5861 14.5386 82.9049 14.1351 82.1644 13.8783C81.4239 13.6214 80.6392 13.5163 79.8572 13.5694C78.4552 13.5165 77.0837 13.9869 76.0092 14.8891C75.5353 15.2697 75.153 15.7519 74.8903 16.3C74.6277 16.8482 74.4915 17.4483 74.4918 18.0561C74.4918 20.198 75.7086 21.5321 78.1421 22.0586L82.6276 22.9816C85.0045 23.3412 87.1982 24.4697 88.8728 26.1944C90.3204 27.7598 91.1083 29.8234 91.0723 31.9552C91.0806 33.2129 90.8203 34.4578 90.3088 35.6068C89.7974 36.7558 89.0466 37.7824 88.1067 38.6181C85.8853 40.5685 82.9882 41.571 80.0364 41.4107C76.9124 41.5993 73.8374 40.5665 71.4607 38.5303C70.1653 37.3541 69.1657 35.8888 68.5432 34.2536C68.4777 34.0769 68.3986 33.8458 68.3232 33.5913C68.3232 33.5913 73.2376 31.9849 73.2376 31.9935C73.2376 32.0022 73.3315 32.2703 73.3612 32.3642C73.7228 33.3085 74.2892 34.1609 75.0195 34.8603C75.6929 35.4795 76.4833 35.958 77.3442 36.2676C78.205 36.5772 79.1191 36.7117 80.0327 36.6632C81.5312 36.7606 83.0168 36.3328 84.234 35.4535C84.7038 35.0868 85.0815 34.6157 85.3372 34.0775C85.5929 33.5393 85.7195 32.9488 85.707 32.3531C85.7124 31.8584 85.6177 31.3678 85.4287 30.9106C85.2397 30.4534 84.9603 30.0391 84.6072 29.6927C83.7556 28.8828 82.6856 28.3398 81.5291 28.1307L77.1313 27.2077C74.9311 26.8333 72.9063 25.7707 71.3482 24.1728C69.9152 22.6203 69.1493 20.567 69.2154 18.4553C69.2119 17.1736 69.4897 15.9068 70.0293 14.7442C70.5688 13.5816 71.3569 12.5516 72.338 11.7269C74.3781 9.8659 77.0543 8.85838 79.8152 8.91201C82.5626 8.72492 85.2795 9.58098 87.4233 11.3093C88.5499 12.3132 89.4569 13.5391 90.0875 14.9101C90.0875 14.9101 85.2423 16.4819 85.2461 16.4819ZM100.989 35.0098C101.527 35.5967 102.184 36.0629 102.915 36.3775C103.647 36.6921 104.437 36.848 105.233 36.835C106.028 36.8487 106.816 36.6953 107.547 36.3847C108.279 36.0741 108.936 35.6133 109.478 35.0321C110.083 34.3516 110.548 33.5586 110.846 32.6984C111.144 31.8382 111.269 30.9277 111.215 30.0189C111.268 29.121 111.141 28.2216 110.843 27.3731C110.545 26.5245 110.081 25.7438 109.478 25.0761C108.933 24.5006 108.274 24.045 107.543 23.7384C106.813 23.4318 106.026 23.281 105.233 23.2955C104.441 23.281 103.654 23.4318 102.923 23.7384C102.193 24.045 101.534 24.5006 100.989 25.0761C100.386 25.7438 99.9221 26.5245 99.6239 27.3731C99.3256 28.2216 99.199 29.121 99.2514 30.0189C99.1503 31.8467 99.7752 33.6404 100.99 35.0098H100.989ZM105.233 18.6715C106.714 18.6253 108.188 18.887 109.562 19.44C110.936 19.993 112.18 20.8254 113.216 21.8843C114.26 22.9594 115.077 24.234 115.617 25.6319C116.157 27.0298 116.41 28.5223 116.361 30.0201C116.409 31.5208 116.155 33.0158 115.615 34.4166C115.075 35.8175 114.259 37.0957 113.216 38.1757C112.183 39.24 110.94 40.0773 109.566 40.6339C108.191 41.1905 106.716 41.4542 105.233 41.4083C103.757 41.4516 102.289 41.1864 100.921 40.6295C99.5536 40.0727 98.3174 39.2365 97.2916 38.1745C96.2486 37.0945 95.4328 35.8162 94.8926 34.4154C94.3524 33.0145 94.0988 31.5195 94.1467 30.0189C94.0972 28.521 94.3501 27.0285 94.8905 25.6307C95.4308 24.2328 96.2475 22.9582 97.2916 21.8831C98.3207 20.8269 99.5581 19.996 100.925 19.4432C102.292 18.8903 103.759 18.6276 105.233 18.6715ZM130.61 23.377C129.827 23.3645 129.051 23.5165 128.331 23.8232C127.612 24.13 126.964 24.5846 126.432 25.1577C125.84 25.8148 125.383 26.5824 125.089 27.4165C124.795 28.2505 124.668 29.1345 124.717 30.0176C124.667 30.9129 124.795 31.809 125.093 32.6546C125.391 33.5002 125.854 34.2783 126.454 34.9444C126.996 35.5256 127.653 35.9864 128.385 36.297C129.116 36.6076 129.904 36.761 130.699 36.7472C132.003 36.813 133.284 36.3806 134.282 35.5375C135.125 34.8099 135.743 33.8564 136.063 32.7893L140.548 34.4167C139.934 36.364 138.746 38.0806 137.14 39.3422C135.304 40.7706 133.022 41.5029 130.697 41.4095C129.228 41.4434 127.767 41.1716 126.408 40.6113C125.049 40.051 123.821 39.2145 122.802 38.1547C121.751 37.0828 120.927 35.8097 120.379 34.4118C119.831 33.0138 119.571 31.5197 119.614 30.0189C119.565 28.521 119.818 27.0286 120.358 25.6307C120.899 24.2328 121.715 22.9582 122.759 21.8831C123.767 20.836 124.981 20.0097 126.325 19.4567C127.668 18.9036 129.112 18.6358 130.565 18.6703C132.918 18.5679 135.231 19.3001 137.096 20.7376C138.701 21.9924 139.852 23.7377 140.373 25.7075L135.801 27.3782C135.523 26.287 134.935 25.2997 134.108 24.5361C133.135 23.7137 131.881 23.2976 130.61 23.377ZM151.538 12.7785V19.3277H155.987V23.8577H151.538V33.7976C151.505 34.1654 151.546 34.5361 151.66 34.8875C151.773 35.2389 151.956 35.5638 152.198 35.8427C152.779 36.3154 153.52 36.5441 154.266 36.4803C154.857 36.4801 155.446 36.4213 156.025 36.3048V40.5272C155.026 40.8892 153.965 41.0533 152.903 41.0104C152.045 41.0581 151.186 40.9329 150.378 40.6421C149.57 40.3512 148.828 39.9008 148.197 39.3175C147.607 38.6952 147.15 37.9587 146.855 37.1533C146.56 36.3478 146.433 35.4906 146.482 34.6342V23.859H142.528V19.3289H146.618L146.58 12.7723L151.538 12.7785ZM166.162 35.0098C166.7 35.5967 167.357 36.0629 168.088 36.3775C168.82 36.6921 169.61 36.848 170.406 36.835C171.201 36.8487 171.989 36.6953 172.72 36.3847C173.451 36.0741 174.109 35.6133 174.651 35.0321C175.256 34.3516 175.72 33.5586 176.019 32.6984C176.317 31.8382 176.442 30.9277 176.388 30.0189C176.441 29.121 176.314 28.2216 176.016 27.3731C175.718 26.5245 175.254 25.7438 174.651 25.0761C174.106 24.5006 173.447 24.045 172.716 23.7384C171.985 23.4318 171.199 23.281 170.406 23.2955C169.614 23.281 168.827 23.4318 168.096 23.7384C167.365 24.045 166.707 24.5006 166.162 25.0761C165.559 25.7438 165.095 26.5245 164.797 27.3731C164.499 28.2216 164.372 29.121 164.424 30.0189C164.325 31.8474 164.951 33.6412 166.168 35.0098H166.162ZM170.406 18.6715C171.887 18.6253 173.361 18.887 174.735 19.44C176.109 19.993 177.353 20.8254 178.389 21.8843C179.433 22.9594 180.25 24.234 180.79 25.6319C181.33 27.0298 181.583 28.5223 181.534 30.0201C181.582 31.5208 181.328 33.0158 180.788 34.4166C180.248 35.8175 179.432 37.0957 178.389 38.1757C177.356 39.24 176.113 40.0773 174.738 40.6339C173.364 41.1905 171.888 41.4542 170.406 41.4083C168.931 41.4513 167.463 41.186 166.096 40.6293C164.729 40.0727 163.494 39.237 162.468 38.1757C161.425 37.0957 160.609 35.8175 160.069 34.4166C159.529 33.0158 159.275 31.5208 159.323 30.0201C159.274 28.5223 159.527 27.0298 160.067 25.6319C160.607 24.234 161.424 22.9594 162.468 21.8843C163.497 20.8278 164.735 19.9966 166.102 19.4435C167.47 18.8904 168.937 18.6276 170.411 18.6715H170.406ZM198.993 19.429L199 24.3285C198.444 24.2529 197.882 24.2289 197.321 24.2568C193.723 24.4471 191.65 27.6711 191.56 32.1579V40.7496H186.458V19.3314H191.428V22.9915C192.006 21.8934 192.872 20.973 193.932 20.3284C194.993 19.6838 196.208 19.3392 197.449 19.3314C197.968 19.2936 198.489 19.3268 198.999 19.4302L198.993 19.429Z" fill="white"/>
<path d="M38.8067 2.22276C38.102 1.51806 37.2654 0.959071 36.3447 0.577685C35.424 0.196298 34.4372 0 33.4406 0C32.4441 0 31.4573 0.196298 30.5366 0.577685C29.6159 0.959071 28.7793 1.51806 28.0747 2.22276C26.6516 0.799921 24.7216 0.000603365 22.7092 0.000603365C20.6969 0.000603365 18.767 0.799921 17.3439 2.22276C16.6392 2.92741 16.0802 3.76398 15.6988 4.68468C15.3174 5.60538 15.1211 6.59219 15.1211 7.58875C15.1211 8.58532 15.3174 9.57216 15.6988 10.4929C16.0802 11.4136 16.6392 12.2501 17.3439 12.9547L19.6546 15.2655L25.2288 20.8397C25.603 21.2139 26.0472 21.5108 26.5362 21.7134C27.0251 21.9159 27.5492 22.0201 28.0784 22.0201C28.6076 22.0201 29.1316 21.9159 29.6205 21.7134C30.1094 21.5108 30.5536 21.2139 30.9278 20.8397L36.5033 15.2643L38.8141 12.9535C40.2359 11.5295 41.0339 9.59896 41.0325 7.5866C41.0311 5.57425 40.2305 3.64484 38.8067 2.22276Z" fill="white"/>
<path d="M28.587 17.5757C28.5194 17.6433 28.4392 17.6969 28.3509 17.7335C28.2626 17.77 28.168 17.7888 28.0724 17.7888C27.9768 17.7888 27.8821 17.77 27.7938 17.7335C27.7055 17.6969 27.6253 17.6433 27.5577 17.5757L20.1436 10.1541C19.6905 9.70089 19.3649 9.13627 19.1995 8.51712C19.0342 7.89796 19.0351 7.24618 19.202 6.62745C19.278 6.33099 19.3957 6.0468 19.5517 5.78346C19.8711 5.22775 20.3313 4.76609 20.886 4.44501C21.4408 4.12392 22.0704 3.95476 22.7114 3.95462C23.1885 3.95333 23.6611 4.04671 24.1018 4.22934C24.5426 4.41197 24.9427 4.68023 25.2791 5.01858L28.0804 7.81865L30.8199 5.0791C31.4882 4.39531 32.3928 3.99299 33.3482 3.95462C33.9776 3.93656 34.601 4.08244 35.1571 4.37792C35.7131 4.6734 36.1829 5.10836 36.5202 5.64012C36.7571 6.00515 36.9223 6.41193 37.007 6.83874C37.1305 7.42961 37.1047 8.04192 36.9321 8.62033C36.7595 9.19874 36.4455 9.72502 36.0185 10.1516L28.587 17.5757Z" fill="white"/>
<path d="M56.1436 31.4691C56.1436 33.5101 55.3328 35.4676 53.8896 36.9109C52.4463 38.3541 50.4888 39.165 48.4477 39.165H45.2844V42.3481C45.2844 44.3892 44.4736 46.3467 43.0303 47.7899C41.5871 49.2332 39.6296 50.044 37.5885 50.044H37.5699C35.5289 50.044 33.5714 49.2332 32.1281 47.7899C30.6849 46.3467 29.874 44.3892 29.874 42.3481V27.7385C29.874 26.6872 30.2917 25.6789 31.0351 24.9354C31.7785 24.192 32.7868 23.7744 33.8381 23.7744H48.4477C50.4886 23.7744 52.4459 24.5851 53.8891 26.0281C55.3323 27.4711 56.1433 29.4282 56.1436 31.4691Z" fill="white"/>
<path d="M56.1467 31.4691C56.1467 33.5101 55.3359 35.4676 53.8926 36.9109C52.4493 38.3541 50.4918 39.165 48.4508 39.165H45.2849L31.0361 24.936C31.4038 24.5674 31.8407 24.275 32.3216 24.0757C32.8025 23.8764 33.3181 23.774 33.8387 23.7744H48.4483C49.459 23.7741 50.4599 23.9728 51.3938 24.3594C52.3277 24.7459 53.1764 25.3126 53.8912 26.0272C54.6061 26.7417 55.1732 27.5901 55.5602 28.5238C55.9472 29.4575 56.1465 30.4583 56.1467 31.4691Z" fill="white"/>
<path d="M0 31.471C0 33.5121 0.810838 35.4696 2.2541 36.9128C3.69736 38.3561 5.65485 39.1669 7.69593 39.1669H10.8593V42.3501C10.8593 44.3911 11.6701 46.3486 13.1134 47.7919C14.5567 49.2352 16.5141 50.046 18.5552 50.046H18.575C20.6161 50.046 22.5736 49.2352 24.0168 47.7919C25.4601 46.3486 26.2708 44.3911 26.2708 42.3501V27.7405C26.2708 26.6891 25.8532 25.6808 25.1098 24.9374C24.3664 24.194 23.3581 23.7764 22.3067 23.7764H7.69593C5.65506 23.7764 3.69777 24.587 2.25455 26.03C0.811326 27.473 0.000327692 29.4301 0 31.471Z" fill="white"/>
<path d="M0 31.471C0 33.5121 0.810838 35.4696 2.2541 36.9128C3.69736 38.3561 5.65485 39.1669 7.69593 39.1669H10.8593L25.1081 24.9379C24.7404 24.5694 24.3035 24.277 23.8226 24.0777C23.3417 23.8783 22.8261 23.776 22.3055 23.7764H7.69713C6.68649 23.7762 5.68573 23.9751 4.75196 24.3617C3.81818 24.7483 2.96967 25.315 2.25493 26.0296C1.54018 26.7441 0.973225 27.5924 0.58632 28.5261C0.199416 29.4597 0.00016226 30.4604 0 31.471Z" fill="white"/>
</svg>
