<svg width="203" height="70" viewBox="0 0 203 70" fill="none" xmlns="http://www.w3.org/2000/svg">
<path d="M113.027 12.3998C113.027 19.2479 107.475 24.7995 100.627 24.7995C93.7791 24.7995 88.2275 19.2479 88.2275 12.3998C88.2275 5.55156 93.7791 0 100.627 0C107.475 0 113.027 5.55156 113.027 12.3998ZM96.5669 12.3998C96.5669 14.6422 98.3848 16.4601 100.627 16.4601C102.87 16.4601 104.688 14.6422 104.688 12.3998C104.688 10.1573 102.87 8.3394 100.627 8.3394C98.3848 8.3394 96.5669 10.1573 96.5669 12.3998Z" fill="white"/>
<path d="M123.866 46.9043C123.866 43.6695 123.195 41.4248 122.403 38.232C121.61 35.0392 120.131 32.0573 118.07 29.4936C116.008 26.9299 113.413 24.8459 110.465 23.3865C107.516 21.9271 104.286 21.1272 100.997 21.0426C97.7083 20.9579 94.4406 21.5905 91.4211 22.8963C88.4016 24.202 85.7027 26.1497 83.512 28.604C81.3212 31.0582 79.6913 33.9601 78.7353 37.1079C77.7794 40.2557 77.6696 42.8817 78.1256 46.1397L88.5073 46.1397C88.2681 44.431 88.5432 41.8895 89.0446 40.2386C89.5459 38.5877 90.4008 37.0658 91.5497 35.7787C92.6986 34.4916 94.1141 33.4701 95.6976 32.7853C97.2812 32.1005 98.995 31.7687 100.72 31.8131C102.444 31.8575 104.139 32.277 105.685 33.0424C107.231 33.8078 108.592 34.9007 109.674 36.2453C110.755 37.5898 111.53 39.1537 111.946 40.8281C112.362 42.5026 112.955 45.0508 112.628 46.7449L123.866 46.9043Z" fill="white"/>
<path d="M109.305 45.2861C109.305 50.05 105.443 53.912 100.679 53.912C95.9147 53.912 92.0527 50.05 92.0527 45.2861C92.0527 40.5221 95.9147 36.6602 100.679 36.6602C105.443 36.6602 109.305 40.5221 109.305 45.2861ZM96.8985 45.2861C96.8985 47.3738 98.5909 49.0663 100.679 49.0663C102.766 49.0663 104.459 47.3738 104.459 45.2861C104.459 43.1983 102.766 41.5059 100.679 41.5059C98.5909 41.5059 96.8985 43.1983 96.8985 45.2861Z" fill="white"/>
<path d="M6.04212 60.0879C5.99924 59.6866 5.81851 59.3742 5.49994 59.1506C5.18443 58.927 4.77397 58.8151 4.26854 58.8151C3.91321 58.8151 3.60843 58.8688 3.35418 58.976C3.09994 59.0832 2.90543 59.2287 2.77065 59.4125C2.63587 59.5963 2.56695 59.8061 2.56388 60.042C2.56388 60.238 2.6083 60.408 2.69713 60.552C2.78903 60.6959 2.91308 60.8185 3.06931 60.9196C3.22553 61.0176 3.3986 61.1003 3.58852 61.1677C3.77843 61.2351 3.96988 61.2917 4.16286 61.3377L5.04506 61.5582C5.40039 61.6409 5.74193 61.7527 6.06969 61.8936C6.40052 62.0345 6.69611 62.2122 6.95648 62.4266C7.21992 62.6411 7.42821 62.8999 7.58137 63.2032C7.73453 63.5064 7.81111 63.8617 7.81111 64.2691C7.81111 64.8205 7.6702 65.306 7.38839 65.7257C7.10658 66.1423 6.69918 66.4685 6.16618 66.7044C5.63625 66.9372 4.99452 67.0536 4.24097 67.0536C3.50887 67.0536 2.87326 66.9402 2.33414 66.7136C1.79809 66.4869 1.37843 66.1561 1.07518 65.7211C0.774985 65.2861 0.612636 64.7562 0.588131 64.1313H2.26522C2.28973 64.4591 2.39081 64.7317 2.56848 64.9492C2.74614 65.1667 2.97741 65.329 3.26229 65.4362C3.55023 65.5434 3.87186 65.597 4.22719 65.597C4.59783 65.597 4.92253 65.5419 5.20128 65.4316C5.48309 65.3183 5.70364 65.1621 5.86293 64.9629C6.02221 64.7608 6.10339 64.5249 6.10645 64.2554C6.10339 64.0103 6.0314 63.8081 5.8905 63.6488C5.74959 63.4865 5.55202 63.3517 5.29777 63.2445C5.04659 63.1342 4.75253 63.0362 4.41558 62.9504L3.34499 62.6748C2.57001 62.4756 1.95737 62.1739 1.50708 61.7696C1.05986 61.3622 0.836248 60.8215 0.836248 60.1476C0.836248 59.5932 0.986344 59.1077 1.28654 58.6911C1.58979 58.2745 2.00179 57.9513 2.52253 57.7216C3.04327 57.4888 3.63293 57.3724 4.29152 57.3724C4.95929 57.3724 5.54436 57.4888 6.04672 57.7216C6.55214 57.9513 6.94883 58.2714 7.23676 58.6819C7.5247 59.0893 7.67327 59.558 7.68246 60.0879H6.04212ZM12.7815 59.8536V61.1401H8.72432V59.8536H12.7815ZM9.72598 58.1627H11.3893V64.7883C11.3893 65.012 11.423 65.1835 11.4904 65.303C11.5608 65.4194 11.6527 65.499 11.7661 65.5419C11.8794 65.5848 12.005 65.6062 12.1428 65.6062C12.247 65.6062 12.3419 65.5986 12.4277 65.5832C12.5165 65.5679 12.5839 65.5541 12.6299 65.5419L12.9102 66.8422C12.8213 66.8728 12.6942 66.9065 12.5288 66.9433C12.3664 66.9801 12.1673 67.0015 11.9315 67.0076C11.5149 67.0199 11.1396 66.9571 10.8058 66.8192C10.4719 66.6783 10.2069 66.4608 10.0109 66.1668C9.81788 65.8727 9.72292 65.5051 9.72598 65.064V58.1627ZM15.1972 67.0122C14.9185 67.0122 14.6795 66.9142 14.4804 66.7182C14.2813 66.5221 14.1833 66.2832 14.1864 66.0014C14.1833 65.7257 14.2813 65.4898 14.4804 65.2938C14.6795 65.0977 14.9185 64.9997 15.1972 64.9997C15.4668 64.9997 15.7011 65.0977 15.9002 65.2938C16.1024 65.4898 16.205 65.7257 16.2081 66.0014C16.205 66.1882 16.156 66.3582 16.061 66.5114C15.9691 66.6645 15.8466 66.7871 15.6934 66.879C15.5433 66.9678 15.3779 67.0122 15.1972 67.0122ZM24.6303 57.501H26.3211V64.1175C26.3181 64.724 26.1894 65.2463 25.9352 65.6843C25.6809 66.1193 25.3256 66.4547 24.8692 66.6906C24.4158 66.9234 23.8874 67.0398 23.284 67.0398C22.7326 67.0398 22.2364 66.9418 21.7953 66.7457C21.3573 66.5466 21.0096 66.2525 20.7523 65.8635C20.495 65.4745 20.3663 64.9905 20.3663 64.4116H22.0618C22.0649 64.6658 22.12 64.8848 22.2272 65.0686C22.3375 65.2524 22.4891 65.3933 22.6821 65.4913C22.8751 65.5894 23.0971 65.6384 23.3483 65.6384C23.621 65.6384 23.8522 65.5817 24.0421 65.4684C24.2321 65.352 24.376 65.1804 24.474 64.9538C24.5751 64.7271 24.6272 64.4483 24.6303 64.1175V57.501ZM32.5953 63.9429V59.8536H34.2586V66.9111H32.6458V65.6568H32.5723C32.413 66.0519 32.1511 66.3751 31.7866 66.6263C31.4252 66.8774 30.9795 67.003 30.4495 67.003C29.987 67.003 29.5781 66.9004 29.2227 66.6952C28.8705 66.4869 28.5948 66.1852 28.3957 65.79C28.1966 65.3918 28.097 64.9109 28.097 64.3473V59.8536H29.7603V64.0899C29.7603 64.5372 29.8829 64.8925 30.1279 65.1559C30.373 65.4194 30.6946 65.5511 31.0928 65.5511C31.3379 65.5511 31.5753 65.4913 31.805 65.3719C32.0347 65.2524 32.2231 65.0748 32.3702 64.8389C32.5203 64.6 32.5953 64.3013 32.5953 63.9429ZM38.588 67.0352C38.0336 67.0352 37.5374 66.8928 37.0993 66.6079C36.6613 66.323 36.3152 65.9095 36.0609 65.3673C35.8067 64.8251 35.6795 64.1665 35.6795 63.3915C35.6795 62.6074 35.8082 61.9457 36.0655 61.4066C36.3259 60.8644 36.6766 60.4555 37.1177 60.1798C37.5588 59.901 38.0504 59.7617 38.5926 59.7617C39.0062 59.7617 39.3462 59.8321 39.6127 59.973C39.8792 60.1109 40.0905 60.2778 40.2467 60.4739C40.403 60.6668 40.524 60.8491 40.6097 61.0206H40.6787V57.501H42.3466V66.9111H40.7108V65.7992H40.6097C40.524 65.9707 40.3999 66.153 40.2376 66.346C40.0752 66.5359 39.8608 66.6982 39.5943 66.833C39.3278 66.9678 38.9924 67.0352 38.588 67.0352ZM39.0521 65.6705C39.4044 65.6705 39.7046 65.5756 39.9527 65.3857C40.2008 65.1927 40.3892 64.9247 40.5178 64.5816C40.6465 64.2385 40.7108 63.8388 40.7108 63.3823C40.7108 62.9259 40.6465 62.5293 40.5178 62.1923C40.3922 61.8554 40.2054 61.5935 39.9573 61.4066C39.7122 61.2197 39.4105 61.1263 39.0521 61.1263C38.6815 61.1263 38.3721 61.2228 38.124 61.4158C37.8758 61.6088 37.689 61.8753 37.5634 62.2153C37.4378 62.5553 37.375 62.9443 37.375 63.3823C37.375 63.8234 37.4378 64.2171 37.5634 64.5632C37.6921 64.9063 37.8804 65.1774 38.1286 65.3765C38.3797 65.5725 38.6876 65.6705 39.0521 65.6705ZM47.2434 67.049C46.5358 67.049 45.9247 66.9019 45.4101 66.6079C44.8986 66.3107 44.505 65.8911 44.2293 65.3489C43.9536 64.8037 43.8157 64.1619 43.8157 63.4237C43.8157 62.6977 43.9536 62.0606 44.2293 61.5123C44.508 60.9609 44.897 60.5321 45.3963 60.2257C45.8956 59.9164 46.4822 59.7617 47.1561 59.7617C47.5911 59.7617 48.0016 59.8321 48.3875 59.973C48.7766 60.1109 49.1196 60.3253 49.4168 60.6163C49.717 60.9073 49.9528 61.2779 50.1244 61.7282C50.2959 62.1755 50.3817 62.7084 50.3817 63.3272V63.8372H44.5968V62.7161H48.7873C48.7842 62.3975 48.7153 62.1142 48.5805 61.8661C48.4457 61.6149 48.2573 61.4173 48.0154 61.2733C47.7764 61.1294 47.4977 61.0574 47.1791 61.0574C46.8391 61.0574 46.5404 61.1401 46.2831 61.3055C46.0258 61.4679 45.8252 61.6823 45.6812 61.9488C45.5403 62.2122 45.4683 62.5017 45.4653 62.8172V63.7959C45.4653 64.2063 45.5403 64.5586 45.6904 64.8527C45.8405 65.1437 46.0503 65.3673 46.3199 65.5235C46.5894 65.6767 46.905 65.7533 47.2664 65.7533C47.5084 65.7533 47.7274 65.7196 47.9235 65.6522C48.1195 65.5817 48.2895 65.4791 48.4335 65.3443C48.5774 65.2095 48.6862 65.0426 48.7597 64.8435L50.3127 65.0181C50.2147 65.4286 50.0279 65.7869 49.7522 66.0933C49.4796 66.3965 49.1304 66.6324 48.7046 66.8009C48.2788 66.9663 47.7917 67.049 47.2434 67.049ZM56.7764 57.501V66.9111H55.0718V57.501H56.7764ZM60.2122 62.7758V66.9111H58.5489V59.8536H60.1387V61.0528H60.2214C60.3837 60.6576 60.6426 60.3437 60.9979 60.1109C61.3563 59.8781 61.7989 59.7617 62.3258 59.7617C62.8128 59.7617 63.2371 59.8658 63.5985 60.0741C63.963 60.2824 64.2449 60.5841 64.444 60.9793C64.6461 61.3744 64.7457 61.8538 64.7426 62.4174V66.9111H63.0793V62.6748C63.0793 62.203 62.9568 61.8339 62.7117 61.5674C62.4697 61.3009 62.1343 61.1677 61.7055 61.1677C61.4145 61.1677 61.1556 61.232 60.929 61.3606C60.7054 61.4862 60.5292 61.6685 60.4006 61.9074C60.275 62.1464 60.2122 62.4358 60.2122 62.7758ZM69.0525 67.0352C68.4981 67.0352 68.0018 66.8928 67.5638 66.6079C67.1258 66.323 66.7796 65.9095 66.5254 65.3673C66.2712 64.8251 66.144 64.1665 66.144 63.3915C66.144 62.6074 66.2727 61.9457 66.53 61.4066C66.7904 60.8644 67.1411 60.4555 67.5822 60.1798C68.0233 59.901 68.5149 59.7617 69.0571 59.7617C69.4706 59.7617 69.8107 59.8321 70.0772 59.973C70.3437 60.1109 70.555 60.2778 70.7112 60.4739C70.8675 60.6668 70.9885 60.8491 71.0742 61.0206H71.1431V57.501H72.811V66.9111H71.1753V65.7992H71.0742C70.9885 65.9707 70.8644 66.153 70.702 66.346C70.5397 66.5359 70.3253 66.6982 70.0588 66.833C69.7923 66.9678 69.4569 67.0352 69.0525 67.0352ZM69.5166 65.6705C69.8689 65.6705 70.169 65.5756 70.4172 65.3857C70.6653 65.1927 70.8537 64.9247 70.9823 64.5816C71.111 64.2385 71.1753 63.8388 71.1753 63.3823C71.1753 62.9259 71.111 62.5293 70.9823 62.1923C70.8567 61.8554 70.6699 61.5935 70.4218 61.4066C70.1767 61.2197 69.875 61.1263 69.5166 61.1263C69.1459 61.1263 68.8366 61.2228 68.5884 61.4158C68.3403 61.6088 68.1535 61.8753 68.0279 62.2153C67.9023 62.5553 67.8395 62.9443 67.8395 63.3823C67.8395 63.8234 67.9023 64.2171 68.0279 64.5632C68.1565 64.9063 68.3449 65.1774 68.593 65.3765C68.8442 65.5725 69.1521 65.6705 69.5166 65.6705ZM74.5835 66.9111V59.8536H76.2468V66.9111H74.5835ZM75.4197 58.8519C75.1563 58.8519 74.9296 58.7646 74.7397 58.59C74.5498 58.4123 74.4548 58.1994 74.4548 57.9513C74.4548 57.7001 74.5498 57.4873 74.7397 57.3127C74.9296 57.135 75.1563 57.0462 75.4197 57.0462C75.6862 57.0462 75.9129 57.135 76.0997 57.3127C76.2897 57.4873 76.3846 57.7001 76.3846 57.9513C76.3846 58.1994 76.2897 58.4123 76.0997 58.59C75.9129 58.7646 75.6862 58.8519 75.4197 58.8519ZM79.9881 67.0536C79.5408 67.0536 79.138 66.9739 78.7796 66.8146C78.4243 66.6523 78.1425 66.4134 77.9342 66.0979C77.729 65.7824 77.6264 65.3933 77.6264 64.9308C77.6264 64.5326 77.6999 64.2033 77.8469 63.9429C77.9939 63.6825 78.1946 63.4742 78.4488 63.318C78.7031 63.1618 78.9895 63.0439 79.308 62.9642C79.6297 62.8815 79.962 62.8218 80.3051 62.785C80.7186 62.7421 81.0541 62.7039 81.3114 62.6702C81.5687 62.6334 81.7555 62.5783 81.8719 62.5047C81.9914 62.4282 82.0511 62.3102 82.0511 62.1509V62.1234C82.0511 61.7772 81.9485 61.5092 81.7433 61.3193C81.538 61.1294 81.2424 61.0344 80.8565 61.0344C80.4491 61.0344 80.1259 61.1233 79.887 61.3009C79.6511 61.4786 79.4918 61.6884 79.4091 61.9304L77.8561 61.7099C77.9786 61.281 78.1808 60.9226 78.4626 60.6347C78.7444 60.3437 79.089 60.1262 79.4964 59.9822C79.9038 59.8352 80.3541 59.7617 80.8473 59.7617C81.1873 59.7617 81.5258 59.8015 81.8627 59.8811C82.1997 59.9608 82.5075 60.0925 82.7863 60.2763C83.065 60.457 83.2886 60.7036 83.4571 61.016C83.6287 61.3285 83.7144 61.719 83.7144 62.1877V66.9111H82.1154V65.9416H82.0603C81.9592 66.1377 81.8168 66.3215 81.633 66.493C81.4523 66.6615 81.2241 66.7978 80.9484 66.9019C80.6758 67.003 80.3557 67.0536 79.9881 67.0536ZM80.42 65.8314C80.7539 65.8314 81.0433 65.7655 81.2884 65.6338C81.5334 65.499 81.7218 65.3213 81.8535 65.1008C81.9883 64.8802 82.0557 64.6398 82.0557 64.3794V63.5478C82.0036 63.5906 81.9148 63.6305 81.7892 63.6672C81.6667 63.704 81.5289 63.7361 81.3757 63.7637C81.2225 63.7913 81.0709 63.8158 80.9208 63.8372C80.7707 63.8587 80.6405 63.8771 80.5303 63.8924C80.2821 63.9261 80.0601 63.9812 79.864 64.0578C79.668 64.1344 79.5133 64.2416 79.3999 64.3794C79.2866 64.5142 79.2299 64.6888 79.2299 64.9032C79.2299 65.2095 79.3417 65.4408 79.5654 65.597C79.789 65.7533 80.0738 65.8314 80.42 65.8314ZM96.7245 60.676H95.0061C94.9571 60.3942 94.8667 60.1446 94.735 59.9271C94.6033 59.7065 94.4394 59.5197 94.2433 59.3665C94.0473 59.2134 93.8237 59.0985 93.5725 59.0219C93.3244 58.9423 93.0564 58.9024 92.7684 58.9024C92.2569 58.9024 91.8035 59.0311 91.4084 59.2884C91.0132 59.5427 90.7038 59.9164 90.4802 60.4095C90.2566 60.8996 90.1448 61.4985 90.1448 62.2061C90.1448 62.9259 90.2566 63.5324 90.4802 64.0256C90.7069 64.5157 91.0163 64.8864 91.4084 65.1376C91.8035 65.3857 92.2553 65.5097 92.7638 65.5097C93.0456 65.5097 93.3091 65.473 93.5541 65.3995C93.8022 65.3229 94.0243 65.2111 94.2204 65.064C94.4195 64.917 94.5864 64.7363 94.7212 64.5219C94.859 64.3074 94.954 64.0624 95.0061 63.7867L96.7245 63.7959C96.6602 64.2431 96.5208 64.6628 96.3064 65.0548C96.095 65.4469 95.8178 65.7931 95.4747 66.0933C95.1317 66.3904 94.7304 66.6232 94.2709 66.7917C93.8114 66.9571 93.3014 67.0398 92.7409 67.0398C91.9138 67.0398 91.1756 66.8483 90.5262 66.4654C89.8768 66.0825 89.3652 65.5296 88.9915 64.8067C88.6178 64.0838 88.431 63.2169 88.431 62.2061C88.431 61.1922 88.6193 60.3253 88.9961 59.6054C89.3729 58.8825 89.886 58.3296 90.5354 57.9467C91.1848 57.5638 91.9199 57.3724 92.7409 57.3724C93.2647 57.3724 93.7517 57.4459 94.202 57.5929C94.6523 57.74 95.0536 57.9559 95.4058 58.2408C95.7581 58.5226 96.0476 58.8688 96.2742 59.2792C96.504 59.6866 96.6541 60.1522 96.7245 60.676ZM99.8754 62.7758V66.9111H98.2121V57.501H99.8386V61.0528H99.9213C100.087 60.6546 100.343 60.3406 100.689 60.1109C101.038 59.8781 101.482 59.7617 102.021 59.7617C102.511 59.7617 102.939 59.8643 103.303 60.0695C103.668 60.2748 103.949 60.5749 104.149 60.9701C104.351 61.3652 104.452 61.8477 104.452 62.4174V66.9111H102.788V62.6748C102.788 62.2 102.666 61.8308 102.421 61.5674C102.179 61.3009 101.839 61.1677 101.401 61.1677C101.107 61.1677 100.843 61.232 100.611 61.3606C100.381 61.4862 100.2 61.6685 100.068 61.9074C99.9397 62.1464 99.8754 62.4358 99.8754 62.7758ZM106.147 66.9111V59.8536H107.811V66.9111H106.147ZM106.984 58.8519C106.72 58.8519 106.493 58.7646 106.303 58.59C106.114 58.4123 106.019 58.1994 106.019 57.9513C106.019 57.7001 106.114 57.4873 106.303 57.3127C106.493 57.135 106.72 57.0462 106.984 57.0462C107.25 57.0462 107.477 57.135 107.664 57.3127C107.853 57.4873 107.948 57.7001 107.948 57.9513C107.948 58.1994 107.853 58.4123 107.664 58.59C107.477 58.7646 107.25 58.8519 106.984 58.8519ZM111.184 57.501V66.9111H109.521V57.501H111.184ZM115.514 67.0352C114.959 67.0352 114.463 66.8928 114.025 66.6079C113.587 66.323 113.241 65.9095 112.987 65.3673C112.732 64.8251 112.605 64.1665 112.605 63.3915C112.605 62.6074 112.734 61.9457 112.991 61.4066C113.252 60.8644 113.602 60.4555 114.043 60.1798C114.484 59.901 114.976 59.7617 115.518 59.7617C115.932 59.7617 116.272 59.8321 116.538 59.973C116.805 60.1109 117.016 60.2778 117.172 60.4739C117.329 60.6668 117.45 60.8491 117.535 61.0206H117.604V57.501H119.272V66.9111H117.636V65.7992H117.535C117.45 65.9707 117.326 66.153 117.163 66.346C117.001 66.5359 116.786 66.6982 116.52 66.833C116.253 66.9678 115.918 67.0352 115.514 67.0352ZM115.978 65.6705C116.33 65.6705 116.63 65.5756 116.878 65.3857C117.126 65.1927 117.315 64.9247 117.443 64.5816C117.572 64.2385 117.636 63.8388 117.636 63.3823C117.636 62.9259 117.572 62.5293 117.443 62.1923C117.318 61.8554 117.131 61.5935 116.883 61.4066C116.638 61.2197 116.336 61.1263 115.978 61.1263C115.607 61.1263 115.298 61.2228 115.05 61.4158C114.802 61.6088 114.615 61.8753 114.489 62.2153C114.363 62.5553 114.301 62.9443 114.301 63.3823C114.301 63.8234 114.363 64.2171 114.489 64.5632C114.618 64.9063 114.806 65.1774 115.054 65.3765C115.305 65.5725 115.613 65.6705 115.978 65.6705ZM129.173 60.676H127.454C127.405 60.3942 127.315 60.1446 127.183 59.9271C127.052 59.7065 126.888 59.5197 126.692 59.3665C126.496 59.2134 126.272 59.0985 126.021 59.0219C125.773 58.9423 125.505 58.9024 125.217 58.9024C124.705 58.9024 124.252 59.0311 123.857 59.2884C123.461 59.5427 123.152 59.9164 122.929 60.4095C122.705 60.8996 122.593 61.4985 122.593 62.2061C122.593 62.9259 122.705 63.5324 122.929 64.0256C123.155 64.5157 123.465 64.8864 123.857 65.1376C124.252 65.3857 124.704 65.5097 125.212 65.5097C125.494 65.5097 125.757 65.473 126.002 65.3995C126.251 65.3229 126.473 65.2111 126.669 65.064C126.868 64.917 127.035 64.7363 127.169 64.5219C127.307 64.3074 127.402 64.0624 127.454 63.7867L129.173 63.7959C129.108 64.2431 128.969 64.6628 128.755 65.0548C128.543 65.4469 128.266 65.7931 127.923 66.0933C127.58 66.3904 127.179 66.6232 126.719 66.7917C126.26 66.9571 125.75 67.0398 125.189 67.0398C124.362 67.0398 123.624 66.8483 122.974 66.4654C122.325 66.0825 121.814 65.5296 121.44 64.8067C121.066 64.0838 120.879 63.2169 120.879 62.2061C120.879 61.1922 121.068 60.3253 121.444 59.6054C121.821 58.8825 122.334 58.3296 122.984 57.9467C123.633 57.5638 124.368 57.3724 125.189 57.3724C125.713 57.3724 126.2 57.4459 126.65 57.5929C127.101 57.74 127.502 57.9559 127.854 58.2408C128.206 58.5226 128.496 58.8688 128.723 59.2792C128.952 59.6866 129.102 60.1522 129.173 60.676ZM132.691 67.0536C132.244 67.0536 131.841 66.9739 131.483 66.8146C131.127 66.6523 130.846 66.4134 130.637 66.0979C130.432 65.7824 130.33 65.3933 130.33 64.9308C130.33 64.5326 130.403 64.2033 130.55 63.9429C130.697 63.6825 130.898 63.4742 131.152 63.318C131.406 63.1618 131.693 63.0439 132.011 62.9642C132.333 62.8815 132.665 62.8218 133.008 62.785C133.422 62.7421 133.757 62.7039 134.015 62.6702C134.272 62.6334 134.459 62.5783 134.575 62.5047C134.695 62.4282 134.754 62.3102 134.754 62.1509V62.1234C134.754 61.7772 134.652 61.5092 134.446 61.3193C134.241 61.1294 133.946 61.0344 133.56 61.0344C133.152 61.0344 132.829 61.1233 132.59 61.3009C132.354 61.4786 132.195 61.6884 132.112 61.9304L130.559 61.7099C130.682 61.281 130.884 60.9226 131.166 60.6347C131.448 60.3437 131.792 60.1262 132.2 59.9822C132.607 59.8352 133.057 59.7617 133.55 59.7617C133.89 59.7617 134.229 59.8015 134.566 59.8811C134.903 59.9608 135.211 60.0925 135.489 60.2763C135.768 60.457 135.992 60.7036 136.16 61.016C136.332 61.3285 136.418 61.719 136.418 62.1877V66.9111H134.819V65.9416H134.763C134.662 66.1377 134.52 66.3215 134.336 66.493C134.155 66.6615 133.927 66.7978 133.652 66.9019C133.379 67.003 133.059 67.0536 132.691 67.0536ZM133.123 65.8314C133.457 65.8314 133.747 65.7655 133.992 65.6338C134.237 65.499 134.425 65.3213 134.557 65.1008C134.691 64.8802 134.759 64.6398 134.759 64.3794V63.5478C134.707 63.5906 134.618 63.6305 134.492 63.6672C134.37 63.704 134.232 63.7361 134.079 63.7637C133.926 63.7913 133.774 63.8158 133.624 63.8372C133.474 63.8587 133.344 63.8771 133.233 63.8924C132.985 63.9261 132.763 63.9812 132.567 64.0578C132.371 64.1344 132.216 64.2416 132.103 64.3794C131.99 64.5142 131.933 64.6888 131.933 64.9032C131.933 65.2095 132.045 65.4408 132.269 65.597C132.492 65.7533 132.777 65.8314 133.123 65.8314ZM138.09 66.9111V59.8536H139.703V61.0298H139.776C139.905 60.6224 140.126 60.3084 140.438 60.0879C140.754 59.8643 141.113 59.7525 141.518 59.7525C141.61 59.7525 141.712 59.7571 141.826 59.7663C141.942 59.7724 142.039 59.7831 142.115 59.7984V61.3285C142.045 61.304 141.933 61.2825 141.78 61.2642C141.63 61.2427 141.484 61.232 141.343 61.232C141.04 61.232 140.767 61.2979 140.525 61.4296C140.286 61.5582 140.098 61.7374 139.96 61.9672C139.822 62.1969 139.753 62.4619 139.753 62.7621V66.9111H138.09ZM146.054 67.049C145.346 67.049 144.735 66.9019 144.221 66.6079C143.709 66.3107 143.316 65.8911 143.04 65.3489C142.764 64.8037 142.626 64.1619 142.626 63.4237C142.626 62.6977 142.764 62.0606 143.04 61.5123C143.319 60.9609 143.708 60.5321 144.207 60.2257C144.706 59.9164 145.293 59.7617 145.967 59.7617C146.402 59.7617 146.812 59.8321 147.198 59.973C147.587 60.1109 147.93 60.3253 148.227 60.6163C148.528 60.9073 148.763 61.2779 148.935 61.7282C149.106 62.1755 149.192 62.7084 149.192 63.3272V63.8372H143.407V62.7161H147.598C147.595 62.3975 147.526 62.1142 147.391 61.8661C147.256 61.6149 147.068 61.4173 146.826 61.2733C146.587 61.1294 146.308 61.0574 145.99 61.0574C145.65 61.0574 145.351 61.1401 145.094 61.3055C144.836 61.4679 144.636 61.6823 144.492 61.9488C144.351 62.2122 144.279 62.5017 144.276 62.8172V63.7959C144.276 64.2063 144.351 64.5586 144.501 64.8527C144.651 65.1437 144.861 65.3673 145.13 65.5235C145.4 65.6767 145.716 65.7533 146.077 65.7533C146.319 65.7533 146.538 65.7196 146.734 65.6522C146.93 65.5817 147.1 65.4791 147.244 65.3443C147.388 65.2095 147.497 65.0426 147.57 64.8435L149.123 65.0181C149.025 65.4286 148.838 65.7869 148.563 66.0933C148.29 66.3965 147.941 66.6324 147.515 66.8009C147.089 66.9663 146.602 67.049 146.054 67.049ZM161.937 60.676H160.219C160.17 60.3942 160.079 60.1446 159.947 59.9271C159.816 59.7065 159.652 59.5197 159.456 59.3665C159.26 59.2134 159.036 59.0985 158.785 59.0219C158.537 58.9423 158.269 58.9024 157.981 58.9024C157.469 58.9024 157.016 59.0311 156.621 59.2884C156.226 59.5427 155.916 59.9164 155.693 60.4095C155.469 60.8996 155.357 61.4985 155.357 62.2061C155.357 62.9259 155.469 63.5324 155.693 64.0256C155.919 64.5157 156.229 64.8864 156.621 65.1376C157.016 65.3857 157.468 65.5097 157.976 65.5097C158.258 65.5097 158.522 65.473 158.767 65.3995C159.015 65.3229 159.237 65.2111 159.433 65.064C159.632 64.917 159.799 64.7363 159.934 64.5219C160.071 64.3074 160.166 64.0624 160.219 63.7867L161.937 63.7959C161.873 64.2431 161.733 64.6628 161.519 65.0548C161.307 65.4469 161.03 65.7931 160.687 66.0933C160.344 66.3904 159.943 66.6232 159.483 66.7917C159.024 66.9571 158.514 67.0398 157.953 67.0398C157.126 67.0398 156.388 66.8483 155.739 66.4654C155.089 66.0825 154.578 65.5296 154.204 64.8067C153.83 64.0838 153.643 63.2169 153.643 62.2061C153.643 61.1922 153.832 60.3253 154.209 59.6054C154.585 58.8825 155.098 58.3296 155.748 57.9467C156.397 57.5638 157.132 57.3724 157.953 57.3724C158.477 57.3724 158.964 57.4459 159.414 57.5929C159.865 57.74 160.266 57.9559 160.618 58.2408C160.971 58.5226 161.26 58.8688 161.487 59.2792C161.716 59.6866 161.867 60.1522 161.937 60.676ZM166.549 67.049C165.841 67.049 165.23 66.9019 164.716 66.6079C164.204 66.3107 163.81 65.8911 163.535 65.3489C163.259 64.8037 163.121 64.1619 163.121 63.4237C163.121 62.6977 163.259 62.0606 163.535 61.5123C163.814 60.9609 164.203 60.5321 164.702 60.2257C165.201 59.9164 165.788 59.7617 166.462 59.7617C166.897 59.7617 167.307 59.8321 167.693 59.973C168.082 60.1109 168.425 60.3253 168.722 60.6163C169.022 60.9073 169.258 61.2779 169.43 61.7282C169.601 62.1755 169.687 62.7084 169.687 63.3272V63.8372H163.902V62.7161H168.093C168.09 62.3975 168.021 62.1142 167.886 61.8661C167.751 61.6149 167.563 61.4173 167.321 61.2733C167.082 61.1294 166.803 61.0574 166.485 61.0574C166.145 61.0574 165.846 61.1401 165.589 61.3055C165.331 61.4679 165.131 61.6823 164.987 61.9488C164.846 62.2122 164.774 62.5017 164.771 62.8172V63.7959C164.771 64.2063 164.846 64.5586 164.996 64.8527C165.146 65.1437 165.356 65.3673 165.625 65.5235C165.895 65.6767 166.21 65.7533 166.572 65.7533C166.814 65.7533 167.033 65.7196 167.229 65.6522C167.425 65.5817 167.595 65.4791 167.739 65.3443C167.883 65.2095 167.992 65.0426 168.065 64.8435L169.618 65.0181C169.52 65.4286 169.333 65.7869 169.058 66.0933C168.785 66.3965 168.436 66.6324 168.01 66.8009C167.584 66.9663 167.097 67.049 166.549 67.049ZM172.758 62.7758V66.9111H171.094V59.8536H172.684V61.0528H172.767C172.929 60.6576 173.188 60.3437 173.543 60.1109C173.902 59.8781 174.344 59.7617 174.871 59.7617C175.358 59.7617 175.783 59.8658 176.144 60.0741C176.509 60.2824 176.79 60.5841 176.989 60.9793C177.192 61.3744 177.291 61.8538 177.288 62.4174V66.9111H175.625V62.6748C175.625 62.203 175.502 61.8339 175.257 61.5674C175.015 61.3009 174.68 61.1677 174.251 61.1677C173.96 61.1677 173.701 61.232 173.474 61.3606C173.251 61.4862 173.075 61.6685 172.946 61.9074C172.82 62.1464 172.758 62.4358 172.758 62.7758ZM182.503 59.8536V61.1401H178.446V59.8536H182.503ZM179.448 58.1627H181.111V64.7883C181.111 65.012 181.145 65.1835 181.212 65.303C181.282 65.4194 181.374 65.499 181.488 65.5419C181.601 65.5848 181.727 65.6062 181.864 65.6062C181.969 65.6062 182.064 65.5986 182.149 65.5832C182.238 65.5679 182.306 65.5541 182.352 65.5419L182.632 66.8422C182.543 66.8728 182.416 66.9065 182.25 66.9433C182.088 66.9801 181.889 67.0015 181.653 67.0076C181.237 67.0199 180.861 66.9571 180.527 66.8192C180.194 66.6783 179.929 66.4608 179.733 66.1668C179.54 65.8727 179.445 65.5051 179.448 65.064V58.1627ZM183.894 66.9111V59.8536H185.507V61.0298H185.581C185.709 60.6224 185.93 60.3084 186.242 60.0879C186.558 59.8643 186.918 59.7525 187.322 59.7525C187.414 59.7525 187.516 59.7571 187.63 59.7663C187.746 59.7724 187.843 59.7831 187.919 59.7984V61.3285C187.849 61.304 187.737 61.2825 187.584 61.2642C187.434 61.2427 187.288 61.232 187.147 61.232C186.844 61.232 186.571 61.2979 186.329 61.4296C186.091 61.5582 185.902 61.7374 185.764 61.9672C185.626 62.1969 185.558 62.4619 185.558 62.7621V66.9111H183.894ZM191.858 67.049C191.151 67.049 190.539 66.9019 190.025 66.6079C189.513 66.3107 189.12 65.8911 188.844 65.3489C188.568 64.8037 188.43 64.1619 188.43 63.4237C188.43 62.6977 188.568 62.0606 188.844 61.5123C189.123 60.9609 189.512 60.5321 190.011 60.2257C190.51 59.9164 191.097 59.7617 191.771 59.7617C192.206 59.7617 192.616 59.8321 193.002 59.973C193.391 60.1109 193.734 60.3253 194.031 60.6163C194.332 60.9073 194.567 61.2779 194.739 61.7282C194.911 62.1755 194.996 62.7084 194.996 63.3272V63.8372H189.212V62.7161H193.402C193.399 62.3975 193.33 62.1142 193.195 61.8661C193.06 61.6149 192.872 61.4173 192.63 61.2733C192.391 61.1294 192.112 61.0574 191.794 61.0574C191.454 61.0574 191.155 61.1401 190.898 61.3055C190.641 61.4679 190.44 61.6823 190.296 61.9488C190.155 62.2122 190.083 62.5017 190.08 62.8172V63.7959C190.08 64.2063 190.155 64.5586 190.305 64.8527C190.455 65.1437 190.665 65.3673 190.935 65.5235C191.204 65.6767 191.52 65.7533 191.881 65.7533C192.123 65.7533 192.342 65.7196 192.538 65.6522C192.734 65.5817 192.904 65.4791 193.048 65.3443C193.192 65.2095 193.301 65.0426 193.374 64.8435L194.927 65.0181C194.829 65.4286 194.643 65.7869 194.367 66.0933C194.094 66.3965 193.745 66.6324 193.319 66.8009C192.893 66.9663 192.406 67.049 191.858 67.049ZM201.982 61.719L200.465 61.8845C200.422 61.7313 200.347 61.5873 200.24 61.4525C200.136 61.3178 199.995 61.209 199.817 61.1263C199.64 61.0436 199.422 61.0023 199.165 61.0023C198.819 61.0023 198.528 61.0773 198.292 61.2274C198.059 61.3775 197.944 61.572 197.947 61.8109C197.944 62.0162 198.019 62.1831 198.172 62.3118C198.329 62.4404 198.586 62.5461 198.944 62.6288L200.148 62.8861C200.816 63.0301 201.312 63.2583 201.637 63.5707C201.965 63.8832 202.13 64.2921 202.133 64.7975C202.13 65.2417 202 65.6338 201.743 65.9738C201.488 66.3107 201.135 66.5742 200.681 66.7641C200.228 66.954 199.707 67.049 199.119 67.049C198.255 67.049 197.56 66.8682 197.033 66.5068C196.506 66.1423 196.192 65.6353 196.091 64.9859L197.713 64.8297C197.787 65.1483 197.943 65.3887 198.182 65.5511C198.421 65.7134 198.732 65.7946 199.114 65.7946C199.51 65.7946 199.827 65.7134 200.066 65.5511C200.308 65.3887 200.429 65.1881 200.429 64.9492C200.429 64.747 200.35 64.5801 200.194 64.4483C200.041 64.3166 199.802 64.2155 199.477 64.1451L198.274 63.8924C197.597 63.7515 197.096 63.5141 196.771 63.1802C196.446 62.8432 196.286 62.4174 196.289 61.9028C196.286 61.4679 196.403 61.0911 196.642 60.7725C196.884 60.4509 197.22 60.2028 197.649 60.0282C198.081 59.8505 198.578 59.7617 199.142 59.7617C199.969 59.7617 200.62 59.9378 201.095 60.2901C201.573 60.6423 201.868 61.1187 201.982 61.719Z" fill="white"/>
</svg>
