<svg width="188" height="65" viewBox="0 0 188 65" fill="none" xmlns="http://www.w3.org/2000/svg">
<path d="M104.83 11.5C104.83 17.8513 99.6814 23 93.3301 23C86.9788 23 81.8301 17.8513 81.8301 11.5C81.8301 5.14873 86.9788 0 93.3301 0C99.6814 0 104.83 5.14873 104.83 11.5ZM89.5644 11.5C89.5644 13.5798 91.2503 15.2657 93.3301 15.2657C95.4098 15.2657 97.0958 13.5798 97.0958 11.5C97.0958 9.42025 95.4098 7.73427 93.3301 7.73427C91.2503 7.73427 89.5644 9.42025 89.5644 11.5Z" fill="#F58220"/>
<path d="M114.877 43.5C114.877 40.5 114.255 38.4182 113.52 35.457C112.784 32.4959 111.413 29.7304 109.501 27.3527C107.589 24.975 105.182 23.0423 102.448 21.6887C99.7137 20.3352 96.7173 19.5934 93.6673 19.5149C90.6172 19.4364 87.5867 20.023 84.7863 21.2341C81.9859 22.4451 79.4828 24.2515 77.451 26.5276C75.4193 28.8038 73.9076 31.4951 73.021 34.4145C72.1345 37.3339 72.0326 39.7693 72.4555 42.7909L82.0839 42.7909C81.8621 41.2062 82.1172 38.8491 82.5822 37.318C83.0471 35.7869 83.84 34.3755 84.9055 33.1817C85.9711 31.988 87.2838 31.0407 88.7525 30.4055C90.2212 29.7704 91.8105 29.4627 93.4101 29.5039C95.0097 29.5451 96.5812 29.9341 98.0152 30.644C99.4493 31.3538 100.712 32.3675 101.714 33.6144C102.717 34.8614 103.436 36.3118 103.822 37.8648C104.207 39.4178 104.757 41.7811 104.454 43.3522L114.877 43.5Z" fill="#F58220"/>
<path d="M101.377 42C101.377 46.4183 97.7952 50 93.377 50C88.9587 50 85.377 46.4183 85.377 42C85.377 37.5817 88.9587 34 93.377 34C97.7952 34 101.377 37.5817 101.377 42ZM89.8711 42C89.8711 43.9362 91.4407 45.5059 93.377 45.5059C95.3132 45.5059 96.8828 43.9362 96.8828 42C96.8828 40.0638 95.3132 38.4941 93.377 38.4941C91.4407 38.4941 89.8711 40.0638 89.8711 42Z" fill="#F58220"/>
<path d="M5.60369 55.6719C5.56392 55.2997 5.39631 55.0099 5.10085 54.8026C4.80824 54.5952 4.42756 54.4915 3.95881 54.4915C3.62926 54.4915 3.34659 54.5412 3.1108 54.6406C2.875 54.7401 2.6946 54.875 2.5696 55.0455C2.4446 55.2159 2.38068 55.4105 2.37784 55.6293C2.37784 55.8111 2.41903 55.9687 2.50142 56.1023C2.58665 56.2358 2.7017 56.3494 2.84659 56.4432C2.99148 56.5341 3.15199 56.6108 3.32812 56.6733C3.50426 56.7358 3.68182 56.7884 3.8608 56.831L4.67898 57.0355C5.00852 57.1122 5.32528 57.2159 5.62926 57.3466C5.93608 57.4773 6.21023 57.642 6.4517 57.8409C6.69602 58.0398 6.8892 58.2798 7.03125 58.5611C7.1733 58.8423 7.24432 59.1719 7.24432 59.5497C7.24432 60.0611 7.11364 60.5114 6.85227 60.9006C6.59091 61.2869 6.21307 61.5895 5.71875 61.8082C5.22727 62.0241 4.6321 62.1321 3.93324 62.1321C3.25426 62.1321 2.66477 62.027 2.16477 61.8168C1.66761 61.6065 1.27841 61.2997 0.997159 60.8963C0.71875 60.4929 0.568182 60.0014 0.545455 59.4219H2.10085C2.12358 59.7259 2.21733 59.9787 2.3821 60.1804C2.54688 60.3821 2.76136 60.5327 3.02557 60.6321C3.29261 60.7315 3.59091 60.7812 3.92045 60.7812C4.2642 60.7812 4.56534 60.7301 4.82386 60.6278C5.08523 60.5227 5.28977 60.3778 5.4375 60.1932C5.58523 60.0057 5.66051 59.7869 5.66335 59.5369C5.66051 59.3097 5.59375 59.1222 5.46307 58.9744C5.33239 58.8239 5.14915 58.6989 4.91335 58.5994C4.6804 58.4972 4.40767 58.4062 4.09517 58.3267L3.10227 58.071C2.38352 57.8864 1.81534 57.6065 1.39773 57.2315C0.982955 56.8537 0.775568 56.3523 0.775568 55.7273C0.775568 55.2131 0.914773 54.7628 1.19318 54.3764C1.47443 53.9901 1.85653 53.6903 2.33949 53.4773C2.82244 53.2614 3.36932 53.1534 3.98011 53.1534C4.59943 53.1534 5.14205 53.2614 5.60795 53.4773C6.0767 53.6903 6.4446 53.9872 6.71165 54.3679C6.97869 54.7457 7.11648 55.1804 7.125 55.6719H5.60369ZM11.854 55.4545V56.6477H8.09126V55.4545H11.854ZM9.02024 53.8864H10.5629V60.0312C10.5629 60.2386 10.5941 60.3977 10.6566 60.5085C10.7219 60.6165 10.8072 60.6903 10.9123 60.7301C11.0174 60.7699 11.1339 60.7898 11.2617 60.7898C11.3583 60.7898 11.4464 60.7827 11.5259 60.7685C11.6083 60.7543 11.6708 60.7415 11.7134 60.7301L11.9734 61.9361C11.891 61.9645 11.7731 61.9957 11.6197 62.0298C11.4691 62.0639 11.2844 62.0838 11.0657 62.0895C10.6793 62.1009 10.3313 62.0426 10.0217 61.9148C9.712 61.7841 9.46626 61.5824 9.28445 61.3097C9.10547 61.0369 9.0174 60.696 9.02024 60.2869V53.8864ZM14.0945 62.0938C13.8359 62.0938 13.6143 62.0028 13.4297 61.821C13.245 61.6392 13.1541 61.4176 13.157 61.1562C13.1541 60.9006 13.245 60.6818 13.4297 60.5C13.6143 60.3182 13.8359 60.2273 14.0945 60.2273C14.3445 60.2273 14.5618 60.3182 14.7464 60.5C14.9339 60.6818 15.0291 60.9006 15.032 61.1562C15.0291 61.3295 14.9837 61.4872 14.8956 61.6293C14.8104 61.7713 14.6967 61.8849 14.5547 61.9702C14.4155 62.0526 14.2621 62.0938 14.0945 62.0938ZM22.843 53.2727H24.4112V59.4091C24.4084 59.9716 24.2891 60.456 24.0533 60.8622C23.8175 61.2656 23.4879 61.5767 23.0646 61.7955C22.6442 62.0114 22.1541 62.1193 21.5945 62.1193C21.0831 62.1193 20.6229 62.0284 20.2138 61.8466C19.8075 61.6619 19.4851 61.3892 19.2464 61.0284C19.0078 60.6676 18.8885 60.2187 18.8885 59.6818H20.4609C20.4638 59.9176 20.5149 60.1207 20.6143 60.2912C20.7166 60.4616 20.8572 60.5923 21.0362 60.6832C21.2152 60.7741 21.4212 60.8196 21.6541 60.8196C21.907 60.8196 22.1214 60.767 22.2976 60.6619C22.4737 60.554 22.6072 60.3949 22.6982 60.1847C22.7919 59.9744 22.8402 59.7159 22.843 59.4091V53.2727ZM30.2301 59.2472V55.4545H31.7727V62H30.277V60.8366H30.2088C30.0611 61.2031 29.8182 61.5028 29.4801 61.7358C29.1449 61.9687 28.7315 62.0852 28.2401 62.0852C27.8111 62.0852 27.4318 61.9901 27.1023 61.7997C26.7756 61.6065 26.5199 61.3267 26.3352 60.9602C26.1506 60.5909 26.0582 60.1449 26.0582 59.6222V55.4545H27.6009V59.3835C27.6009 59.7983 27.7145 60.1278 27.9418 60.3722C28.169 60.6165 28.4673 60.7386 28.8366 60.7386C29.0639 60.7386 29.2841 60.6832 29.4972 60.5724C29.7102 60.4616 29.8849 60.2969 30.0213 60.0781C30.1605 59.8565 30.2301 59.5795 30.2301 59.2472ZM35.788 62.1151C35.2738 62.1151 34.8136 61.983 34.4073 61.7188C34.0011 61.4545 33.68 61.071 33.4442 60.5682C33.2085 60.0653 33.0906 59.4545 33.0906 58.7358C33.0906 58.0085 33.2099 57.3949 33.4485 56.8949C33.69 56.392 34.0153 56.0128 34.4244 55.7571C34.8335 55.4986 35.2894 55.3693 35.7923 55.3693C36.1758 55.3693 36.4911 55.4347 36.7383 55.5653C36.9854 55.6932 37.1815 55.848 37.3263 56.0298C37.4712 56.2088 37.5835 56.3778 37.663 56.5369H37.7269V53.2727H39.2738V62H37.7567V60.9688H37.663C37.5835 61.1278 37.4684 61.2969 37.3178 61.4759C37.1673 61.652 36.9684 61.8026 36.7212 61.9276C36.4741 62.0526 36.163 62.1151 35.788 62.1151ZM36.2184 60.8494C36.5451 60.8494 36.8235 60.7614 37.0536 60.5852C37.2837 60.4062 37.4585 60.1577 37.5778 59.8395C37.6971 59.5213 37.7567 59.1506 37.7567 58.7273C37.7567 58.304 37.6971 57.9361 37.5778 57.6236C37.4613 57.3111 37.288 57.0682 37.0579 56.8949C36.8306 56.7216 36.5508 56.6349 36.2184 56.6349C35.8746 56.6349 35.5877 56.7244 35.3576 56.9034C35.1275 57.0824 34.9542 57.3295 34.8377 57.6449C34.7212 57.9602 34.663 58.321 34.663 58.7273C34.663 59.1364 34.7212 59.5014 34.8377 59.8224C34.957 60.1406 35.1317 60.392 35.3619 60.5767C35.5948 60.7585 35.8803 60.8494 36.2184 60.8494ZM43.8153 62.1278C43.1591 62.1278 42.5923 61.9915 42.1151 61.7188C41.6406 61.4432 41.2756 61.054 41.0199 60.5511C40.7642 60.0455 40.6364 59.4503 40.6364 58.7656C40.6364 58.0923 40.7642 57.5014 41.0199 56.9929C41.2784 56.4815 41.6392 56.0838 42.1023 55.7997C42.5653 55.5128 43.1094 55.3693 43.7344 55.3693C44.1378 55.3693 44.5185 55.4347 44.8764 55.5653C45.2372 55.6932 45.5554 55.892 45.831 56.1619C46.1094 56.4318 46.3281 56.7756 46.4872 57.1932C46.6463 57.608 46.7259 58.1023 46.7259 58.6761V59.1491H41.3608V58.1094H45.2472C45.2443 57.8139 45.1804 57.5511 45.0554 57.321C44.9304 57.0881 44.7557 56.9048 44.5312 56.7713C44.3097 56.6378 44.0511 56.571 43.7557 56.571C43.4403 56.571 43.1634 56.6477 42.9247 56.8011C42.6861 56.9517 42.5 57.1506 42.3665 57.3977C42.2358 57.642 42.169 57.9105 42.1662 58.2031V59.1108C42.1662 59.4915 42.2358 59.8182 42.375 60.0909C42.5142 60.3608 42.7088 60.5682 42.9588 60.7131C43.2088 60.8551 43.5014 60.9261 43.8366 60.9261C44.0611 60.9261 44.2642 60.8949 44.446 60.8324C44.6278 60.767 44.7855 60.6719 44.919 60.5469C45.0526 60.4219 45.1534 60.267 45.2216 60.0824L46.6619 60.2443C46.571 60.625 46.3977 60.9574 46.142 61.2415C45.8892 61.5227 45.5653 61.7415 45.1705 61.8977C44.7756 62.0511 44.3239 62.1278 43.8153 62.1278ZM52.6566 53.2727V62H51.0756V53.2727H52.6566ZM55.843 58.1648V62H54.3004V55.4545H55.7749V56.5668H55.8516C56.0021 56.2003 56.2422 55.9091 56.5717 55.6932C56.9041 55.4773 57.3146 55.3693 57.8033 55.3693C58.255 55.3693 58.6484 55.4659 58.9837 55.6591C59.3217 55.8523 59.5831 56.1321 59.7678 56.4986C59.9553 56.8651 60.0476 57.3097 60.0447 57.8324V62H58.5021V58.071C58.5021 57.6335 58.3885 57.2912 58.1612 57.044C57.9368 56.7969 57.6257 56.6733 57.228 56.6733C56.9581 56.6733 56.718 56.733 56.5078 56.8523C56.3004 56.9687 56.1371 57.1378 56.0178 57.3594C55.9013 57.581 55.843 57.8494 55.843 58.1648ZM64.0419 62.1151C63.5277 62.1151 63.0675 61.983 62.6612 61.7188C62.255 61.4545 61.9339 61.071 61.6982 60.5682C61.4624 60.0653 61.3445 59.4545 61.3445 58.7358C61.3445 58.0085 61.4638 57.3949 61.7024 56.8949C61.9439 56.392 62.2692 56.0128 62.6783 55.7571C63.0874 55.4986 63.5433 55.3693 64.0462 55.3693C64.4297 55.3693 64.745 55.4347 64.9922 55.5653C65.2393 55.6932 65.4354 55.848 65.5803 56.0298C65.7251 56.2088 65.8374 56.3778 65.9169 56.5369H65.9808V53.2727H67.5277V62H66.0107V60.9688H65.9169C65.8374 61.1278 65.7223 61.2969 65.5717 61.4759C65.4212 61.652 65.2223 61.8026 64.9751 61.9276C64.728 62.0526 64.4169 62.1151 64.0419 62.1151ZM64.4723 60.8494C64.799 60.8494 65.0774 60.7614 65.3075 60.5852C65.5376 60.4062 65.7124 60.1577 65.8317 59.8395C65.951 59.5213 66.0107 59.1506 66.0107 58.7273C66.0107 58.304 65.951 57.9361 65.8317 57.6236C65.7152 57.3111 65.5419 57.0682 65.3118 56.8949C65.0845 56.7216 64.8047 56.6349 64.4723 56.6349C64.1286 56.6349 63.8416 56.7244 63.6115 56.9034C63.3814 57.0824 63.2081 57.3295 63.0916 57.6449C62.9751 57.9602 62.9169 58.321 62.9169 58.7273C62.9169 59.1364 62.9751 59.5014 63.0916 59.8224C63.2109 60.1406 63.3857 60.392 63.6158 60.5767C63.8487 60.7585 64.1342 60.8494 64.4723 60.8494ZM69.1715 62V55.4545H70.7141V62H69.1715ZM69.9471 54.5256C69.7028 54.5256 69.4925 54.4446 69.3164 54.2827C69.1403 54.1179 69.0522 53.9205 69.0522 53.6903C69.0522 53.4574 69.1403 53.2599 69.3164 53.098C69.4925 52.9332 69.7028 52.8509 69.9471 52.8509C70.1942 52.8509 70.4045 52.9332 70.5778 53.098C70.7539 53.2599 70.842 53.4574 70.842 53.6903C70.842 53.9205 70.7539 54.1179 70.5778 54.2827C70.4045 54.4446 70.1942 54.5256 69.9471 54.5256ZM74.1839 62.1321C73.7692 62.1321 73.3956 62.0582 73.0632 61.9105C72.7337 61.7599 72.4723 61.5384 72.2791 61.2457C72.0888 60.9531 71.9936 60.5923 71.9936 60.1634C71.9936 59.794 72.0618 59.4886 72.1982 59.2472C72.3345 59.0057 72.5206 58.8125 72.7564 58.6676C72.9922 58.5227 73.2578 58.4134 73.5533 58.3395C73.8516 58.2628 74.1598 58.2074 74.478 58.1733C74.8615 58.1335 75.1726 58.098 75.4112 58.0668C75.6499 58.0327 75.8232 57.9815 75.9311 57.9134C76.0419 57.8423 76.0973 57.733 76.0973 57.5852V57.5597C76.0973 57.2386 76.0021 56.9901 75.8118 56.8139C75.6214 56.6378 75.3473 56.5497 74.9893 56.5497C74.6115 56.5497 74.3118 56.6321 74.0902 56.7969C73.8714 56.9616 73.7237 57.1562 73.647 57.3807L72.2067 57.1761C72.3203 56.7784 72.5078 56.446 72.7692 56.179C73.0305 55.9091 73.3501 55.7074 73.728 55.5739C74.1058 55.4375 74.5234 55.3693 74.9808 55.3693C75.2962 55.3693 75.6101 55.4062 75.9226 55.4801C76.2351 55.554 76.5206 55.6761 76.7791 55.8466C77.0376 56.0142 77.245 56.2429 77.4013 56.5327C77.5604 56.8224 77.6399 57.1847 77.6399 57.6193V62H76.157V61.1009H76.1058C76.0121 61.2827 75.88 61.4531 75.7095 61.6122C75.5419 61.7685 75.3303 61.8949 75.0746 61.9915C74.8217 62.0852 74.5249 62.1321 74.1839 62.1321ZM74.5845 60.9986C74.8942 60.9986 75.1626 60.9375 75.3899 60.8153C75.6172 60.6903 75.7919 60.5256 75.9141 60.321C76.0391 60.1165 76.1016 59.8935 76.1016 59.652V58.8807C76.0533 58.9205 75.9709 58.9574 75.8544 58.9915C75.7408 59.0256 75.6129 59.0554 75.4709 59.081C75.3288 59.1065 75.1882 59.1293 75.049 59.1491C74.9098 59.169 74.7891 59.1861 74.6868 59.2003C74.4567 59.2315 74.2507 59.2827 74.0689 59.3537C73.8871 59.4247 73.7436 59.5241 73.6385 59.652C73.5334 59.777 73.4808 59.9389 73.4808 60.1378C73.4808 60.4219 73.5845 60.6364 73.7919 60.7812C73.9993 60.9261 74.2635 60.9986 74.5845 60.9986Z" fill="#F58220"/>
<path d="M89.706 56.2173H88.1122C88.0668 55.956 87.983 55.7244 87.8608 55.5227C87.7386 55.3182 87.5866 55.1449 87.4048 55.0028C87.223 54.8608 87.0156 54.7543 86.7827 54.6832C86.5526 54.6094 86.304 54.5724 86.0369 54.5724C85.5625 54.5724 85.142 54.6918 84.7756 54.9304C84.4091 55.1662 84.1222 55.5128 83.9148 55.9702C83.7074 56.4247 83.6037 56.9801 83.6037 57.6364C83.6037 58.304 83.7074 58.8665 83.9148 59.3239C84.125 59.7784 84.4119 60.1222 84.7756 60.3551C85.142 60.5852 85.5611 60.7003 86.0327 60.7003C86.294 60.7003 86.5384 60.6662 86.7656 60.598C86.9957 60.527 87.2017 60.4233 87.3835 60.2869C87.5682 60.1506 87.723 59.983 87.848 59.7841C87.9759 59.5852 88.0639 59.358 88.1122 59.1023L89.706 59.1108C89.6463 59.5256 89.517 59.9148 89.3182 60.2784C89.1222 60.642 88.8651 60.9631 88.5469 61.2415C88.2287 61.517 87.8565 61.733 87.4304 61.8892C87.0043 62.0426 86.5313 62.1193 86.0114 62.1193C85.2443 62.1193 84.5597 61.9418 83.9574 61.5866C83.3551 61.2315 82.8807 60.7188 82.5341 60.0483C82.1875 59.3778 82.0142 58.5739 82.0142 57.6364C82.0142 56.696 82.1889 55.892 82.5384 55.2244C82.8878 54.554 83.3636 54.0412 83.9659 53.6861C84.5682 53.331 85.25 53.1534 86.0114 53.1534C86.4972 53.1534 86.9489 53.2216 87.3665 53.358C87.7841 53.4943 88.1563 53.6946 88.483 53.9588C88.8097 54.2202 89.0781 54.5412 89.2884 54.9219C89.5014 55.2997 89.6406 55.7315 89.706 56.2173ZM92.6282 58.1648V62H91.0856V53.2727H92.5941V56.5668H92.6708C92.8242 56.1974 93.0614 55.9062 93.3825 55.6932C93.7063 55.4773 94.1183 55.3693 94.6183 55.3693C95.0728 55.3693 95.4691 55.4645 95.8072 55.6548C96.1452 55.8452 96.4066 56.1236 96.5913 56.4901C96.7788 56.8565 96.8725 57.304 96.8725 57.8324V62H95.3299V58.071C95.3299 57.6307 95.2163 57.2884 94.989 57.044C94.7646 56.7969 94.4492 56.6733 94.043 56.6733C93.7702 56.6733 93.5259 56.733 93.31 56.8523C93.0969 56.9687 92.9293 57.1378 92.8072 57.3594C92.6879 57.581 92.6282 57.8494 92.6282 58.1648ZM98.445 62V55.4545H99.9876V62H98.445ZM99.2205 54.5256C98.9762 54.5256 98.766 54.4446 98.5898 54.2827C98.4137 54.1179 98.3256 53.9205 98.3256 53.6903C98.3256 53.4574 98.4137 53.2599 98.5898 53.098C98.766 52.9332 98.9762 52.8509 99.2205 52.8509C99.4677 52.8509 99.6779 52.9332 99.8512 53.098C100.027 53.2599 100.115 53.4574 100.115 53.6903C100.115 53.9205 100.027 54.1179 99.8512 54.2827C99.6779 54.4446 99.4677 54.5256 99.2205 54.5256ZM103.116 53.2727V62H101.574V53.2727H103.116ZM107.132 62.1151C106.618 62.1151 106.157 61.983 105.751 61.7188C105.345 61.4545 105.024 61.071 104.788 60.5682C104.552 60.0653 104.434 59.4545 104.434 58.7358C104.434 58.0085 104.554 57.3949 104.792 56.8949C105.034 56.392 105.359 56.0128 105.768 55.7571C106.177 55.4986 106.633 55.3693 107.136 55.3693C107.52 55.3693 107.835 55.4347 108.082 55.5653C108.329 55.6932 108.525 55.848 108.67 56.0298C108.815 56.2088 108.927 56.3778 109.007 56.5369H109.071V53.2727H110.618V62H109.1V60.9688H109.007C108.927 61.1278 108.812 61.2969 108.662 61.4759C108.511 61.652 108.312 61.8026 108.065 61.9276C107.818 62.0526 107.507 62.1151 107.132 62.1151ZM107.562 60.8494C107.889 60.8494 108.167 60.7614 108.397 60.5852C108.627 60.4062 108.802 60.1577 108.922 59.8395C109.041 59.5213 109.1 59.1506 109.1 58.7273C109.1 58.304 109.041 57.9361 108.922 57.6236C108.805 57.3111 108.632 57.0682 108.402 56.8949C108.174 56.7216 107.895 56.6349 107.562 56.6349C107.218 56.6349 106.931 56.7244 106.701 56.9034C106.471 57.0824 106.298 57.3295 106.181 57.6449C106.065 57.9602 106.007 58.321 106.007 58.7273C106.007 59.1364 106.065 59.5014 106.181 59.8224C106.301 60.1406 106.475 60.392 106.706 60.5767C106.939 60.7585 107.224 60.8494 107.562 60.8494ZM119.8 56.2173H118.206C118.161 55.956 118.077 55.7244 117.955 55.5227C117.832 55.3182 117.68 55.1449 117.499 55.0028C117.317 54.8608 117.109 54.7543 116.876 54.6832C116.646 54.6094 116.398 54.5724 116.131 54.5724C115.656 54.5724 115.236 54.6918 114.869 54.9304C114.503 55.1662 114.216 55.5128 114.009 55.9702C113.801 56.4247 113.697 56.9801 113.697 57.6364C113.697 58.304 113.801 58.8665 114.009 59.3239C114.219 59.7784 114.506 60.1222 114.869 60.3551C115.236 60.5852 115.655 60.7003 116.126 60.7003C116.388 60.7003 116.632 60.6662 116.859 60.598C117.089 60.527 117.295 60.4233 117.477 60.2869C117.662 60.1506 117.817 59.983 117.942 59.7841C118.07 59.5852 118.158 59.358 118.206 59.1023L119.8 59.1108C119.74 59.5256 119.611 59.9148 119.412 60.2784C119.216 60.642 118.959 60.9631 118.641 61.2415C118.322 61.517 117.95 61.733 117.524 61.8892C117.098 62.0426 116.625 62.1193 116.105 62.1193C115.338 62.1193 114.653 61.9418 114.051 61.5866C113.449 61.2315 112.974 60.7188 112.628 60.0483C112.281 59.3778 112.108 58.5739 112.108 57.6364C112.108 56.696 112.283 55.892 112.632 55.2244C112.982 54.554 113.457 54.0412 114.06 53.6861C114.662 53.331 115.344 53.1534 116.105 53.1534C116.591 53.1534 117.043 53.2216 117.46 53.358C117.878 53.4943 118.25 53.6946 118.577 53.9588C118.903 54.2202 119.172 54.5412 119.382 54.9219C119.595 55.2997 119.734 55.7315 119.8 56.2173ZM123.063 62.1321C122.648 62.1321 122.275 62.0582 121.942 61.9105C121.613 61.7599 121.351 61.5384 121.158 61.2457C120.968 60.9531 120.873 60.5923 120.873 60.1634C120.873 59.794 120.941 59.4886 121.077 59.2472C121.213 59.0057 121.4 58.8125 121.635 58.6676C121.871 58.5227 122.137 58.4134 122.432 58.3395C122.73 58.2628 123.039 58.2074 123.357 58.1733C123.74 58.1335 124.051 58.098 124.29 58.0668C124.529 58.0327 124.702 57.9815 124.81 57.9134C124.921 57.8423 124.976 57.733 124.976 57.5852V57.5597C124.976 57.2386 124.881 56.9901 124.691 56.8139C124.5 56.6378 124.226 56.5497 123.868 56.5497C123.49 56.5497 123.191 56.6321 122.969 56.7969C122.75 56.9616 122.603 57.1562 122.526 57.3807L121.086 57.1761C121.199 56.7784 121.387 56.446 121.648 56.179C121.909 55.9091 122.229 55.7074 122.607 55.5739C122.985 55.4375 123.402 55.3693 123.86 55.3693C124.175 55.3693 124.489 55.4062 124.801 55.4801C125.114 55.554 125.4 55.6761 125.658 55.8466C125.917 56.0142 126.124 56.2429 126.28 56.5327C126.439 56.8224 126.519 57.1847 126.519 57.6193V62H125.036V61.1009H124.985C124.891 61.2827 124.759 61.4531 124.588 61.6122C124.421 61.7685 124.209 61.8949 123.953 61.9915C123.701 62.0852 123.404 62.1321 123.063 62.1321ZM123.463 60.9986C123.773 60.9986 124.042 60.9375 124.269 60.8153C124.496 60.6903 124.671 60.5256 124.793 60.321C124.918 60.1165 124.98 59.8935 124.98 59.652V58.8807C124.932 58.9205 124.85 58.9574 124.733 58.9915C124.62 59.0256 124.492 59.0554 124.35 59.081C124.208 59.1065 124.067 59.1293 123.928 59.1491C123.789 59.169 123.668 59.1861 123.566 59.2003C123.336 59.2315 123.13 59.2827 122.948 59.3537C122.766 59.4247 122.623 59.5241 122.517 59.652C122.412 59.777 122.36 59.9389 122.36 60.1378C122.36 60.4219 122.463 60.6364 122.671 60.7812C122.878 60.9261 123.142 60.9986 123.463 60.9986ZM128.07 62V55.4545H129.566V56.5455H129.634C129.753 56.1676 129.958 55.8764 130.248 55.6719C130.54 55.4645 130.874 55.3608 131.249 55.3608C131.334 55.3608 131.429 55.3651 131.534 55.3736C131.642 55.3793 131.732 55.3892 131.803 55.4034V56.8224C131.738 56.7997 131.634 56.7798 131.492 56.7628C131.353 56.7429 131.218 56.733 131.087 56.733C130.806 56.733 130.553 56.794 130.328 56.9162C130.107 57.0355 129.932 57.2017 129.804 57.4148C129.676 57.6278 129.613 57.8736 129.613 58.152V62H128.07ZM135.456 62.1278C134.8 62.1278 134.233 61.9915 133.756 61.7188C133.281 61.4432 132.916 61.054 132.661 60.5511C132.405 60.0455 132.277 59.4503 132.277 58.7656C132.277 58.0923 132.405 57.5014 132.661 56.9929C132.919 56.4815 133.28 56.0838 133.743 55.7997C134.206 55.5128 134.75 55.3693 135.375 55.3693C135.778 55.3693 136.159 55.4347 136.517 55.5653C136.878 55.6932 137.196 55.892 137.472 56.1619C137.75 56.4318 137.969 56.7756 138.128 57.1932C138.287 57.608 138.366 58.1023 138.366 58.6761V59.1491H133.001V58.1094H136.888C136.885 57.8139 136.821 57.5511 136.696 57.321C136.571 57.0881 136.396 56.9048 136.172 56.7713C135.95 56.6378 135.692 56.571 135.396 56.571C135.081 56.571 134.804 56.6477 134.565 56.8011C134.327 56.9517 134.141 57.1506 134.007 57.3977C133.876 57.642 133.81 57.9105 133.807 58.2031V59.1108C133.807 59.4915 133.876 59.8182 134.016 60.0909C134.155 60.3608 134.349 60.5682 134.599 60.7131C134.849 60.8551 135.142 60.9261 135.477 60.9261C135.702 60.9261 135.905 60.8949 136.087 60.8324C136.268 60.767 136.426 60.6719 136.56 60.5469C136.693 60.4219 136.794 60.267 136.862 60.0824L138.303 60.2443C138.212 60.625 138.038 60.9574 137.783 61.2415C137.53 61.5227 137.206 61.7415 136.811 61.8977C136.416 62.0511 135.964 62.1278 135.456 62.1278ZM150.186 56.2173H148.593C148.547 55.956 148.463 55.7244 148.341 55.5227C148.219 55.3182 148.067 55.1449 147.885 55.0028C147.703 54.8608 147.496 54.7543 147.263 54.6832C147.033 54.6094 146.784 54.5724 146.517 54.5724C146.043 54.5724 145.623 54.6918 145.256 54.9304C144.89 55.1662 144.603 55.5128 144.395 55.9702C144.188 56.4247 144.084 56.9801 144.084 57.6364C144.084 58.304 144.188 58.8665 144.395 59.3239C144.605 59.7784 144.892 60.1222 145.256 60.3551C145.623 60.5852 146.042 60.7003 146.513 60.7003C146.775 60.7003 147.019 60.6662 147.246 60.598C147.476 60.527 147.682 60.4233 147.864 60.2869C148.049 60.1506 148.203 59.983 148.328 59.7841C148.456 59.5852 148.544 59.358 148.593 59.1023L150.186 59.1108C150.127 59.5256 149.998 59.9148 149.799 60.2784C149.603 60.642 149.346 60.9631 149.027 61.2415C148.709 61.517 148.337 61.733 147.911 61.8892C147.485 62.0426 147.012 62.1193 146.492 62.1193C145.725 62.1193 145.04 61.9418 144.438 61.5866C143.836 61.2315 143.361 60.7188 143.015 60.0483C142.668 59.3778 142.495 58.5739 142.495 57.6364C142.495 56.696 142.669 55.892 143.019 55.2244C143.368 54.554 143.844 54.0412 144.446 53.6861C145.049 53.331 145.73 53.1534 146.492 53.1534C146.978 53.1534 147.429 53.2216 147.847 53.358C148.265 53.4943 148.637 53.6946 148.963 53.9588C149.29 54.2202 149.559 54.5412 149.769 54.9219C149.982 55.2997 150.121 55.7315 150.186 56.2173ZM154.464 62.1278C153.808 62.1278 153.241 61.9915 152.763 61.7188C152.289 61.4432 151.924 61.054 151.668 60.5511C151.413 60.0455 151.285 59.4503 151.285 58.7656C151.285 58.0923 151.413 57.5014 151.668 56.9929C151.927 56.4815 152.288 56.0838 152.751 55.7997C153.214 55.5128 153.758 55.3693 154.383 55.3693C154.786 55.3693 155.167 55.4347 155.525 55.5653C155.886 55.6932 156.204 55.892 156.479 56.1619C156.758 56.4318 156.977 56.7756 157.136 57.1932C157.295 57.608 157.374 58.1023 157.374 58.6761V59.1491H152.009V58.1094H155.896C155.893 57.8139 155.829 57.5511 155.704 57.321C155.579 57.0881 155.404 56.9048 155.18 56.7713C154.958 56.6378 154.7 56.571 154.404 56.571C154.089 56.571 153.812 56.6477 153.573 56.8011C153.335 56.9517 153.148 57.1506 153.015 57.3977C152.884 57.642 152.817 57.9105 152.815 58.2031V59.1108C152.815 59.4915 152.884 59.8182 153.023 60.0909C153.163 60.3608 153.357 60.5682 153.607 60.7131C153.857 60.8551 154.15 60.9261 154.485 60.9261C154.71 60.9261 154.913 60.8949 155.094 60.8324C155.276 60.767 155.434 60.6719 155.567 60.5469C155.701 60.4219 155.802 60.267 155.87 60.0824L157.31 60.2443C157.219 60.625 157.046 60.9574 156.79 61.2415C156.538 61.5227 156.214 61.7415 155.819 61.8977C155.424 62.0511 154.972 62.1278 154.464 62.1278ZM160.222 58.1648V62H158.679V55.4545H160.154V56.5668H160.23C160.381 56.2003 160.621 55.9091 160.951 55.6932C161.283 55.4773 161.694 55.3693 162.182 55.3693C162.634 55.3693 163.027 55.4659 163.363 55.6591C163.701 55.8523 163.962 56.1321 164.147 56.4986C164.334 56.8651 164.426 57.3097 164.424 57.8324V62H162.881V58.071C162.881 57.6335 162.767 57.2912 162.54 57.044C162.316 56.7969 162.005 56.6733 161.607 56.6733C161.337 56.6733 161.097 56.733 160.887 56.8523C160.679 56.9687 160.516 57.1378 160.397 57.3594C160.28 57.581 160.222 57.8494 160.222 58.1648ZM169.26 55.4545V56.6477H165.498V55.4545H169.26ZM166.426 53.8864H167.969V60.0312C167.969 60.2386 168 60.3977 168.063 60.5085C168.128 60.6165 168.213 60.6903 168.319 60.7301C168.424 60.7699 168.54 60.7898 168.668 60.7898C168.765 60.7898 168.853 60.7827 168.932 60.7685C169.015 60.7543 169.077 60.7415 169.12 60.7301L169.38 61.9361C169.297 61.9645 169.179 61.9957 169.026 62.0298C168.875 62.0639 168.691 62.0838 168.472 62.0895C168.086 62.1009 167.738 62.0426 167.428 61.9148C167.118 61.7841 166.873 61.5824 166.691 61.3097C166.512 61.0369 166.424 60.696 166.426 60.2869V53.8864ZM170.55 62V55.4545H172.046V56.5455H172.114C172.234 56.1676 172.438 55.8764 172.728 55.6719C173.021 55.4645 173.354 55.3608 173.729 55.3608C173.815 55.3608 173.91 55.3651 174.015 55.3736C174.123 55.3793 174.212 55.3892 174.283 55.4034V56.8224C174.218 56.7997 174.114 56.7798 173.972 56.7628C173.833 56.7429 173.698 56.733 173.567 56.733C173.286 56.733 173.033 56.794 172.809 56.9162C172.587 57.0355 172.413 57.2017 172.285 57.4148C172.157 57.6278 172.093 57.8736 172.093 58.152V62H170.55ZM177.936 62.1278C177.28 62.1278 176.713 61.9915 176.236 61.7188C175.762 61.4432 175.397 61.054 175.141 60.5511C174.885 60.0455 174.757 59.4503 174.757 58.7656C174.757 58.0923 174.885 57.5014 175.141 56.9929C175.4 56.4815 175.76 56.0838 176.223 55.7997C176.686 55.5128 177.23 55.3693 177.855 55.3693C178.259 55.3693 178.64 55.4347 178.998 55.5653C179.358 55.6932 179.676 55.892 179.952 56.1619C180.23 56.4318 180.449 56.7756 180.608 57.1932C180.767 57.608 180.847 58.1023 180.847 58.6761V59.1491H175.482V58.1094H179.368C179.365 57.8139 179.301 57.5511 179.176 57.321C179.051 57.0881 178.877 56.9048 178.652 56.7713C178.431 56.6378 178.172 56.571 177.877 56.571C177.561 56.571 177.284 56.6477 177.046 56.8011C176.807 56.9517 176.621 57.1506 176.488 57.3977C176.357 57.642 176.29 57.9105 176.287 58.2031V59.1108C176.287 59.4915 176.357 59.8182 176.496 60.0909C176.635 60.3608 176.83 60.5682 177.08 60.7131C177.33 60.8551 177.623 60.9261 177.958 60.9261C178.182 60.9261 178.385 60.8949 178.567 60.8324C178.749 60.767 178.907 60.6719 179.04 60.5469C179.174 60.4219 179.275 60.267 179.343 60.0824L180.783 60.2443C180.692 60.625 180.519 60.9574 180.263 61.2415C180.01 61.5227 179.686 61.7415 179.292 61.8977C178.897 62.0511 178.445 62.1278 177.936 62.1278ZM187.325 57.1847L185.919 57.3381C185.879 57.196 185.81 57.0625 185.71 56.9375C185.614 56.8125 185.483 56.7116 185.318 56.6349C185.153 56.5582 184.952 56.5199 184.713 56.5199C184.392 56.5199 184.122 56.5895 183.903 56.7287C183.688 56.8679 183.581 57.0483 183.584 57.2699C183.581 57.4602 183.651 57.6151 183.793 57.7344C183.938 57.8537 184.176 57.9517 184.509 58.0284L185.625 58.267C186.244 58.4006 186.705 58.6122 187.006 58.902C187.31 59.1918 187.463 59.571 187.466 60.0398C187.463 60.4517 187.342 60.8153 187.104 61.1307C186.868 61.4432 186.54 61.6875 186.119 61.8636C185.699 62.0398 185.216 62.1278 184.67 62.1278C183.869 62.1278 183.224 61.9602 182.736 61.625C182.247 61.2869 181.956 60.8168 181.862 60.2145L183.366 60.0696C183.435 60.3651 183.58 60.5881 183.801 60.7386C184.023 60.8892 184.311 60.9645 184.666 60.9645C185.033 60.9645 185.327 60.8892 185.548 60.7386C185.773 60.5881 185.885 60.402 185.885 60.1804C185.885 59.9929 185.813 59.8381 185.668 59.7159C185.526 59.5937 185.304 59.5 185.003 59.4347L183.886 59.2003C183.259 59.0696 182.794 58.8494 182.493 58.5398C182.192 58.2273 182.043 57.8324 182.045 57.3551C182.043 56.9517 182.152 56.6023 182.374 56.3068C182.598 56.0085 182.909 55.7784 183.307 55.6165C183.707 55.4517 184.169 55.3693 184.692 55.3693C185.459 55.3693 186.063 55.5327 186.503 55.8594C186.946 56.1861 187.22 56.6278 187.325 57.1847Z" fill="#036434"/>
</svg>
