<svg width="88" height="99" viewBox="0 0 88 99" fill="none" xmlns="http://www.w3.org/2000/svg">
<g clip-path="url(#clip0_1065_1712)">
<path d="M87.78 69.2795V23.059L47.6842 0V17.7298L63.3739 26.7484C63.9892 27.0559 63.9892 27.9783 63.3739 28.2857L44.7104 39.0466C44.1976 39.354 43.4798 39.354 42.9671 39.0466L24.3036 28.2857C23.6883 27.9783 23.6883 27.0559 24.3036 26.7484L39.9932 17.7298V0L0 23.059V69.2795L15.382 60.4658V42.3261C15.382 41.7112 16.0998 41.1988 16.7151 41.6087L35.3786 52.3696C35.8914 52.677 36.3015 53.2919 36.3015 53.9068V75.4286C36.3015 76.0435 35.5837 76.5559 34.9684 76.146L19.2788 67.1273L3.89678 75.941L43.89 99L83.8832 75.941L68.5012 67.1273L52.8116 76.146C52.2988 76.4534 51.4785 76.0435 51.4785 75.4286V53.9068C51.4785 53.2919 51.7861 52.677 52.4014 52.3696L71.0649 41.6087C71.5776 41.3012 72.398 41.7112 72.398 42.3261V60.4658L87.78 69.2795Z" fill="#CCCCCC"/>
<path d="M43.8906 99.0035L83.8839 75.9445L68.5018 67.1308L52.8122 76.1495C52.2995 76.4569 51.4791 76.047 51.4791 75.4321V53.9103C51.4791 53.2954 51.7867 52.6805 52.402 52.3731L71.0655 41.6122C71.5782 41.3047 72.3986 41.7147 72.3986 42.3296V60.4693L87.7806 69.283V23.0625L43.8906 48.3762V99.0035Z" fill="#A6A6A6"/>
<path d="M47.6842 0V17.7298L63.3739 26.7484C63.9892 27.0559 63.9892 27.9783 63.3739 28.2857L44.7104 39.0466C44.1976 39.354 43.4798 39.354 42.9671 39.0466L24.3036 28.2857C23.6883 27.9783 23.6883 27.0559 24.3036 26.7484L39.9932 17.7298V0L0 23.059L43.89 48.3727L87.78 23.059L47.6842 0Z" fill="white"/>
<path d="M34.8659 76.1495L19.1762 67.1308L3.79423 75.9445L43.7875 99.0035V48.3762L0 23.0625V69.283L15.382 60.4693V42.3296C15.382 41.7147 16.0998 41.2023 16.7151 41.6122L35.3786 52.3731C35.8914 52.6805 36.3015 53.2954 36.3015 53.9103V75.4321C36.199 76.047 35.4812 76.4569 34.8659 76.1495Z" fill="#CCCCCC"/>
</g>
<defs>
<clipPath id="clip0_1065_1712">
<rect width="87.78" height="99" fill="white"/>
</clipPath>
</defs>
</svg>
