<svg width="113" height="93" viewBox="0 0 113 93" fill="none" xmlns="http://www.w3.org/2000/svg">
<circle cx="57" cy="46" r="81" fill="#151515"/>
<path fill-rule="evenodd" clip-rule="evenodd" d="M35.5134 92.0184H26.6836V83.9297H35.3745V85.7211H29.0462V87.0985H35.037V88.7881H29.0497V90.1813H35.5134V92.0219V92.0184Z" fill="white"/>
<path fill-rule="evenodd" clip-rule="evenodd" d="M86.316 92.0075H77.625V84.0469H86.1806V85.8015H79.9542V87.156H85.8501V88.8176H79.9542V90.1897H86.316V92.0022V92.0075Z" fill="white"/>
<path fill-rule="evenodd" clip-rule="evenodd" d="M47.486 92.0184H43.9139L39.2099 85.9685H39.1642V92.0184H36.8262V83.9297H40.4562L45.1023 89.9865H45.148V83.9297H47.4912V92.0184H47.486Z" fill="white"/>
<path fill-rule="evenodd" clip-rule="evenodd" d="M75.7973 92.0184H72.2253L67.5212 85.9685H67.4755V92.0184H65.127V83.9297H68.757L73.403 89.9865H73.4488V83.9297H75.7973V92.0184Z" fill="white"/>
<path fill-rule="evenodd" clip-rule="evenodd" d="M54.3892 92.116C53.6404 92.116 52.9958 92.0973 52.4556 92.0598C51.9865 92.036 51.5208 91.9667 51.0651 91.8528C50.7311 91.7697 50.4164 91.6225 50.1387 91.4194C49.8956 91.2303 49.7045 90.9828 49.5832 90.7C49.4371 90.3575 49.3441 89.9949 49.3072 89.6245C49.2579 89.1277 49.235 88.6287 49.2387 88.1296V87.8927C49.2351 87.3899 49.2592 86.8874 49.3107 86.3872C49.3454 86.0153 49.4367 85.6509 49.5814 85.3064C49.7046 85.0247 49.8961 84.7781 50.1387 84.5888C50.4167 84.387 50.7323 84.2427 51.0669 84.1642C51.5214 84.0512 51.9859 83.9824 52.4538 83.9589C52.9988 83.9238 53.6433 83.9062 54.3875 83.9062H54.7391C55.3625 83.9062 55.9086 83.9197 56.3774 83.9466C56.783 83.9667 57.1866 84.016 57.5851 84.094C57.8765 84.1485 58.158 84.2467 58.4201 84.3853C58.6309 84.497 58.8118 84.6577 58.9474 84.8537C59.0819 85.0607 59.1722 85.293 59.2129 85.5363C59.2655 85.8428 59.2902 86.1535 59.2867 86.4644V86.775H57.0015V86.6768C57.0058 86.518 56.9765 86.3601 56.9153 86.2135C56.8438 86.076 56.7244 85.9693 56.5796 85.9135C56.3543 85.8265 56.1173 85.7733 55.8764 85.7556C55.5741 85.7263 55.1756 85.7111 54.6811 85.71H54.4807C54.0318 85.71 53.6486 85.7176 53.331 85.7328C53.0642 85.742 52.7989 85.7755 52.5382 85.8328C52.3575 85.8714 52.1868 85.9473 52.0372 86.0556C51.9092 86.1571 51.8129 86.2928 51.7595 86.4469C51.6932 86.6454 51.6542 86.852 51.6434 87.061C51.6259 87.3049 51.6171 87.5979 51.6171 87.9383V88.0822C51.6171 88.4173 51.6259 88.7033 51.6434 88.9419C51.6546 89.1469 51.6936 89.3493 51.7595 89.5438C51.813 89.6969 51.9094 89.8314 52.0372 89.9315C52.1868 90.0398 52.3575 90.1158 52.5382 90.1544C52.7989 90.2115 53.0643 90.245 53.331 90.2544C53.6486 90.2707 54.0318 90.2783 54.4807 90.2772H54.6811C55.0467 90.2772 55.3614 90.2772 55.625 90.2579C55.8887 90.2386 56.112 90.2228 56.293 90.1947C56.442 90.1739 56.5874 90.1331 56.7255 90.0736C56.8241 90.0297 56.9105 89.9622 56.9768 89.8771C57.0374 89.7959 57.0778 89.7015 57.0946 89.6017C57.1141 89.4786 57.1235 89.3542 57.1227 89.2297V89.0051H54.0131V87.4435H59.3799V89.2402C59.3837 89.5827 59.3584 89.9249 59.3043 90.2631C59.2609 90.5312 59.1679 90.7888 59.03 91.0229C58.8974 91.2367 58.7169 91.4168 58.5027 91.5493C58.2396 91.7059 57.9529 91.8191 57.6536 91.8844C57.2488 91.9756 56.8373 92.0343 56.4231 92.0598C55.945 92.0949 55.3895 92.1125 54.7531 92.1125L54.3892 92.116Z" fill="white"/>
<path fill-rule="evenodd" clip-rule="evenodd" d="M63.4042 92.029H61.0293V84H63.4042V92.029Z" fill="white"/>
<path fill-rule="evenodd" clip-rule="evenodd" d="M8.47552 79.688C7.32704 79.688 6.32036 79.657 5.45548 79.595C4.70168 79.551 3.95271 79.446 3.21595 79.2809C2.66764 79.1628 2.14143 78.9591 1.65671 78.6774C1.25931 78.4385 0.921974 78.112 0.670537 77.7229C0.411159 77.3054 0.235071 76.8419 0.151963 76.3578C0.0435811 75.7474 -0.0070345 75.1283 0.000784969 74.5084V65.3846H4.16696V73.1609C4.16696 73.6417 4.18395 74.0546 4.21794 74.3997C4.24181 74.7008 4.31115 74.9965 4.42361 75.277C4.51854 75.5094 4.67315 75.7127 4.87187 75.8665C5.10457 76.0333 5.36803 76.1526 5.64709 76.2174C6.0357 76.3156 6.43323 76.3744 6.83366 76.3929C7.30477 76.4192 7.86378 76.4332 8.51595 76.4332H8.86753C9.51794 76.4332 10.0781 76.418 10.5481 76.3876C10.9484 76.3675 11.3461 76.3117 11.7364 76.2209C12.0162 76.1584 12.2801 76.0389 12.5116 75.87C12.7078 75.7141 12.8613 75.5113 12.9581 75.2805C13.072 75.0004 13.142 74.7045 13.1655 74.4032C13.1984 74.0522 13.2148 73.6428 13.2148 73.175V65.3828H17.3827V74.5067C17.3888 75.1243 17.3417 75.7412 17.2421 76.3508C17.1649 76.836 16.9936 77.3015 16.7376 77.7211C16.4901 78.1098 16.1563 78.4364 15.7619 78.6756C15.2786 78.9577 14.7535 79.1614 14.2062 79.2792C13.4666 79.4447 12.7146 79.5497 11.9579 79.5933C11.0848 79.6541 10.0682 79.6851 8.90796 79.6862L8.47552 79.688Z" fill="white"/>
<path fill-rule="evenodd" clip-rule="evenodd" d="M38.8054 79.518H32.5755L24.3732 68.9378H24.2923V79.518H20.207V65.3672H26.5354L34.6375 75.9579H34.7166V65.3672H38.8019V79.5109L38.8054 79.518Z" fill="white"/>
<path fill-rule="evenodd" clip-rule="evenodd" d="M51.0879 72.5062C51.8068 72.5062 52.3781 72.4851 52.8053 72.4413C53.1451 72.4215 53.4763 72.3274 53.7757 72.1658C53.9896 72.0369 54.1447 71.8298 54.2081 71.5885C54.2838 71.2672 54.318 70.9376 54.31 70.6077V70.3638C54.3176 70.038 54.2833 69.7125 54.2081 69.3953C54.1774 69.2759 54.1228 69.164 54.0475 69.0663C53.9723 68.9686 53.878 68.8871 53.7704 68.8268C53.4673 68.6714 53.1349 68.5812 52.7948 68.5619C52.3676 68.518 51.7998 68.4969 51.0879 68.4969H45.8951V72.5062H51.0879ZM58.5061 79.5123H54.3892V78.3648C54.3922 78.0085 54.3757 77.6524 54.3399 77.298C54.3157 77.0351 54.2436 76.7788 54.1272 76.5417C54.023 76.3394 53.8672 76.1682 53.6755 76.0452C53.4386 75.9028 53.1776 75.8047 52.9055 75.7557C52.5172 75.679 52.1233 75.6333 51.7277 75.6188C51.259 75.5943 50.7035 75.582 50.0613 75.582H45.8951V79.5123H41.7676V65.3615H52.7596C53.7134 65.3458 54.6667 65.4175 55.6074 65.5755C56.2417 65.6724 56.8441 65.9177 57.3652 66.2914C57.7959 66.6294 58.1079 67.0951 58.2565 67.6214C58.4349 68.2883 58.5178 68.9771 58.5026 69.6672V70.1638C58.5084 70.6529 58.4648 71.1414 58.3725 71.6219C58.2985 72.0033 58.1549 72.3678 57.9489 72.6974C57.7548 72.9978 57.4975 73.2523 57.1947 73.4431C56.844 73.656 56.4593 73.8074 56.0574 73.8905V73.9713C56.4743 74.0323 56.8837 74.1364 57.2791 74.2818C57.5783 74.3911 57.8391 74.585 58.0297 74.8398C58.228 75.1298 58.3556 75.4621 58.4024 75.8101C58.4768 76.3172 58.5103 76.8294 58.5026 77.3418V79.5052L58.5061 79.5123Z" fill="white"/>
<path fill-rule="evenodd" clip-rule="evenodd" d="M76.61 79.518H61.2109V65.3672H76.3674V68.4956H65.3367V70.9012H75.7838V73.8559H65.3367V76.293H76.61V79.5109V79.518Z" fill="white"/>
<path fill-rule="evenodd" clip-rule="evenodd" d="M90.5321 74.033L87.6439 68.3568H87.542L84.6749 74.033H90.5321ZM97.8238 79.5248H93.3307L92.0316 76.9859H83.1947L81.9168 79.5248H77.457L85.0669 65.3828H90.1806L97.8238 79.5248Z" fill="white"/>
<path fill-rule="evenodd" clip-rule="evenodd" d="M113 79.5248H99.3516V65.3828H103.518V76.242H113V79.5318V79.5248Z" fill="white"/>
<path fill-rule="evenodd" clip-rule="evenodd" d="M73.5338 32.7275C73.0398 35.1067 70.8407 41.2091 63.832 44.5148L61.0194 41.3565L56.2732 46.122C53.5707 46.0857 50.9133 45.4262 48.5085 44.195C46.1037 42.9638 44.0167 41.1943 42.4105 39.0247C42.9155 39.1814 43.4369 39.2792 43.9645 39.3159C44.7415 39.33 45.5835 39.0457 45.5835 37.7368V24.8844C45.5951 24.5537 45.5288 24.2249 45.39 23.9243C45.2512 23.6238 45.0437 23.36 44.7842 23.154C44.5247 22.9481 44.2204 22.8057 43.8958 22.7384C43.5711 22.6712 43.2352 22.6808 42.915 22.7666C40.7177 23.2685 38.9598 28.7445 38.9598 28.7445C38.9354 26.2157 39.463 23.712 40.5061 21.4073C41.5492 19.1027 43.0826 17.0524 44.9999 15.3991C48.273 12.6304 51.4706 11.6724 53.9 11.2969C51.5005 12.6619 50.1505 14.8903 50.1505 16.7607C50.1505 19.7593 51.9646 19.4048 52.5025 18.9627V36.3191C52.5934 36.5372 52.7115 36.7429 52.8541 36.9315C53.0944 37.2631 53.4109 37.5325 53.777 37.7169C54.1431 37.9013 54.5482 37.9954 54.9583 37.9912C56.7759 37.9912 59.1332 35.9208 59.1332 35.9208V21.8665C59.1332 20.4365 58.0539 18.7083 56.9728 18.1187C56.9728 18.1187 58.9733 17.7678 60.5202 18.9451C60.8103 18.5905 61.1189 18.2514 61.4448 17.9292C65.0415 14.4025 68.4359 13.4024 71.2626 12.9006C71.2626 12.9006 66.1173 16.9361 66.1173 22.3403C66.1173 26.3636 66.221 36.1735 66.221 36.1735C68.1353 38.0088 70.9708 35.3593 73.5338 32.7275Z" fill="white"/>
<path fill-rule="evenodd" clip-rule="evenodd" d="M56.4999 2.15228e-07C50.8304 0.000347251 45.2883 1.67876 40.5744 4.82299C35.8605 7.96722 32.1866 12.436 30.0173 17.6644C27.848 22.8927 27.2807 28.6457 28.3871 34.1958C29.4935 39.7459 32.224 44.844 36.2332 48.8452C40.2424 52.8464 45.3503 55.5711 50.911 56.6748C56.4717 57.7785 62.2354 57.2115 67.4732 55.0456C72.7111 52.8797 77.1878 49.2121 80.3374 44.5067C83.4869 39.8013 85.1678 34.2693 85.1674 28.6104C85.1674 24.8529 84.4259 21.1322 82.9852 17.6608C81.5445 14.1894 79.4328 11.0353 76.7707 8.37854C74.1086 5.72178 70.9483 3.61443 67.4702 2.17683C63.9922 0.739228 60.2644 -0.000460653 56.4999 2.15228e-07ZM56.4999 56.0785C51.057 56.0788 45.7362 54.4682 41.2104 51.4501C36.6846 48.4321 33.157 44.1423 31.0739 39.1232C28.9907 34.1041 28.4455 28.5811 29.5071 23.2527C30.5688 17.9243 33.1896 13.0298 37.0383 9.18809C40.8869 5.34643 45.7904 2.73017 51.1287 1.67016C56.467 0.610154 62.0004 1.15401 67.0291 3.23296C72.0577 5.3119 76.3558 8.83256 79.3798 13.3497C82.4037 17.8669 84.0178 23.1776 84.0178 28.6104C84.0178 35.8951 81.1186 42.8814 75.9581 48.0326C70.7975 53.1839 63.7983 56.078 56.4999 56.0785Z" fill="white"/>
</svg>
