<svg width="40" height="40" viewBox="0 0 40 40" fill="none" xmlns="http://www.w3.org/2000/svg">
<g clip-path="url(#clip0_921_1088)">
<path d="M20 0C14.6957 0 9.60859 2.10714 5.85786 5.85786C2.10714 9.60859 0 14.6957 0 20C0 25.3043 2.10714 30.3914 5.85786 34.1421C9.60859 37.8929 14.6957 40 20 40C25.3043 40 30.3914 37.8929 34.1421 34.1421C37.8929 30.3914 40 25.3043 40 20C40 14.6957 37.8929 9.60859 34.1421 5.85786C30.3914 2.10714 25.3043 0 20 0ZM27.0833 1.86667C27.6167 1.86667 28.1667 1.91667 28.5167 2.03333C24.9 2.78333 22.0167 6.15 22.0333 10C22.0333 10.0833 22.0333 10.1833 22.05 10.2833C28.1167 11.7667 30.8333 15.4167 30.8333 20.4667C30.9 25.5167 26.9 31.0667 20.15 31.0833C14.7 31.1 9.01667 26.4333 8.98333 18.95C8.96667 14 11.6667 9.23333 15.0667 6.41667C18.4 3.65 22.95 1.88333 27.0833 1.86667Z" fill="#E60000"/>
</g>
<defs>
<clipPath id="clip0_921_1088">
<rect width="40" height="40" fill="white"/>
</clipPath>
</defs>
</svg>
