<svg width="74" height="91" viewBox="0 0 74 91" fill="none" xmlns="http://www.w3.org/2000/svg">
<path d="M31.7254 29.9197L31.6035 29.8763V18.6355L31.7298 18.5226L31.7733 18.4531L73.4098 45.3735L31.7211 29.9327L31.7254 29.9197ZM31.7254 60.8447L31.7211 60.8317L73.4098 45.3909L31.769 72.3113L31.7298 72.2505H31.6035V60.8881L31.7254 60.8447Z" fill="#001717"/>
<path d="M50.9235 0.632812L73.4094 45.3742L31.773 18.4538L31.7207 18.419L31.7294 18.3973L50.7885 0.758771L50.9235 0.632812ZM73.4094 45.3916L50.9235 90.1329L50.7972 90.0113L31.7294 72.3684L31.7207 72.3467L31.7686 72.312L73.4094 45.3916Z" fill="#015051"/>
<path d="M31.7202 18.4198L31.7724 18.4546L31.7289 18.5241H1.23526L0.960938 18.4198L8.57673 0.742188L8.61592 0.759561H50.788L31.7289 18.3981L31.7202 18.4198ZM31.7289 18.5241L31.6026 18.637V18.5241H31.7289ZM31.7289 72.2519L31.7681 72.3127L31.7202 72.3475L31.7289 72.3692L50.7967 90.0121H8.61592L8.57673 90.0295L0.960938 72.3475L1.21785 72.2519H31.4676L31.6026 72.3779V72.2519H31.7289Z" fill="#016B6B"/>
<path d="M31.7211 29.9393L73.4098 45.3801V45.3974L31.7211 60.8382L31.7254 60.8513L31.6035 60.8947V29.8828L31.7254 29.9262L31.7211 29.9393Z" fill="#015051"/>
<path d="M31.6018 72.25V72.376L31.4668 72.25H31.6018Z" fill="#016B6B"/>
<path d="M31.6019 60.8906V72.253H31.4669L22.793 64.1829L31.6019 60.8906Z" fill="#002122"/>
<path d="M31.6015 60.851V60.8901L22.7926 64.1824L2.79297 45.4102V45.3581L22.7926 26.5859L31.6015 29.8782V45.4189V60.851Z" fill="#016B6B"/>
<path d="M31.6019 18.6328V29.8735L22.793 26.5812L31.6019 18.6328Z" fill="#002122"/>
<path d="M31.6035 18.5234V18.6364L22.7946 26.5848L1.23617 18.5234H31.6035ZM31.4685 72.2513H1.21875L22.7946 64.1813L31.4685 72.2513Z" fill="#013535"/>
</svg>
