<svg width="35" height="25" viewBox="0 0 35 25" fill="none" xmlns="http://www.w3.org/2000/svg">
<path d="M11.837 4.96251C12.2649 4.96251 12.6928 4.96616 13.1207 4.96105C13.3298 4.95813 13.3862 5.01073 13.2665 5.2383C12.57 6.56246 11.8851 7.8943 11.194 9.22211C10.7105 10.1499 10.2249 11.0762 9.73708 12.0012C9.64768 12.1711 9.67077 12.327 9.75358 12.4845C10.5846 14.0695 11.417 15.6533 12.2464 17.2394C12.5859 17.8882 12.9121 18.5457 13.2579 19.1904C13.3783 19.4151 13.3104 19.4885 13.1127 19.4874C12.2474 19.483 11.3824 19.4709 10.517 19.4651C10.3827 19.464 10.3029 19.3891 10.2402 19.2686C9.36164 17.5784 8.4821 15.8886 7.6019 14.1995C7.29309 13.605 6.98198 13.0121 6.66858 12.4206C6.60523 12.3011 6.57257 12.1996 6.64383 12.064C7.83976 9.78465 9.03338 7.50381 10.2227 5.22004C10.3025 5.06662 10.4055 5.01548 10.5543 5.01657C10.9818 5.02023 11.4094 5.01804 11.837 5.01804V4.96251Z" fill="black"/>
<path d="M22.3027 5.01466C22.7305 5.01466 23.1584 5.01795 23.586 5.01284C23.7493 5.01101 23.8489 5.07859 23.9334 5.24151C25.0294 7.3514 26.1174 9.46677 27.2441 11.5566C27.503 12.0377 27.5199 12.3861 27.252 12.8749C26.3721 14.4789 25.5447 16.1179 24.6968 17.7434C24.4355 18.2442 24.1706 18.7428 23.9143 19.2469C23.839 19.3949 23.7434 19.4636 23.5886 19.4643C22.752 19.4683 21.9153 19.4836 21.0787 19.4847C20.794 19.4851 20.7666 19.4267 20.9108 19.1476C21.6462 17.7231 22.3844 16.3003 23.1251 14.8792C23.5464 14.0716 23.9737 13.2676 24.3996 12.4632C24.4999 12.274 24.4623 12.1151 24.3653 11.9295C23.2094 9.72135 22.0574 7.51076 20.9091 5.29776C20.7474 4.9869 20.762 4.96316 21.0767 4.9617C21.4851 4.96024 21.8939 4.96133 22.3027 4.96133V5.01466Z" fill="black"/>
<path d="M34.4096 11.2107C34.4152 10.9397 34.3304 10.8403 34.082 10.8217C33.3034 10.7636 32.5809 10.5218 31.9636 9.96034C31.9494 9.94719 31.9392 9.93331 31.9257 9.92016C31.7851 9.65131 31.6433 9.38356 31.5027 9.11471C31.4955 9.05772 31.4836 9.00439 31.4823 8.94156H31.412C30.8947 7.94908 30.3784 6.95587 29.8607 5.96375C28.9017 4.1249 27.9334 2.29226 26.9902 0.443546C26.8229 0.115885 26.6204 0.0399051 26.3116 0.0413663C24.1028 0.0515943 21.8944 0.0450193 19.6856 0.0486721C19.2838 0.0490374 18.8872 -0.0777167 18.4755 0.076434C18.3063 0.139994 18.2188 0.209763 18.1984 0.373411C18.1205 0.989649 17.9608 1.58507 17.8401 2.18998C17.7866 2.45883 17.7289 2.72695 17.6748 2.99544H24.6297V2.99799C24.757 2.99726 24.884 2.99836 25.0114 2.99799C25.1724 2.99726 25.272 3.03744 25.3581 3.2084C25.7738 4.03212 26.2066 4.84561 26.6326 5.66312C27.7312 7.77118 28.8261 9.88108 29.932 11.9844C30.031 12.1725 30.0201 12.3044 29.9254 12.4797C29.6077 13.0682 29.3035 13.6658 28.9934 14.2598C27.7968 16.5527 26.5953 18.8426 25.4096 21.1428C25.2829 21.3883 25.1433 21.4504 24.9061 21.449C23.1913 21.4387 21.4764 21.4486 19.7615 21.4376H19.6793C19.4091 21.4362 19.3306 21.533 19.3369 21.8252C19.3531 22.5678 19.3524 23.3119 19.3372 24.0549C19.3316 24.3183 19.4164 24.3786 19.6381 24.3767C20.7862 24.3661 21.9343 24.372 23.0824 24.372C24.2308 24.372 25.3789 24.3709 26.527 24.3731C26.6787 24.3734 26.7965 24.3581 26.8882 24.1809C27.8166 22.3848 28.7549 20.5949 29.6895 18.8028C30.287 17.6573 30.8835 16.5114 31.4809 15.3662H31.4816V15.3651C31.6789 14.9863 31.8775 14.609 32.0754 14.2309C32.667 13.7239 33.3769 13.5372 34.1143 13.4379C34.3657 13.4043 34.4112 13.2954 34.4082 13.0587C34.4003 12.4428 34.3967 11.8266 34.4096 11.2107Z" fill="black"/>
<path d="M13.5355 21.4485C12.0859 21.4445 10.6359 21.4438 9.18631 21.4492C9.01047 21.45 8.91017 21.386 8.81912 21.2103C7.2958 18.2719 5.76633 15.3375 4.23071 12.4069C4.15516 12.2627 4.15747 12.1797 4.23005 12.0413C5.746 9.14786 7.26161 6.25406 8.75875 3.34858C8.90556 3.06402 9.05962 2.99717 9.32982 2.99936C9.53206 3.00046 9.73429 2.99973 9.93653 3.00083V2.99863H14.6239C14.8212 2.97306 14.9099 2.8664 14.9053 2.59828C14.8931 1.87666 14.8931 1.15485 14.9053 0.433229C14.9096 0.154516 14.8149 0.0474872 14.5652 0.0478525C12.269 0.0526012 9.97282 0.0515054 7.67631 0.0489484C7.49156 0.0485832 7.37444 0.126755 7.28074 0.309398C6.62717 1.58757 5.96833 2.86243 5.30424 4.13394C4.23599 6.17954 3.16444 8.22332 2.09289 10.2671C1.55381 10.6357 0.934568 10.7865 0.29553 10.8727C0.0441372 10.9067 -0.00139082 11.0152 0.00157838 11.2519C0.0116958 11.8679 0.011256 12.484 0.000258833 13.0999C-0.00534966 13.3713 0.0794376 13.4703 0.327861 13.4889C0.92632 13.5335 1.4908 13.6884 2.00051 14.0116L3.51843 16.9211C4.76847 19.3163 6.02081 21.7097 7.2659 24.1078C7.36487 24.2981 7.47473 24.3799 7.67862 24.3796C10.3248 24.3726 12.9714 24.3726 15.6179 24.3788C15.8317 24.3796 15.9248 24.3039 15.9742 24.0676C16.157 23.191 16.3431 22.3153 16.5324 21.4405H13.6428C13.6073 21.4463 13.5714 21.449 13.5355 21.4485Z" fill="black"/>
<path d="M19.9645 5.06738H17.2453C17.1797 5.38299 17.1173 5.69969 17.0507 6.0153C16.734 7.51809 16.4031 9.01759 16.0864 10.5207C15.8181 11.7945 15.5667 13.0734 15.2982 14.3471C14.9835 15.8393 14.6578 17.3286 14.3378 18.8193L14.2207 19.3629H16.9887C17.2476 18.1698 17.4726 16.9669 17.7178 15.7695C18.0365 14.2112 18.3532 12.6525 18.6798 11.0964C18.9998 9.57246 19.3323 8.05177 19.657 6.52889C19.7609 6.04197 19.8615 5.55431 19.9645 5.06738Z" fill="black"/>
</svg>
