<svg width="55" height="55" viewBox="0 0 55 55" fill="none" xmlns="http://www.w3.org/2000/svg">
<rect x="1.29157" y="0.755432" width="52.8803" height="52.8803" rx="26.4401" stroke="white" stroke-width="1.51086"/>
<g clip-path="url(#clip0_311_1462)">
<path d="M27.7367 21.7656C24.7338 21.7656 22.3117 24.1877 22.3117 27.1906C22.3117 30.1934 24.7338 32.6155 27.7367 32.6155C30.7395 32.6155 33.1616 30.1934 33.1616 27.1906C33.1616 24.1877 30.7395 21.7656 27.7367 21.7656ZM27.7367 30.7175C25.7961 30.7175 24.2097 29.1358 24.2097 27.1906C24.2097 25.2453 25.7914 23.6636 27.7367 23.6636C29.6819 23.6636 31.2636 25.2453 31.2636 27.1906C31.2636 29.1358 29.6772 30.7175 27.7367 30.7175ZM34.6489 21.5437C34.6489 22.2472 34.0823 22.809 33.3835 22.809C32.68 22.809 32.1182 22.2425 32.1182 21.5437C32.1182 20.8449 32.6847 20.2783 33.3835 20.2783C34.0823 20.2783 34.6489 20.8449 34.6489 21.5437ZM38.2419 22.8279C38.1616 21.1329 37.7745 19.6315 36.5327 18.3945C35.2957 17.1575 33.7943 16.7703 32.0993 16.6853C30.3523 16.5862 25.1163 16.5862 23.3693 16.6853C21.679 16.7656 20.1776 17.1527 18.9359 18.3898C17.6941 19.6268 17.3117 21.1282 17.2267 22.8232C17.1276 24.5701 17.1276 29.8062 17.2267 31.5532C17.307 33.2482 17.6941 34.7496 18.9359 35.9866C20.1776 37.2236 21.6743 37.6108 23.3693 37.6958C25.1163 37.7949 30.3523 37.7949 32.0993 37.6958C33.7943 37.6155 35.2957 37.2284 36.5327 35.9866C37.7697 34.7496 38.1569 33.2482 38.2419 31.5532C38.341 29.8062 38.341 24.5749 38.2419 22.8279ZM35.985 33.4276C35.6168 34.353 34.9038 35.0659 33.9737 35.4389C32.5809 35.9913 29.2759 35.8639 27.7367 35.8639C26.1975 35.8639 22.8877 35.9866 21.4996 35.4389C20.5742 35.0707 19.8613 34.3577 19.4883 33.4276C18.9359 32.0348 19.0634 28.7297 19.0634 27.1906C19.0634 25.6514 18.9406 22.3416 19.4883 20.9535C19.8566 20.0281 20.5695 19.3152 21.4996 18.9422C22.8924 18.3898 26.1975 18.5172 27.7367 18.5172C29.2759 18.5172 32.5856 18.3945 33.9737 18.9422C34.8991 19.3105 35.612 20.0234 35.985 20.9535C36.5374 22.3463 36.41 25.6514 36.41 27.1906C36.41 28.7297 36.5374 32.0395 35.985 33.4276Z" fill="white"/>
</g>
<defs>
<clipPath id="clip0_311_1462">
<rect width="21.1521" height="24.1738" fill="white" transform="translate(17.1553 15.1084)"/>
</clipPath>
</defs>
</svg>
